  0
SECTION
  2
HEADER
  9
$ACADVER
  1
AC1009
  9
$INSBASE
 10
0.0
 20
0.0
 30
0.0
  9
$EXTMIN
 10
0.0
 20
0.0
 30
0.0
  9
$EXTMAX
 10
100.0
 20
100.0
 30
0.0
  9
$UNITMODE
 70
0
  9
$AUNITS
 70
0
  9
$ANGBASE
 50
0.0
  9
$ANGDIR
 70
0
  9
$INSUNITS
 70
4
  0
ENDSEC
  0
SECTION
  2
TABLES
  0
TABLE
  2
LTYPE
 70
19
  0
LTYPE
  2
CONTINUOUS
 70
0
  3
Solid
 72
65
 73
0
 40
0.0
  0
LTYPE
  2
CENTER
 70
0
  3
Center ____ _ ____ _ ____ _ ____ _ ____ _ ____
 72
65
 73
4
 40
2.0
 49
1.25
 49
-0.25
 49
0.25
 49
-0.25
  0
LTYPE
  2
CENTERX2
 70
0
  3
Center (2x) ________  __  ________  __  ________
 72
65
 73
4
 40
3.5
 49
2.5
 49
-0.25
 49
0.5
 49
-0.25
  0
LTYPE
  2
CENTER2
 70
0
  3
Center (.5x) ____ _ ____ _ ____ _ ____ _ ____
 72
65
 73
4
 40
1.0
 49
0.625
 49
-0.125
 49
0.125
 49
-0.125
  0
LTYPE
  2
DASHED
 70
0
  3
Dashed __ __ __ __ __ __ __ __ __ __ __ __ __ _
 72
65
 73
2
 40
0.6
 49
0.5
 49
-0.1
  0
LTYPE
  2
DASHEDX2
 70
0
  3
Dashed (2x) ____  ____  ____  ____  ____  ____
 72
65
 73
2
 40
1.2
 49
1.0
 49
-0.2
  0
LTYPE
  2
DASHED2
 70
0
  3
Dashed (.5x) _ _ _ _ _ _ _ _ _ _ _ _ _ _
 72
65
 73
2
 40
0.3
 49
0.25
 49
-0.05
  0
LTYPE
  2
PHANTOM
 70
0
  3
Phantom ______  __  __  ______  __  __  ______
 72
65
 73
6
 40
2.5
 49
1.25
 49
-0.25
 49
0.25
 49
-0.25
 49
0.25
 49
-0.25
  0
LTYPE
  2
PHANTOMX2
 70
0
  3
Phantom (2x)____________    ____    ____    ____________
 72
65
 73
6
 40
4.25
 49
2.5
 49
-0.25
 49
0.5
 49
-0.25
 49
0.5
 49
-0.25
  0
LTYPE
  2
PHANTOM2
 70
0
  3
Phantom (.5x) ___ _ _ ___ _ _ ___ _ _ ___ _ _ ___
 72
65
 73
6
 40
1.25
 49
0.625
 49
-0.125
 49
0.125
 49
-0.125
 49
0.125
 49
-0.125
  0
LTYPE
  2
DASHDOT
 70
0
  3
Dash dot __ . __ . __ . __ . __ . __ . __ . __
 72
65
 73
4
 40
1.4
 49
1.0
 49
-0.2
 49
0.0
 49
-0.2
  0
LTYPE
  2
DASHDOTX2
 70
0
  3
Dash dot (2x) ____  .  ____  .  ____  .  ____
 72
65
 73
4
 40
2.4
 49
2.0
 49
-0.2
 49
0.0
 49
-0.2
  0
LTYPE
  2
DASHDOT2
 70
0
  3
Dash dot (.5x) _ . _ . _ . _ . _ . _ . _ . _
 72
65
 73
4
 40
0.7
 49
0.5
 49
-0.1
 49
0.0
 49
-0.1
  0
LTYPE
  2
DOT
 70
0
  3
Dot .  .  .  .  .  .  .  .  .  .  .  .  .  .  .  .
 72
65
 73
2
 40
0.2
 49
0.0
 49
-0.2
  0
LTYPE
  2
DOTX2
 70
0
  3
Dot (2x) .    .    .    .    .    .    .    . 
 72
65
 73
2
 40
0.4
 49
0.0
 49
-0.4
  0
LTYPE
  2
DOT2
 70
0
  3
Dot (.5) . . . . . . . . . . . . . . . . . . . 
 72
65
 73
2
 40
0.1
 49
0.0
 49
-0.1
  0
LTYPE
  2
DIVIDE
 70
0
  3
Divide __ . . __ . . __ . . __ . . __ . . __
 72
65
 73
6
 40
1.6
 49
1.0
 49
-0.2
 49
0.0
 49
-0.2
 49
0.0
 49
-0.2
  0
LTYPE
  2
DIVIDEX2
 70
0
  3
Divide (2x) ____  . .  ____  . .  ____  . .  ____
 72
65
 73
6
 40
2.6
 49
2.0
 49
-0.2
 49
0.0
 49
-0.2
 49
0.0
 49
-0.2
  0
LTYPE
  2
DIVIDE2
 70
0
  3
Divide(.5x) _ . _ . _ . _ . _ . _ . _ . _
 72
65
 73
6
 40
0.8
 49
0.5
 49
-0.1
 49
0.0
 49
-0.1
 49
0.0
 49
-0.1
  0
ENDTAB
  0
TABLE
  2
LAYER
 70
7
  0
LAYER
  2
DIMENSIONS
 70
0
 62
1
  6
CONTINUOUS
  0
LAYER
  2
TABLEBACKGROUND
 70
0
 62
1
  6
CONTINUOUS
  0
LAYER
  2
TABLECONTENT
 70
0
 62
1
  6
CONTINUOUS
  0
LAYER
  2
TABLEGRID
 70
0
 62
1
  6
CONTINUOUS
  0
LAYER
  2
VIEWPORTS
 70
0
 62
7
  6
CONTINUOUS
  0
LAYER
  2
CUT
 70
0
 62
7
  6
CONTINUOUS
  0
LAYER
  2
SCAN
 70
0
 62
5
  6
CONTINUOUS
  0
ENDTAB
  0
TABLE
  2
STYLE
 70
12
  0
STYLE
  2
STANDARD
 70
0
 40
0.0
 41
1.0
 42
1.0
 50
0.0
 71
0
  3
arial.ttf
  4

  0
STYLE
  2
ARIAL
 70
0
 40
0.0
 41
1.0
 42
1.0
 50
0.0
 71
0
  3
arial.ttf
  4

  0
STYLE
  2
ARIAL_BOLD
 70
0
 40
0.0
 41
1.0
 42
1.0
 50
0.0
 71
0
  3
arialbd.ttf
  4

  0
STYLE
  2
ARIAL_ITALIC
 70
0
 40
0.0
 41
1.0
 42
1.0
 50
0.0
 71
0
  3
ariali.ttf
  4

  0
STYLE
  2
ARIAL_BOLD_ITALIC
 70
0
 40
0.0
 41
1.0
 42
1.0
 50
0.0
 71
0
  3
arialbi.ttf
  4

  0
STYLE
  2
ARIAL_BLACK
 70
0
 40
0.0
 41
1.0
 42
1.0
 50
0.0
 71
0
  3
ariblk.ttf
  4

  0
STYLE
  2
ISOCPEUR
 70
0
 40
0.0
 41
1.0
 42
1.0
 50
0.0
 71
0
  3
isocpeur.ttf
  4

  0
STYLE
  2
ISOCPEUR_ITALIC
 70
0
 40
0.0
 41
1.0
 42
1.0
 50
0.0
 71
0
  3
isocpeui.ttf
  4

  0
STYLE
  2
TIMES
 70
0
 40
0.0
 41
1.0
 42
1.0
 50
0.0
 71
0
  3
times.ttf
  4

  0
STYLE
  2
TIMES_BOLD
 70
0
 40
0.0
 41
1.0
 42
1.0
 50
0.0
 71
0
  3
timesbd.ttf
  4

  0
STYLE
  2
TIMES_ITALIC
 70
0
 40
0.0
 41
1.0
 42
1.0
 50
0.0
 71
0
  3
timesi.ttf
  4

  0
STYLE
  2
TIMES_BOLD_ITALIC
 70
0
 40
0.0
 41
1.0
 42
1.0
 50
0.0
 71
0
  3
timesbi.ttf
  4

  0
ENDTAB
  0
TABLE
  2
VIEW
 70
0
  0
ENDTAB
  0
TABLE
  2
APPID
 70
1
  0
APPID
  2
DXFWRITE
 70
0
  0
ENDTAB
  0
TABLE
  2
VPORT
 70
0
  0
ENDTAB
  0
TABLE
  2
UCS
 70
0
  0
ENDTAB
  0
ENDSEC
  0
SECTION
  2
BLOCKS
  0
ENDSEC
  0
SECTION
  2
ENTITIES
  0
VIEWPORT
  8
VIEWPORTS
 67
1
 10
0.0
 20
0.0
 30
0.0
 40
1.0
 41
1.0
 68
1
 69
1
1001
ACAD
1000
MVIEW
1002
{
1070
16
1010
0.0
1020
0.0
1030
0.0
1010
0.0
1020
0.0
1030
0.0
1040
0.0
1040
1.0
1040
0.0
1040
0.0
1040
50.0
1040
0.0
1040
0.0
1070
0
1070
100
1070
1
1070
3
1070
0
1070
0
1070
0
1070
0
1040
0.0
1040
0.0
1040
0.0
1040
0.1
1040
0.1
1040
0.1
1040
0.1
1070
0
1002
{
1002
}
1002
}
  0
POLYLINE
 62
256
  8
CUT
 66
1
 10
0.0
 20
0.0
 30
0.0
 70
9
  0
VERTEX
  8
CUT
 10
0.0
 20
0.0
 30
0.0
  0
VERTEX
  8
CUT
 10
310.0
 20
0.0
 30
0.0
  0
VERTEX
  8
CUT
 10
310.0
 20
30.0
 30
0.0
  0
VERTEX
  8
CUT
 10
0.0
 20
30.0
 30
0.0
  0
SEQEND
  0
POLYLINE
 62
256
  8
SCAN
 66
1
 10
0.0
 20
0.0
 30
0.0
 70
9
  0
VERTEX
  8
SCAN
 10
5.0
 20
20.0
 30
0.0
  0
VERTEX
  8
SCAN
 10
5.25
 20
20.0
 30
0.0
  0
VERTEX
  8
SCAN
 10
5.25
 20
30.0
 30
0.0
  0
VERTEX
  8
SCAN
 10
5.0
 20
30.0
 30
0.0
  0
SEQEND
  0
POLYLINE
 62
256
  8
SCAN
 66
1
 10
0.0
 20
0.0
 30
0.0
 70
9
  0
VERTEX
  8
SCAN
 10
6.0
 20
27.5
 30
0.0
  0
VERTEX
  8
SCAN
 10
6.25
 20
27.5
 30
0.0
  0
VERTEX
  8
SCAN
 10
6.25
 20
30.0
 30
0.0
  0
VERTEX
  8
SCAN
 10
6.0
 20
30.0
 30
0.0
  0
SEQEND
  0
POLYLINE
 62
256
  8
SCAN
 66
1
 10
0.0
 20
0.0
 30
0.0
 70
9
  0
VERTEX
  8
SCAN
 10
7.0
 20
27.5
 30
0.0
  0
VERTEX
  8
SCAN
 10
7.25
 20
27.5
 30
0.0
  0
VERTEX
  8
SCAN
 10
7.25
 20
30.0
 30
0.0
  0
VERTEX
  8
SCAN
 10
7.0
 20
30.0
 30
0.0
  0
SEQEND
  0
POLYLINE
 62
256
  8
SCAN
 66
1
 10
0.0
 20
0.0
 30
0.0
 70
9
  0
VERTEX
  8
SCAN
 10
8.0
 20
27.5
 30
0.0
  0
VERTEX
  8
SCAN
 10
8.25
 20
27.5
 30
0.0
  0
VERTEX
  8
SCAN
 10
8.25
 20
30.0
 30
0.0
  0
VERTEX
  8
SCAN
 10
8.0
 20
30.0
 30
0.0
  0
SEQEND
  0
POLYLINE
 62
256
  8
SCAN
 66
1
 10
0.0
 20
0.0
 30
0.0
 70
9
  0
VERTEX
  8
SCAN
 10
9.0
 20
27.5
 30
0.0
  0
VERTEX
  8
SCAN
 10
9.25
 20
27.5
 30
0.0
  0
VERTEX
  8
SCAN
 10
9.25
 20
30.0
 30
0.0
  0
VERTEX
  8
SCAN
 10
9.0
 20
30.0
 30
0.0
  0
SEQEND
  0
POLYLINE
 62
256
  8
SCAN
 66
1
 10
0.0
 20
0.0
 30
0.0
 70
9
  0
VERTEX
  8
SCAN
 10
10.0
 20
25.0
 30
0.0
  0
VERTEX
  8
SCAN
 10
10.25
 20
25.0
 30
0.0
  0
VERTEX
  8
SCAN
 10
10.25
 20
30.0
 30
0.0
  0
VERTEX
  8
SCAN
 10
10.0
 20
30.0
 30
0.0
  0
SEQEND
  0
POLYLINE
 62
256
  8
SCAN
 66
1
 10
0.0
 20
0.0
 30
0.0
 70
9
  0
VERTEX
  8
SCAN
 10
11.0
 20
27.5
 30
0.0
  0
VERTEX
  8
SCAN
 10
11.25
 20
27.5
 30
0.0
  0
VERTEX
  8
SCAN
 10
11.25
 20
30.0
 30
0.0
  0
VERTEX
  8
SCAN
 10
11.0
 20
30.0
 30
0.0
  0
SEQEND
  0
POLYLINE
 62
256
  8
SCAN
 66
1
 10
0.0
 20
0.0
 30
0.0
 70
9
  0
VERTEX
  8
SCAN
 10
12.0
 20
27.5
 30
0.0
  0
VERTEX
  8
SCAN
 10
12.25
 20
27.5
 30
0.0
  0
VERTEX
  8
SCAN
 10
12.25
 20
30.0
 30
0.0
  0
VERTEX
  8
SCAN
 10
12.0
 20
30.0
 30
0.0
  0
SEQEND
  0
POLYLINE
 62
256
  8
SCAN
 66
1
 10
0.0
 20
0.0
 30
0.0
 70
9
  0
VERTEX
  8
SCAN
 10
13.0
 20
27.5
 30
0.0
  0
VERTEX
  8
SCAN
 10
13.25
 20
27.5
 30
0.0
  0
VERTEX
  8
SCAN
 10
13.25
 20
30.0
 30
0.0
  0
VERTEX
  8
SCAN
 10
13.0
 20
30.0
 30
0.0
  0
SEQEND
  0
POLYLINE
 62
256
  8
SCAN
 66
1
 10
0.0
 20
0.0
 30
0.0
 70
9
  0
VERTEX
  8
SCAN
 10
14.0
 20
27.5
 30
0.0
  0
VERTEX
  8
SCAN
 10
14.25
 20
27.5
 30
0.0
  0
VERTEX
  8
SCAN
 10
14.25
 20
30.0
 30
0.0
  0
VERTEX
  8
SCAN
 10
14.0
 20
30.0
 30
0.0
  0
SEQEND
  0
POLYLINE
 62
256
  8
SCAN
 66
1
 10
0.0
 20
0.0
 30
0.0
 70
9
  0
VERTEX
  8
SCAN
 10
15.0
 20
20.0
 30
0.0
  0
VERTEX
  8
SCAN
 10
15.25
 20
20.0
 30
0.0
  0
VERTEX
  8
SCAN
 10
15.25
 20
30.0
 30
0.0
  0
VERTEX
  8
SCAN
 10
15.0
 20
30.0
 30
0.0
  0
SEQEND
  0
POLYLINE
 62
256
  8
SCAN
 66
1
 10
0.0
 20
0.0
 30
0.0
 70
9
  0
VERTEX
  8
SCAN
 10
16.0
 20
27.5
 30
0.0
  0
VERTEX
  8
SCAN
 10
16.25
 20
27.5
 30
0.0
  0
VERTEX
  8
SCAN
 10
16.25
 20
30.0
 30
0.0
  0
VERTEX
  8
SCAN
 10
16.0
 20
30.0
 30
0.0
  0
SEQEND
  0
POLYLINE
 62
256
  8
SCAN
 66
1
 10
0.0
 20
0.0
 30
0.0
 70
9
  0
VERTEX
  8
SCAN
 10
17.0
 20
27.5
 30
0.0
  0
VERTEX
  8
SCAN
 10
17.25
 20
27.5
 30
0.0
  0
VERTEX
  8
SCAN
 10
17.25
 20
30.0
 30
0.0
  0
VERTEX
  8
SCAN
 10
17.0
 20
30.0
 30
0.0
  0
SEQEND
  0
POLYLINE
 62
256
  8
SCAN
 66
1
 10
0.0
 20
0.0
 30
0.0
 70
9
  0
VERTEX
  8
SCAN
 10
18.0
 20
27.5
 30
0.0
  0
VERTEX
  8
SCAN
 10
18.25
 20
27.5
 30
0.0
  0
VERTEX
  8
SCAN
 10
18.25
 20
30.0
 30
0.0
  0
VERTEX
  8
SCAN
 10
18.0
 20
30.0
 30
0.0
  0
SEQEND
  0
POLYLINE
 62
256
  8
SCAN
 66
1
 10
0.0
 20
0.0
 30
0.0
 70
9
  0
VERTEX
  8
SCAN
 10
19.0
 20
27.5
 30
0.0
  0
VERTEX
  8
SCAN
 10
19.25
 20
27.5
 30
0.0
  0
VERTEX
  8
SCAN
 10
19.25
 20
30.0
 30
0.0
  0
VERTEX
  8
SCAN
 10
19.0
 20
30.0
 30
0.0
  0
SEQEND
  0
POLYLINE
 62
256
  8
SCAN
 66
1
 10
0.0
 20
0.0
 30
0.0
 70
9
  0
VERTEX
  8
SCAN
 10
20.0
 20
25.0
 30
0.0
  0
VERTEX
  8
SCAN
 10
20.25
 20
25.0
 30
0.0
  0
VERTEX
  8
SCAN
 10
20.25
 20
30.0
 30
0.0
  0
VERTEX
  8
SCAN
 10
20.0
 20
30.0
 30
0.0
  0
SEQEND
  0
POLYLINE
 62
256
  8
SCAN
 66
1
 10
0.0
 20
0.0
 30
0.0
 70
9
  0
VERTEX
  8
SCAN
 10
21.0
 20
27.5
 30
0.0
  0
VERTEX
  8
SCAN
 10
21.25
 20
27.5
 30
0.0
  0
VERTEX
  8
SCAN
 10
21.25
 20
30.0
 30
0.0
  0
VERTEX
  8
SCAN
 10
21.0
 20
30.0
 30
0.0
  0
SEQEND
  0
POLYLINE
 62
256
  8
SCAN
 66
1
 10
0.0
 20
0.0
 30
0.0
 70
9
  0
VERTEX
  8
SCAN
 10
22.0
 20
27.5
 30
0.0
  0
VERTEX
  8
SCAN
 10
22.25
 20
27.5
 30
0.0
  0
VERTEX
  8
SCAN
 10
22.25
 20
30.0
 30
0.0
  0
VERTEX
  8
SCAN
 10
22.0
 20
30.0
 30
0.0
  0
SEQEND
  0
POLYLINE
 62
256
  8
SCAN
 66
1
 10
0.0
 20
0.0
 30
0.0
 70
9
  0
VERTEX
  8
SCAN
 10
23.0
 20
27.5
 30
0.0
  0
VERTEX
  8
SCAN
 10
23.25
 20
27.5
 30
0.0
  0
VERTEX
  8
SCAN
 10
23.25
 20
30.0
 30
0.0
  0
VERTEX
  8
SCAN
 10
23.0
 20
30.0
 30
0.0
  0
SEQEND
  0
POLYLINE
 62
256
  8
SCAN
 66
1
 10
0.0
 20
0.0
 30
0.0
 70
9
  0
VERTEX
  8
SCAN
 10
24.0
 20
27.5
 30
0.0
  0
VERTEX
  8
SCAN
 10
24.25
 20
27.5
 30
0.0
  0
VERTEX
  8
SCAN
 10
24.25
 20
30.0
 30
0.0
  0
VERTEX
  8
SCAN
 10
24.0
 20
30.0
 30
0.0
  0
SEQEND
  0
POLYLINE
 62
256
  8
SCAN
 66
1
 10
0.0
 20
0.0
 30
0.0
 70
9
  0
VERTEX
  8
SCAN
 10
25.0
 20
20.0
 30
0.0
  0
VERTEX
  8
SCAN
 10
25.25
 20
20.0
 30
0.0
  0
VERTEX
  8
SCAN
 10
25.25
 20
30.0
 30
0.0
  0
VERTEX
  8
SCAN
 10
25.0
 20
30.0
 30
0.0
  0
SEQEND
  0
POLYLINE
 62
256
  8
SCAN
 66
1
 10
0.0
 20
0.0
 30
0.0
 70
9
  0
VERTEX
  8
SCAN
 10
26.0
 20
27.5
 30
0.0
  0
VERTEX
  8
SCAN
 10
26.25
 20
27.5
 30
0.0
  0
VERTEX
  8
SCAN
 10
26.25
 20
30.0
 30
0.0
  0
VERTEX
  8
SCAN
 10
26.0
 20
30.0
 30
0.0
  0
SEQEND
  0
POLYLINE
 62
256
  8
SCAN
 66
1
 10
0.0
 20
0.0
 30
0.0
 70
9
  0
VERTEX
  8
SCAN
 10
27.0
 20
27.5
 30
0.0
  0
VERTEX
  8
SCAN
 10
27.25
 20
27.5
 30
0.0
  0
VERTEX
  8
SCAN
 10
27.25
 20
30.0
 30
0.0
  0
VERTEX
  8
SCAN
 10
27.0
 20
30.0
 30
0.0
  0
SEQEND
  0
POLYLINE
 62
256
  8
SCAN
 66
1
 10
0.0
 20
0.0
 30
0.0
 70
9
  0
VERTEX
  8
SCAN
 10
28.0
 20
27.5
 30
0.0
  0
VERTEX
  8
SCAN
 10
28.25
 20
27.5
 30
0.0
  0
VERTEX
  8
SCAN
 10
28.25
 20
30.0
 30
0.0
  0
VERTEX
  8
SCAN
 10
28.0
 20
30.0
 30
0.0
  0
SEQEND
  0
POLYLINE
 62
256
  8
SCAN
 66
1
 10
0.0
 20
0.0
 30
0.0
 70
9
  0
VERTEX
  8
SCAN
 10
29.0
 20
27.5
 30
0.0
  0
VERTEX
  8
SCAN
 10
29.25
 20
27.5
 30
0.0
  0
VERTEX
  8
SCAN
 10
29.25
 20
30.0
 30
0.0
  0
VERTEX
  8
SCAN
 10
29.0
 20
30.0
 30
0.0
  0
SEQEND
  0
POLYLINE
 62
256
  8
SCAN
 66
1
 10
0.0
 20
0.0
 30
0.0
 70
9
  0
VERTEX
  8
SCAN
 10
30.0
 20
25.0
 30
0.0
  0
VERTEX
  8
SCAN
 10
30.25
 20
25.0
 30
0.0
  0
VERTEX
  8
SCAN
 10
30.25
 20
30.0
 30
0.0
  0
VERTEX
  8
SCAN
 10
30.0
 20
30.0
 30
0.0
  0
SEQEND
  0
POLYLINE
 62
256
  8
SCAN
 66
1
 10
0.0
 20
0.0
 30
0.0
 70
9
  0
VERTEX
  8
SCAN
 10
31.0
 20
27.5
 30
0.0
  0
VERTEX
  8
SCAN
 10
31.25
 20
27.5
 30
0.0
  0
VERTEX
  8
SCAN
 10
31.25
 20
30.0
 30
0.0
  0
VERTEX
  8
SCAN
 10
31.0
 20
30.0
 30
0.0
  0
SEQEND
  0
POLYLINE
 62
256
  8
SCAN
 66
1
 10
0.0
 20
0.0
 30
0.0
 70
9
  0
VERTEX
  8
SCAN
 10
32.0
 20
27.5
 30
0.0
  0
VERTEX
  8
SCAN
 10
32.25
 20
27.5
 30
0.0
  0
VERTEX
  8
SCAN
 10
32.25
 20
30.0
 30
0.0
  0
VERTEX
  8
SCAN
 10
32.0
 20
30.0
 30
0.0
  0
SEQEND
  0
POLYLINE
 62
256
  8
SCAN
 66
1
 10
0.0
 20
0.0
 30
0.0
 70
9
  0
VERTEX
  8
SCAN
 10
33.0
 20
27.5
 30
0.0
  0
VERTEX
  8
SCAN
 10
33.25
 20
27.5
 30
0.0
  0
VERTEX
  8
SCAN
 10
33.25
 20
30.0
 30
0.0
  0
VERTEX
  8
SCAN
 10
33.0
 20
30.0
 30
0.0
  0
SEQEND
  0
POLYLINE
 62
256
  8
SCAN
 66
1
 10
0.0
 20
0.0
 30
0.0
 70
9
  0
VERTEX
  8
SCAN
 10
34.0
 20
27.5
 30
0.0
  0
VERTEX
  8
SCAN
 10
34.25
 20
27.5
 30
0.0
  0
VERTEX
  8
SCAN
 10
34.25
 20
30.0
 30
0.0
  0
VERTEX
  8
SCAN
 10
34.0
 20
30.0
 30
0.0
  0
SEQEND
  0
POLYLINE
 62
256
  8
SCAN
 66
1
 10
0.0
 20
0.0
 30
0.0
 70
9
  0
VERTEX
  8
SCAN
 10
35.0
 20
20.0
 30
0.0
  0
VERTEX
  8
SCAN
 10
35.25
 20
20.0
 30
0.0
  0
VERTEX
  8
SCAN
 10
35.25
 20
30.0
 30
0.0
  0
VERTEX
  8
SCAN
 10
35.0
 20
30.0
 30
0.0
  0
SEQEND
  0
POLYLINE
 62
256
  8
SCAN
 66
1
 10
0.0
 20
0.0
 30
0.0
 70
9
  0
VERTEX
  8
SCAN
 10
36.0
 20
27.5
 30
0.0
  0
VERTEX
  8
SCAN
 10
36.25
 20
27.5
 30
0.0
  0
VERTEX
  8
SCAN
 10
36.25
 20
30.0
 30
0.0
  0
VERTEX
  8
SCAN
 10
36.0
 20
30.0
 30
0.0
  0
SEQEND
  0
POLYLINE
 62
256
  8
SCAN
 66
1
 10
0.0
 20
0.0
 30
0.0
 70
9
  0
VERTEX
  8
SCAN
 10
37.0
 20
27.5
 30
0.0
  0
VERTEX
  8
SCAN
 10
37.25
 20
27.5
 30
0.0
  0
VERTEX
  8
SCAN
 10
37.25
 20
30.0
 30
0.0
  0
VERTEX
  8
SCAN
 10
37.0
 20
30.0
 30
0.0
  0
SEQEND
  0
POLYLINE
 62
256
  8
SCAN
 66
1
 10
0.0
 20
0.0
 30
0.0
 70
9
  0
VERTEX
  8
SCAN
 10
38.0
 20
27.5
 30
0.0
  0
VERTEX
  8
SCAN
 10
38.25
 20
27.5
 30
0.0
  0
VERTEX
  8
SCAN
 10
38.25
 20
30.0
 30
0.0
  0
VERTEX
  8
SCAN
 10
38.0
 20
30.0
 30
0.0
  0
SEQEND
  0
POLYLINE
 62
256
  8
SCAN
 66
1
 10
0.0
 20
0.0
 30
0.0
 70
9
  0
VERTEX
  8
SCAN
 10
39.0
 20
27.5
 30
0.0
  0
VERTEX
  8
SCAN
 10
39.25
 20
27.5
 30
0.0
  0
VERTEX
  8
SCAN
 10
39.25
 20
30.0
 30
0.0
  0
VERTEX
  8
SCAN
 10
39.0
 20
30.0
 30
0.0
  0
SEQEND
  0
POLYLINE
 62
256
  8
SCAN
 66
1
 10
0.0
 20
0.0
 30
0.0
 70
9
  0
VERTEX
  8
SCAN
 10
40.0
 20
25.0
 30
0.0
  0
VERTEX
  8
SCAN
 10
40.25
 20
25.0
 30
0.0
  0
VERTEX
  8
SCAN
 10
40.25
 20
30.0
 30
0.0
  0
VERTEX
  8
SCAN
 10
40.0
 20
30.0
 30
0.0
  0
SEQEND
  0
POLYLINE
 62
256
  8
SCAN
 66
1
 10
0.0
 20
0.0
 30
0.0
 70
9
  0
VERTEX
  8
SCAN
 10
41.0
 20
27.5
 30
0.0
  0
VERTEX
  8
SCAN
 10
41.25
 20
27.5
 30
0.0
  0
VERTEX
  8
SCAN
 10
41.25
 20
30.0
 30
0.0
  0
VERTEX
  8
SCAN
 10
41.0
 20
30.0
 30
0.0
  0
SEQEND
  0
POLYLINE
 62
256
  8
SCAN
 66
1
 10
0.0
 20
0.0
 30
0.0
 70
9
  0
VERTEX
  8
SCAN
 10
42.0
 20
27.5
 30
0.0
  0
VERTEX
  8
SCAN
 10
42.25
 20
27.5
 30
0.0
  0
VERTEX
  8
SCAN
 10
42.25
 20
30.0
 30
0.0
  0
VERTEX
  8
SCAN
 10
42.0
 20
30.0
 30
0.0
  0
SEQEND
  0
POLYLINE
 62
256
  8
SCAN
 66
1
 10
0.0
 20
0.0
 30
0.0
 70
9
  0
VERTEX
  8
SCAN
 10
43.0
 20
27.5
 30
0.0
  0
VERTEX
  8
SCAN
 10
43.25
 20
27.5
 30
0.0
  0
VERTEX
  8
SCAN
 10
43.25
 20
30.0
 30
0.0
  0
VERTEX
  8
SCAN
 10
43.0
 20
30.0
 30
0.0
  0
SEQEND
  0
POLYLINE
 62
256
  8
SCAN
 66
1
 10
0.0
 20
0.0
 30
0.0
 70
9
  0
VERTEX
  8
SCAN
 10
44.0
 20
27.5
 30
0.0
  0
VERTEX
  8
SCAN
 10
44.25
 20
27.5
 30
0.0
  0
VERTEX
  8
SCAN
 10
44.25
 20
30.0
 30
0.0
  0
VERTEX
  8
SCAN
 10
44.0
 20
30.0
 30
0.0
  0
SEQEND
  0
POLYLINE
 62
256
  8
SCAN
 66
1
 10
0.0
 20
0.0
 30
0.0
 70
9
  0
VERTEX
  8
SCAN
 10
45.0
 20
20.0
 30
0.0
  0
VERTEX
  8
SCAN
 10
45.25
 20
20.0
 30
0.0
  0
VERTEX
  8
SCAN
 10
45.25
 20
30.0
 30
0.0
  0
VERTEX
  8
SCAN
 10
45.0
 20
30.0
 30
0.0
  0
SEQEND
  0
POLYLINE
 62
256
  8
SCAN
 66
1
 10
0.0
 20
0.0
 30
0.0
 70
9
  0
VERTEX
  8
SCAN
 10
46.0
 20
27.5
 30
0.0
  0
VERTEX
  8
SCAN
 10
46.25
 20
27.5
 30
0.0
  0
VERTEX
  8
SCAN
 10
46.25
 20
30.0
 30
0.0
  0
VERTEX
  8
SCAN
 10
46.0
 20
30.0
 30
0.0
  0
SEQEND
  0
POLYLINE
 62
256
  8
SCAN
 66
1
 10
0.0
 20
0.0
 30
0.0
 70
9
  0
VERTEX
  8
SCAN
 10
47.0
 20
27.5
 30
0.0
  0
VERTEX
  8
SCAN
 10
47.25
 20
27.5
 30
0.0
  0
VERTEX
  8
SCAN
 10
47.25
 20
30.0
 30
0.0
  0
VERTEX
  8
SCAN
 10
47.0
 20
30.0
 30
0.0
  0
SEQEND
  0
POLYLINE
 62
256
  8
SCAN
 66
1
 10
0.0
 20
0.0
 30
0.0
 70
9
  0
VERTEX
  8
SCAN
 10
48.0
 20
27.5
 30
0.0
  0
VERTEX
  8
SCAN
 10
48.25
 20
27.5
 30
0.0
  0
VERTEX
  8
SCAN
 10
48.25
 20
30.0
 30
0.0
  0
VERTEX
  8
SCAN
 10
48.0
 20
30.0
 30
0.0
  0
SEQEND
  0
POLYLINE
 62
256
  8
SCAN
 66
1
 10
0.0
 20
0.0
 30
0.0
 70
9
  0
VERTEX
  8
SCAN
 10
49.0
 20
27.5
 30
0.0
  0
VERTEX
  8
SCAN
 10
49.25
 20
27.5
 30
0.0
  0
VERTEX
  8
SCAN
 10
49.25
 20
30.0
 30
0.0
  0
VERTEX
  8
SCAN
 10
49.0
 20
30.0
 30
0.0
  0
SEQEND
  0
POLYLINE
 62
256
  8
SCAN
 66
1
 10
0.0
 20
0.0
 30
0.0
 70
9
  0
VERTEX
  8
SCAN
 10
50.0
 20
25.0
 30
0.0
  0
VERTEX
  8
SCAN
 10
50.25
 20
25.0
 30
0.0
  0
VERTEX
  8
SCAN
 10
50.25
 20
30.0
 30
0.0
  0
VERTEX
  8
SCAN
 10
50.0
 20
30.0
 30
0.0
  0
SEQEND
  0
POLYLINE
 62
256
  8
SCAN
 66
1
 10
0.0
 20
0.0
 30
0.0
 70
9
  0
VERTEX
  8
SCAN
 10
51.0
 20
27.5
 30
0.0
  0
VERTEX
  8
SCAN
 10
51.25
 20
27.5
 30
0.0
  0
VERTEX
  8
SCAN
 10
51.25
 20
30.0
 30
0.0
  0
VERTEX
  8
SCAN
 10
51.0
 20
30.0
 30
0.0
  0
SEQEND
  0
POLYLINE
 62
256
  8
SCAN
 66
1
 10
0.0
 20
0.0
 30
0.0
 70
9
  0
VERTEX
  8
SCAN
 10
52.0
 20
27.5
 30
0.0
  0
VERTEX
  8
SCAN
 10
52.25
 20
27.5
 30
0.0
  0
VERTEX
  8
SCAN
 10
52.25
 20
30.0
 30
0.0
  0
VERTEX
  8
SCAN
 10
52.0
 20
30.0
 30
0.0
  0
SEQEND
  0
POLYLINE
 62
256
  8
SCAN
 66
1
 10
0.0
 20
0.0
 30
0.0
 70
9
  0
VERTEX
  8
SCAN
 10
53.0
 20
27.5
 30
0.0
  0
VERTEX
  8
SCAN
 10
53.25
 20
27.5
 30
0.0
  0
VERTEX
  8
SCAN
 10
53.25
 20
30.0
 30
0.0
  0
VERTEX
  8
SCAN
 10
53.0
 20
30.0
 30
0.0
  0
SEQEND
  0
POLYLINE
 62
256
  8
SCAN
 66
1
 10
0.0
 20
0.0
 30
0.0
 70
9
  0
VERTEX
  8
SCAN
 10
54.0
 20
27.5
 30
0.0
  0
VERTEX
  8
SCAN
 10
54.25
 20
27.5
 30
0.0
  0
VERTEX
  8
SCAN
 10
54.25
 20
30.0
 30
0.0
  0
VERTEX
  8
SCAN
 10
54.0
 20
30.0
 30
0.0
  0
SEQEND
  0
POLYLINE
 62
256
  8
SCAN
 66
1
 10
0.0
 20
0.0
 30
0.0
 70
9
  0
VERTEX
  8
SCAN
 10
55.0
 20
20.0
 30
0.0
  0
VERTEX
  8
SCAN
 10
55.25
 20
20.0
 30
0.0
  0
VERTEX
  8
SCAN
 10
55.25
 20
30.0
 30
0.0
  0
VERTEX
  8
SCAN
 10
55.0
 20
30.0
 30
0.0
  0
SEQEND
  0
POLYLINE
 62
256
  8
SCAN
 66
1
 10
0.0
 20
0.0
 30
0.0
 70
9
  0
VERTEX
  8
SCAN
 10
56.0
 20
27.5
 30
0.0
  0
VERTEX
  8
SCAN
 10
56.25
 20
27.5
 30
0.0
  0
VERTEX
  8
SCAN
 10
56.25
 20
30.0
 30
0.0
  0
VERTEX
  8
SCAN
 10
56.0
 20
30.0
 30
0.0
  0
SEQEND
  0
POLYLINE
 62
256
  8
SCAN
 66
1
 10
0.0
 20
0.0
 30
0.0
 70
9
  0
VERTEX
  8
SCAN
 10
57.0
 20
27.5
 30
0.0
  0
VERTEX
  8
SCAN
 10
57.25
 20
27.5
 30
0.0
  0
VERTEX
  8
SCAN
 10
57.25
 20
30.0
 30
0.0
  0
VERTEX
  8
SCAN
 10
57.0
 20
30.0
 30
0.0
  0
SEQEND
  0
POLYLINE
 62
256
  8
SCAN
 66
1
 10
0.0
 20
0.0
 30
0.0
 70
9
  0
VERTEX
  8
SCAN
 10
58.0
 20
27.5
 30
0.0
  0
VERTEX
  8
SCAN
 10
58.25
 20
27.5
 30
0.0
  0
VERTEX
  8
SCAN
 10
58.25
 20
30.0
 30
0.0
  0
VERTEX
  8
SCAN
 10
58.0
 20
30.0
 30
0.0
  0
SEQEND
  0
POLYLINE
 62
256
  8
SCAN
 66
1
 10
0.0
 20
0.0
 30
0.0
 70
9
  0
VERTEX
  8
SCAN
 10
59.0
 20
27.5
 30
0.0
  0
VERTEX
  8
SCAN
 10
59.25
 20
27.5
 30
0.0
  0
VERTEX
  8
SCAN
 10
59.25
 20
30.0
 30
0.0
  0
VERTEX
  8
SCAN
 10
59.0
 20
30.0
 30
0.0
  0
SEQEND
  0
POLYLINE
 62
256
  8
SCAN
 66
1
 10
0.0
 20
0.0
 30
0.0
 70
9
  0
VERTEX
  8
SCAN
 10
60.0
 20
25.0
 30
0.0
  0
VERTEX
  8
SCAN
 10
60.25
 20
25.0
 30
0.0
  0
VERTEX
  8
SCAN
 10
60.25
 20
30.0
 30
0.0
  0
VERTEX
  8
SCAN
 10
60.0
 20
30.0
 30
0.0
  0
SEQEND
  0
POLYLINE
 62
256
  8
SCAN
 66
1
 10
0.0
 20
0.0
 30
0.0
 70
9
  0
VERTEX
  8
SCAN
 10
61.0
 20
27.5
 30
0.0
  0
VERTEX
  8
SCAN
 10
61.25
 20
27.5
 30
0.0
  0
VERTEX
  8
SCAN
 10
61.25
 20
30.0
 30
0.0
  0
VERTEX
  8
SCAN
 10
61.0
 20
30.0
 30
0.0
  0
SEQEND
  0
POLYLINE
 62
256
  8
SCAN
 66
1
 10
0.0
 20
0.0
 30
0.0
 70
9
  0
VERTEX
  8
SCAN
 10
62.0
 20
27.5
 30
0.0
  0
VERTEX
  8
SCAN
 10
62.25
 20
27.5
 30
0.0
  0
VERTEX
  8
SCAN
 10
62.25
 20
30.0
 30
0.0
  0
VERTEX
  8
SCAN
 10
62.0
 20
30.0
 30
0.0
  0
SEQEND
  0
POLYLINE
 62
256
  8
SCAN
 66
1
 10
0.0
 20
0.0
 30
0.0
 70
9
  0
VERTEX
  8
SCAN
 10
63.0
 20
27.5
 30
0.0
  0
VERTEX
  8
SCAN
 10
63.25
 20
27.5
 30
0.0
  0
VERTEX
  8
SCAN
 10
63.25
 20
30.0
 30
0.0
  0
VERTEX
  8
SCAN
 10
63.0
 20
30.0
 30
0.0
  0
SEQEND
  0
POLYLINE
 62
256
  8
SCAN
 66
1
 10
0.0
 20
0.0
 30
0.0
 70
9
  0
VERTEX
  8
SCAN
 10
64.0
 20
27.5
 30
0.0
  0
VERTEX
  8
SCAN
 10
64.25
 20
27.5
 30
0.0
  0
VERTEX
  8
SCAN
 10
64.25
 20
30.0
 30
0.0
  0
VERTEX
  8
SCAN
 10
64.0
 20
30.0
 30
0.0
  0
SEQEND
  0
POLYLINE
 62
256
  8
SCAN
 66
1
 10
0.0
 20
0.0
 30
0.0
 70
9
  0
VERTEX
  8
SCAN
 10
65.0
 20
20.0
 30
0.0
  0
VERTEX
  8
SCAN
 10
65.25
 20
20.0
 30
0.0
  0
VERTEX
  8
SCAN
 10
65.25
 20
30.0
 30
0.0
  0
VERTEX
  8
SCAN
 10
65.0
 20
30.0
 30
0.0
  0
SEQEND
  0
POLYLINE
 62
256
  8
SCAN
 66
1
 10
0.0
 20
0.0
 30
0.0
 70
9
  0
VERTEX
  8
SCAN
 10
66.0
 20
27.5
 30
0.0
  0
VERTEX
  8
SCAN
 10
66.25
 20
27.5
 30
0.0
  0
VERTEX
  8
SCAN
 10
66.25
 20
30.0
 30
0.0
  0
VERTEX
  8
SCAN
 10
66.0
 20
30.0
 30
0.0
  0
SEQEND
  0
POLYLINE
 62
256
  8
SCAN
 66
1
 10
0.0
 20
0.0
 30
0.0
 70
9
  0
VERTEX
  8
SCAN
 10
67.0
 20
27.5
 30
0.0
  0
VERTEX
  8
SCAN
 10
67.25
 20
27.5
 30
0.0
  0
VERTEX
  8
SCAN
 10
67.25
 20
30.0
 30
0.0
  0
VERTEX
  8
SCAN
 10
67.0
 20
30.0
 30
0.0
  0
SEQEND
  0
POLYLINE
 62
256
  8
SCAN
 66
1
 10
0.0
 20
0.0
 30
0.0
 70
9
  0
VERTEX
  8
SCAN
 10
68.0
 20
27.5
 30
0.0
  0
VERTEX
  8
SCAN
 10
68.25
 20
27.5
 30
0.0
  0
VERTEX
  8
SCAN
 10
68.25
 20
30.0
 30
0.0
  0
VERTEX
  8
SCAN
 10
68.0
 20
30.0
 30
0.0
  0
SEQEND
  0
POLYLINE
 62
256
  8
SCAN
 66
1
 10
0.0
 20
0.0
 30
0.0
 70
9
  0
VERTEX
  8
SCAN
 10
69.0
 20
27.5
 30
0.0
  0
VERTEX
  8
SCAN
 10
69.25
 20
27.5
 30
0.0
  0
VERTEX
  8
SCAN
 10
69.25
 20
30.0
 30
0.0
  0
VERTEX
  8
SCAN
 10
69.0
 20
30.0
 30
0.0
  0
SEQEND
  0
POLYLINE
 62
256
  8
SCAN
 66
1
 10
0.0
 20
0.0
 30
0.0
 70
9
  0
VERTEX
  8
SCAN
 10
70.0
 20
25.0
 30
0.0
  0
VERTEX
  8
SCAN
 10
70.25
 20
25.0
 30
0.0
  0
VERTEX
  8
SCAN
 10
70.25
 20
30.0
 30
0.0
  0
VERTEX
  8
SCAN
 10
70.0
 20
30.0
 30
0.0
  0
SEQEND
  0
POLYLINE
 62
256
  8
SCAN
 66
1
 10
0.0
 20
0.0
 30
0.0
 70
9
  0
VERTEX
  8
SCAN
 10
71.0
 20
27.5
 30
0.0
  0
VERTEX
  8
SCAN
 10
71.25
 20
27.5
 30
0.0
  0
VERTEX
  8
SCAN
 10
71.25
 20
30.0
 30
0.0
  0
VERTEX
  8
SCAN
 10
71.0
 20
30.0
 30
0.0
  0
SEQEND
  0
POLYLINE
 62
256
  8
SCAN
 66
1
 10
0.0
 20
0.0
 30
0.0
 70
9
  0
VERTEX
  8
SCAN
 10
72.0
 20
27.5
 30
0.0
  0
VERTEX
  8
SCAN
 10
72.25
 20
27.5
 30
0.0
  0
VERTEX
  8
SCAN
 10
72.25
 20
30.0
 30
0.0
  0
VERTEX
  8
SCAN
 10
72.0
 20
30.0
 30
0.0
  0
SEQEND
  0
POLYLINE
 62
256
  8
SCAN
 66
1
 10
0.0
 20
0.0
 30
0.0
 70
9
  0
VERTEX
  8
SCAN
 10
73.0
 20
27.5
 30
0.0
  0
VERTEX
  8
SCAN
 10
73.25
 20
27.5
 30
0.0
  0
VERTEX
  8
SCAN
 10
73.25
 20
30.0
 30
0.0
  0
VERTEX
  8
SCAN
 10
73.0
 20
30.0
 30
0.0
  0
SEQEND
  0
POLYLINE
 62
256
  8
SCAN
 66
1
 10
0.0
 20
0.0
 30
0.0
 70
9
  0
VERTEX
  8
SCAN
 10
74.0
 20
27.5
 30
0.0
  0
VERTEX
  8
SCAN
 10
74.25
 20
27.5
 30
0.0
  0
VERTEX
  8
SCAN
 10
74.25
 20
30.0
 30
0.0
  0
VERTEX
  8
SCAN
 10
74.0
 20
30.0
 30
0.0
  0
SEQEND
  0
POLYLINE
 62
256
  8
SCAN
 66
1
 10
0.0
 20
0.0
 30
0.0
 70
9
  0
VERTEX
  8
SCAN
 10
75.0
 20
20.0
 30
0.0
  0
VERTEX
  8
SCAN
 10
75.25
 20
20.0
 30
0.0
  0
VERTEX
  8
SCAN
 10
75.25
 20
30.0
 30
0.0
  0
VERTEX
  8
SCAN
 10
75.0
 20
30.0
 30
0.0
  0
SEQEND
  0
POLYLINE
 62
256
  8
SCAN
 66
1
 10
0.0
 20
0.0
 30
0.0
 70
9
  0
VERTEX
  8
SCAN
 10
76.0
 20
27.5
 30
0.0
  0
VERTEX
  8
SCAN
 10
76.25
 20
27.5
 30
0.0
  0
VERTEX
  8
SCAN
 10
76.25
 20
30.0
 30
0.0
  0
VERTEX
  8
SCAN
 10
76.0
 20
30.0
 30
0.0
  0
SEQEND
  0
POLYLINE
 62
256
  8
SCAN
 66
1
 10
0.0
 20
0.0
 30
0.0
 70
9
  0
VERTEX
  8
SCAN
 10
77.0
 20
27.5
 30
0.0
  0
VERTEX
  8
SCAN
 10
77.25
 20
27.5
 30
0.0
  0
VERTEX
  8
SCAN
 10
77.25
 20
30.0
 30
0.0
  0
VERTEX
  8
SCAN
 10
77.0
 20
30.0
 30
0.0
  0
SEQEND
  0
POLYLINE
 62
256
  8
SCAN
 66
1
 10
0.0
 20
0.0
 30
0.0
 70
9
  0
VERTEX
  8
SCAN
 10
78.0
 20
27.5
 30
0.0
  0
VERTEX
  8
SCAN
 10
78.25
 20
27.5
 30
0.0
  0
VERTEX
  8
SCAN
 10
78.25
 20
30.0
 30
0.0
  0
VERTEX
  8
SCAN
 10
78.0
 20
30.0
 30
0.0
  0
SEQEND
  0
POLYLINE
 62
256
  8
SCAN
 66
1
 10
0.0
 20
0.0
 30
0.0
 70
9
  0
VERTEX
  8
SCAN
 10
79.0
 20
27.5
 30
0.0
  0
VERTEX
  8
SCAN
 10
79.25
 20
27.5
 30
0.0
  0
VERTEX
  8
SCAN
 10
79.25
 20
30.0
 30
0.0
  0
VERTEX
  8
SCAN
 10
79.0
 20
30.0
 30
0.0
  0
SEQEND
  0
POLYLINE
 62
256
  8
SCAN
 66
1
 10
0.0
 20
0.0
 30
0.0
 70
9
  0
VERTEX
  8
SCAN
 10
80.0
 20
25.0
 30
0.0
  0
VERTEX
  8
SCAN
 10
80.25
 20
25.0
 30
0.0
  0
VERTEX
  8
SCAN
 10
80.25
 20
30.0
 30
0.0
  0
VERTEX
  8
SCAN
 10
80.0
 20
30.0
 30
0.0
  0
SEQEND
  0
POLYLINE
 62
256
  8
SCAN
 66
1
 10
0.0
 20
0.0
 30
0.0
 70
9
  0
VERTEX
  8
SCAN
 10
81.0
 20
27.5
 30
0.0
  0
VERTEX
  8
SCAN
 10
81.25
 20
27.5
 30
0.0
  0
VERTEX
  8
SCAN
 10
81.25
 20
30.0
 30
0.0
  0
VERTEX
  8
SCAN
 10
81.0
 20
30.0
 30
0.0
  0
SEQEND
  0
POLYLINE
 62
256
  8
SCAN
 66
1
 10
0.0
 20
0.0
 30
0.0
 70
9
  0
VERTEX
  8
SCAN
 10
82.0
 20
27.5
 30
0.0
  0
VERTEX
  8
SCAN
 10
82.25
 20
27.5
 30
0.0
  0
VERTEX
  8
SCAN
 10
82.25
 20
30.0
 30
0.0
  0
VERTEX
  8
SCAN
 10
82.0
 20
30.0
 30
0.0
  0
SEQEND
  0
POLYLINE
 62
256
  8
SCAN
 66
1
 10
0.0
 20
0.0
 30
0.0
 70
9
  0
VERTEX
  8
SCAN
 10
83.0
 20
27.5
 30
0.0
  0
VERTEX
  8
SCAN
 10
83.25
 20
27.5
 30
0.0
  0
VERTEX
  8
SCAN
 10
83.25
 20
30.0
 30
0.0
  0
VERTEX
  8
SCAN
 10
83.0
 20
30.0
 30
0.0
  0
SEQEND
  0
POLYLINE
 62
256
  8
SCAN
 66
1
 10
0.0
 20
0.0
 30
0.0
 70
9
  0
VERTEX
  8
SCAN
 10
84.0
 20
27.5
 30
0.0
  0
VERTEX
  8
SCAN
 10
84.25
 20
27.5
 30
0.0
  0
VERTEX
  8
SCAN
 10
84.25
 20
30.0
 30
0.0
  0
VERTEX
  8
SCAN
 10
84.0
 20
30.0
 30
0.0
  0
SEQEND
  0
POLYLINE
 62
256
  8
SCAN
 66
1
 10
0.0
 20
0.0
 30
0.0
 70
9
  0
VERTEX
  8
SCAN
 10
85.0
 20
20.0
 30
0.0
  0
VERTEX
  8
SCAN
 10
85.25
 20
20.0
 30
0.0
  0
VERTEX
  8
SCAN
 10
85.25
 20
30.0
 30
0.0
  0
VERTEX
  8
SCAN
 10
85.0
 20
30.0
 30
0.0
  0
SEQEND
  0
POLYLINE
 62
256
  8
SCAN
 66
1
 10
0.0
 20
0.0
 30
0.0
 70
9
  0
VERTEX
  8
SCAN
 10
86.0
 20
27.5
 30
0.0
  0
VERTEX
  8
SCAN
 10
86.25
 20
27.5
 30
0.0
  0
VERTEX
  8
SCAN
 10
86.25
 20
30.0
 30
0.0
  0
VERTEX
  8
SCAN
 10
86.0
 20
30.0
 30
0.0
  0
SEQEND
  0
POLYLINE
 62
256
  8
SCAN
 66
1
 10
0.0
 20
0.0
 30
0.0
 70
9
  0
VERTEX
  8
SCAN
 10
87.0
 20
27.5
 30
0.0
  0
VERTEX
  8
SCAN
 10
87.25
 20
27.5
 30
0.0
  0
VERTEX
  8
SCAN
 10
87.25
 20
30.0
 30
0.0
  0
VERTEX
  8
SCAN
 10
87.0
 20
30.0
 30
0.0
  0
SEQEND
  0
POLYLINE
 62
256
  8
SCAN
 66
1
 10
0.0
 20
0.0
 30
0.0
 70
9
  0
VERTEX
  8
SCAN
 10
88.0
 20
27.5
 30
0.0
  0
VERTEX
  8
SCAN
 10
88.25
 20
27.5
 30
0.0
  0
VERTEX
  8
SCAN
 10
88.25
 20
30.0
 30
0.0
  0
VERTEX
  8
SCAN
 10
88.0
 20
30.0
 30
0.0
  0
SEQEND
  0
POLYLINE
 62
256
  8
SCAN
 66
1
 10
0.0
 20
0.0
 30
0.0
 70
9
  0
VERTEX
  8
SCAN
 10
89.0
 20
27.5
 30
0.0
  0
VERTEX
  8
SCAN
 10
89.25
 20
27.5
 30
0.0
  0
VERTEX
  8
SCAN
 10
89.25
 20
30.0
 30
0.0
  0
VERTEX
  8
SCAN
 10
89.0
 20
30.0
 30
0.0
  0
SEQEND
  0
POLYLINE
 62
256
  8
SCAN
 66
1
 10
0.0
 20
0.0
 30
0.0
 70
9
  0
VERTEX
  8
SCAN
 10
90.0
 20
25.0
 30
0.0
  0
VERTEX
  8
SCAN
 10
90.25
 20
25.0
 30
0.0
  0
VERTEX
  8
SCAN
 10
90.25
 20
30.0
 30
0.0
  0
VERTEX
  8
SCAN
 10
90.0
 20
30.0
 30
0.0
  0
SEQEND
  0
POLYLINE
 62
256
  8
SCAN
 66
1
 10
0.0
 20
0.0
 30
0.0
 70
9
  0
VERTEX
  8
SCAN
 10
91.0
 20
27.5
 30
0.0
  0
VERTEX
  8
SCAN
 10
91.25
 20
27.5
 30
0.0
  0
VERTEX
  8
SCAN
 10
91.25
 20
30.0
 30
0.0
  0
VERTEX
  8
SCAN
 10
91.0
 20
30.0
 30
0.0
  0
SEQEND
  0
POLYLINE
 62
256
  8
SCAN
 66
1
 10
0.0
 20
0.0
 30
0.0
 70
9
  0
VERTEX
  8
SCAN
 10
92.0
 20
27.5
 30
0.0
  0
VERTEX
  8
SCAN
 10
92.25
 20
27.5
 30
0.0
  0
VERTEX
  8
SCAN
 10
92.25
 20
30.0
 30
0.0
  0
VERTEX
  8
SCAN
 10
92.0
 20
30.0
 30
0.0
  0
SEQEND
  0
POLYLINE
 62
256
  8
SCAN
 66
1
 10
0.0
 20
0.0
 30
0.0
 70
9
  0
VERTEX
  8
SCAN
 10
93.0
 20
27.5
 30
0.0
  0
VERTEX
  8
SCAN
 10
93.25
 20
27.5
 30
0.0
  0
VERTEX
  8
SCAN
 10
93.25
 20
30.0
 30
0.0
  0
VERTEX
  8
SCAN
 10
93.0
 20
30.0
 30
0.0
  0
SEQEND
  0
POLYLINE
 62
256
  8
SCAN
 66
1
 10
0.0
 20
0.0
 30
0.0
 70
9
  0
VERTEX
  8
SCAN
 10
94.0
 20
27.5
 30
0.0
  0
VERTEX
  8
SCAN
 10
94.25
 20
27.5
 30
0.0
  0
VERTEX
  8
SCAN
 10
94.25
 20
30.0
 30
0.0
  0
VERTEX
  8
SCAN
 10
94.0
 20
30.0
 30
0.0
  0
SEQEND
  0
POLYLINE
 62
256
  8
SCAN
 66
1
 10
0.0
 20
0.0
 30
0.0
 70
9
  0
VERTEX
  8
SCAN
 10
95.0
 20
20.0
 30
0.0
  0
VERTEX
  8
SCAN
 10
95.25
 20
20.0
 30
0.0
  0
VERTEX
  8
SCAN
 10
95.25
 20
30.0
 30
0.0
  0
VERTEX
  8
SCAN
 10
95.0
 20
30.0
 30
0.0
  0
SEQEND
  0
POLYLINE
 62
256
  8
SCAN
 66
1
 10
0.0
 20
0.0
 30
0.0
 70
9
  0
VERTEX
  8
SCAN
 10
96.0
 20
27.5
 30
0.0
  0
VERTEX
  8
SCAN
 10
96.25
 20
27.5
 30
0.0
  0
VERTEX
  8
SCAN
 10
96.25
 20
30.0
 30
0.0
  0
VERTEX
  8
SCAN
 10
96.0
 20
30.0
 30
0.0
  0
SEQEND
  0
POLYLINE
 62
256
  8
SCAN
 66
1
 10
0.0
 20
0.0
 30
0.0
 70
9
  0
VERTEX
  8
SCAN
 10
97.0
 20
27.5
 30
0.0
  0
VERTEX
  8
SCAN
 10
97.25
 20
27.5
 30
0.0
  0
VERTEX
  8
SCAN
 10
97.25
 20
30.0
 30
0.0
  0
VERTEX
  8
SCAN
 10
97.0
 20
30.0
 30
0.0
  0
SEQEND
  0
POLYLINE
 62
256
  8
SCAN
 66
1
 10
0.0
 20
0.0
 30
0.0
 70
9
  0
VERTEX
  8
SCAN
 10
98.0
 20
27.5
 30
0.0
  0
VERTEX
  8
SCAN
 10
98.25
 20
27.5
 30
0.0
  0
VERTEX
  8
SCAN
 10
98.25
 20
30.0
 30
0.0
  0
VERTEX
  8
SCAN
 10
98.0
 20
30.0
 30
0.0
  0
SEQEND
  0
POLYLINE
 62
256
  8
SCAN
 66
1
 10
0.0
 20
0.0
 30
0.0
 70
9
  0
VERTEX
  8
SCAN
 10
99.0
 20
27.5
 30
0.0
  0
VERTEX
  8
SCAN
 10
99.25
 20
27.5
 30
0.0
  0
VERTEX
  8
SCAN
 10
99.25
 20
30.0
 30
0.0
  0
VERTEX
  8
SCAN
 10
99.0
 20
30.0
 30
0.0
  0
SEQEND
  0
POLYLINE
 62
256
  8
SCAN
 66
1
 10
0.0
 20
0.0
 30
0.0
 70
9
  0
VERTEX
  8
SCAN
 10
100.0
 20
25.0
 30
0.0
  0
VERTEX
  8
SCAN
 10
100.25
 20
25.0
 30
0.0
  0
VERTEX
  8
SCAN
 10
100.25
 20
30.0
 30
0.0
  0
VERTEX
  8
SCAN
 10
100.0
 20
30.0
 30
0.0
  0
SEQEND
  0
POLYLINE
 62
256
  8
SCAN
 66
1
 10
0.0
 20
0.0
 30
0.0
 70
9
  0
VERTEX
  8
SCAN
 10
101.0
 20
27.5
 30
0.0
  0
VERTEX
  8
SCAN
 10
101.25
 20
27.5
 30
0.0
  0
VERTEX
  8
SCAN
 10
101.25
 20
30.0
 30
0.0
  0
VERTEX
  8
SCAN
 10
101.0
 20
30.0
 30
0.0
  0
SEQEND
  0
POLYLINE
 62
256
  8
SCAN
 66
1
 10
0.0
 20
0.0
 30
0.0
 70
9
  0
VERTEX
  8
SCAN
 10
102.0
 20
27.5
 30
0.0
  0
VERTEX
  8
SCAN
 10
102.25
 20
27.5
 30
0.0
  0
VERTEX
  8
SCAN
 10
102.25
 20
30.0
 30
0.0
  0
VERTEX
  8
SCAN
 10
102.0
 20
30.0
 30
0.0
  0
SEQEND
  0
POLYLINE
 62
256
  8
SCAN
 66
1
 10
0.0
 20
0.0
 30
0.0
 70
9
  0
VERTEX
  8
SCAN
 10
103.0
 20
27.5
 30
0.0
  0
VERTEX
  8
SCAN
 10
103.25
 20
27.5
 30
0.0
  0
VERTEX
  8
SCAN
 10
103.25
 20
30.0
 30
0.0
  0
VERTEX
  8
SCAN
 10
103.0
 20
30.0
 30
0.0
  0
SEQEND
  0
POLYLINE
 62
256
  8
SCAN
 66
1
 10
0.0
 20
0.0
 30
0.0
 70
9
  0
VERTEX
  8
SCAN
 10
104.0
 20
27.5
 30
0.0
  0
VERTEX
  8
SCAN
 10
104.25
 20
27.5
 30
0.0
  0
VERTEX
  8
SCAN
 10
104.25
 20
30.0
 30
0.0
  0
VERTEX
  8
SCAN
 10
104.0
 20
30.0
 30
0.0
  0
SEQEND
  0
POLYLINE
 62
256
  8
SCAN
 66
1
 10
0.0
 20
0.0
 30
0.0
 70
9
  0
VERTEX
  8
SCAN
 10
105.0
 20
20.0
 30
0.0
  0
VERTEX
  8
SCAN
 10
105.25
 20
20.0
 30
0.0
  0
VERTEX
  8
SCAN
 10
105.25
 20
30.0
 30
0.0
  0
VERTEX
  8
SCAN
 10
105.0
 20
30.0
 30
0.0
  0
SEQEND
  0
POLYLINE
 62
256
  8
SCAN
 66
1
 10
0.0
 20
0.0
 30
0.0
 70
9
  0
VERTEX
  8
SCAN
 10
106.0
 20
27.5
 30
0.0
  0
VERTEX
  8
SCAN
 10
106.25
 20
27.5
 30
0.0
  0
VERTEX
  8
SCAN
 10
106.25
 20
30.0
 30
0.0
  0
VERTEX
  8
SCAN
 10
106.0
 20
30.0
 30
0.0
  0
SEQEND
  0
POLYLINE
 62
256
  8
SCAN
 66
1
 10
0.0
 20
0.0
 30
0.0
 70
9
  0
VERTEX
  8
SCAN
 10
107.0
 20
27.5
 30
0.0
  0
VERTEX
  8
SCAN
 10
107.25
 20
27.5
 30
0.0
  0
VERTEX
  8
SCAN
 10
107.25
 20
30.0
 30
0.0
  0
VERTEX
  8
SCAN
 10
107.0
 20
30.0
 30
0.0
  0
SEQEND
  0
POLYLINE
 62
256
  8
SCAN
 66
1
 10
0.0
 20
0.0
 30
0.0
 70
9
  0
VERTEX
  8
SCAN
 10
108.0
 20
27.5
 30
0.0
  0
VERTEX
  8
SCAN
 10
108.25
 20
27.5
 30
0.0
  0
VERTEX
  8
SCAN
 10
108.25
 20
30.0
 30
0.0
  0
VERTEX
  8
SCAN
 10
108.0
 20
30.0
 30
0.0
  0
SEQEND
  0
POLYLINE
 62
256
  8
SCAN
 66
1
 10
0.0
 20
0.0
 30
0.0
 70
9
  0
VERTEX
  8
SCAN
 10
109.0
 20
27.5
 30
0.0
  0
VERTEX
  8
SCAN
 10
109.25
 20
27.5
 30
0.0
  0
VERTEX
  8
SCAN
 10
109.25
 20
30.0
 30
0.0
  0
VERTEX
  8
SCAN
 10
109.0
 20
30.0
 30
0.0
  0
SEQEND
  0
POLYLINE
 62
256
  8
SCAN
 66
1
 10
0.0
 20
0.0
 30
0.0
 70
9
  0
VERTEX
  8
SCAN
 10
110.0
 20
25.0
 30
0.0
  0
VERTEX
  8
SCAN
 10
110.25
 20
25.0
 30
0.0
  0
VERTEX
  8
SCAN
 10
110.25
 20
30.0
 30
0.0
  0
VERTEX
  8
SCAN
 10
110.0
 20
30.0
 30
0.0
  0
SEQEND
  0
POLYLINE
 62
256
  8
SCAN
 66
1
 10
0.0
 20
0.0
 30
0.0
 70
9
  0
VERTEX
  8
SCAN
 10
111.0
 20
27.5
 30
0.0
  0
VERTEX
  8
SCAN
 10
111.25
 20
27.5
 30
0.0
  0
VERTEX
  8
SCAN
 10
111.25
 20
30.0
 30
0.0
  0
VERTEX
  8
SCAN
 10
111.0
 20
30.0
 30
0.0
  0
SEQEND
  0
POLYLINE
 62
256
  8
SCAN
 66
1
 10
0.0
 20
0.0
 30
0.0
 70
9
  0
VERTEX
  8
SCAN
 10
112.0
 20
27.5
 30
0.0
  0
VERTEX
  8
SCAN
 10
112.25
 20
27.5
 30
0.0
  0
VERTEX
  8
SCAN
 10
112.25
 20
30.0
 30
0.0
  0
VERTEX
  8
SCAN
 10
112.0
 20
30.0
 30
0.0
  0
SEQEND
  0
POLYLINE
 62
256
  8
SCAN
 66
1
 10
0.0
 20
0.0
 30
0.0
 70
9
  0
VERTEX
  8
SCAN
 10
113.0
 20
27.5
 30
0.0
  0
VERTEX
  8
SCAN
 10
113.25
 20
27.5
 30
0.0
  0
VERTEX
  8
SCAN
 10
113.25
 20
30.0
 30
0.0
  0
VERTEX
  8
SCAN
 10
113.0
 20
30.0
 30
0.0
  0
SEQEND
  0
POLYLINE
 62
256
  8
SCAN
 66
1
 10
0.0
 20
0.0
 30
0.0
 70
9
  0
VERTEX
  8
SCAN
 10
114.0
 20
27.5
 30
0.0
  0
VERTEX
  8
SCAN
 10
114.25
 20
27.5
 30
0.0
  0
VERTEX
  8
SCAN
 10
114.25
 20
30.0
 30
0.0
  0
VERTEX
  8
SCAN
 10
114.0
 20
30.0
 30
0.0
  0
SEQEND
  0
POLYLINE
 62
256
  8
SCAN
 66
1
 10
0.0
 20
0.0
 30
0.0
 70
9
  0
VERTEX
  8
SCAN
 10
115.0
 20
20.0
 30
0.0
  0
VERTEX
  8
SCAN
 10
115.25
 20
20.0
 30
0.0
  0
VERTEX
  8
SCAN
 10
115.25
 20
30.0
 30
0.0
  0
VERTEX
  8
SCAN
 10
115.0
 20
30.0
 30
0.0
  0
SEQEND
  0
POLYLINE
 62
256
  8
SCAN
 66
1
 10
0.0
 20
0.0
 30
0.0
 70
9
  0
VERTEX
  8
SCAN
 10
116.0
 20
27.5
 30
0.0
  0
VERTEX
  8
SCAN
 10
116.25
 20
27.5
 30
0.0
  0
VERTEX
  8
SCAN
 10
116.25
 20
30.0
 30
0.0
  0
VERTEX
  8
SCAN
 10
116.0
 20
30.0
 30
0.0
  0
SEQEND
  0
POLYLINE
 62
256
  8
SCAN
 66
1
 10
0.0
 20
0.0
 30
0.0
 70
9
  0
VERTEX
  8
SCAN
 10
117.0
 20
27.5
 30
0.0
  0
VERTEX
  8
SCAN
 10
117.25
 20
27.5
 30
0.0
  0
VERTEX
  8
SCAN
 10
117.25
 20
30.0
 30
0.0
  0
VERTEX
  8
SCAN
 10
117.0
 20
30.0
 30
0.0
  0
SEQEND
  0
POLYLINE
 62
256
  8
SCAN
 66
1
 10
0.0
 20
0.0
 30
0.0
 70
9
  0
VERTEX
  8
SCAN
 10
118.0
 20
27.5
 30
0.0
  0
VERTEX
  8
SCAN
 10
118.25
 20
27.5
 30
0.0
  0
VERTEX
  8
SCAN
 10
118.25
 20
30.0
 30
0.0
  0
VERTEX
  8
SCAN
 10
118.0
 20
30.0
 30
0.0
  0
SEQEND
  0
POLYLINE
 62
256
  8
SCAN
 66
1
 10
0.0
 20
0.0
 30
0.0
 70
9
  0
VERTEX
  8
SCAN
 10
119.0
 20
27.5
 30
0.0
  0
VERTEX
  8
SCAN
 10
119.25
 20
27.5
 30
0.0
  0
VERTEX
  8
SCAN
 10
119.25
 20
30.0
 30
0.0
  0
VERTEX
  8
SCAN
 10
119.0
 20
30.0
 30
0.0
  0
SEQEND
  0
POLYLINE
 62
256
  8
SCAN
 66
1
 10
0.0
 20
0.0
 30
0.0
 70
9
  0
VERTEX
  8
SCAN
 10
120.0
 20
25.0
 30
0.0
  0
VERTEX
  8
SCAN
 10
120.25
 20
25.0
 30
0.0
  0
VERTEX
  8
SCAN
 10
120.25
 20
30.0
 30
0.0
  0
VERTEX
  8
SCAN
 10
120.0
 20
30.0
 30
0.0
  0
SEQEND
  0
POLYLINE
 62
256
  8
SCAN
 66
1
 10
0.0
 20
0.0
 30
0.0
 70
9
  0
VERTEX
  8
SCAN
 10
121.0
 20
27.5
 30
0.0
  0
VERTEX
  8
SCAN
 10
121.25
 20
27.5
 30
0.0
  0
VERTEX
  8
SCAN
 10
121.25
 20
30.0
 30
0.0
  0
VERTEX
  8
SCAN
 10
121.0
 20
30.0
 30
0.0
  0
SEQEND
  0
POLYLINE
 62
256
  8
SCAN
 66
1
 10
0.0
 20
0.0
 30
0.0
 70
9
  0
VERTEX
  8
SCAN
 10
122.0
 20
27.5
 30
0.0
  0
VERTEX
  8
SCAN
 10
122.25
 20
27.5
 30
0.0
  0
VERTEX
  8
SCAN
 10
122.25
 20
30.0
 30
0.0
  0
VERTEX
  8
SCAN
 10
122.0
 20
30.0
 30
0.0
  0
SEQEND
  0
POLYLINE
 62
256
  8
SCAN
 66
1
 10
0.0
 20
0.0
 30
0.0
 70
9
  0
VERTEX
  8
SCAN
 10
123.0
 20
27.5
 30
0.0
  0
VERTEX
  8
SCAN
 10
123.25
 20
27.5
 30
0.0
  0
VERTEX
  8
SCAN
 10
123.25
 20
30.0
 30
0.0
  0
VERTEX
  8
SCAN
 10
123.0
 20
30.0
 30
0.0
  0
SEQEND
  0
POLYLINE
 62
256
  8
SCAN
 66
1
 10
0.0
 20
0.0
 30
0.0
 70
9
  0
VERTEX
  8
SCAN
 10
124.0
 20
27.5
 30
0.0
  0
VERTEX
  8
SCAN
 10
124.25
 20
27.5
 30
0.0
  0
VERTEX
  8
SCAN
 10
124.25
 20
30.0
 30
0.0
  0
VERTEX
  8
SCAN
 10
124.0
 20
30.0
 30
0.0
  0
SEQEND
  0
POLYLINE
 62
256
  8
SCAN
 66
1
 10
0.0
 20
0.0
 30
0.0
 70
9
  0
VERTEX
  8
SCAN
 10
125.0
 20
20.0
 30
0.0
  0
VERTEX
  8
SCAN
 10
125.25
 20
20.0
 30
0.0
  0
VERTEX
  8
SCAN
 10
125.25
 20
30.0
 30
0.0
  0
VERTEX
  8
SCAN
 10
125.0
 20
30.0
 30
0.0
  0
SEQEND
  0
POLYLINE
 62
256
  8
SCAN
 66
1
 10
0.0
 20
0.0
 30
0.0
 70
9
  0
VERTEX
  8
SCAN
 10
126.0
 20
27.5
 30
0.0
  0
VERTEX
  8
SCAN
 10
126.25
 20
27.5
 30
0.0
  0
VERTEX
  8
SCAN
 10
126.25
 20
30.0
 30
0.0
  0
VERTEX
  8
SCAN
 10
126.0
 20
30.0
 30
0.0
  0
SEQEND
  0
POLYLINE
 62
256
  8
SCAN
 66
1
 10
0.0
 20
0.0
 30
0.0
 70
9
  0
VERTEX
  8
SCAN
 10
127.0
 20
27.5
 30
0.0
  0
VERTEX
  8
SCAN
 10
127.25
 20
27.5
 30
0.0
  0
VERTEX
  8
SCAN
 10
127.25
 20
30.0
 30
0.0
  0
VERTEX
  8
SCAN
 10
127.0
 20
30.0
 30
0.0
  0
SEQEND
  0
POLYLINE
 62
256
  8
SCAN
 66
1
 10
0.0
 20
0.0
 30
0.0
 70
9
  0
VERTEX
  8
SCAN
 10
128.0
 20
27.5
 30
0.0
  0
VERTEX
  8
SCAN
 10
128.25
 20
27.5
 30
0.0
  0
VERTEX
  8
SCAN
 10
128.25
 20
30.0
 30
0.0
  0
VERTEX
  8
SCAN
 10
128.0
 20
30.0
 30
0.0
  0
SEQEND
  0
POLYLINE
 62
256
  8
SCAN
 66
1
 10
0.0
 20
0.0
 30
0.0
 70
9
  0
VERTEX
  8
SCAN
 10
129.0
 20
27.5
 30
0.0
  0
VERTEX
  8
SCAN
 10
129.25
 20
27.5
 30
0.0
  0
VERTEX
  8
SCAN
 10
129.25
 20
30.0
 30
0.0
  0
VERTEX
  8
SCAN
 10
129.0
 20
30.0
 30
0.0
  0
SEQEND
  0
POLYLINE
 62
256
  8
SCAN
 66
1
 10
0.0
 20
0.0
 30
0.0
 70
9
  0
VERTEX
  8
SCAN
 10
130.0
 20
25.0
 30
0.0
  0
VERTEX
  8
SCAN
 10
130.25
 20
25.0
 30
0.0
  0
VERTEX
  8
SCAN
 10
130.25
 20
30.0
 30
0.0
  0
VERTEX
  8
SCAN
 10
130.0
 20
30.0
 30
0.0
  0
SEQEND
  0
POLYLINE
 62
256
  8
SCAN
 66
1
 10
0.0
 20
0.0
 30
0.0
 70
9
  0
VERTEX
  8
SCAN
 10
131.0
 20
27.5
 30
0.0
  0
VERTEX
  8
SCAN
 10
131.25
 20
27.5
 30
0.0
  0
VERTEX
  8
SCAN
 10
131.25
 20
30.0
 30
0.0
  0
VERTEX
  8
SCAN
 10
131.0
 20
30.0
 30
0.0
  0
SEQEND
  0
POLYLINE
 62
256
  8
SCAN
 66
1
 10
0.0
 20
0.0
 30
0.0
 70
9
  0
VERTEX
  8
SCAN
 10
132.0
 20
27.5
 30
0.0
  0
VERTEX
  8
SCAN
 10
132.25
 20
27.5
 30
0.0
  0
VERTEX
  8
SCAN
 10
132.25
 20
30.0
 30
0.0
  0
VERTEX
  8
SCAN
 10
132.0
 20
30.0
 30
0.0
  0
SEQEND
  0
POLYLINE
 62
256
  8
SCAN
 66
1
 10
0.0
 20
0.0
 30
0.0
 70
9
  0
VERTEX
  8
SCAN
 10
133.0
 20
27.5
 30
0.0
  0
VERTEX
  8
SCAN
 10
133.25
 20
27.5
 30
0.0
  0
VERTEX
  8
SCAN
 10
133.25
 20
30.0
 30
0.0
  0
VERTEX
  8
SCAN
 10
133.0
 20
30.0
 30
0.0
  0
SEQEND
  0
POLYLINE
 62
256
  8
SCAN
 66
1
 10
0.0
 20
0.0
 30
0.0
 70
9
  0
VERTEX
  8
SCAN
 10
134.0
 20
27.5
 30
0.0
  0
VERTEX
  8
SCAN
 10
134.25
 20
27.5
 30
0.0
  0
VERTEX
  8
SCAN
 10
134.25
 20
30.0
 30
0.0
  0
VERTEX
  8
SCAN
 10
134.0
 20
30.0
 30
0.0
  0
SEQEND
  0
POLYLINE
 62
256
  8
SCAN
 66
1
 10
0.0
 20
0.0
 30
0.0
 70
9
  0
VERTEX
  8
SCAN
 10
135.0
 20
20.0
 30
0.0
  0
VERTEX
  8
SCAN
 10
135.25
 20
20.0
 30
0.0
  0
VERTEX
  8
SCAN
 10
135.25
 20
30.0
 30
0.0
  0
VERTEX
  8
SCAN
 10
135.0
 20
30.0
 30
0.0
  0
SEQEND
  0
POLYLINE
 62
256
  8
SCAN
 66
1
 10
0.0
 20
0.0
 30
0.0
 70
9
  0
VERTEX
  8
SCAN
 10
136.0
 20
27.5
 30
0.0
  0
VERTEX
  8
SCAN
 10
136.25
 20
27.5
 30
0.0
  0
VERTEX
  8
SCAN
 10
136.25
 20
30.0
 30
0.0
  0
VERTEX
  8
SCAN
 10
136.0
 20
30.0
 30
0.0
  0
SEQEND
  0
POLYLINE
 62
256
  8
SCAN
 66
1
 10
0.0
 20
0.0
 30
0.0
 70
9
  0
VERTEX
  8
SCAN
 10
137.0
 20
27.5
 30
0.0
  0
VERTEX
  8
SCAN
 10
137.25
 20
27.5
 30
0.0
  0
VERTEX
  8
SCAN
 10
137.25
 20
30.0
 30
0.0
  0
VERTEX
  8
SCAN
 10
137.0
 20
30.0
 30
0.0
  0
SEQEND
  0
POLYLINE
 62
256
  8
SCAN
 66
1
 10
0.0
 20
0.0
 30
0.0
 70
9
  0
VERTEX
  8
SCAN
 10
138.0
 20
27.5
 30
0.0
  0
VERTEX
  8
SCAN
 10
138.25
 20
27.5
 30
0.0
  0
VERTEX
  8
SCAN
 10
138.25
 20
30.0
 30
0.0
  0
VERTEX
  8
SCAN
 10
138.0
 20
30.0
 30
0.0
  0
SEQEND
  0
POLYLINE
 62
256
  8
SCAN
 66
1
 10
0.0
 20
0.0
 30
0.0
 70
9
  0
VERTEX
  8
SCAN
 10
139.0
 20
27.5
 30
0.0
  0
VERTEX
  8
SCAN
 10
139.25
 20
27.5
 30
0.0
  0
VERTEX
  8
SCAN
 10
139.25
 20
30.0
 30
0.0
  0
VERTEX
  8
SCAN
 10
139.0
 20
30.0
 30
0.0
  0
SEQEND
  0
POLYLINE
 62
256
  8
SCAN
 66
1
 10
0.0
 20
0.0
 30
0.0
 70
9
  0
VERTEX
  8
SCAN
 10
140.0
 20
25.0
 30
0.0
  0
VERTEX
  8
SCAN
 10
140.25
 20
25.0
 30
0.0
  0
VERTEX
  8
SCAN
 10
140.25
 20
30.0
 30
0.0
  0
VERTEX
  8
SCAN
 10
140.0
 20
30.0
 30
0.0
  0
SEQEND
  0
POLYLINE
 62
256
  8
SCAN
 66
1
 10
0.0
 20
0.0
 30
0.0
 70
9
  0
VERTEX
  8
SCAN
 10
141.0
 20
27.5
 30
0.0
  0
VERTEX
  8
SCAN
 10
141.25
 20
27.5
 30
0.0
  0
VERTEX
  8
SCAN
 10
141.25
 20
30.0
 30
0.0
  0
VERTEX
  8
SCAN
 10
141.0
 20
30.0
 30
0.0
  0
SEQEND
  0
POLYLINE
 62
256
  8
SCAN
 66
1
 10
0.0
 20
0.0
 30
0.0
 70
9
  0
VERTEX
  8
SCAN
 10
142.0
 20
27.5
 30
0.0
  0
VERTEX
  8
SCAN
 10
142.25
 20
27.5
 30
0.0
  0
VERTEX
  8
SCAN
 10
142.25
 20
30.0
 30
0.0
  0
VERTEX
  8
SCAN
 10
142.0
 20
30.0
 30
0.0
  0
SEQEND
  0
POLYLINE
 62
256
  8
SCAN
 66
1
 10
0.0
 20
0.0
 30
0.0
 70
9
  0
VERTEX
  8
SCAN
 10
143.0
 20
27.5
 30
0.0
  0
VERTEX
  8
SCAN
 10
143.25
 20
27.5
 30
0.0
  0
VERTEX
  8
SCAN
 10
143.25
 20
30.0
 30
0.0
  0
VERTEX
  8
SCAN
 10
143.0
 20
30.0
 30
0.0
  0
SEQEND
  0
POLYLINE
 62
256
  8
SCAN
 66
1
 10
0.0
 20
0.0
 30
0.0
 70
9
  0
VERTEX
  8
SCAN
 10
144.0
 20
27.5
 30
0.0
  0
VERTEX
  8
SCAN
 10
144.25
 20
27.5
 30
0.0
  0
VERTEX
  8
SCAN
 10
144.25
 20
30.0
 30
0.0
  0
VERTEX
  8
SCAN
 10
144.0
 20
30.0
 30
0.0
  0
SEQEND
  0
POLYLINE
 62
256
  8
SCAN
 66
1
 10
0.0
 20
0.0
 30
0.0
 70
9
  0
VERTEX
  8
SCAN
 10
145.0
 20
20.0
 30
0.0
  0
VERTEX
  8
SCAN
 10
145.25
 20
20.0
 30
0.0
  0
VERTEX
  8
SCAN
 10
145.25
 20
30.0
 30
0.0
  0
VERTEX
  8
SCAN
 10
145.0
 20
30.0
 30
0.0
  0
SEQEND
  0
POLYLINE
 62
256
  8
SCAN
 66
1
 10
0.0
 20
0.0
 30
0.0
 70
9
  0
VERTEX
  8
SCAN
 10
146.0
 20
27.5
 30
0.0
  0
VERTEX
  8
SCAN
 10
146.25
 20
27.5
 30
0.0
  0
VERTEX
  8
SCAN
 10
146.25
 20
30.0
 30
0.0
  0
VERTEX
  8
SCAN
 10
146.0
 20
30.0
 30
0.0
  0
SEQEND
  0
POLYLINE
 62
256
  8
SCAN
 66
1
 10
0.0
 20
0.0
 30
0.0
 70
9
  0
VERTEX
  8
SCAN
 10
147.0
 20
27.5
 30
0.0
  0
VERTEX
  8
SCAN
 10
147.25
 20
27.5
 30
0.0
  0
VERTEX
  8
SCAN
 10
147.25
 20
30.0
 30
0.0
  0
VERTEX
  8
SCAN
 10
147.0
 20
30.0
 30
0.0
  0
SEQEND
  0
POLYLINE
 62
256
  8
SCAN
 66
1
 10
0.0
 20
0.0
 30
0.0
 70
9
  0
VERTEX
  8
SCAN
 10
148.0
 20
27.5
 30
0.0
  0
VERTEX
  8
SCAN
 10
148.25
 20
27.5
 30
0.0
  0
VERTEX
  8
SCAN
 10
148.25
 20
30.0
 30
0.0
  0
VERTEX
  8
SCAN
 10
148.0
 20
30.0
 30
0.0
  0
SEQEND
  0
POLYLINE
 62
256
  8
SCAN
 66
1
 10
0.0
 20
0.0
 30
0.0
 70
9
  0
VERTEX
  8
SCAN
 10
149.0
 20
27.5
 30
0.0
  0
VERTEX
  8
SCAN
 10
149.25
 20
27.5
 30
0.0
  0
VERTEX
  8
SCAN
 10
149.25
 20
30.0
 30
0.0
  0
VERTEX
  8
SCAN
 10
149.0
 20
30.0
 30
0.0
  0
SEQEND
  0
POLYLINE
 62
256
  8
SCAN
 66
1
 10
0.0
 20
0.0
 30
0.0
 70
9
  0
VERTEX
  8
SCAN
 10
150.0
 20
25.0
 30
0.0
  0
VERTEX
  8
SCAN
 10
150.25
 20
25.0
 30
0.0
  0
VERTEX
  8
SCAN
 10
150.25
 20
30.0
 30
0.0
  0
VERTEX
  8
SCAN
 10
150.0
 20
30.0
 30
0.0
  0
SEQEND
  0
POLYLINE
 62
256
  8
SCAN
 66
1
 10
0.0
 20
0.0
 30
0.0
 70
9
  0
VERTEX
  8
SCAN
 10
151.0
 20
27.5
 30
0.0
  0
VERTEX
  8
SCAN
 10
151.25
 20
27.5
 30
0.0
  0
VERTEX
  8
SCAN
 10
151.25
 20
30.0
 30
0.0
  0
VERTEX
  8
SCAN
 10
151.0
 20
30.0
 30
0.0
  0
SEQEND
  0
POLYLINE
 62
256
  8
SCAN
 66
1
 10
0.0
 20
0.0
 30
0.0
 70
9
  0
VERTEX
  8
SCAN
 10
152.0
 20
27.5
 30
0.0
  0
VERTEX
  8
SCAN
 10
152.25
 20
27.5
 30
0.0
  0
VERTEX
  8
SCAN
 10
152.25
 20
30.0
 30
0.0
  0
VERTEX
  8
SCAN
 10
152.0
 20
30.0
 30
0.0
  0
SEQEND
  0
POLYLINE
 62
256
  8
SCAN
 66
1
 10
0.0
 20
0.0
 30
0.0
 70
9
  0
VERTEX
  8
SCAN
 10
153.0
 20
27.5
 30
0.0
  0
VERTEX
  8
SCAN
 10
153.25
 20
27.5
 30
0.0
  0
VERTEX
  8
SCAN
 10
153.25
 20
30.0
 30
0.0
  0
VERTEX
  8
SCAN
 10
153.0
 20
30.0
 30
0.0
  0
SEQEND
  0
POLYLINE
 62
256
  8
SCAN
 66
1
 10
0.0
 20
0.0
 30
0.0
 70
9
  0
VERTEX
  8
SCAN
 10
154.0
 20
27.5
 30
0.0
  0
VERTEX
  8
SCAN
 10
154.25
 20
27.5
 30
0.0
  0
VERTEX
  8
SCAN
 10
154.25
 20
30.0
 30
0.0
  0
VERTEX
  8
SCAN
 10
154.0
 20
30.0
 30
0.0
  0
SEQEND
  0
POLYLINE
 62
256
  8
SCAN
 66
1
 10
0.0
 20
0.0
 30
0.0
 70
9
  0
VERTEX
  8
SCAN
 10
155.0
 20
20.0
 30
0.0
  0
VERTEX
  8
SCAN
 10
155.25
 20
20.0
 30
0.0
  0
VERTEX
  8
SCAN
 10
155.25
 20
30.0
 30
0.0
  0
VERTEX
  8
SCAN
 10
155.0
 20
30.0
 30
0.0
  0
SEQEND
  0
POLYLINE
 62
256
  8
SCAN
 66
1
 10
0.0
 20
0.0
 30
0.0
 70
9
  0
VERTEX
  8
SCAN
 10
156.0
 20
27.5
 30
0.0
  0
VERTEX
  8
SCAN
 10
156.25
 20
27.5
 30
0.0
  0
VERTEX
  8
SCAN
 10
156.25
 20
30.0
 30
0.0
  0
VERTEX
  8
SCAN
 10
156.0
 20
30.0
 30
0.0
  0
SEQEND
  0
POLYLINE
 62
256
  8
SCAN
 66
1
 10
0.0
 20
0.0
 30
0.0
 70
9
  0
VERTEX
  8
SCAN
 10
157.0
 20
27.5
 30
0.0
  0
VERTEX
  8
SCAN
 10
157.25
 20
27.5
 30
0.0
  0
VERTEX
  8
SCAN
 10
157.25
 20
30.0
 30
0.0
  0
VERTEX
  8
SCAN
 10
157.0
 20
30.0
 30
0.0
  0
SEQEND
  0
POLYLINE
 62
256
  8
SCAN
 66
1
 10
0.0
 20
0.0
 30
0.0
 70
9
  0
VERTEX
  8
SCAN
 10
158.0
 20
27.5
 30
0.0
  0
VERTEX
  8
SCAN
 10
158.25
 20
27.5
 30
0.0
  0
VERTEX
  8
SCAN
 10
158.25
 20
30.0
 30
0.0
  0
VERTEX
  8
SCAN
 10
158.0
 20
30.0
 30
0.0
  0
SEQEND
  0
POLYLINE
 62
256
  8
SCAN
 66
1
 10
0.0
 20
0.0
 30
0.0
 70
9
  0
VERTEX
  8
SCAN
 10
159.0
 20
27.5
 30
0.0
  0
VERTEX
  8
SCAN
 10
159.25
 20
27.5
 30
0.0
  0
VERTEX
  8
SCAN
 10
159.25
 20
30.0
 30
0.0
  0
VERTEX
  8
SCAN
 10
159.0
 20
30.0
 30
0.0
  0
SEQEND
  0
POLYLINE
 62
256
  8
SCAN
 66
1
 10
0.0
 20
0.0
 30
0.0
 70
9
  0
VERTEX
  8
SCAN
 10
160.0
 20
25.0
 30
0.0
  0
VERTEX
  8
SCAN
 10
160.25
 20
25.0
 30
0.0
  0
VERTEX
  8
SCAN
 10
160.25
 20
30.0
 30
0.0
  0
VERTEX
  8
SCAN
 10
160.0
 20
30.0
 30
0.0
  0
SEQEND
  0
POLYLINE
 62
256
  8
SCAN
 66
1
 10
0.0
 20
0.0
 30
0.0
 70
9
  0
VERTEX
  8
SCAN
 10
161.0
 20
27.5
 30
0.0
  0
VERTEX
  8
SCAN
 10
161.25
 20
27.5
 30
0.0
  0
VERTEX
  8
SCAN
 10
161.25
 20
30.0
 30
0.0
  0
VERTEX
  8
SCAN
 10
161.0
 20
30.0
 30
0.0
  0
SEQEND
  0
POLYLINE
 62
256
  8
SCAN
 66
1
 10
0.0
 20
0.0
 30
0.0
 70
9
  0
VERTEX
  8
SCAN
 10
162.0
 20
27.5
 30
0.0
  0
VERTEX
  8
SCAN
 10
162.25
 20
27.5
 30
0.0
  0
VERTEX
  8
SCAN
 10
162.25
 20
30.0
 30
0.0
  0
VERTEX
  8
SCAN
 10
162.0
 20
30.0
 30
0.0
  0
SEQEND
  0
POLYLINE
 62
256
  8
SCAN
 66
1
 10
0.0
 20
0.0
 30
0.0
 70
9
  0
VERTEX
  8
SCAN
 10
163.0
 20
27.5
 30
0.0
  0
VERTEX
  8
SCAN
 10
163.25
 20
27.5
 30
0.0
  0
VERTEX
  8
SCAN
 10
163.25
 20
30.0
 30
0.0
  0
VERTEX
  8
SCAN
 10
163.0
 20
30.0
 30
0.0
  0
SEQEND
  0
POLYLINE
 62
256
  8
SCAN
 66
1
 10
0.0
 20
0.0
 30
0.0
 70
9
  0
VERTEX
  8
SCAN
 10
164.0
 20
27.5
 30
0.0
  0
VERTEX
  8
SCAN
 10
164.25
 20
27.5
 30
0.0
  0
VERTEX
  8
SCAN
 10
164.25
 20
30.0
 30
0.0
  0
VERTEX
  8
SCAN
 10
164.0
 20
30.0
 30
0.0
  0
SEQEND
  0
POLYLINE
 62
256
  8
SCAN
 66
1
 10
0.0
 20
0.0
 30
0.0
 70
9
  0
VERTEX
  8
SCAN
 10
165.0
 20
20.0
 30
0.0
  0
VERTEX
  8
SCAN
 10
165.25
 20
20.0
 30
0.0
  0
VERTEX
  8
SCAN
 10
165.25
 20
30.0
 30
0.0
  0
VERTEX
  8
SCAN
 10
165.0
 20
30.0
 30
0.0
  0
SEQEND
  0
POLYLINE
 62
256
  8
SCAN
 66
1
 10
0.0
 20
0.0
 30
0.0
 70
9
  0
VERTEX
  8
SCAN
 10
166.0
 20
27.5
 30
0.0
  0
VERTEX
  8
SCAN
 10
166.25
 20
27.5
 30
0.0
  0
VERTEX
  8
SCAN
 10
166.25
 20
30.0
 30
0.0
  0
VERTEX
  8
SCAN
 10
166.0
 20
30.0
 30
0.0
  0
SEQEND
  0
POLYLINE
 62
256
  8
SCAN
 66
1
 10
0.0
 20
0.0
 30
0.0
 70
9
  0
VERTEX
  8
SCAN
 10
167.0
 20
27.5
 30
0.0
  0
VERTEX
  8
SCAN
 10
167.25
 20
27.5
 30
0.0
  0
VERTEX
  8
SCAN
 10
167.25
 20
30.0
 30
0.0
  0
VERTEX
  8
SCAN
 10
167.0
 20
30.0
 30
0.0
  0
SEQEND
  0
POLYLINE
 62
256
  8
SCAN
 66
1
 10
0.0
 20
0.0
 30
0.0
 70
9
  0
VERTEX
  8
SCAN
 10
168.0
 20
27.5
 30
0.0
  0
VERTEX
  8
SCAN
 10
168.25
 20
27.5
 30
0.0
  0
VERTEX
  8
SCAN
 10
168.25
 20
30.0
 30
0.0
  0
VERTEX
  8
SCAN
 10
168.0
 20
30.0
 30
0.0
  0
SEQEND
  0
POLYLINE
 62
256
  8
SCAN
 66
1
 10
0.0
 20
0.0
 30
0.0
 70
9
  0
VERTEX
  8
SCAN
 10
169.0
 20
27.5
 30
0.0
  0
VERTEX
  8
SCAN
 10
169.25
 20
27.5
 30
0.0
  0
VERTEX
  8
SCAN
 10
169.25
 20
30.0
 30
0.0
  0
VERTEX
  8
SCAN
 10
169.0
 20
30.0
 30
0.0
  0
SEQEND
  0
POLYLINE
 62
256
  8
SCAN
 66
1
 10
0.0
 20
0.0
 30
0.0
 70
9
  0
VERTEX
  8
SCAN
 10
170.0
 20
25.0
 30
0.0
  0
VERTEX
  8
SCAN
 10
170.25
 20
25.0
 30
0.0
  0
VERTEX
  8
SCAN
 10
170.25
 20
30.0
 30
0.0
  0
VERTEX
  8
SCAN
 10
170.0
 20
30.0
 30
0.0
  0
SEQEND
  0
POLYLINE
 62
256
  8
SCAN
 66
1
 10
0.0
 20
0.0
 30
0.0
 70
9
  0
VERTEX
  8
SCAN
 10
171.0
 20
27.5
 30
0.0
  0
VERTEX
  8
SCAN
 10
171.25
 20
27.5
 30
0.0
  0
VERTEX
  8
SCAN
 10
171.25
 20
30.0
 30
0.0
  0
VERTEX
  8
SCAN
 10
171.0
 20
30.0
 30
0.0
  0
SEQEND
  0
POLYLINE
 62
256
  8
SCAN
 66
1
 10
0.0
 20
0.0
 30
0.0
 70
9
  0
VERTEX
  8
SCAN
 10
172.0
 20
27.5
 30
0.0
  0
VERTEX
  8
SCAN
 10
172.25
 20
27.5
 30
0.0
  0
VERTEX
  8
SCAN
 10
172.25
 20
30.0
 30
0.0
  0
VERTEX
  8
SCAN
 10
172.0
 20
30.0
 30
0.0
  0
SEQEND
  0
POLYLINE
 62
256
  8
SCAN
 66
1
 10
0.0
 20
0.0
 30
0.0
 70
9
  0
VERTEX
  8
SCAN
 10
173.0
 20
27.5
 30
0.0
  0
VERTEX
  8
SCAN
 10
173.25
 20
27.5
 30
0.0
  0
VERTEX
  8
SCAN
 10
173.25
 20
30.0
 30
0.0
  0
VERTEX
  8
SCAN
 10
173.0
 20
30.0
 30
0.0
  0
SEQEND
  0
POLYLINE
 62
256
  8
SCAN
 66
1
 10
0.0
 20
0.0
 30
0.0
 70
9
  0
VERTEX
  8
SCAN
 10
174.0
 20
27.5
 30
0.0
  0
VERTEX
  8
SCAN
 10
174.25
 20
27.5
 30
0.0
  0
VERTEX
  8
SCAN
 10
174.25
 20
30.0
 30
0.0
  0
VERTEX
  8
SCAN
 10
174.0
 20
30.0
 30
0.0
  0
SEQEND
  0
POLYLINE
 62
256
  8
SCAN
 66
1
 10
0.0
 20
0.0
 30
0.0
 70
9
  0
VERTEX
  8
SCAN
 10
175.0
 20
20.0
 30
0.0
  0
VERTEX
  8
SCAN
 10
175.25
 20
20.0
 30
0.0
  0
VERTEX
  8
SCAN
 10
175.25
 20
30.0
 30
0.0
  0
VERTEX
  8
SCAN
 10
175.0
 20
30.0
 30
0.0
  0
SEQEND
  0
POLYLINE
 62
256
  8
SCAN
 66
1
 10
0.0
 20
0.0
 30
0.0
 70
9
  0
VERTEX
  8
SCAN
 10
176.0
 20
27.5
 30
0.0
  0
VERTEX
  8
SCAN
 10
176.25
 20
27.5
 30
0.0
  0
VERTEX
  8
SCAN
 10
176.25
 20
30.0
 30
0.0
  0
VERTEX
  8
SCAN
 10
176.0
 20
30.0
 30
0.0
  0
SEQEND
  0
POLYLINE
 62
256
  8
SCAN
 66
1
 10
0.0
 20
0.0
 30
0.0
 70
9
  0
VERTEX
  8
SCAN
 10
177.0
 20
27.5
 30
0.0
  0
VERTEX
  8
SCAN
 10
177.25
 20
27.5
 30
0.0
  0
VERTEX
  8
SCAN
 10
177.25
 20
30.0
 30
0.0
  0
VERTEX
  8
SCAN
 10
177.0
 20
30.0
 30
0.0
  0
SEQEND
  0
POLYLINE
 62
256
  8
SCAN
 66
1
 10
0.0
 20
0.0
 30
0.0
 70
9
  0
VERTEX
  8
SCAN
 10
178.0
 20
27.5
 30
0.0
  0
VERTEX
  8
SCAN
 10
178.25
 20
27.5
 30
0.0
  0
VERTEX
  8
SCAN
 10
178.25
 20
30.0
 30
0.0
  0
VERTEX
  8
SCAN
 10
178.0
 20
30.0
 30
0.0
  0
SEQEND
  0
POLYLINE
 62
256
  8
SCAN
 66
1
 10
0.0
 20
0.0
 30
0.0
 70
9
  0
VERTEX
  8
SCAN
 10
179.0
 20
27.5
 30
0.0
  0
VERTEX
  8
SCAN
 10
179.25
 20
27.5
 30
0.0
  0
VERTEX
  8
SCAN
 10
179.25
 20
30.0
 30
0.0
  0
VERTEX
  8
SCAN
 10
179.0
 20
30.0
 30
0.0
  0
SEQEND
  0
POLYLINE
 62
256
  8
SCAN
 66
1
 10
0.0
 20
0.0
 30
0.0
 70
9
  0
VERTEX
  8
SCAN
 10
180.0
 20
25.0
 30
0.0
  0
VERTEX
  8
SCAN
 10
180.25
 20
25.0
 30
0.0
  0
VERTEX
  8
SCAN
 10
180.25
 20
30.0
 30
0.0
  0
VERTEX
  8
SCAN
 10
180.0
 20
30.0
 30
0.0
  0
SEQEND
  0
POLYLINE
 62
256
  8
SCAN
 66
1
 10
0.0
 20
0.0
 30
0.0
 70
9
  0
VERTEX
  8
SCAN
 10
181.0
 20
27.5
 30
0.0
  0
VERTEX
  8
SCAN
 10
181.25
 20
27.5
 30
0.0
  0
VERTEX
  8
SCAN
 10
181.25
 20
30.0
 30
0.0
  0
VERTEX
  8
SCAN
 10
181.0
 20
30.0
 30
0.0
  0
SEQEND
  0
POLYLINE
 62
256
  8
SCAN
 66
1
 10
0.0
 20
0.0
 30
0.0
 70
9
  0
VERTEX
  8
SCAN
 10
182.0
 20
27.5
 30
0.0
  0
VERTEX
  8
SCAN
 10
182.25
 20
27.5
 30
0.0
  0
VERTEX
  8
SCAN
 10
182.25
 20
30.0
 30
0.0
  0
VERTEX
  8
SCAN
 10
182.0
 20
30.0
 30
0.0
  0
SEQEND
  0
POLYLINE
 62
256
  8
SCAN
 66
1
 10
0.0
 20
0.0
 30
0.0
 70
9
  0
VERTEX
  8
SCAN
 10
183.0
 20
27.5
 30
0.0
  0
VERTEX
  8
SCAN
 10
183.25
 20
27.5
 30
0.0
  0
VERTEX
  8
SCAN
 10
183.25
 20
30.0
 30
0.0
  0
VERTEX
  8
SCAN
 10
183.0
 20
30.0
 30
0.0
  0
SEQEND
  0
POLYLINE
 62
256
  8
SCAN
 66
1
 10
0.0
 20
0.0
 30
0.0
 70
9
  0
VERTEX
  8
SCAN
 10
184.0
 20
27.5
 30
0.0
  0
VERTEX
  8
SCAN
 10
184.25
 20
27.5
 30
0.0
  0
VERTEX
  8
SCAN
 10
184.25
 20
30.0
 30
0.0
  0
VERTEX
  8
SCAN
 10
184.0
 20
30.0
 30
0.0
  0
SEQEND
  0
POLYLINE
 62
256
  8
SCAN
 66
1
 10
0.0
 20
0.0
 30
0.0
 70
9
  0
VERTEX
  8
SCAN
 10
185.0
 20
20.0
 30
0.0
  0
VERTEX
  8
SCAN
 10
185.25
 20
20.0
 30
0.0
  0
VERTEX
  8
SCAN
 10
185.25
 20
30.0
 30
0.0
  0
VERTEX
  8
SCAN
 10
185.0
 20
30.0
 30
0.0
  0
SEQEND
  0
POLYLINE
 62
256
  8
SCAN
 66
1
 10
0.0
 20
0.0
 30
0.0
 70
9
  0
VERTEX
  8
SCAN
 10
186.0
 20
27.5
 30
0.0
  0
VERTEX
  8
SCAN
 10
186.25
 20
27.5
 30
0.0
  0
VERTEX
  8
SCAN
 10
186.25
 20
30.0
 30
0.0
  0
VERTEX
  8
SCAN
 10
186.0
 20
30.0
 30
0.0
  0
SEQEND
  0
POLYLINE
 62
256
  8
SCAN
 66
1
 10
0.0
 20
0.0
 30
0.0
 70
9
  0
VERTEX
  8
SCAN
 10
187.0
 20
27.5
 30
0.0
  0
VERTEX
  8
SCAN
 10
187.25
 20
27.5
 30
0.0
  0
VERTEX
  8
SCAN
 10
187.25
 20
30.0
 30
0.0
  0
VERTEX
  8
SCAN
 10
187.0
 20
30.0
 30
0.0
  0
SEQEND
  0
POLYLINE
 62
256
  8
SCAN
 66
1
 10
0.0
 20
0.0
 30
0.0
 70
9
  0
VERTEX
  8
SCAN
 10
188.0
 20
27.5
 30
0.0
  0
VERTEX
  8
SCAN
 10
188.25
 20
27.5
 30
0.0
  0
VERTEX
  8
SCAN
 10
188.25
 20
30.0
 30
0.0
  0
VERTEX
  8
SCAN
 10
188.0
 20
30.0
 30
0.0
  0
SEQEND
  0
POLYLINE
 62
256
  8
SCAN
 66
1
 10
0.0
 20
0.0
 30
0.0
 70
9
  0
VERTEX
  8
SCAN
 10
189.0
 20
27.5
 30
0.0
  0
VERTEX
  8
SCAN
 10
189.25
 20
27.5
 30
0.0
  0
VERTEX
  8
SCAN
 10
189.25
 20
30.0
 30
0.0
  0
VERTEX
  8
SCAN
 10
189.0
 20
30.0
 30
0.0
  0
SEQEND
  0
POLYLINE
 62
256
  8
SCAN
 66
1
 10
0.0
 20
0.0
 30
0.0
 70
9
  0
VERTEX
  8
SCAN
 10
190.0
 20
25.0
 30
0.0
  0
VERTEX
  8
SCAN
 10
190.25
 20
25.0
 30
0.0
  0
VERTEX
  8
SCAN
 10
190.25
 20
30.0
 30
0.0
  0
VERTEX
  8
SCAN
 10
190.0
 20
30.0
 30
0.0
  0
SEQEND
  0
POLYLINE
 62
256
  8
SCAN
 66
1
 10
0.0
 20
0.0
 30
0.0
 70
9
  0
VERTEX
  8
SCAN
 10
191.0
 20
27.5
 30
0.0
  0
VERTEX
  8
SCAN
 10
191.25
 20
27.5
 30
0.0
  0
VERTEX
  8
SCAN
 10
191.25
 20
30.0
 30
0.0
  0
VERTEX
  8
SCAN
 10
191.0
 20
30.0
 30
0.0
  0
SEQEND
  0
POLYLINE
 62
256
  8
SCAN
 66
1
 10
0.0
 20
0.0
 30
0.0
 70
9
  0
VERTEX
  8
SCAN
 10
192.0
 20
27.5
 30
0.0
  0
VERTEX
  8
SCAN
 10
192.25
 20
27.5
 30
0.0
  0
VERTEX
  8
SCAN
 10
192.25
 20
30.0
 30
0.0
  0
VERTEX
  8
SCAN
 10
192.0
 20
30.0
 30
0.0
  0
SEQEND
  0
POLYLINE
 62
256
  8
SCAN
 66
1
 10
0.0
 20
0.0
 30
0.0
 70
9
  0
VERTEX
  8
SCAN
 10
193.0
 20
27.5
 30
0.0
  0
VERTEX
  8
SCAN
 10
193.25
 20
27.5
 30
0.0
  0
VERTEX
  8
SCAN
 10
193.25
 20
30.0
 30
0.0
  0
VERTEX
  8
SCAN
 10
193.0
 20
30.0
 30
0.0
  0
SEQEND
  0
POLYLINE
 62
256
  8
SCAN
 66
1
 10
0.0
 20
0.0
 30
0.0
 70
9
  0
VERTEX
  8
SCAN
 10
194.0
 20
27.5
 30
0.0
  0
VERTEX
  8
SCAN
 10
194.25
 20
27.5
 30
0.0
  0
VERTEX
  8
SCAN
 10
194.25
 20
30.0
 30
0.0
  0
VERTEX
  8
SCAN
 10
194.0
 20
30.0
 30
0.0
  0
SEQEND
  0
POLYLINE
 62
256
  8
SCAN
 66
1
 10
0.0
 20
0.0
 30
0.0
 70
9
  0
VERTEX
  8
SCAN
 10
195.0
 20
20.0
 30
0.0
  0
VERTEX
  8
SCAN
 10
195.25
 20
20.0
 30
0.0
  0
VERTEX
  8
SCAN
 10
195.25
 20
30.0
 30
0.0
  0
VERTEX
  8
SCAN
 10
195.0
 20
30.0
 30
0.0
  0
SEQEND
  0
POLYLINE
 62
256
  8
SCAN
 66
1
 10
0.0
 20
0.0
 30
0.0
 70
9
  0
VERTEX
  8
SCAN
 10
196.0
 20
27.5
 30
0.0
  0
VERTEX
  8
SCAN
 10
196.25
 20
27.5
 30
0.0
  0
VERTEX
  8
SCAN
 10
196.25
 20
30.0
 30
0.0
  0
VERTEX
  8
SCAN
 10
196.0
 20
30.0
 30
0.0
  0
SEQEND
  0
POLYLINE
 62
256
  8
SCAN
 66
1
 10
0.0
 20
0.0
 30
0.0
 70
9
  0
VERTEX
  8
SCAN
 10
197.0
 20
27.5
 30
0.0
  0
VERTEX
  8
SCAN
 10
197.25
 20
27.5
 30
0.0
  0
VERTEX
  8
SCAN
 10
197.25
 20
30.0
 30
0.0
  0
VERTEX
  8
SCAN
 10
197.0
 20
30.0
 30
0.0
  0
SEQEND
  0
POLYLINE
 62
256
  8
SCAN
 66
1
 10
0.0
 20
0.0
 30
0.0
 70
9
  0
VERTEX
  8
SCAN
 10
198.0
 20
27.5
 30
0.0
  0
VERTEX
  8
SCAN
 10
198.25
 20
27.5
 30
0.0
  0
VERTEX
  8
SCAN
 10
198.25
 20
30.0
 30
0.0
  0
VERTEX
  8
SCAN
 10
198.0
 20
30.0
 30
0.0
  0
SEQEND
  0
POLYLINE
 62
256
  8
SCAN
 66
1
 10
0.0
 20
0.0
 30
0.0
 70
9
  0
VERTEX
  8
SCAN
 10
199.0
 20
27.5
 30
0.0
  0
VERTEX
  8
SCAN
 10
199.25
 20
27.5
 30
0.0
  0
VERTEX
  8
SCAN
 10
199.25
 20
30.0
 30
0.0
  0
VERTEX
  8
SCAN
 10
199.0
 20
30.0
 30
0.0
  0
SEQEND
  0
POLYLINE
 62
256
  8
SCAN
 66
1
 10
0.0
 20
0.0
 30
0.0
 70
9
  0
VERTEX
  8
SCAN
 10
200.0
 20
25.0
 30
0.0
  0
VERTEX
  8
SCAN
 10
200.25
 20
25.0
 30
0.0
  0
VERTEX
  8
SCAN
 10
200.25
 20
30.0
 30
0.0
  0
VERTEX
  8
SCAN
 10
200.0
 20
30.0
 30
0.0
  0
SEQEND
  0
POLYLINE
 62
256
  8
SCAN
 66
1
 10
0.0
 20
0.0
 30
0.0
 70
9
  0
VERTEX
  8
SCAN
 10
201.0
 20
27.5
 30
0.0
  0
VERTEX
  8
SCAN
 10
201.25
 20
27.5
 30
0.0
  0
VERTEX
  8
SCAN
 10
201.25
 20
30.0
 30
0.0
  0
VERTEX
  8
SCAN
 10
201.0
 20
30.0
 30
0.0
  0
SEQEND
  0
POLYLINE
 62
256
  8
SCAN
 66
1
 10
0.0
 20
0.0
 30
0.0
 70
9
  0
VERTEX
  8
SCAN
 10
202.0
 20
27.5
 30
0.0
  0
VERTEX
  8
SCAN
 10
202.25
 20
27.5
 30
0.0
  0
VERTEX
  8
SCAN
 10
202.25
 20
30.0
 30
0.0
  0
VERTEX
  8
SCAN
 10
202.0
 20
30.0
 30
0.0
  0
SEQEND
  0
POLYLINE
 62
256
  8
SCAN
 66
1
 10
0.0
 20
0.0
 30
0.0
 70
9
  0
VERTEX
  8
SCAN
 10
203.0
 20
27.5
 30
0.0
  0
VERTEX
  8
SCAN
 10
203.25
 20
27.5
 30
0.0
  0
VERTEX
  8
SCAN
 10
203.25
 20
30.0
 30
0.0
  0
VERTEX
  8
SCAN
 10
203.0
 20
30.0
 30
0.0
  0
SEQEND
  0
POLYLINE
 62
256
  8
SCAN
 66
1
 10
0.0
 20
0.0
 30
0.0
 70
9
  0
VERTEX
  8
SCAN
 10
204.0
 20
27.5
 30
0.0
  0
VERTEX
  8
SCAN
 10
204.25
 20
27.5
 30
0.0
  0
VERTEX
  8
SCAN
 10
204.25
 20
30.0
 30
0.0
  0
VERTEX
  8
SCAN
 10
204.0
 20
30.0
 30
0.0
  0
SEQEND
  0
POLYLINE
 62
256
  8
SCAN
 66
1
 10
0.0
 20
0.0
 30
0.0
 70
9
  0
VERTEX
  8
SCAN
 10
205.0
 20
20.0
 30
0.0
  0
VERTEX
  8
SCAN
 10
205.25
 20
20.0
 30
0.0
  0
VERTEX
  8
SCAN
 10
205.25
 20
30.0
 30
0.0
  0
VERTEX
  8
SCAN
 10
205.0
 20
30.0
 30
0.0
  0
SEQEND
  0
POLYLINE
 62
256
  8
SCAN
 66
1
 10
0.0
 20
0.0
 30
0.0
 70
9
  0
VERTEX
  8
SCAN
 10
206.0
 20
27.5
 30
0.0
  0
VERTEX
  8
SCAN
 10
206.25
 20
27.5
 30
0.0
  0
VERTEX
  8
SCAN
 10
206.25
 20
30.0
 30
0.0
  0
VERTEX
  8
SCAN
 10
206.0
 20
30.0
 30
0.0
  0
SEQEND
  0
POLYLINE
 62
256
  8
SCAN
 66
1
 10
0.0
 20
0.0
 30
0.0
 70
9
  0
VERTEX
  8
SCAN
 10
207.0
 20
27.5
 30
0.0
  0
VERTEX
  8
SCAN
 10
207.25
 20
27.5
 30
0.0
  0
VERTEX
  8
SCAN
 10
207.25
 20
30.0
 30
0.0
  0
VERTEX
  8
SCAN
 10
207.0
 20
30.0
 30
0.0
  0
SEQEND
  0
POLYLINE
 62
256
  8
SCAN
 66
1
 10
0.0
 20
0.0
 30
0.0
 70
9
  0
VERTEX
  8
SCAN
 10
208.0
 20
27.5
 30
0.0
  0
VERTEX
  8
SCAN
 10
208.25
 20
27.5
 30
0.0
  0
VERTEX
  8
SCAN
 10
208.25
 20
30.0
 30
0.0
  0
VERTEX
  8
SCAN
 10
208.0
 20
30.0
 30
0.0
  0
SEQEND
  0
POLYLINE
 62
256
  8
SCAN
 66
1
 10
0.0
 20
0.0
 30
0.0
 70
9
  0
VERTEX
  8
SCAN
 10
209.0
 20
27.5
 30
0.0
  0
VERTEX
  8
SCAN
 10
209.25
 20
27.5
 30
0.0
  0
VERTEX
  8
SCAN
 10
209.25
 20
30.0
 30
0.0
  0
VERTEX
  8
SCAN
 10
209.0
 20
30.0
 30
0.0
  0
SEQEND
  0
POLYLINE
 62
256
  8
SCAN
 66
1
 10
0.0
 20
0.0
 30
0.0
 70
9
  0
VERTEX
  8
SCAN
 10
210.0
 20
25.0
 30
0.0
  0
VERTEX
  8
SCAN
 10
210.25
 20
25.0
 30
0.0
  0
VERTEX
  8
SCAN
 10
210.25
 20
30.0
 30
0.0
  0
VERTEX
  8
SCAN
 10
210.0
 20
30.0
 30
0.0
  0
SEQEND
  0
POLYLINE
 62
256
  8
SCAN
 66
1
 10
0.0
 20
0.0
 30
0.0
 70
9
  0
VERTEX
  8
SCAN
 10
211.0
 20
27.5
 30
0.0
  0
VERTEX
  8
SCAN
 10
211.25
 20
27.5
 30
0.0
  0
VERTEX
  8
SCAN
 10
211.25
 20
30.0
 30
0.0
  0
VERTEX
  8
SCAN
 10
211.0
 20
30.0
 30
0.0
  0
SEQEND
  0
POLYLINE
 62
256
  8
SCAN
 66
1
 10
0.0
 20
0.0
 30
0.0
 70
9
  0
VERTEX
  8
SCAN
 10
212.0
 20
27.5
 30
0.0
  0
VERTEX
  8
SCAN
 10
212.25
 20
27.5
 30
0.0
  0
VERTEX
  8
SCAN
 10
212.25
 20
30.0
 30
0.0
  0
VERTEX
  8
SCAN
 10
212.0
 20
30.0
 30
0.0
  0
SEQEND
  0
POLYLINE
 62
256
  8
SCAN
 66
1
 10
0.0
 20
0.0
 30
0.0
 70
9
  0
VERTEX
  8
SCAN
 10
213.0
 20
27.5
 30
0.0
  0
VERTEX
  8
SCAN
 10
213.25
 20
27.5
 30
0.0
  0
VERTEX
  8
SCAN
 10
213.25
 20
30.0
 30
0.0
  0
VERTEX
  8
SCAN
 10
213.0
 20
30.0
 30
0.0
  0
SEQEND
  0
POLYLINE
 62
256
  8
SCAN
 66
1
 10
0.0
 20
0.0
 30
0.0
 70
9
  0
VERTEX
  8
SCAN
 10
214.0
 20
27.5
 30
0.0
  0
VERTEX
  8
SCAN
 10
214.25
 20
27.5
 30
0.0
  0
VERTEX
  8
SCAN
 10
214.25
 20
30.0
 30
0.0
  0
VERTEX
  8
SCAN
 10
214.0
 20
30.0
 30
0.0
  0
SEQEND
  0
POLYLINE
 62
256
  8
SCAN
 66
1
 10
0.0
 20
0.0
 30
0.0
 70
9
  0
VERTEX
  8
SCAN
 10
215.0
 20
20.0
 30
0.0
  0
VERTEX
  8
SCAN
 10
215.25
 20
20.0
 30
0.0
  0
VERTEX
  8
SCAN
 10
215.25
 20
30.0
 30
0.0
  0
VERTEX
  8
SCAN
 10
215.0
 20
30.0
 30
0.0
  0
SEQEND
  0
POLYLINE
 62
256
  8
SCAN
 66
1
 10
0.0
 20
0.0
 30
0.0
 70
9
  0
VERTEX
  8
SCAN
 10
216.0
 20
27.5
 30
0.0
  0
VERTEX
  8
SCAN
 10
216.25
 20
27.5
 30
0.0
  0
VERTEX
  8
SCAN
 10
216.25
 20
30.0
 30
0.0
  0
VERTEX
  8
SCAN
 10
216.0
 20
30.0
 30
0.0
  0
SEQEND
  0
POLYLINE
 62
256
  8
SCAN
 66
1
 10
0.0
 20
0.0
 30
0.0
 70
9
  0
VERTEX
  8
SCAN
 10
217.0
 20
27.5
 30
0.0
  0
VERTEX
  8
SCAN
 10
217.25
 20
27.5
 30
0.0
  0
VERTEX
  8
SCAN
 10
217.25
 20
30.0
 30
0.0
  0
VERTEX
  8
SCAN
 10
217.0
 20
30.0
 30
0.0
  0
SEQEND
  0
POLYLINE
 62
256
  8
SCAN
 66
1
 10
0.0
 20
0.0
 30
0.0
 70
9
  0
VERTEX
  8
SCAN
 10
218.0
 20
27.5
 30
0.0
  0
VERTEX
  8
SCAN
 10
218.25
 20
27.5
 30
0.0
  0
VERTEX
  8
SCAN
 10
218.25
 20
30.0
 30
0.0
  0
VERTEX
  8
SCAN
 10
218.0
 20
30.0
 30
0.0
  0
SEQEND
  0
POLYLINE
 62
256
  8
SCAN
 66
1
 10
0.0
 20
0.0
 30
0.0
 70
9
  0
VERTEX
  8
SCAN
 10
219.0
 20
27.5
 30
0.0
  0
VERTEX
  8
SCAN
 10
219.25
 20
27.5
 30
0.0
  0
VERTEX
  8
SCAN
 10
219.25
 20
30.0
 30
0.0
  0
VERTEX
  8
SCAN
 10
219.0
 20
30.0
 30
0.0
  0
SEQEND
  0
POLYLINE
 62
256
  8
SCAN
 66
1
 10
0.0
 20
0.0
 30
0.0
 70
9
  0
VERTEX
  8
SCAN
 10
220.0
 20
25.0
 30
0.0
  0
VERTEX
  8
SCAN
 10
220.25
 20
25.0
 30
0.0
  0
VERTEX
  8
SCAN
 10
220.25
 20
30.0
 30
0.0
  0
VERTEX
  8
SCAN
 10
220.0
 20
30.0
 30
0.0
  0
SEQEND
  0
POLYLINE
 62
256
  8
SCAN
 66
1
 10
0.0
 20
0.0
 30
0.0
 70
9
  0
VERTEX
  8
SCAN
 10
221.0
 20
27.5
 30
0.0
  0
VERTEX
  8
SCAN
 10
221.25
 20
27.5
 30
0.0
  0
VERTEX
  8
SCAN
 10
221.25
 20
30.0
 30
0.0
  0
VERTEX
  8
SCAN
 10
221.0
 20
30.0
 30
0.0
  0
SEQEND
  0
POLYLINE
 62
256
  8
SCAN
 66
1
 10
0.0
 20
0.0
 30
0.0
 70
9
  0
VERTEX
  8
SCAN
 10
222.0
 20
27.5
 30
0.0
  0
VERTEX
  8
SCAN
 10
222.25
 20
27.5
 30
0.0
  0
VERTEX
  8
SCAN
 10
222.25
 20
30.0
 30
0.0
  0
VERTEX
  8
SCAN
 10
222.0
 20
30.0
 30
0.0
  0
SEQEND
  0
POLYLINE
 62
256
  8
SCAN
 66
1
 10
0.0
 20
0.0
 30
0.0
 70
9
  0
VERTEX
  8
SCAN
 10
223.0
 20
27.5
 30
0.0
  0
VERTEX
  8
SCAN
 10
223.25
 20
27.5
 30
0.0
  0
VERTEX
  8
SCAN
 10
223.25
 20
30.0
 30
0.0
  0
VERTEX
  8
SCAN
 10
223.0
 20
30.0
 30
0.0
  0
SEQEND
  0
POLYLINE
 62
256
  8
SCAN
 66
1
 10
0.0
 20
0.0
 30
0.0
 70
9
  0
VERTEX
  8
SCAN
 10
224.0
 20
27.5
 30
0.0
  0
VERTEX
  8
SCAN
 10
224.25
 20
27.5
 30
0.0
  0
VERTEX
  8
SCAN
 10
224.25
 20
30.0
 30
0.0
  0
VERTEX
  8
SCAN
 10
224.0
 20
30.0
 30
0.0
  0
SEQEND
  0
POLYLINE
 62
256
  8
SCAN
 66
1
 10
0.0
 20
0.0
 30
0.0
 70
9
  0
VERTEX
  8
SCAN
 10
225.0
 20
20.0
 30
0.0
  0
VERTEX
  8
SCAN
 10
225.25
 20
20.0
 30
0.0
  0
VERTEX
  8
SCAN
 10
225.25
 20
30.0
 30
0.0
  0
VERTEX
  8
SCAN
 10
225.0
 20
30.0
 30
0.0
  0
SEQEND
  0
POLYLINE
 62
256
  8
SCAN
 66
1
 10
0.0
 20
0.0
 30
0.0
 70
9
  0
VERTEX
  8
SCAN
 10
226.0
 20
27.5
 30
0.0
  0
VERTEX
  8
SCAN
 10
226.25
 20
27.5
 30
0.0
  0
VERTEX
  8
SCAN
 10
226.25
 20
30.0
 30
0.0
  0
VERTEX
  8
SCAN
 10
226.0
 20
30.0
 30
0.0
  0
SEQEND
  0
POLYLINE
 62
256
  8
SCAN
 66
1
 10
0.0
 20
0.0
 30
0.0
 70
9
  0
VERTEX
  8
SCAN
 10
227.0
 20
27.5
 30
0.0
  0
VERTEX
  8
SCAN
 10
227.25
 20
27.5
 30
0.0
  0
VERTEX
  8
SCAN
 10
227.25
 20
30.0
 30
0.0
  0
VERTEX
  8
SCAN
 10
227.0
 20
30.0
 30
0.0
  0
SEQEND
  0
POLYLINE
 62
256
  8
SCAN
 66
1
 10
0.0
 20
0.0
 30
0.0
 70
9
  0
VERTEX
  8
SCAN
 10
228.0
 20
27.5
 30
0.0
  0
VERTEX
  8
SCAN
 10
228.25
 20
27.5
 30
0.0
  0
VERTEX
  8
SCAN
 10
228.25
 20
30.0
 30
0.0
  0
VERTEX
  8
SCAN
 10
228.0
 20
30.0
 30
0.0
  0
SEQEND
  0
POLYLINE
 62
256
  8
SCAN
 66
1
 10
0.0
 20
0.0
 30
0.0
 70
9
  0
VERTEX
  8
SCAN
 10
229.0
 20
27.5
 30
0.0
  0
VERTEX
  8
SCAN
 10
229.25
 20
27.5
 30
0.0
  0
VERTEX
  8
SCAN
 10
229.25
 20
30.0
 30
0.0
  0
VERTEX
  8
SCAN
 10
229.0
 20
30.0
 30
0.0
  0
SEQEND
  0
POLYLINE
 62
256
  8
SCAN
 66
1
 10
0.0
 20
0.0
 30
0.0
 70
9
  0
VERTEX
  8
SCAN
 10
230.0
 20
25.0
 30
0.0
  0
VERTEX
  8
SCAN
 10
230.25
 20
25.0
 30
0.0
  0
VERTEX
  8
SCAN
 10
230.25
 20
30.0
 30
0.0
  0
VERTEX
  8
SCAN
 10
230.0
 20
30.0
 30
0.0
  0
SEQEND
  0
POLYLINE
 62
256
  8
SCAN
 66
1
 10
0.0
 20
0.0
 30
0.0
 70
9
  0
VERTEX
  8
SCAN
 10
231.0
 20
27.5
 30
0.0
  0
VERTEX
  8
SCAN
 10
231.25
 20
27.5
 30
0.0
  0
VERTEX
  8
SCAN
 10
231.25
 20
30.0
 30
0.0
  0
VERTEX
  8
SCAN
 10
231.0
 20
30.0
 30
0.0
  0
SEQEND
  0
POLYLINE
 62
256
  8
SCAN
 66
1
 10
0.0
 20
0.0
 30
0.0
 70
9
  0
VERTEX
  8
SCAN
 10
232.0
 20
27.5
 30
0.0
  0
VERTEX
  8
SCAN
 10
232.25
 20
27.5
 30
0.0
  0
VERTEX
  8
SCAN
 10
232.25
 20
30.0
 30
0.0
  0
VERTEX
  8
SCAN
 10
232.0
 20
30.0
 30
0.0
  0
SEQEND
  0
POLYLINE
 62
256
  8
SCAN
 66
1
 10
0.0
 20
0.0
 30
0.0
 70
9
  0
VERTEX
  8
SCAN
 10
233.0
 20
27.5
 30
0.0
  0
VERTEX
  8
SCAN
 10
233.25
 20
27.5
 30
0.0
  0
VERTEX
  8
SCAN
 10
233.25
 20
30.0
 30
0.0
  0
VERTEX
  8
SCAN
 10
233.0
 20
30.0
 30
0.0
  0
SEQEND
  0
POLYLINE
 62
256
  8
SCAN
 66
1
 10
0.0
 20
0.0
 30
0.0
 70
9
  0
VERTEX
  8
SCAN
 10
234.0
 20
27.5
 30
0.0
  0
VERTEX
  8
SCAN
 10
234.25
 20
27.5
 30
0.0
  0
VERTEX
  8
SCAN
 10
234.25
 20
30.0
 30
0.0
  0
VERTEX
  8
SCAN
 10
234.0
 20
30.0
 30
0.0
  0
SEQEND
  0
POLYLINE
 62
256
  8
SCAN
 66
1
 10
0.0
 20
0.0
 30
0.0
 70
9
  0
VERTEX
  8
SCAN
 10
235.0
 20
20.0
 30
0.0
  0
VERTEX
  8
SCAN
 10
235.25
 20
20.0
 30
0.0
  0
VERTEX
  8
SCAN
 10
235.25
 20
30.0
 30
0.0
  0
VERTEX
  8
SCAN
 10
235.0
 20
30.0
 30
0.0
  0
SEQEND
  0
POLYLINE
 62
256
  8
SCAN
 66
1
 10
0.0
 20
0.0
 30
0.0
 70
9
  0
VERTEX
  8
SCAN
 10
236.0
 20
27.5
 30
0.0
  0
VERTEX
  8
SCAN
 10
236.25
 20
27.5
 30
0.0
  0
VERTEX
  8
SCAN
 10
236.25
 20
30.0
 30
0.0
  0
VERTEX
  8
SCAN
 10
236.0
 20
30.0
 30
0.0
  0
SEQEND
  0
POLYLINE
 62
256
  8
SCAN
 66
1
 10
0.0
 20
0.0
 30
0.0
 70
9
  0
VERTEX
  8
SCAN
 10
237.0
 20
27.5
 30
0.0
  0
VERTEX
  8
SCAN
 10
237.25
 20
27.5
 30
0.0
  0
VERTEX
  8
SCAN
 10
237.25
 20
30.0
 30
0.0
  0
VERTEX
  8
SCAN
 10
237.0
 20
30.0
 30
0.0
  0
SEQEND
  0
POLYLINE
 62
256
  8
SCAN
 66
1
 10
0.0
 20
0.0
 30
0.0
 70
9
  0
VERTEX
  8
SCAN
 10
238.0
 20
27.5
 30
0.0
  0
VERTEX
  8
SCAN
 10
238.25
 20
27.5
 30
0.0
  0
VERTEX
  8
SCAN
 10
238.25
 20
30.0
 30
0.0
  0
VERTEX
  8
SCAN
 10
238.0
 20
30.0
 30
0.0
  0
SEQEND
  0
POLYLINE
 62
256
  8
SCAN
 66
1
 10
0.0
 20
0.0
 30
0.0
 70
9
  0
VERTEX
  8
SCAN
 10
239.0
 20
27.5
 30
0.0
  0
VERTEX
  8
SCAN
 10
239.25
 20
27.5
 30
0.0
  0
VERTEX
  8
SCAN
 10
239.25
 20
30.0
 30
0.0
  0
VERTEX
  8
SCAN
 10
239.0
 20
30.0
 30
0.0
  0
SEQEND
  0
POLYLINE
 62
256
  8
SCAN
 66
1
 10
0.0
 20
0.0
 30
0.0
 70
9
  0
VERTEX
  8
SCAN
 10
240.0
 20
25.0
 30
0.0
  0
VERTEX
  8
SCAN
 10
240.25
 20
25.0
 30
0.0
  0
VERTEX
  8
SCAN
 10
240.25
 20
30.0
 30
0.0
  0
VERTEX
  8
SCAN
 10
240.0
 20
30.0
 30
0.0
  0
SEQEND
  0
POLYLINE
 62
256
  8
SCAN
 66
1
 10
0.0
 20
0.0
 30
0.0
 70
9
  0
VERTEX
  8
SCAN
 10
241.0
 20
27.5
 30
0.0
  0
VERTEX
  8
SCAN
 10
241.25
 20
27.5
 30
0.0
  0
VERTEX
  8
SCAN
 10
241.25
 20
30.0
 30
0.0
  0
VERTEX
  8
SCAN
 10
241.0
 20
30.0
 30
0.0
  0
SEQEND
  0
POLYLINE
 62
256
  8
SCAN
 66
1
 10
0.0
 20
0.0
 30
0.0
 70
9
  0
VERTEX
  8
SCAN
 10
242.0
 20
27.5
 30
0.0
  0
VERTEX
  8
SCAN
 10
242.25
 20
27.5
 30
0.0
  0
VERTEX
  8
SCAN
 10
242.25
 20
30.0
 30
0.0
  0
VERTEX
  8
SCAN
 10
242.0
 20
30.0
 30
0.0
  0
SEQEND
  0
POLYLINE
 62
256
  8
SCAN
 66
1
 10
0.0
 20
0.0
 30
0.0
 70
9
  0
VERTEX
  8
SCAN
 10
243.0
 20
27.5
 30
0.0
  0
VERTEX
  8
SCAN
 10
243.25
 20
27.5
 30
0.0
  0
VERTEX
  8
SCAN
 10
243.25
 20
30.0
 30
0.0
  0
VERTEX
  8
SCAN
 10
243.0
 20
30.0
 30
0.0
  0
SEQEND
  0
POLYLINE
 62
256
  8
SCAN
 66
1
 10
0.0
 20
0.0
 30
0.0
 70
9
  0
VERTEX
  8
SCAN
 10
244.0
 20
27.5
 30
0.0
  0
VERTEX
  8
SCAN
 10
244.25
 20
27.5
 30
0.0
  0
VERTEX
  8
SCAN
 10
244.25
 20
30.0
 30
0.0
  0
VERTEX
  8
SCAN
 10
244.0
 20
30.0
 30
0.0
  0
SEQEND
  0
POLYLINE
 62
256
  8
SCAN
 66
1
 10
0.0
 20
0.0
 30
0.0
 70
9
  0
VERTEX
  8
SCAN
 10
245.0
 20
20.0
 30
0.0
  0
VERTEX
  8
SCAN
 10
245.25
 20
20.0
 30
0.0
  0
VERTEX
  8
SCAN
 10
245.25
 20
30.0
 30
0.0
  0
VERTEX
  8
SCAN
 10
245.0
 20
30.0
 30
0.0
  0
SEQEND
  0
POLYLINE
 62
256
  8
SCAN
 66
1
 10
0.0
 20
0.0
 30
0.0
 70
9
  0
VERTEX
  8
SCAN
 10
246.0
 20
27.5
 30
0.0
  0
VERTEX
  8
SCAN
 10
246.25
 20
27.5
 30
0.0
  0
VERTEX
  8
SCAN
 10
246.25
 20
30.0
 30
0.0
  0
VERTEX
  8
SCAN
 10
246.0
 20
30.0
 30
0.0
  0
SEQEND
  0
POLYLINE
 62
256
  8
SCAN
 66
1
 10
0.0
 20
0.0
 30
0.0
 70
9
  0
VERTEX
  8
SCAN
 10
247.0
 20
27.5
 30
0.0
  0
VERTEX
  8
SCAN
 10
247.25
 20
27.5
 30
0.0
  0
VERTEX
  8
SCAN
 10
247.25
 20
30.0
 30
0.0
  0
VERTEX
  8
SCAN
 10
247.0
 20
30.0
 30
0.0
  0
SEQEND
  0
POLYLINE
 62
256
  8
SCAN
 66
1
 10
0.0
 20
0.0
 30
0.0
 70
9
  0
VERTEX
  8
SCAN
 10
248.0
 20
27.5
 30
0.0
  0
VERTEX
  8
SCAN
 10
248.25
 20
27.5
 30
0.0
  0
VERTEX
  8
SCAN
 10
248.25
 20
30.0
 30
0.0
  0
VERTEX
  8
SCAN
 10
248.0
 20
30.0
 30
0.0
  0
SEQEND
  0
POLYLINE
 62
256
  8
SCAN
 66
1
 10
0.0
 20
0.0
 30
0.0
 70
9
  0
VERTEX
  8
SCAN
 10
249.0
 20
27.5
 30
0.0
  0
VERTEX
  8
SCAN
 10
249.25
 20
27.5
 30
0.0
  0
VERTEX
  8
SCAN
 10
249.25
 20
30.0
 30
0.0
  0
VERTEX
  8
SCAN
 10
249.0
 20
30.0
 30
0.0
  0
SEQEND
  0
POLYLINE
 62
256
  8
SCAN
 66
1
 10
0.0
 20
0.0
 30
0.0
 70
9
  0
VERTEX
  8
SCAN
 10
250.0
 20
25.0
 30
0.0
  0
VERTEX
  8
SCAN
 10
250.25
 20
25.0
 30
0.0
  0
VERTEX
  8
SCAN
 10
250.25
 20
30.0
 30
0.0
  0
VERTEX
  8
SCAN
 10
250.0
 20
30.0
 30
0.0
  0
SEQEND
  0
POLYLINE
 62
256
  8
SCAN
 66
1
 10
0.0
 20
0.0
 30
0.0
 70
9
  0
VERTEX
  8
SCAN
 10
251.0
 20
27.5
 30
0.0
  0
VERTEX
  8
SCAN
 10
251.25
 20
27.5
 30
0.0
  0
VERTEX
  8
SCAN
 10
251.25
 20
30.0
 30
0.0
  0
VERTEX
  8
SCAN
 10
251.0
 20
30.0
 30
0.0
  0
SEQEND
  0
POLYLINE
 62
256
  8
SCAN
 66
1
 10
0.0
 20
0.0
 30
0.0
 70
9
  0
VERTEX
  8
SCAN
 10
252.0
 20
27.5
 30
0.0
  0
VERTEX
  8
SCAN
 10
252.25
 20
27.5
 30
0.0
  0
VERTEX
  8
SCAN
 10
252.25
 20
30.0
 30
0.0
  0
VERTEX
  8
SCAN
 10
252.0
 20
30.0
 30
0.0
  0
SEQEND
  0
POLYLINE
 62
256
  8
SCAN
 66
1
 10
0.0
 20
0.0
 30
0.0
 70
9
  0
VERTEX
  8
SCAN
 10
253.0
 20
27.5
 30
0.0
  0
VERTEX
  8
SCAN
 10
253.25
 20
27.5
 30
0.0
  0
VERTEX
  8
SCAN
 10
253.25
 20
30.0
 30
0.0
  0
VERTEX
  8
SCAN
 10
253.0
 20
30.0
 30
0.0
  0
SEQEND
  0
POLYLINE
 62
256
  8
SCAN
 66
1
 10
0.0
 20
0.0
 30
0.0
 70
9
  0
VERTEX
  8
SCAN
 10
254.0
 20
27.5
 30
0.0
  0
VERTEX
  8
SCAN
 10
254.25
 20
27.5
 30
0.0
  0
VERTEX
  8
SCAN
 10
254.25
 20
30.0
 30
0.0
  0
VERTEX
  8
SCAN
 10
254.0
 20
30.0
 30
0.0
  0
SEQEND
  0
POLYLINE
 62
256
  8
SCAN
 66
1
 10
0.0
 20
0.0
 30
0.0
 70
9
  0
VERTEX
  8
SCAN
 10
255.0
 20
20.0
 30
0.0
  0
VERTEX
  8
SCAN
 10
255.25
 20
20.0
 30
0.0
  0
VERTEX
  8
SCAN
 10
255.25
 20
30.0
 30
0.0
  0
VERTEX
  8
SCAN
 10
255.0
 20
30.0
 30
0.0
  0
SEQEND
  0
POLYLINE
 62
256
  8
SCAN
 66
1
 10
0.0
 20
0.0
 30
0.0
 70
9
  0
VERTEX
  8
SCAN
 10
256.0
 20
27.5
 30
0.0
  0
VERTEX
  8
SCAN
 10
256.25
 20
27.5
 30
0.0
  0
VERTEX
  8
SCAN
 10
256.25
 20
30.0
 30
0.0
  0
VERTEX
  8
SCAN
 10
256.0
 20
30.0
 30
0.0
  0
SEQEND
  0
POLYLINE
 62
256
  8
SCAN
 66
1
 10
0.0
 20
0.0
 30
0.0
 70
9
  0
VERTEX
  8
SCAN
 10
257.0
 20
27.5
 30
0.0
  0
VERTEX
  8
SCAN
 10
257.25
 20
27.5
 30
0.0
  0
VERTEX
  8
SCAN
 10
257.25
 20
30.0
 30
0.0
  0
VERTEX
  8
SCAN
 10
257.0
 20
30.0
 30
0.0
  0
SEQEND
  0
POLYLINE
 62
256
  8
SCAN
 66
1
 10
0.0
 20
0.0
 30
0.0
 70
9
  0
VERTEX
  8
SCAN
 10
258.0
 20
27.5
 30
0.0
  0
VERTEX
  8
SCAN
 10
258.25
 20
27.5
 30
0.0
  0
VERTEX
  8
SCAN
 10
258.25
 20
30.0
 30
0.0
  0
VERTEX
  8
SCAN
 10
258.0
 20
30.0
 30
0.0
  0
SEQEND
  0
POLYLINE
 62
256
  8
SCAN
 66
1
 10
0.0
 20
0.0
 30
0.0
 70
9
  0
VERTEX
  8
SCAN
 10
259.0
 20
27.5
 30
0.0
  0
VERTEX
  8
SCAN
 10
259.25
 20
27.5
 30
0.0
  0
VERTEX
  8
SCAN
 10
259.25
 20
30.0
 30
0.0
  0
VERTEX
  8
SCAN
 10
259.0
 20
30.0
 30
0.0
  0
SEQEND
  0
POLYLINE
 62
256
  8
SCAN
 66
1
 10
0.0
 20
0.0
 30
0.0
 70
9
  0
VERTEX
  8
SCAN
 10
260.0
 20
25.0
 30
0.0
  0
VERTEX
  8
SCAN
 10
260.25
 20
25.0
 30
0.0
  0
VERTEX
  8
SCAN
 10
260.25
 20
30.0
 30
0.0
  0
VERTEX
  8
SCAN
 10
260.0
 20
30.0
 30
0.0
  0
SEQEND
  0
POLYLINE
 62
256
  8
SCAN
 66
1
 10
0.0
 20
0.0
 30
0.0
 70
9
  0
VERTEX
  8
SCAN
 10
261.0
 20
27.5
 30
0.0
  0
VERTEX
  8
SCAN
 10
261.25
 20
27.5
 30
0.0
  0
VERTEX
  8
SCAN
 10
261.25
 20
30.0
 30
0.0
  0
VERTEX
  8
SCAN
 10
261.0
 20
30.0
 30
0.0
  0
SEQEND
  0
POLYLINE
 62
256
  8
SCAN
 66
1
 10
0.0
 20
0.0
 30
0.0
 70
9
  0
VERTEX
  8
SCAN
 10
262.0
 20
27.5
 30
0.0
  0
VERTEX
  8
SCAN
 10
262.25
 20
27.5
 30
0.0
  0
VERTEX
  8
SCAN
 10
262.25
 20
30.0
 30
0.0
  0
VERTEX
  8
SCAN
 10
262.0
 20
30.0
 30
0.0
  0
SEQEND
  0
POLYLINE
 62
256
  8
SCAN
 66
1
 10
0.0
 20
0.0
 30
0.0
 70
9
  0
VERTEX
  8
SCAN
 10
263.0
 20
27.5
 30
0.0
  0
VERTEX
  8
SCAN
 10
263.25
 20
27.5
 30
0.0
  0
VERTEX
  8
SCAN
 10
263.25
 20
30.0
 30
0.0
  0
VERTEX
  8
SCAN
 10
263.0
 20
30.0
 30
0.0
  0
SEQEND
  0
POLYLINE
 62
256
  8
SCAN
 66
1
 10
0.0
 20
0.0
 30
0.0
 70
9
  0
VERTEX
  8
SCAN
 10
264.0
 20
27.5
 30
0.0
  0
VERTEX
  8
SCAN
 10
264.25
 20
27.5
 30
0.0
  0
VERTEX
  8
SCAN
 10
264.25
 20
30.0
 30
0.0
  0
VERTEX
  8
SCAN
 10
264.0
 20
30.0
 30
0.0
  0
SEQEND
  0
POLYLINE
 62
256
  8
SCAN
 66
1
 10
0.0
 20
0.0
 30
0.0
 70
9
  0
VERTEX
  8
SCAN
 10
265.0
 20
20.0
 30
0.0
  0
VERTEX
  8
SCAN
 10
265.25
 20
20.0
 30
0.0
  0
VERTEX
  8
SCAN
 10
265.25
 20
30.0
 30
0.0
  0
VERTEX
  8
SCAN
 10
265.0
 20
30.0
 30
0.0
  0
SEQEND
  0
POLYLINE
 62
256
  8
SCAN
 66
1
 10
0.0
 20
0.0
 30
0.0
 70
9
  0
VERTEX
  8
SCAN
 10
266.0
 20
27.5
 30
0.0
  0
VERTEX
  8
SCAN
 10
266.25
 20
27.5
 30
0.0
  0
VERTEX
  8
SCAN
 10
266.25
 20
30.0
 30
0.0
  0
VERTEX
  8
SCAN
 10
266.0
 20
30.0
 30
0.0
  0
SEQEND
  0
POLYLINE
 62
256
  8
SCAN
 66
1
 10
0.0
 20
0.0
 30
0.0
 70
9
  0
VERTEX
  8
SCAN
 10
267.0
 20
27.5
 30
0.0
  0
VERTEX
  8
SCAN
 10
267.25
 20
27.5
 30
0.0
  0
VERTEX
  8
SCAN
 10
267.25
 20
30.0
 30
0.0
  0
VERTEX
  8
SCAN
 10
267.0
 20
30.0
 30
0.0
  0
SEQEND
  0
POLYLINE
 62
256
  8
SCAN
 66
1
 10
0.0
 20
0.0
 30
0.0
 70
9
  0
VERTEX
  8
SCAN
 10
268.0
 20
27.5
 30
0.0
  0
VERTEX
  8
SCAN
 10
268.25
 20
27.5
 30
0.0
  0
VERTEX
  8
SCAN
 10
268.25
 20
30.0
 30
0.0
  0
VERTEX
  8
SCAN
 10
268.0
 20
30.0
 30
0.0
  0
SEQEND
  0
POLYLINE
 62
256
  8
SCAN
 66
1
 10
0.0
 20
0.0
 30
0.0
 70
9
  0
VERTEX
  8
SCAN
 10
269.0
 20
27.5
 30
0.0
  0
VERTEX
  8
SCAN
 10
269.25
 20
27.5
 30
0.0
  0
VERTEX
  8
SCAN
 10
269.25
 20
30.0
 30
0.0
  0
VERTEX
  8
SCAN
 10
269.0
 20
30.0
 30
0.0
  0
SEQEND
  0
POLYLINE
 62
256
  8
SCAN
 66
1
 10
0.0
 20
0.0
 30
0.0
 70
9
  0
VERTEX
  8
SCAN
 10
270.0
 20
25.0
 30
0.0
  0
VERTEX
  8
SCAN
 10
270.25
 20
25.0
 30
0.0
  0
VERTEX
  8
SCAN
 10
270.25
 20
30.0
 30
0.0
  0
VERTEX
  8
SCAN
 10
270.0
 20
30.0
 30
0.0
  0
SEQEND
  0
POLYLINE
 62
256
  8
SCAN
 66
1
 10
0.0
 20
0.0
 30
0.0
 70
9
  0
VERTEX
  8
SCAN
 10
271.0
 20
27.5
 30
0.0
  0
VERTEX
  8
SCAN
 10
271.25
 20
27.5
 30
0.0
  0
VERTEX
  8
SCAN
 10
271.25
 20
30.0
 30
0.0
  0
VERTEX
  8
SCAN
 10
271.0
 20
30.0
 30
0.0
  0
SEQEND
  0
POLYLINE
 62
256
  8
SCAN
 66
1
 10
0.0
 20
0.0
 30
0.0
 70
9
  0
VERTEX
  8
SCAN
 10
272.0
 20
27.5
 30
0.0
  0
VERTEX
  8
SCAN
 10
272.25
 20
27.5
 30
0.0
  0
VERTEX
  8
SCAN
 10
272.25
 20
30.0
 30
0.0
  0
VERTEX
  8
SCAN
 10
272.0
 20
30.0
 30
0.0
  0
SEQEND
  0
POLYLINE
 62
256
  8
SCAN
 66
1
 10
0.0
 20
0.0
 30
0.0
 70
9
  0
VERTEX
  8
SCAN
 10
273.0
 20
27.5
 30
0.0
  0
VERTEX
  8
SCAN
 10
273.25
 20
27.5
 30
0.0
  0
VERTEX
  8
SCAN
 10
273.25
 20
30.0
 30
0.0
  0
VERTEX
  8
SCAN
 10
273.0
 20
30.0
 30
0.0
  0
SEQEND
  0
POLYLINE
 62
256
  8
SCAN
 66
1
 10
0.0
 20
0.0
 30
0.0
 70
9
  0
VERTEX
  8
SCAN
 10
274.0
 20
27.5
 30
0.0
  0
VERTEX
  8
SCAN
 10
274.25
 20
27.5
 30
0.0
  0
VERTEX
  8
SCAN
 10
274.25
 20
30.0
 30
0.0
  0
VERTEX
  8
SCAN
 10
274.0
 20
30.0
 30
0.0
  0
SEQEND
  0
POLYLINE
 62
256
  8
SCAN
 66
1
 10
0.0
 20
0.0
 30
0.0
 70
9
  0
VERTEX
  8
SCAN
 10
275.0
 20
20.0
 30
0.0
  0
VERTEX
  8
SCAN
 10
275.25
 20
20.0
 30
0.0
  0
VERTEX
  8
SCAN
 10
275.25
 20
30.0
 30
0.0
  0
VERTEX
  8
SCAN
 10
275.0
 20
30.0
 30
0.0
  0
SEQEND
  0
POLYLINE
 62
256
  8
SCAN
 66
1
 10
0.0
 20
0.0
 30
0.0
 70
9
  0
VERTEX
  8
SCAN
 10
276.0
 20
27.5
 30
0.0
  0
VERTEX
  8
SCAN
 10
276.25
 20
27.5
 30
0.0
  0
VERTEX
  8
SCAN
 10
276.25
 20
30.0
 30
0.0
  0
VERTEX
  8
SCAN
 10
276.0
 20
30.0
 30
0.0
  0
SEQEND
  0
POLYLINE
 62
256
  8
SCAN
 66
1
 10
0.0
 20
0.0
 30
0.0
 70
9
  0
VERTEX
  8
SCAN
 10
277.0
 20
27.5
 30
0.0
  0
VERTEX
  8
SCAN
 10
277.25
 20
27.5
 30
0.0
  0
VERTEX
  8
SCAN
 10
277.25
 20
30.0
 30
0.0
  0
VERTEX
  8
SCAN
 10
277.0
 20
30.0
 30
0.0
  0
SEQEND
  0
POLYLINE
 62
256
  8
SCAN
 66
1
 10
0.0
 20
0.0
 30
0.0
 70
9
  0
VERTEX
  8
SCAN
 10
278.0
 20
27.5
 30
0.0
  0
VERTEX
  8
SCAN
 10
278.25
 20
27.5
 30
0.0
  0
VERTEX
  8
SCAN
 10
278.25
 20
30.0
 30
0.0
  0
VERTEX
  8
SCAN
 10
278.0
 20
30.0
 30
0.0
  0
SEQEND
  0
POLYLINE
 62
256
  8
SCAN
 66
1
 10
0.0
 20
0.0
 30
0.0
 70
9
  0
VERTEX
  8
SCAN
 10
279.0
 20
27.5
 30
0.0
  0
VERTEX
  8
SCAN
 10
279.25
 20
27.5
 30
0.0
  0
VERTEX
  8
SCAN
 10
279.25
 20
30.0
 30
0.0
  0
VERTEX
  8
SCAN
 10
279.0
 20
30.0
 30
0.0
  0
SEQEND
  0
POLYLINE
 62
256
  8
SCAN
 66
1
 10
0.0
 20
0.0
 30
0.0
 70
9
  0
VERTEX
  8
SCAN
 10
280.0
 20
25.0
 30
0.0
  0
VERTEX
  8
SCAN
 10
280.25
 20
25.0
 30
0.0
  0
VERTEX
  8
SCAN
 10
280.25
 20
30.0
 30
0.0
  0
VERTEX
  8
SCAN
 10
280.0
 20
30.0
 30
0.0
  0
SEQEND
  0
POLYLINE
 62
256
  8
SCAN
 66
1
 10
0.0
 20
0.0
 30
0.0
 70
9
  0
VERTEX
  8
SCAN
 10
281.0
 20
27.5
 30
0.0
  0
VERTEX
  8
SCAN
 10
281.25
 20
27.5
 30
0.0
  0
VERTEX
  8
SCAN
 10
281.25
 20
30.0
 30
0.0
  0
VERTEX
  8
SCAN
 10
281.0
 20
30.0
 30
0.0
  0
SEQEND
  0
POLYLINE
 62
256
  8
SCAN
 66
1
 10
0.0
 20
0.0
 30
0.0
 70
9
  0
VERTEX
  8
SCAN
 10
282.0
 20
27.5
 30
0.0
  0
VERTEX
  8
SCAN
 10
282.25
 20
27.5
 30
0.0
  0
VERTEX
  8
SCAN
 10
282.25
 20
30.0
 30
0.0
  0
VERTEX
  8
SCAN
 10
282.0
 20
30.0
 30
0.0
  0
SEQEND
  0
POLYLINE
 62
256
  8
SCAN
 66
1
 10
0.0
 20
0.0
 30
0.0
 70
9
  0
VERTEX
  8
SCAN
 10
283.0
 20
27.5
 30
0.0
  0
VERTEX
  8
SCAN
 10
283.25
 20
27.5
 30
0.0
  0
VERTEX
  8
SCAN
 10
283.25
 20
30.0
 30
0.0
  0
VERTEX
  8
SCAN
 10
283.0
 20
30.0
 30
0.0
  0
SEQEND
  0
POLYLINE
 62
256
  8
SCAN
 66
1
 10
0.0
 20
0.0
 30
0.0
 70
9
  0
VERTEX
  8
SCAN
 10
284.0
 20
27.5
 30
0.0
  0
VERTEX
  8
SCAN
 10
284.25
 20
27.5
 30
0.0
  0
VERTEX
  8
SCAN
 10
284.25
 20
30.0
 30
0.0
  0
VERTEX
  8
SCAN
 10
284.0
 20
30.0
 30
0.0
  0
SEQEND
  0
POLYLINE
 62
256
  8
SCAN
 66
1
 10
0.0
 20
0.0
 30
0.0
 70
9
  0
VERTEX
  8
SCAN
 10
285.0
 20
20.0
 30
0.0
  0
VERTEX
  8
SCAN
 10
285.25
 20
20.0
 30
0.0
  0
VERTEX
  8
SCAN
 10
285.25
 20
30.0
 30
0.0
  0
VERTEX
  8
SCAN
 10
285.0
 20
30.0
 30
0.0
  0
SEQEND
  0
POLYLINE
 62
256
  8
SCAN
 66
1
 10
0.0
 20
0.0
 30
0.0
 70
9
  0
VERTEX
  8
SCAN
 10
286.0
 20
27.5
 30
0.0
  0
VERTEX
  8
SCAN
 10
286.25
 20
27.5
 30
0.0
  0
VERTEX
  8
SCAN
 10
286.25
 20
30.0
 30
0.0
  0
VERTEX
  8
SCAN
 10
286.0
 20
30.0
 30
0.0
  0
SEQEND
  0
POLYLINE
 62
256
  8
SCAN
 66
1
 10
0.0
 20
0.0
 30
0.0
 70
9
  0
VERTEX
  8
SCAN
 10
287.0
 20
27.5
 30
0.0
  0
VERTEX
  8
SCAN
 10
287.25
 20
27.5
 30
0.0
  0
VERTEX
  8
SCAN
 10
287.25
 20
30.0
 30
0.0
  0
VERTEX
  8
SCAN
 10
287.0
 20
30.0
 30
0.0
  0
SEQEND
  0
POLYLINE
 62
256
  8
SCAN
 66
1
 10
0.0
 20
0.0
 30
0.0
 70
9
  0
VERTEX
  8
SCAN
 10
288.0
 20
27.5
 30
0.0
  0
VERTEX
  8
SCAN
 10
288.25
 20
27.5
 30
0.0
  0
VERTEX
  8
SCAN
 10
288.25
 20
30.0
 30
0.0
  0
VERTEX
  8
SCAN
 10
288.0
 20
30.0
 30
0.0
  0
SEQEND
  0
POLYLINE
 62
256
  8
SCAN
 66
1
 10
0.0
 20
0.0
 30
0.0
 70
9
  0
VERTEX
  8
SCAN
 10
289.0
 20
27.5
 30
0.0
  0
VERTEX
  8
SCAN
 10
289.25
 20
27.5
 30
0.0
  0
VERTEX
  8
SCAN
 10
289.25
 20
30.0
 30
0.0
  0
VERTEX
  8
SCAN
 10
289.0
 20
30.0
 30
0.0
  0
SEQEND
  0
POLYLINE
 62
256
  8
SCAN
 66
1
 10
0.0
 20
0.0
 30
0.0
 70
9
  0
VERTEX
  8
SCAN
 10
290.0
 20
25.0
 30
0.0
  0
VERTEX
  8
SCAN
 10
290.25
 20
25.0
 30
0.0
  0
VERTEX
  8
SCAN
 10
290.25
 20
30.0
 30
0.0
  0
VERTEX
  8
SCAN
 10
290.0
 20
30.0
 30
0.0
  0
SEQEND
  0
POLYLINE
 62
256
  8
SCAN
 66
1
 10
0.0
 20
0.0
 30
0.0
 70
9
  0
VERTEX
  8
SCAN
 10
291.0
 20
27.5
 30
0.0
  0
VERTEX
  8
SCAN
 10
291.25
 20
27.5
 30
0.0
  0
VERTEX
  8
SCAN
 10
291.25
 20
30.0
 30
0.0
  0
VERTEX
  8
SCAN
 10
291.0
 20
30.0
 30
0.0
  0
SEQEND
  0
POLYLINE
 62
256
  8
SCAN
 66
1
 10
0.0
 20
0.0
 30
0.0
 70
9
  0
VERTEX
  8
SCAN
 10
292.0
 20
27.5
 30
0.0
  0
VERTEX
  8
SCAN
 10
292.25
 20
27.5
 30
0.0
  0
VERTEX
  8
SCAN
 10
292.25
 20
30.0
 30
0.0
  0
VERTEX
  8
SCAN
 10
292.0
 20
30.0
 30
0.0
  0
SEQEND
  0
POLYLINE
 62
256
  8
SCAN
 66
1
 10
0.0
 20
0.0
 30
0.0
 70
9
  0
VERTEX
  8
SCAN
 10
293.0
 20
27.5
 30
0.0
  0
VERTEX
  8
SCAN
 10
293.25
 20
27.5
 30
0.0
  0
VERTEX
  8
SCAN
 10
293.25
 20
30.0
 30
0.0
  0
VERTEX
  8
SCAN
 10
293.0
 20
30.0
 30
0.0
  0
SEQEND
  0
POLYLINE
 62
256
  8
SCAN
 66
1
 10
0.0
 20
0.0
 30
0.0
 70
9
  0
VERTEX
  8
SCAN
 10
294.0
 20
27.5
 30
0.0
  0
VERTEX
  8
SCAN
 10
294.25
 20
27.5
 30
0.0
  0
VERTEX
  8
SCAN
 10
294.25
 20
30.0
 30
0.0
  0
VERTEX
  8
SCAN
 10
294.0
 20
30.0
 30
0.0
  0
SEQEND
  0
POLYLINE
 62
256
  8
SCAN
 66
1
 10
0.0
 20
0.0
 30
0.0
 70
9
  0
VERTEX
  8
SCAN
 10
295.0
 20
20.0
 30
0.0
  0
VERTEX
  8
SCAN
 10
295.25
 20
20.0
 30
0.0
  0
VERTEX
  8
SCAN
 10
295.25
 20
30.0
 30
0.0
  0
VERTEX
  8
SCAN
 10
295.0
 20
30.0
 30
0.0
  0
SEQEND
  0
POLYLINE
 62
256
  8
SCAN
 66
1
 10
0.0
 20
0.0
 30
0.0
 70
9
  0
VERTEX
  8
SCAN
 10
296.0
 20
27.5
 30
0.0
  0
VERTEX
  8
SCAN
 10
296.25
 20
27.5
 30
0.0
  0
VERTEX
  8
SCAN
 10
296.25
 20
30.0
 30
0.0
  0
VERTEX
  8
SCAN
 10
296.0
 20
30.0
 30
0.0
  0
SEQEND
  0
POLYLINE
 62
256
  8
SCAN
 66
1
 10
0.0
 20
0.0
 30
0.0
 70
9
  0
VERTEX
  8
SCAN
 10
297.0
 20
27.5
 30
0.0
  0
VERTEX
  8
SCAN
 10
297.25
 20
27.5
 30
0.0
  0
VERTEX
  8
SCAN
 10
297.25
 20
30.0
 30
0.0
  0
VERTEX
  8
SCAN
 10
297.0
 20
30.0
 30
0.0
  0
SEQEND
  0
POLYLINE
 62
256
  8
SCAN
 66
1
 10
0.0
 20
0.0
 30
0.0
 70
9
  0
VERTEX
  8
SCAN
 10
298.0
 20
27.5
 30
0.0
  0
VERTEX
  8
SCAN
 10
298.25
 20
27.5
 30
0.0
  0
VERTEX
  8
SCAN
 10
298.25
 20
30.0
 30
0.0
  0
VERTEX
  8
SCAN
 10
298.0
 20
30.0
 30
0.0
  0
SEQEND
  0
POLYLINE
 62
256
  8
SCAN
 66
1
 10
0.0
 20
0.0
 30
0.0
 70
9
  0
VERTEX
  8
SCAN
 10
299.0
 20
27.5
 30
0.0
  0
VERTEX
  8
SCAN
 10
299.25
 20
27.5
 30
0.0
  0
VERTEX
  8
SCAN
 10
299.25
 20
30.0
 30
0.0
  0
VERTEX
  8
SCAN
 10
299.0
 20
30.0
 30
0.0
  0
SEQEND
  0
POLYLINE
 62
256
  8
SCAN
 66
1
 10
0.0
 20
0.0
 30
0.0
 70
9
  0
VERTEX
  8
SCAN
 10
300.0
 20
25.0
 30
0.0
  0
VERTEX
  8
SCAN
 10
300.25
 20
25.0
 30
0.0
  0
VERTEX
  8
SCAN
 10
300.25
 20
30.0
 30
0.0
  0
VERTEX
  8
SCAN
 10
300.0
 20
30.0
 30
0.0
  0
SEQEND
  0
POLYLINE
 62
256
  8
SCAN
 66
1
 10
0.0
 20
0.0
 30
0.0
 70
9
  0
VERTEX
  8
SCAN
 10
301.0
 20
27.5
 30
0.0
  0
VERTEX
  8
SCAN
 10
301.25
 20
27.5
 30
0.0
  0
VERTEX
  8
SCAN
 10
301.25
 20
30.0
 30
0.0
  0
VERTEX
  8
SCAN
 10
301.0
 20
30.0
 30
0.0
  0
SEQEND
  0
POLYLINE
 62
256
  8
SCAN
 66
1
 10
0.0
 20
0.0
 30
0.0
 70
9
  0
VERTEX
  8
SCAN
 10
302.0
 20
27.5
 30
0.0
  0
VERTEX
  8
SCAN
 10
302.25
 20
27.5
 30
0.0
  0
VERTEX
  8
SCAN
 10
302.25
 20
30.0
 30
0.0
  0
VERTEX
  8
SCAN
 10
302.0
 20
30.0
 30
0.0
  0
SEQEND
  0
POLYLINE
 62
256
  8
SCAN
 66
1
 10
0.0
 20
0.0
 30
0.0
 70
9
  0
VERTEX
  8
SCAN
 10
303.0
 20
27.5
 30
0.0
  0
VERTEX
  8
SCAN
 10
303.25
 20
27.5
 30
0.0
  0
VERTEX
  8
SCAN
 10
303.25
 20
30.0
 30
0.0
  0
VERTEX
  8
SCAN
 10
303.0
 20
30.0
 30
0.0
  0
SEQEND
  0
POLYLINE
 62
256
  8
SCAN
 66
1
 10
0.0
 20
0.0
 30
0.0
 70
9
  0
VERTEX
  8
SCAN
 10
304.0
 20
27.5
 30
0.0
  0
VERTEX
  8
SCAN
 10
304.25
 20
27.5
 30
0.0
  0
VERTEX
  8
SCAN
 10
304.25
 20
30.0
 30
0.0
  0
VERTEX
  8
SCAN
 10
304.0
 20
30.0
 30
0.0
  0
SEQEND
  0
POLYLINE
 62
256
  8
SCAN
 66
1
 10
0.0
 20
0.0
 30
0.0
 70
9
  0
VERTEX
  8
SCAN
 10
305.0
 20
20.0
 30
0.0
  0
VERTEX
  8
SCAN
 10
305.25
 20
20.0
 30
0.0
  0
VERTEX
  8
SCAN
 10
305.25
 20
30.0
 30
0.0
  0
VERTEX
  8
SCAN
 10
305.0
 20
30.0
 30
0.0
  0
SEQEND
  0
ENDSEC
  0
EOF
