  0
SECTION
  2
HEADER
  9
$ACADVER
  1
AC1009
  9
$INSBASE
 10
0.0
 20
0.0
 30
0.0
  9
$EXTMIN
 10
0.0
 20
0.0
 30
0.0
  9
$EXTMAX
 10
100.0
 20
100.0
 30
0.0
  9
$UNITMODE
 70
0
  9
$AUNITS
 70
0
  9
$ANGBASE
 50
0.0
  9
$ANGDIR
 70
0
  9
$INSUNITS
 70
4
  0
ENDSEC
  0
SECTION
  2
TABLES
  0
TABLE
  2
LTYPE
 70
19
  0
LTYPE
  2
CONTINUOUS
 70
0
  3
Solid
 72
65
 73
0
 40
0.0
  0
LTYPE
  2
CENTER
 70
0
  3
Center ____ _ ____ _ ____ _ ____ _ ____ _ ____
 72
65
 73
4
 40
2.0
 49
1.25
 49
-0.25
 49
0.25
 49
-0.25
  0
LTYPE
  2
CENTERX2
 70
0
  3
Center (2x) ________  __  ________  __  ________
 72
65
 73
4
 40
3.5
 49
2.5
 49
-0.25
 49
0.5
 49
-0.25
  0
LTYPE
  2
CENTER2
 70
0
  3
Center (.5x) ____ _ ____ _ ____ _ ____ _ ____
 72
65
 73
4
 40
1.0
 49
0.625
 49
-0.125
 49
0.125
 49
-0.125
  0
LTYPE
  2
DASHED
 70
0
  3
Dashed __ __ __ __ __ __ __ __ __ __ __ __ __ _
 72
65
 73
2
 40
0.6
 49
0.5
 49
-0.1
  0
LTYPE
  2
DASHEDX2
 70
0
  3
Dashed (2x) ____  ____  ____  ____  ____  ____
 72
65
 73
2
 40
1.2
 49
1.0
 49
-0.2
  0
LTYPE
  2
DASHED2
 70
0
  3
Dashed (.5x) _ _ _ _ _ _ _ _ _ _ _ _ _ _
 72
65
 73
2
 40
0.3
 49
0.25
 49
-0.05
  0
LTYPE
  2
PHANTOM
 70
0
  3
Phantom ______  __  __  ______  __  __  ______
 72
65
 73
6
 40
2.5
 49
1.25
 49
-0.25
 49
0.25
 49
-0.25
 49
0.25
 49
-0.25
  0
LTYPE
  2
PHANTOMX2
 70
0
  3
Phantom (2x)____________    ____    ____    ____________
 72
65
 73
6
 40
4.25
 49
2.5
 49
-0.25
 49
0.5
 49
-0.25
 49
0.5
 49
-0.25
  0
LTYPE
  2
PHANTOM2
 70
0
  3
Phantom (.5x) ___ _ _ ___ _ _ ___ _ _ ___ _ _ ___
 72
65
 73
6
 40
1.25
 49
0.625
 49
-0.125
 49
0.125
 49
-0.125
 49
0.125
 49
-0.125
  0
LTYPE
  2
DASHDOT
 70
0
  3
Dash dot __ . __ . __ . __ . __ . __ . __ . __
 72
65
 73
4
 40
1.4
 49
1.0
 49
-0.2
 49
0.0
 49
-0.2
  0
LTYPE
  2
DASHDOTX2
 70
0
  3
Dash dot (2x) ____  .  ____  .  ____  .  ____
 72
65
 73
4
 40
2.4
 49
2.0
 49
-0.2
 49
0.0
 49
-0.2
  0
LTYPE
  2
DASHDOT2
 70
0
  3
Dash dot (.5x) _ . _ . _ . _ . _ . _ . _ . _
 72
65
 73
4
 40
0.7
 49
0.5
 49
-0.1
 49
0.0
 49
-0.1
  0
LTYPE
  2
DOT
 70
0
  3
Dot .  .  .  .  .  .  .  .  .  .  .  .  .  .  .  .
 72
65
 73
2
 40
0.2
 49
0.0
 49
-0.2
  0
LTYPE
  2
DOTX2
 70
0
  3
Dot (2x) .    .    .    .    .    .    .    . 
 72
65
 73
2
 40
0.4
 49
0.0
 49
-0.4
  0
LTYPE
  2
DOT2
 70
0
  3
Dot (.5) . . . . . . . . . . . . . . . . . . . 
 72
65
 73
2
 40
0.1
 49
0.0
 49
-0.1
  0
LTYPE
  2
DIVIDE
 70
0
  3
Divide __ . . __ . . __ . . __ . . __ . . __
 72
65
 73
6
 40
1.6
 49
1.0
 49
-0.2
 49
0.0
 49
-0.2
 49
0.0
 49
-0.2
  0
LTYPE
  2
DIVIDEX2
 70
0
  3
Divide (2x) ____  . .  ____  . .  ____  . .  ____
 72
65
 73
6
 40
2.6
 49
2.0
 49
-0.2
 49
0.0
 49
-0.2
 49
0.0
 49
-0.2
  0
LTYPE
  2
DIVIDE2
 70
0
  3
Divide(.5x) _ . _ . _ . _ . _ . _ . _ . _
 72
65
 73
6
 40
0.8
 49
0.5
 49
-0.1
 49
0.0
 49
-0.1
 49
0.0
 49
-0.1
  0
ENDTAB
  0
TABLE
  2
LAYER
 70
7
  0
LAYER
  2
DIMENSIONS
 70
0
 62
1
  6
CONTINUOUS
  0
LAYER
  2
TABLEBACKGROUND
 70
0
 62
1
  6
CONTINUOUS
  0
LAYER
  2
TABLECONTENT
 70
0
 62
1
  6
CONTINUOUS
  0
LAYER
  2
TABLEGRID
 70
0
 62
1
  6
CONTINUOUS
  0
LAYER
  2
VIEWPORTS
 70
0
 62
7
  6
CONTINUOUS
  0
LAYER
  2
CUT
 70
0
 62
7
  6
CONTINUOUS
  0
LAYER
  2
SCAN
 70
0
 62
5
  6
CONTINUOUS
  0
ENDTAB
  0
TABLE
  2
STYLE
 70
12
  0
STYLE
  2
STANDARD
 70
0
 40
0.0
 41
1.0
 42
1.0
 50
0.0
 71
0
  3
arial.ttf
  4

  0
STYLE
  2
ARIAL
 70
0
 40
0.0
 41
1.0
 42
1.0
 50
0.0
 71
0
  3
arial.ttf
  4

  0
STYLE
  2
ARIAL_BOLD
 70
0
 40
0.0
 41
1.0
 42
1.0
 50
0.0
 71
0
  3
arialbd.ttf
  4

  0
STYLE
  2
ARIAL_ITALIC
 70
0
 40
0.0
 41
1.0
 42
1.0
 50
0.0
 71
0
  3
ariali.ttf
  4

  0
STYLE
  2
ARIAL_BOLD_ITALIC
 70
0
 40
0.0
 41
1.0
 42
1.0
 50
0.0
 71
0
  3
arialbi.ttf
  4

  0
STYLE
  2
ARIAL_BLACK
 70
0
 40
0.0
 41
1.0
 42
1.0
 50
0.0
 71
0
  3
ariblk.ttf
  4

  0
STYLE
  2
ISOCPEUR
 70
0
 40
0.0
 41
1.0
 42
1.0
 50
0.0
 71
0
  3
isocpeur.ttf
  4

  0
STYLE
  2
ISOCPEUR_ITALIC
 70
0
 40
0.0
 41
1.0
 42
1.0
 50
0.0
 71
0
  3
isocpeui.ttf
  4

  0
STYLE
  2
TIMES
 70
0
 40
0.0
 41
1.0
 42
1.0
 50
0.0
 71
0
  3
times.ttf
  4

  0
STYLE
  2
TIMES_BOLD
 70
0
 40
0.0
 41
1.0
 42
1.0
 50
0.0
 71
0
  3
timesbd.ttf
  4

  0
STYLE
  2
TIMES_ITALIC
 70
0
 40
0.0
 41
1.0
 42
1.0
 50
0.0
 71
0
  3
timesi.ttf
  4

  0
STYLE
  2
TIMES_BOLD_ITALIC
 70
0
 40
0.0
 41
1.0
 42
1.0
 50
0.0
 71
0
  3
timesbi.ttf
  4

  0
ENDTAB
  0
TABLE
  2
VIEW
 70
0
  0
ENDTAB
  0
TABLE
  2
APPID
 70
1
  0
APPID
  2
DXFWRITE
 70
0
  0
ENDTAB
  0
TABLE
  2
VPORT
 70
0
  0
ENDTAB
  0
TABLE
  2
UCS
 70
0
  0
ENDTAB
  0
ENDSEC
  0
SECTION
  2
BLOCKS
  0
ENDSEC
  0
SECTION
  2
ENTITIES
  0
VIEWPORT
  8
VIEWPORTS
 67
1
 10
0.0
 20
0.0
 30
0.0
 40
1.0
 41
1.0
 68
1
 69
1
1001
ACAD
1000
MVIEW
1002
{
1070
16
1010
0.0
1020
0.0
1030
0.0
1010
0.0
1020
0.0
1030
0.0
1040
0.0
1040
1.0
1040
0.0
1040
0.0
1040
50.0
1040
0.0
1040
0.0
1070
0
1070
100
1070
1
1070
3
1070
0
1070
0
1070
0
1070
0
1040
0.0
1040
0.0
1040
0.0
1040
0.1
1040
0.1
1040
0.1
1040
0.1
1070
0
1002
{
1002
}
1002
}
  0
POLYLINE
 62
256
  8
CUT
 66
1
 10
0.0
 20
0.0
 30
0.0
 70
9
  0
VERTEX
  8
CUT
 10
0.0
 20
0.0
 30
0.0
  0
VERTEX
  8
CUT
 10
110.0
 20
0.0
 30
0.0
  0
VERTEX
  8
CUT
 10
110.0
 20
30.0
 30
0.0
  0
VERTEX
  8
CUT
 10
0.0
 20
30.0
 30
0.0
  0
SEQEND
  0
TEXT
  8
SCAN
 10
3.875
 20
20.0
 30
0.0
 40
2.0
  1
0
 50
90.0
  0
POLYLINE
 62
256
  8
SCAN
 66
1
 10
0.0
 20
0.0
 30
0.0
 70
9
  0
VERTEX
  8
SCAN
 10
4.875
 20
20.0
 30
0.0
  0
VERTEX
  8
SCAN
 10
5.125
 20
20.0
 30
0.0
  0
VERTEX
  8
SCAN
 10
5.125
 20
30.0
 30
0.0
  0
VERTEX
  8
SCAN
 10
4.875
 20
30.0
 30
0.0
  0
SEQEND
  0
POLYLINE
 62
256
  8
SCAN
 66
1
 10
0.0
 20
0.0
 30
0.0
 70
9
  0
VERTEX
  8
SCAN
 10
5.875
 20
27.5
 30
0.0
  0
VERTEX
  8
SCAN
 10
6.125
 20
27.5
 30
0.0
  0
VERTEX
  8
SCAN
 10
6.125
 20
30.0
 30
0.0
  0
VERTEX
  8
SCAN
 10
5.875
 20
30.0
 30
0.0
  0
SEQEND
  0
POLYLINE
 62
256
  8
SCAN
 66
1
 10
0.0
 20
0.0
 30
0.0
 70
9
  0
VERTEX
  8
SCAN
 10
6.875
 20
27.5
 30
0.0
  0
VERTEX
  8
SCAN
 10
7.125
 20
27.5
 30
0.0
  0
VERTEX
  8
SCAN
 10
7.125
 20
30.0
 30
0.0
  0
VERTEX
  8
SCAN
 10
6.875
 20
30.0
 30
0.0
  0
SEQEND
  0
POLYLINE
 62
256
  8
SCAN
 66
1
 10
0.0
 20
0.0
 30
0.0
 70
9
  0
VERTEX
  8
SCAN
 10
7.875
 20
27.5
 30
0.0
  0
VERTEX
  8
SCAN
 10
8.125
 20
27.5
 30
0.0
  0
VERTEX
  8
SCAN
 10
8.125
 20
30.0
 30
0.0
  0
VERTEX
  8
SCAN
 10
7.875
 20
30.0
 30
0.0
  0
SEQEND
  0
POLYLINE
 62
256
  8
SCAN
 66
1
 10
0.0
 20
0.0
 30
0.0
 70
9
  0
VERTEX
  8
SCAN
 10
8.875
 20
27.5
 30
0.0
  0
VERTEX
  8
SCAN
 10
9.125
 20
27.5
 30
0.0
  0
VERTEX
  8
SCAN
 10
9.125
 20
30.0
 30
0.0
  0
VERTEX
  8
SCAN
 10
8.875
 20
30.0
 30
0.0
  0
SEQEND
  0
POLYLINE
 62
256
  8
SCAN
 66
1
 10
0.0
 20
0.0
 30
0.0
 70
9
  0
VERTEX
  8
SCAN
 10
9.875
 20
25.0
 30
0.0
  0
VERTEX
  8
SCAN
 10
10.125
 20
25.0
 30
0.0
  0
VERTEX
  8
SCAN
 10
10.125
 20
30.0
 30
0.0
  0
VERTEX
  8
SCAN
 10
9.875
 20
30.0
 30
0.0
  0
SEQEND
  0
POLYLINE
 62
256
  8
SCAN
 66
1
 10
0.0
 20
0.0
 30
0.0
 70
9
  0
VERTEX
  8
SCAN
 10
10.875
 20
27.5
 30
0.0
  0
VERTEX
  8
SCAN
 10
11.125
 20
27.5
 30
0.0
  0
VERTEX
  8
SCAN
 10
11.125
 20
30.0
 30
0.0
  0
VERTEX
  8
SCAN
 10
10.875
 20
30.0
 30
0.0
  0
SEQEND
  0
POLYLINE
 62
256
  8
SCAN
 66
1
 10
0.0
 20
0.0
 30
0.0
 70
9
  0
VERTEX
  8
SCAN
 10
11.875
 20
27.5
 30
0.0
  0
VERTEX
  8
SCAN
 10
12.125
 20
27.5
 30
0.0
  0
VERTEX
  8
SCAN
 10
12.125
 20
30.0
 30
0.0
  0
VERTEX
  8
SCAN
 10
11.875
 20
30.0
 30
0.0
  0
SEQEND
  0
POLYLINE
 62
256
  8
SCAN
 66
1
 10
0.0
 20
0.0
 30
0.0
 70
9
  0
VERTEX
  8
SCAN
 10
12.875
 20
27.5
 30
0.0
  0
VERTEX
  8
SCAN
 10
13.125
 20
27.5
 30
0.0
  0
VERTEX
  8
SCAN
 10
13.125
 20
30.0
 30
0.0
  0
VERTEX
  8
SCAN
 10
12.875
 20
30.0
 30
0.0
  0
SEQEND
  0
POLYLINE
 62
256
  8
SCAN
 66
1
 10
0.0
 20
0.0
 30
0.0
 70
9
  0
VERTEX
  8
SCAN
 10
13.875
 20
27.5
 30
0.0
  0
VERTEX
  8
SCAN
 10
14.125
 20
27.5
 30
0.0
  0
VERTEX
  8
SCAN
 10
14.125
 20
30.0
 30
0.0
  0
VERTEX
  8
SCAN
 10
13.875
 20
30.0
 30
0.0
  0
SEQEND
  0
TEXT
  8
SCAN
 10
13.875
 20
20.0
 30
0.0
 40
2.0
  1
1
 50
90.0
  0
POLYLINE
 62
256
  8
SCAN
 66
1
 10
0.0
 20
0.0
 30
0.0
 70
9
  0
VERTEX
  8
SCAN
 10
14.875
 20
20.0
 30
0.0
  0
VERTEX
  8
SCAN
 10
15.125
 20
20.0
 30
0.0
  0
VERTEX
  8
SCAN
 10
15.125
 20
30.0
 30
0.0
  0
VERTEX
  8
SCAN
 10
14.875
 20
30.0
 30
0.0
  0
SEQEND
  0
POLYLINE
 62
256
  8
SCAN
 66
1
 10
0.0
 20
0.0
 30
0.0
 70
9
  0
VERTEX
  8
SCAN
 10
15.875
 20
27.5
 30
0.0
  0
VERTEX
  8
SCAN
 10
16.125
 20
27.5
 30
0.0
  0
VERTEX
  8
SCAN
 10
16.125
 20
30.0
 30
0.0
  0
VERTEX
  8
SCAN
 10
15.875
 20
30.0
 30
0.0
  0
SEQEND
  0
POLYLINE
 62
256
  8
SCAN
 66
1
 10
0.0
 20
0.0
 30
0.0
 70
9
  0
VERTEX
  8
SCAN
 10
16.875
 20
27.5
 30
0.0
  0
VERTEX
  8
SCAN
 10
17.125
 20
27.5
 30
0.0
  0
VERTEX
  8
SCAN
 10
17.125
 20
30.0
 30
0.0
  0
VERTEX
  8
SCAN
 10
16.875
 20
30.0
 30
0.0
  0
SEQEND
  0
POLYLINE
 62
256
  8
SCAN
 66
1
 10
0.0
 20
0.0
 30
0.0
 70
9
  0
VERTEX
  8
SCAN
 10
17.875
 20
27.5
 30
0.0
  0
VERTEX
  8
SCAN
 10
18.125
 20
27.5
 30
0.0
  0
VERTEX
  8
SCAN
 10
18.125
 20
30.0
 30
0.0
  0
VERTEX
  8
SCAN
 10
17.875
 20
30.0
 30
0.0
  0
SEQEND
  0
POLYLINE
 62
256
  8
SCAN
 66
1
 10
0.0
 20
0.0
 30
0.0
 70
9
  0
VERTEX
  8
SCAN
 10
18.875
 20
27.5
 30
0.0
  0
VERTEX
  8
SCAN
 10
19.125
 20
27.5
 30
0.0
  0
VERTEX
  8
SCAN
 10
19.125
 20
30.0
 30
0.0
  0
VERTEX
  8
SCAN
 10
18.875
 20
30.0
 30
0.0
  0
SEQEND
  0
POLYLINE
 62
256
  8
SCAN
 66
1
 10
0.0
 20
0.0
 30
0.0
 70
9
  0
VERTEX
  8
SCAN
 10
19.875
 20
25.0
 30
0.0
  0
VERTEX
  8
SCAN
 10
20.125
 20
25.0
 30
0.0
  0
VERTEX
  8
SCAN
 10
20.125
 20
30.0
 30
0.0
  0
VERTEX
  8
SCAN
 10
19.875
 20
30.0
 30
0.0
  0
SEQEND
  0
POLYLINE
 62
256
  8
SCAN
 66
1
 10
0.0
 20
0.0
 30
0.0
 70
9
  0
VERTEX
  8
SCAN
 10
20.875
 20
27.5
 30
0.0
  0
VERTEX
  8
SCAN
 10
21.125
 20
27.5
 30
0.0
  0
VERTEX
  8
SCAN
 10
21.125
 20
30.0
 30
0.0
  0
VERTEX
  8
SCAN
 10
20.875
 20
30.0
 30
0.0
  0
SEQEND
  0
POLYLINE
 62
256
  8
SCAN
 66
1
 10
0.0
 20
0.0
 30
0.0
 70
9
  0
VERTEX
  8
SCAN
 10
21.875
 20
27.5
 30
0.0
  0
VERTEX
  8
SCAN
 10
22.125
 20
27.5
 30
0.0
  0
VERTEX
  8
SCAN
 10
22.125
 20
30.0
 30
0.0
  0
VERTEX
  8
SCAN
 10
21.875
 20
30.0
 30
0.0
  0
SEQEND
  0
POLYLINE
 62
256
  8
SCAN
 66
1
 10
0.0
 20
0.0
 30
0.0
 70
9
  0
VERTEX
  8
SCAN
 10
22.875
 20
27.5
 30
0.0
  0
VERTEX
  8
SCAN
 10
23.125
 20
27.5
 30
0.0
  0
VERTEX
  8
SCAN
 10
23.125
 20
30.0
 30
0.0
  0
VERTEX
  8
SCAN
 10
22.875
 20
30.0
 30
0.0
  0
SEQEND
  0
POLYLINE
 62
256
  8
SCAN
 66
1
 10
0.0
 20
0.0
 30
0.0
 70
9
  0
VERTEX
  8
SCAN
 10
23.875
 20
27.5
 30
0.0
  0
VERTEX
  8
SCAN
 10
24.125
 20
27.5
 30
0.0
  0
VERTEX
  8
SCAN
 10
24.125
 20
30.0
 30
0.0
  0
VERTEX
  8
SCAN
 10
23.875
 20
30.0
 30
0.0
  0
SEQEND
  0
TEXT
  8
SCAN
 10
23.875
 20
20.0
 30
0.0
 40
2.0
  1
2
 50
90.0
  0
POLYLINE
 62
256
  8
SCAN
 66
1
 10
0.0
 20
0.0
 30
0.0
 70
9
  0
VERTEX
  8
SCAN
 10
24.875
 20
20.0
 30
0.0
  0
VERTEX
  8
SCAN
 10
25.125
 20
20.0
 30
0.0
  0
VERTEX
  8
SCAN
 10
25.125
 20
30.0
 30
0.0
  0
VERTEX
  8
SCAN
 10
24.875
 20
30.0
 30
0.0
  0
SEQEND
  0
POLYLINE
 62
256
  8
SCAN
 66
1
 10
0.0
 20
0.0
 30
0.0
 70
9
  0
VERTEX
  8
SCAN
 10
25.875
 20
27.5
 30
0.0
  0
VERTEX
  8
SCAN
 10
26.125
 20
27.5
 30
0.0
  0
VERTEX
  8
SCAN
 10
26.125
 20
30.0
 30
0.0
  0
VERTEX
  8
SCAN
 10
25.875
 20
30.0
 30
0.0
  0
SEQEND
  0
POLYLINE
 62
256
  8
SCAN
 66
1
 10
0.0
 20
0.0
 30
0.0
 70
9
  0
VERTEX
  8
SCAN
 10
26.875
 20
27.5
 30
0.0
  0
VERTEX
  8
SCAN
 10
27.125
 20
27.5
 30
0.0
  0
VERTEX
  8
SCAN
 10
27.125
 20
30.0
 30
0.0
  0
VERTEX
  8
SCAN
 10
26.875
 20
30.0
 30
0.0
  0
SEQEND
  0
POLYLINE
 62
256
  8
SCAN
 66
1
 10
0.0
 20
0.0
 30
0.0
 70
9
  0
VERTEX
  8
SCAN
 10
27.875
 20
27.5
 30
0.0
  0
VERTEX
  8
SCAN
 10
28.125
 20
27.5
 30
0.0
  0
VERTEX
  8
SCAN
 10
28.125
 20
30.0
 30
0.0
  0
VERTEX
  8
SCAN
 10
27.875
 20
30.0
 30
0.0
  0
SEQEND
  0
POLYLINE
 62
256
  8
SCAN
 66
1
 10
0.0
 20
0.0
 30
0.0
 70
9
  0
VERTEX
  8
SCAN
 10
28.875
 20
27.5
 30
0.0
  0
VERTEX
  8
SCAN
 10
29.125
 20
27.5
 30
0.0
  0
VERTEX
  8
SCAN
 10
29.125
 20
30.0
 30
0.0
  0
VERTEX
  8
SCAN
 10
28.875
 20
30.0
 30
0.0
  0
SEQEND
  0
POLYLINE
 62
256
  8
SCAN
 66
1
 10
0.0
 20
0.0
 30
0.0
 70
9
  0
VERTEX
  8
SCAN
 10
29.875
 20
25.0
 30
0.0
  0
VERTEX
  8
SCAN
 10
30.125
 20
25.0
 30
0.0
  0
VERTEX
  8
SCAN
 10
30.125
 20
30.0
 30
0.0
  0
VERTEX
  8
SCAN
 10
29.875
 20
30.0
 30
0.0
  0
SEQEND
  0
POLYLINE
 62
256
  8
SCAN
 66
1
 10
0.0
 20
0.0
 30
0.0
 70
9
  0
VERTEX
  8
SCAN
 10
30.875
 20
27.5
 30
0.0
  0
VERTEX
  8
SCAN
 10
31.125
 20
27.5
 30
0.0
  0
VERTEX
  8
SCAN
 10
31.125
 20
30.0
 30
0.0
  0
VERTEX
  8
SCAN
 10
30.875
 20
30.0
 30
0.0
  0
SEQEND
  0
POLYLINE
 62
256
  8
SCAN
 66
1
 10
0.0
 20
0.0
 30
0.0
 70
9
  0
VERTEX
  8
SCAN
 10
31.875
 20
27.5
 30
0.0
  0
VERTEX
  8
SCAN
 10
32.125
 20
27.5
 30
0.0
  0
VERTEX
  8
SCAN
 10
32.125
 20
30.0
 30
0.0
  0
VERTEX
  8
SCAN
 10
31.875
 20
30.0
 30
0.0
  0
SEQEND
  0
POLYLINE
 62
256
  8
SCAN
 66
1
 10
0.0
 20
0.0
 30
0.0
 70
9
  0
VERTEX
  8
SCAN
 10
32.875
 20
27.5
 30
0.0
  0
VERTEX
  8
SCAN
 10
33.125
 20
27.5
 30
0.0
  0
VERTEX
  8
SCAN
 10
33.125
 20
30.0
 30
0.0
  0
VERTEX
  8
SCAN
 10
32.875
 20
30.0
 30
0.0
  0
SEQEND
  0
POLYLINE
 62
256
  8
SCAN
 66
1
 10
0.0
 20
0.0
 30
0.0
 70
9
  0
VERTEX
  8
SCAN
 10
33.875
 20
27.5
 30
0.0
  0
VERTEX
  8
SCAN
 10
34.125
 20
27.5
 30
0.0
  0
VERTEX
  8
SCAN
 10
34.125
 20
30.0
 30
0.0
  0
VERTEX
  8
SCAN
 10
33.875
 20
30.0
 30
0.0
  0
SEQEND
  0
TEXT
  8
SCAN
 10
33.875
 20
20.0
 30
0.0
 40
2.0
  1
3
 50
90.0
  0
POLYLINE
 62
256
  8
SCAN
 66
1
 10
0.0
 20
0.0
 30
0.0
 70
9
  0
VERTEX
  8
SCAN
 10
34.875
 20
20.0
 30
0.0
  0
VERTEX
  8
SCAN
 10
35.125
 20
20.0
 30
0.0
  0
VERTEX
  8
SCAN
 10
35.125
 20
30.0
 30
0.0
  0
VERTEX
  8
SCAN
 10
34.875
 20
30.0
 30
0.0
  0
SEQEND
  0
POLYLINE
 62
256
  8
SCAN
 66
1
 10
0.0
 20
0.0
 30
0.0
 70
9
  0
VERTEX
  8
SCAN
 10
35.875
 20
27.5
 30
0.0
  0
VERTEX
  8
SCAN
 10
36.125
 20
27.5
 30
0.0
  0
VERTEX
  8
SCAN
 10
36.125
 20
30.0
 30
0.0
  0
VERTEX
  8
SCAN
 10
35.875
 20
30.0
 30
0.0
  0
SEQEND
  0
POLYLINE
 62
256
  8
SCAN
 66
1
 10
0.0
 20
0.0
 30
0.0
 70
9
  0
VERTEX
  8
SCAN
 10
36.875
 20
27.5
 30
0.0
  0
VERTEX
  8
SCAN
 10
37.125
 20
27.5
 30
0.0
  0
VERTEX
  8
SCAN
 10
37.125
 20
30.0
 30
0.0
  0
VERTEX
  8
SCAN
 10
36.875
 20
30.0
 30
0.0
  0
SEQEND
  0
POLYLINE
 62
256
  8
SCAN
 66
1
 10
0.0
 20
0.0
 30
0.0
 70
9
  0
VERTEX
  8
SCAN
 10
37.875
 20
27.5
 30
0.0
  0
VERTEX
  8
SCAN
 10
38.125
 20
27.5
 30
0.0
  0
VERTEX
  8
SCAN
 10
38.125
 20
30.0
 30
0.0
  0
VERTEX
  8
SCAN
 10
37.875
 20
30.0
 30
0.0
  0
SEQEND
  0
POLYLINE
 62
256
  8
SCAN
 66
1
 10
0.0
 20
0.0
 30
0.0
 70
9
  0
VERTEX
  8
SCAN
 10
38.875
 20
27.5
 30
0.0
  0
VERTEX
  8
SCAN
 10
39.125
 20
27.5
 30
0.0
  0
VERTEX
  8
SCAN
 10
39.125
 20
30.0
 30
0.0
  0
VERTEX
  8
SCAN
 10
38.875
 20
30.0
 30
0.0
  0
SEQEND
  0
POLYLINE
 62
256
  8
SCAN
 66
1
 10
0.0
 20
0.0
 30
0.0
 70
9
  0
VERTEX
  8
SCAN
 10
39.875
 20
25.0
 30
0.0
  0
VERTEX
  8
SCAN
 10
40.125
 20
25.0
 30
0.0
  0
VERTEX
  8
SCAN
 10
40.125
 20
30.0
 30
0.0
  0
VERTEX
  8
SCAN
 10
39.875
 20
30.0
 30
0.0
  0
SEQEND
  0
POLYLINE
 62
256
  8
SCAN
 66
1
 10
0.0
 20
0.0
 30
0.0
 70
9
  0
VERTEX
  8
SCAN
 10
40.875
 20
27.5
 30
0.0
  0
VERTEX
  8
SCAN
 10
41.125
 20
27.5
 30
0.0
  0
VERTEX
  8
SCAN
 10
41.125
 20
30.0
 30
0.0
  0
VERTEX
  8
SCAN
 10
40.875
 20
30.0
 30
0.0
  0
SEQEND
  0
POLYLINE
 62
256
  8
SCAN
 66
1
 10
0.0
 20
0.0
 30
0.0
 70
9
  0
VERTEX
  8
SCAN
 10
41.875
 20
27.5
 30
0.0
  0
VERTEX
  8
SCAN
 10
42.125
 20
27.5
 30
0.0
  0
VERTEX
  8
SCAN
 10
42.125
 20
30.0
 30
0.0
  0
VERTEX
  8
SCAN
 10
41.875
 20
30.0
 30
0.0
  0
SEQEND
  0
POLYLINE
 62
256
  8
SCAN
 66
1
 10
0.0
 20
0.0
 30
0.0
 70
9
  0
VERTEX
  8
SCAN
 10
42.875
 20
27.5
 30
0.0
  0
VERTEX
  8
SCAN
 10
43.125
 20
27.5
 30
0.0
  0
VERTEX
  8
SCAN
 10
43.125
 20
30.0
 30
0.0
  0
VERTEX
  8
SCAN
 10
42.875
 20
30.0
 30
0.0
  0
SEQEND
  0
POLYLINE
 62
256
  8
SCAN
 66
1
 10
0.0
 20
0.0
 30
0.0
 70
9
  0
VERTEX
  8
SCAN
 10
43.875
 20
27.5
 30
0.0
  0
VERTEX
  8
SCAN
 10
44.125
 20
27.5
 30
0.0
  0
VERTEX
  8
SCAN
 10
44.125
 20
30.0
 30
0.0
  0
VERTEX
  8
SCAN
 10
43.875
 20
30.0
 30
0.0
  0
SEQEND
  0
TEXT
  8
SCAN
 10
43.875
 20
20.0
 30
0.0
 40
2.0
  1
4
 50
90.0
  0
POLYLINE
 62
256
  8
SCAN
 66
1
 10
0.0
 20
0.0
 30
0.0
 70
9
  0
VERTEX
  8
SCAN
 10
44.875
 20
20.0
 30
0.0
  0
VERTEX
  8
SCAN
 10
45.125
 20
20.0
 30
0.0
  0
VERTEX
  8
SCAN
 10
45.125
 20
30.0
 30
0.0
  0
VERTEX
  8
SCAN
 10
44.875
 20
30.0
 30
0.0
  0
SEQEND
  0
POLYLINE
 62
256
  8
SCAN
 66
1
 10
0.0
 20
0.0
 30
0.0
 70
9
  0
VERTEX
  8
SCAN
 10
45.875
 20
27.5
 30
0.0
  0
VERTEX
  8
SCAN
 10
46.125
 20
27.5
 30
0.0
  0
VERTEX
  8
SCAN
 10
46.125
 20
30.0
 30
0.0
  0
VERTEX
  8
SCAN
 10
45.875
 20
30.0
 30
0.0
  0
SEQEND
  0
POLYLINE
 62
256
  8
SCAN
 66
1
 10
0.0
 20
0.0
 30
0.0
 70
9
  0
VERTEX
  8
SCAN
 10
46.875
 20
27.5
 30
0.0
  0
VERTEX
  8
SCAN
 10
47.125
 20
27.5
 30
0.0
  0
VERTEX
  8
SCAN
 10
47.125
 20
30.0
 30
0.0
  0
VERTEX
  8
SCAN
 10
46.875
 20
30.0
 30
0.0
  0
SEQEND
  0
POLYLINE
 62
256
  8
SCAN
 66
1
 10
0.0
 20
0.0
 30
0.0
 70
9
  0
VERTEX
  8
SCAN
 10
47.875
 20
27.5
 30
0.0
  0
VERTEX
  8
SCAN
 10
48.125
 20
27.5
 30
0.0
  0
VERTEX
  8
SCAN
 10
48.125
 20
30.0
 30
0.0
  0
VERTEX
  8
SCAN
 10
47.875
 20
30.0
 30
0.0
  0
SEQEND
  0
POLYLINE
 62
256
  8
SCAN
 66
1
 10
0.0
 20
0.0
 30
0.0
 70
9
  0
VERTEX
  8
SCAN
 10
48.875
 20
27.5
 30
0.0
  0
VERTEX
  8
SCAN
 10
49.125
 20
27.5
 30
0.0
  0
VERTEX
  8
SCAN
 10
49.125
 20
30.0
 30
0.0
  0
VERTEX
  8
SCAN
 10
48.875
 20
30.0
 30
0.0
  0
SEQEND
  0
POLYLINE
 62
256
  8
SCAN
 66
1
 10
0.0
 20
0.0
 30
0.0
 70
9
  0
VERTEX
  8
SCAN
 10
49.875
 20
25.0
 30
0.0
  0
VERTEX
  8
SCAN
 10
50.125
 20
25.0
 30
0.0
  0
VERTEX
  8
SCAN
 10
50.125
 20
30.0
 30
0.0
  0
VERTEX
  8
SCAN
 10
49.875
 20
30.0
 30
0.0
  0
SEQEND
  0
POLYLINE
 62
256
  8
SCAN
 66
1
 10
0.0
 20
0.0
 30
0.0
 70
9
  0
VERTEX
  8
SCAN
 10
50.875
 20
27.5
 30
0.0
  0
VERTEX
  8
SCAN
 10
51.125
 20
27.5
 30
0.0
  0
VERTEX
  8
SCAN
 10
51.125
 20
30.0
 30
0.0
  0
VERTEX
  8
SCAN
 10
50.875
 20
30.0
 30
0.0
  0
SEQEND
  0
POLYLINE
 62
256
  8
SCAN
 66
1
 10
0.0
 20
0.0
 30
0.0
 70
9
  0
VERTEX
  8
SCAN
 10
51.875
 20
27.5
 30
0.0
  0
VERTEX
  8
SCAN
 10
52.125
 20
27.5
 30
0.0
  0
VERTEX
  8
SCAN
 10
52.125
 20
30.0
 30
0.0
  0
VERTEX
  8
SCAN
 10
51.875
 20
30.0
 30
0.0
  0
SEQEND
  0
POLYLINE
 62
256
  8
SCAN
 66
1
 10
0.0
 20
0.0
 30
0.0
 70
9
  0
VERTEX
  8
SCAN
 10
52.875
 20
27.5
 30
0.0
  0
VERTEX
  8
SCAN
 10
53.125
 20
27.5
 30
0.0
  0
VERTEX
  8
SCAN
 10
53.125
 20
30.0
 30
0.0
  0
VERTEX
  8
SCAN
 10
52.875
 20
30.0
 30
0.0
  0
SEQEND
  0
POLYLINE
 62
256
  8
SCAN
 66
1
 10
0.0
 20
0.0
 30
0.0
 70
9
  0
VERTEX
  8
SCAN
 10
53.875
 20
27.5
 30
0.0
  0
VERTEX
  8
SCAN
 10
54.125
 20
27.5
 30
0.0
  0
VERTEX
  8
SCAN
 10
54.125
 20
30.0
 30
0.0
  0
VERTEX
  8
SCAN
 10
53.875
 20
30.0
 30
0.0
  0
SEQEND
  0
TEXT
  8
SCAN
 10
53.875
 20
20.0
 30
0.0
 40
2.0
  1
5
 50
90.0
  0
POLYLINE
 62
256
  8
SCAN
 66
1
 10
0.0
 20
0.0
 30
0.0
 70
9
  0
VERTEX
  8
SCAN
 10
54.875
 20
20.0
 30
0.0
  0
VERTEX
  8
SCAN
 10
55.125
 20
20.0
 30
0.0
  0
VERTEX
  8
SCAN
 10
55.125
 20
30.0
 30
0.0
  0
VERTEX
  8
SCAN
 10
54.875
 20
30.0
 30
0.0
  0
SEQEND
  0
POLYLINE
 62
256
  8
SCAN
 66
1
 10
0.0
 20
0.0
 30
0.0
 70
9
  0
VERTEX
  8
SCAN
 10
55.875
 20
27.5
 30
0.0
  0
VERTEX
  8
SCAN
 10
56.125
 20
27.5
 30
0.0
  0
VERTEX
  8
SCAN
 10
56.125
 20
30.0
 30
0.0
  0
VERTEX
  8
SCAN
 10
55.875
 20
30.0
 30
0.0
  0
SEQEND
  0
POLYLINE
 62
256
  8
SCAN
 66
1
 10
0.0
 20
0.0
 30
0.0
 70
9
  0
VERTEX
  8
SCAN
 10
56.875
 20
27.5
 30
0.0
  0
VERTEX
  8
SCAN
 10
57.125
 20
27.5
 30
0.0
  0
VERTEX
  8
SCAN
 10
57.125
 20
30.0
 30
0.0
  0
VERTEX
  8
SCAN
 10
56.875
 20
30.0
 30
0.0
  0
SEQEND
  0
POLYLINE
 62
256
  8
SCAN
 66
1
 10
0.0
 20
0.0
 30
0.0
 70
9
  0
VERTEX
  8
SCAN
 10
57.875
 20
27.5
 30
0.0
  0
VERTEX
  8
SCAN
 10
58.125
 20
27.5
 30
0.0
  0
VERTEX
  8
SCAN
 10
58.125
 20
30.0
 30
0.0
  0
VERTEX
  8
SCAN
 10
57.875
 20
30.0
 30
0.0
  0
SEQEND
  0
POLYLINE
 62
256
  8
SCAN
 66
1
 10
0.0
 20
0.0
 30
0.0
 70
9
  0
VERTEX
  8
SCAN
 10
58.875
 20
27.5
 30
0.0
  0
VERTEX
  8
SCAN
 10
59.125
 20
27.5
 30
0.0
  0
VERTEX
  8
SCAN
 10
59.125
 20
30.0
 30
0.0
  0
VERTEX
  8
SCAN
 10
58.875
 20
30.0
 30
0.0
  0
SEQEND
  0
POLYLINE
 62
256
  8
SCAN
 66
1
 10
0.0
 20
0.0
 30
0.0
 70
9
  0
VERTEX
  8
SCAN
 10
59.875
 20
25.0
 30
0.0
  0
VERTEX
  8
SCAN
 10
60.125
 20
25.0
 30
0.0
  0
VERTEX
  8
SCAN
 10
60.125
 20
30.0
 30
0.0
  0
VERTEX
  8
SCAN
 10
59.875
 20
30.0
 30
0.0
  0
SEQEND
  0
POLYLINE
 62
256
  8
SCAN
 66
1
 10
0.0
 20
0.0
 30
0.0
 70
9
  0
VERTEX
  8
SCAN
 10
60.875
 20
27.5
 30
0.0
  0
VERTEX
  8
SCAN
 10
61.125
 20
27.5
 30
0.0
  0
VERTEX
  8
SCAN
 10
61.125
 20
30.0
 30
0.0
  0
VERTEX
  8
SCAN
 10
60.875
 20
30.0
 30
0.0
  0
SEQEND
  0
POLYLINE
 62
256
  8
SCAN
 66
1
 10
0.0
 20
0.0
 30
0.0
 70
9
  0
VERTEX
  8
SCAN
 10
61.875
 20
27.5
 30
0.0
  0
VERTEX
  8
SCAN
 10
62.125
 20
27.5
 30
0.0
  0
VERTEX
  8
SCAN
 10
62.125
 20
30.0
 30
0.0
  0
VERTEX
  8
SCAN
 10
61.875
 20
30.0
 30
0.0
  0
SEQEND
  0
POLYLINE
 62
256
  8
SCAN
 66
1
 10
0.0
 20
0.0
 30
0.0
 70
9
  0
VERTEX
  8
SCAN
 10
62.875
 20
27.5
 30
0.0
  0
VERTEX
  8
SCAN
 10
63.125
 20
27.5
 30
0.0
  0
VERTEX
  8
SCAN
 10
63.125
 20
30.0
 30
0.0
  0
VERTEX
  8
SCAN
 10
62.875
 20
30.0
 30
0.0
  0
SEQEND
  0
POLYLINE
 62
256
  8
SCAN
 66
1
 10
0.0
 20
0.0
 30
0.0
 70
9
  0
VERTEX
  8
SCAN
 10
63.875
 20
27.5
 30
0.0
  0
VERTEX
  8
SCAN
 10
64.125
 20
27.5
 30
0.0
  0
VERTEX
  8
SCAN
 10
64.125
 20
30.0
 30
0.0
  0
VERTEX
  8
SCAN
 10
63.875
 20
30.0
 30
0.0
  0
SEQEND
  0
TEXT
  8
SCAN
 10
63.875
 20
20.0
 30
0.0
 40
2.0
  1
6
 50
90.0
  0
POLYLINE
 62
256
  8
SCAN
 66
1
 10
0.0
 20
0.0
 30
0.0
 70
9
  0
VERTEX
  8
SCAN
 10
64.875
 20
20.0
 30
0.0
  0
VERTEX
  8
SCAN
 10
65.125
 20
20.0
 30
0.0
  0
VERTEX
  8
SCAN
 10
65.125
 20
30.0
 30
0.0
  0
VERTEX
  8
SCAN
 10
64.875
 20
30.0
 30
0.0
  0
SEQEND
  0
POLYLINE
 62
256
  8
SCAN
 66
1
 10
0.0
 20
0.0
 30
0.0
 70
9
  0
VERTEX
  8
SCAN
 10
65.875
 20
27.5
 30
0.0
  0
VERTEX
  8
SCAN
 10
66.125
 20
27.5
 30
0.0
  0
VERTEX
  8
SCAN
 10
66.125
 20
30.0
 30
0.0
  0
VERTEX
  8
SCAN
 10
65.875
 20
30.0
 30
0.0
  0
SEQEND
  0
POLYLINE
 62
256
  8
SCAN
 66
1
 10
0.0
 20
0.0
 30
0.0
 70
9
  0
VERTEX
  8
SCAN
 10
66.875
 20
27.5
 30
0.0
  0
VERTEX
  8
SCAN
 10
67.125
 20
27.5
 30
0.0
  0
VERTEX
  8
SCAN
 10
67.125
 20
30.0
 30
0.0
  0
VERTEX
  8
SCAN
 10
66.875
 20
30.0
 30
0.0
  0
SEQEND
  0
POLYLINE
 62
256
  8
SCAN
 66
1
 10
0.0
 20
0.0
 30
0.0
 70
9
  0
VERTEX
  8
SCAN
 10
67.875
 20
27.5
 30
0.0
  0
VERTEX
  8
SCAN
 10
68.125
 20
27.5
 30
0.0
  0
VERTEX
  8
SCAN
 10
68.125
 20
30.0
 30
0.0
  0
VERTEX
  8
SCAN
 10
67.875
 20
30.0
 30
0.0
  0
SEQEND
  0
POLYLINE
 62
256
  8
SCAN
 66
1
 10
0.0
 20
0.0
 30
0.0
 70
9
  0
VERTEX
  8
SCAN
 10
68.875
 20
27.5
 30
0.0
  0
VERTEX
  8
SCAN
 10
69.125
 20
27.5
 30
0.0
  0
VERTEX
  8
SCAN
 10
69.125
 20
30.0
 30
0.0
  0
VERTEX
  8
SCAN
 10
68.875
 20
30.0
 30
0.0
  0
SEQEND
  0
POLYLINE
 62
256
  8
SCAN
 66
1
 10
0.0
 20
0.0
 30
0.0
 70
9
  0
VERTEX
  8
SCAN
 10
69.875
 20
25.0
 30
0.0
  0
VERTEX
  8
SCAN
 10
70.125
 20
25.0
 30
0.0
  0
VERTEX
  8
SCAN
 10
70.125
 20
30.0
 30
0.0
  0
VERTEX
  8
SCAN
 10
69.875
 20
30.0
 30
0.0
  0
SEQEND
  0
POLYLINE
 62
256
  8
SCAN
 66
1
 10
0.0
 20
0.0
 30
0.0
 70
9
  0
VERTEX
  8
SCAN
 10
70.875
 20
27.5
 30
0.0
  0
VERTEX
  8
SCAN
 10
71.125
 20
27.5
 30
0.0
  0
VERTEX
  8
SCAN
 10
71.125
 20
30.0
 30
0.0
  0
VERTEX
  8
SCAN
 10
70.875
 20
30.0
 30
0.0
  0
SEQEND
  0
POLYLINE
 62
256
  8
SCAN
 66
1
 10
0.0
 20
0.0
 30
0.0
 70
9
  0
VERTEX
  8
SCAN
 10
71.875
 20
27.5
 30
0.0
  0
VERTEX
  8
SCAN
 10
72.125
 20
27.5
 30
0.0
  0
VERTEX
  8
SCAN
 10
72.125
 20
30.0
 30
0.0
  0
VERTEX
  8
SCAN
 10
71.875
 20
30.0
 30
0.0
  0
SEQEND
  0
POLYLINE
 62
256
  8
SCAN
 66
1
 10
0.0
 20
0.0
 30
0.0
 70
9
  0
VERTEX
  8
SCAN
 10
72.875
 20
27.5
 30
0.0
  0
VERTEX
  8
SCAN
 10
73.125
 20
27.5
 30
0.0
  0
VERTEX
  8
SCAN
 10
73.125
 20
30.0
 30
0.0
  0
VERTEX
  8
SCAN
 10
72.875
 20
30.0
 30
0.0
  0
SEQEND
  0
POLYLINE
 62
256
  8
SCAN
 66
1
 10
0.0
 20
0.0
 30
0.0
 70
9
  0
VERTEX
  8
SCAN
 10
73.875
 20
27.5
 30
0.0
  0
VERTEX
  8
SCAN
 10
74.125
 20
27.5
 30
0.0
  0
VERTEX
  8
SCAN
 10
74.125
 20
30.0
 30
0.0
  0
VERTEX
  8
SCAN
 10
73.875
 20
30.0
 30
0.0
  0
SEQEND
  0
TEXT
  8
SCAN
 10
73.875
 20
20.0
 30
0.0
 40
2.0
  1
7
 50
90.0
  0
POLYLINE
 62
256
  8
SCAN
 66
1
 10
0.0
 20
0.0
 30
0.0
 70
9
  0
VERTEX
  8
SCAN
 10
74.875
 20
20.0
 30
0.0
  0
VERTEX
  8
SCAN
 10
75.125
 20
20.0
 30
0.0
  0
VERTEX
  8
SCAN
 10
75.125
 20
30.0
 30
0.0
  0
VERTEX
  8
SCAN
 10
74.875
 20
30.0
 30
0.0
  0
SEQEND
  0
POLYLINE
 62
256
  8
SCAN
 66
1
 10
0.0
 20
0.0
 30
0.0
 70
9
  0
VERTEX
  8
SCAN
 10
75.875
 20
27.5
 30
0.0
  0
VERTEX
  8
SCAN
 10
76.125
 20
27.5
 30
0.0
  0
VERTEX
  8
SCAN
 10
76.125
 20
30.0
 30
0.0
  0
VERTEX
  8
SCAN
 10
75.875
 20
30.0
 30
0.0
  0
SEQEND
  0
POLYLINE
 62
256
  8
SCAN
 66
1
 10
0.0
 20
0.0
 30
0.0
 70
9
  0
VERTEX
  8
SCAN
 10
76.875
 20
27.5
 30
0.0
  0
VERTEX
  8
SCAN
 10
77.125
 20
27.5
 30
0.0
  0
VERTEX
  8
SCAN
 10
77.125
 20
30.0
 30
0.0
  0
VERTEX
  8
SCAN
 10
76.875
 20
30.0
 30
0.0
  0
SEQEND
  0
POLYLINE
 62
256
  8
SCAN
 66
1
 10
0.0
 20
0.0
 30
0.0
 70
9
  0
VERTEX
  8
SCAN
 10
77.875
 20
27.5
 30
0.0
  0
VERTEX
  8
SCAN
 10
78.125
 20
27.5
 30
0.0
  0
VERTEX
  8
SCAN
 10
78.125
 20
30.0
 30
0.0
  0
VERTEX
  8
SCAN
 10
77.875
 20
30.0
 30
0.0
  0
SEQEND
  0
POLYLINE
 62
256
  8
SCAN
 66
1
 10
0.0
 20
0.0
 30
0.0
 70
9
  0
VERTEX
  8
SCAN
 10
78.875
 20
27.5
 30
0.0
  0
VERTEX
  8
SCAN
 10
79.125
 20
27.5
 30
0.0
  0
VERTEX
  8
SCAN
 10
79.125
 20
30.0
 30
0.0
  0
VERTEX
  8
SCAN
 10
78.875
 20
30.0
 30
0.0
  0
SEQEND
  0
POLYLINE
 62
256
  8
SCAN
 66
1
 10
0.0
 20
0.0
 30
0.0
 70
9
  0
VERTEX
  8
SCAN
 10
79.875
 20
25.0
 30
0.0
  0
VERTEX
  8
SCAN
 10
80.125
 20
25.0
 30
0.0
  0
VERTEX
  8
SCAN
 10
80.125
 20
30.0
 30
0.0
  0
VERTEX
  8
SCAN
 10
79.875
 20
30.0
 30
0.0
  0
SEQEND
  0
POLYLINE
 62
256
  8
SCAN
 66
1
 10
0.0
 20
0.0
 30
0.0
 70
9
  0
VERTEX
  8
SCAN
 10
80.875
 20
27.5
 30
0.0
  0
VERTEX
  8
SCAN
 10
81.125
 20
27.5
 30
0.0
  0
VERTEX
  8
SCAN
 10
81.125
 20
30.0
 30
0.0
  0
VERTEX
  8
SCAN
 10
80.875
 20
30.0
 30
0.0
  0
SEQEND
  0
POLYLINE
 62
256
  8
SCAN
 66
1
 10
0.0
 20
0.0
 30
0.0
 70
9
  0
VERTEX
  8
SCAN
 10
81.875
 20
27.5
 30
0.0
  0
VERTEX
  8
SCAN
 10
82.125
 20
27.5
 30
0.0
  0
VERTEX
  8
SCAN
 10
82.125
 20
30.0
 30
0.0
  0
VERTEX
  8
SCAN
 10
81.875
 20
30.0
 30
0.0
  0
SEQEND
  0
POLYLINE
 62
256
  8
SCAN
 66
1
 10
0.0
 20
0.0
 30
0.0
 70
9
  0
VERTEX
  8
SCAN
 10
82.875
 20
27.5
 30
0.0
  0
VERTEX
  8
SCAN
 10
83.125
 20
27.5
 30
0.0
  0
VERTEX
  8
SCAN
 10
83.125
 20
30.0
 30
0.0
  0
VERTEX
  8
SCAN
 10
82.875
 20
30.0
 30
0.0
  0
SEQEND
  0
POLYLINE
 62
256
  8
SCAN
 66
1
 10
0.0
 20
0.0
 30
0.0
 70
9
  0
VERTEX
  8
SCAN
 10
83.875
 20
27.5
 30
0.0
  0
VERTEX
  8
SCAN
 10
84.125
 20
27.5
 30
0.0
  0
VERTEX
  8
SCAN
 10
84.125
 20
30.0
 30
0.0
  0
VERTEX
  8
SCAN
 10
83.875
 20
30.0
 30
0.0
  0
SEQEND
  0
TEXT
  8
SCAN
 10
83.875
 20
20.0
 30
0.0
 40
2.0
  1
8
 50
90.0
  0
POLYLINE
 62
256
  8
SCAN
 66
1
 10
0.0
 20
0.0
 30
0.0
 70
9
  0
VERTEX
  8
SCAN
 10
84.875
 20
20.0
 30
0.0
  0
VERTEX
  8
SCAN
 10
85.125
 20
20.0
 30
0.0
  0
VERTEX
  8
SCAN
 10
85.125
 20
30.0
 30
0.0
  0
VERTEX
  8
SCAN
 10
84.875
 20
30.0
 30
0.0
  0
SEQEND
  0
POLYLINE
 62
256
  8
SCAN
 66
1
 10
0.0
 20
0.0
 30
0.0
 70
9
  0
VERTEX
  8
SCAN
 10
85.875
 20
27.5
 30
0.0
  0
VERTEX
  8
SCAN
 10
86.125
 20
27.5
 30
0.0
  0
VERTEX
  8
SCAN
 10
86.125
 20
30.0
 30
0.0
  0
VERTEX
  8
SCAN
 10
85.875
 20
30.0
 30
0.0
  0
SEQEND
  0
POLYLINE
 62
256
  8
SCAN
 66
1
 10
0.0
 20
0.0
 30
0.0
 70
9
  0
VERTEX
  8
SCAN
 10
86.875
 20
27.5
 30
0.0
  0
VERTEX
  8
SCAN
 10
87.125
 20
27.5
 30
0.0
  0
VERTEX
  8
SCAN
 10
87.125
 20
30.0
 30
0.0
  0
VERTEX
  8
SCAN
 10
86.875
 20
30.0
 30
0.0
  0
SEQEND
  0
POLYLINE
 62
256
  8
SCAN
 66
1
 10
0.0
 20
0.0
 30
0.0
 70
9
  0
VERTEX
  8
SCAN
 10
87.875
 20
27.5
 30
0.0
  0
VERTEX
  8
SCAN
 10
88.125
 20
27.5
 30
0.0
  0
VERTEX
  8
SCAN
 10
88.125
 20
30.0
 30
0.0
  0
VERTEX
  8
SCAN
 10
87.875
 20
30.0
 30
0.0
  0
SEQEND
  0
POLYLINE
 62
256
  8
SCAN
 66
1
 10
0.0
 20
0.0
 30
0.0
 70
9
  0
VERTEX
  8
SCAN
 10
88.875
 20
27.5
 30
0.0
  0
VERTEX
  8
SCAN
 10
89.125
 20
27.5
 30
0.0
  0
VERTEX
  8
SCAN
 10
89.125
 20
30.0
 30
0.0
  0
VERTEX
  8
SCAN
 10
88.875
 20
30.0
 30
0.0
  0
SEQEND
  0
POLYLINE
 62
256
  8
SCAN
 66
1
 10
0.0
 20
0.0
 30
0.0
 70
9
  0
VERTEX
  8
SCAN
 10
89.875
 20
25.0
 30
0.0
  0
VERTEX
  8
SCAN
 10
90.125
 20
25.0
 30
0.0
  0
VERTEX
  8
SCAN
 10
90.125
 20
30.0
 30
0.0
  0
VERTEX
  8
SCAN
 10
89.875
 20
30.0
 30
0.0
  0
SEQEND
  0
POLYLINE
 62
256
  8
SCAN
 66
1
 10
0.0
 20
0.0
 30
0.0
 70
9
  0
VERTEX
  8
SCAN
 10
90.875
 20
27.5
 30
0.0
  0
VERTEX
  8
SCAN
 10
91.125
 20
27.5
 30
0.0
  0
VERTEX
  8
SCAN
 10
91.125
 20
30.0
 30
0.0
  0
VERTEX
  8
SCAN
 10
90.875
 20
30.0
 30
0.0
  0
SEQEND
  0
POLYLINE
 62
256
  8
SCAN
 66
1
 10
0.0
 20
0.0
 30
0.0
 70
9
  0
VERTEX
  8
SCAN
 10
91.875
 20
27.5
 30
0.0
  0
VERTEX
  8
SCAN
 10
92.125
 20
27.5
 30
0.0
  0
VERTEX
  8
SCAN
 10
92.125
 20
30.0
 30
0.0
  0
VERTEX
  8
SCAN
 10
91.875
 20
30.0
 30
0.0
  0
SEQEND
  0
POLYLINE
 62
256
  8
SCAN
 66
1
 10
0.0
 20
0.0
 30
0.0
 70
9
  0
VERTEX
  8
SCAN
 10
92.875
 20
27.5
 30
0.0
  0
VERTEX
  8
SCAN
 10
93.125
 20
27.5
 30
0.0
  0
VERTEX
  8
SCAN
 10
93.125
 20
30.0
 30
0.0
  0
VERTEX
  8
SCAN
 10
92.875
 20
30.0
 30
0.0
  0
SEQEND
  0
POLYLINE
 62
256
  8
SCAN
 66
1
 10
0.0
 20
0.0
 30
0.0
 70
9
  0
VERTEX
  8
SCAN
 10
93.875
 20
27.5
 30
0.0
  0
VERTEX
  8
SCAN
 10
94.125
 20
27.5
 30
0.0
  0
VERTEX
  8
SCAN
 10
94.125
 20
30.0
 30
0.0
  0
VERTEX
  8
SCAN
 10
93.875
 20
30.0
 30
0.0
  0
SEQEND
  0
TEXT
  8
SCAN
 10
93.875
 20
20.0
 30
0.0
 40
2.0
  1
9
 50
90.0
  0
POLYLINE
 62
256
  8
SCAN
 66
1
 10
0.0
 20
0.0
 30
0.0
 70
9
  0
VERTEX
  8
SCAN
 10
94.875
 20
20.0
 30
0.0
  0
VERTEX
  8
SCAN
 10
95.125
 20
20.0
 30
0.0
  0
VERTEX
  8
SCAN
 10
95.125
 20
30.0
 30
0.0
  0
VERTEX
  8
SCAN
 10
94.875
 20
30.0
 30
0.0
  0
SEQEND
  0
POLYLINE
 62
256
  8
SCAN
 66
1
 10
0.0
 20
0.0
 30
0.0
 70
9
  0
VERTEX
  8
SCAN
 10
95.875
 20
27.5
 30
0.0
  0
VERTEX
  8
SCAN
 10
96.125
 20
27.5
 30
0.0
  0
VERTEX
  8
SCAN
 10
96.125
 20
30.0
 30
0.0
  0
VERTEX
  8
SCAN
 10
95.875
 20
30.0
 30
0.0
  0
SEQEND
  0
POLYLINE
 62
256
  8
SCAN
 66
1
 10
0.0
 20
0.0
 30
0.0
 70
9
  0
VERTEX
  8
SCAN
 10
96.875
 20
27.5
 30
0.0
  0
VERTEX
  8
SCAN
 10
97.125
 20
27.5
 30
0.0
  0
VERTEX
  8
SCAN
 10
97.125
 20
30.0
 30
0.0
  0
VERTEX
  8
SCAN
 10
96.875
 20
30.0
 30
0.0
  0
SEQEND
  0
POLYLINE
 62
256
  8
SCAN
 66
1
 10
0.0
 20
0.0
 30
0.0
 70
9
  0
VERTEX
  8
SCAN
 10
97.875
 20
27.5
 30
0.0
  0
VERTEX
  8
SCAN
 10
98.125
 20
27.5
 30
0.0
  0
VERTEX
  8
SCAN
 10
98.125
 20
30.0
 30
0.0
  0
VERTEX
  8
SCAN
 10
97.875
 20
30.0
 30
0.0
  0
SEQEND
  0
POLYLINE
 62
256
  8
SCAN
 66
1
 10
0.0
 20
0.0
 30
0.0
 70
9
  0
VERTEX
  8
SCAN
 10
98.875
 20
27.5
 30
0.0
  0
VERTEX
  8
SCAN
 10
99.125
 20
27.5
 30
0.0
  0
VERTEX
  8
SCAN
 10
99.125
 20
30.0
 30
0.0
  0
VERTEX
  8
SCAN
 10
98.875
 20
30.0
 30
0.0
  0
SEQEND
  0
POLYLINE
 62
256
  8
SCAN
 66
1
 10
0.0
 20
0.0
 30
0.0
 70
9
  0
VERTEX
  8
SCAN
 10
99.875
 20
25.0
 30
0.0
  0
VERTEX
  8
SCAN
 10
100.125
 20
25.0
 30
0.0
  0
VERTEX
  8
SCAN
 10
100.125
 20
30.0
 30
0.0
  0
VERTEX
  8
SCAN
 10
99.875
 20
30.0
 30
0.0
  0
SEQEND
  0
POLYLINE
 62
256
  8
SCAN
 66
1
 10
0.0
 20
0.0
 30
0.0
 70
9
  0
VERTEX
  8
SCAN
 10
100.875
 20
27.5
 30
0.0
  0
VERTEX
  8
SCAN
 10
101.125
 20
27.5
 30
0.0
  0
VERTEX
  8
SCAN
 10
101.125
 20
30.0
 30
0.0
  0
VERTEX
  8
SCAN
 10
100.875
 20
30.0
 30
0.0
  0
SEQEND
  0
POLYLINE
 62
256
  8
SCAN
 66
1
 10
0.0
 20
0.0
 30
0.0
 70
9
  0
VERTEX
  8
SCAN
 10
101.875
 20
27.5
 30
0.0
  0
VERTEX
  8
SCAN
 10
102.125
 20
27.5
 30
0.0
  0
VERTEX
  8
SCAN
 10
102.125
 20
30.0
 30
0.0
  0
VERTEX
  8
SCAN
 10
101.875
 20
30.0
 30
0.0
  0
SEQEND
  0
POLYLINE
 62
256
  8
SCAN
 66
1
 10
0.0
 20
0.0
 30
0.0
 70
9
  0
VERTEX
  8
SCAN
 10
102.875
 20
27.5
 30
0.0
  0
VERTEX
  8
SCAN
 10
103.125
 20
27.5
 30
0.0
  0
VERTEX
  8
SCAN
 10
103.125
 20
30.0
 30
0.0
  0
VERTEX
  8
SCAN
 10
102.875
 20
30.0
 30
0.0
  0
SEQEND
  0
POLYLINE
 62
256
  8
SCAN
 66
1
 10
0.0
 20
0.0
 30
0.0
 70
9
  0
VERTEX
  8
SCAN
 10
103.875
 20
27.5
 30
0.0
  0
VERTEX
  8
SCAN
 10
104.125
 20
27.5
 30
0.0
  0
VERTEX
  8
SCAN
 10
104.125
 20
30.0
 30
0.0
  0
VERTEX
  8
SCAN
 10
103.875
 20
30.0
 30
0.0
  0
SEQEND
  0
TEXT
  8
SCAN
 10
103.875
 20
20.0
 30
0.0
 40
2.0
  1
10
 50
90.0
  0
POLYLINE
 62
256
  8
SCAN
 66
1
 10
0.0
 20
0.0
 30
0.0
 70
9
  0
VERTEX
  8
SCAN
 10
104.875
 20
20.0
 30
0.0
  0
VERTEX
  8
SCAN
 10
105.125
 20
20.0
 30
0.0
  0
VERTEX
  8
SCAN
 10
105.125
 20
30.0
 30
0.0
  0
VERTEX
  8
SCAN
 10
104.875
 20
30.0
 30
0.0
  0
SEQEND
  0
ENDSEC
  0
EOF
