  0
SECTION
  2
HEADER
  9
$ACADVER
  1
AC1009
  9
$INSBASE
 10
0.0
 20
0.0
 30
0.0
  9
$EXTMIN
 10
0.0
 20
0.0
 30
0.0
  9
$EXTMAX
 10
100.0
 20
100.0
 30
0.0
  9
$UNITMODE
 70
0
  9
$AUNITS
 70
0
  9
$ANGBASE
 50
0.0
  9
$ANGDIR
 70
0
  9
$INSUNITS
 70
4
  0
ENDSEC
  0
SECTION
  2
TABLES
  0
TABLE
  2
LTYPE
 70
19
  0
LTYPE
  2
CONTINUOUS
 70
0
  3
Solid
 72
65
 73
0
 40
0.0
  0
LTYPE
  2
CENTER
 70
0
  3
Center ____ _ ____ _ ____ _ ____ _ ____ _ ____
 72
65
 73
4
 40
2.0
 49
1.25
 49
-0.25
 49
0.25
 49
-0.25
  0
LTYPE
  2
CENTERX2
 70
0
  3
Center (2x) ________  __  ________  __  ________
 72
65
 73
4
 40
3.5
 49
2.5
 49
-0.25
 49
0.5
 49
-0.25
  0
LTYPE
  2
CENTER2
 70
0
  3
Center (.5x) ____ _ ____ _ ____ _ ____ _ ____
 72
65
 73
4
 40
1.0
 49
0.625
 49
-0.125
 49
0.125
 49
-0.125
  0
LTYPE
  2
DASHED
 70
0
  3
Dashed __ __ __ __ __ __ __ __ __ __ __ __ __ _
 72
65
 73
2
 40
0.6
 49
0.5
 49
-0.1
  0
LTYPE
  2
DASHEDX2
 70
0
  3
Dashed (2x) ____  ____  ____  ____  ____  ____
 72
65
 73
2
 40
1.2
 49
1.0
 49
-0.2
  0
LTYPE
  2
DASHED2
 70
0
  3
Dashed (.5x) _ _ _ _ _ _ _ _ _ _ _ _ _ _
 72
65
 73
2
 40
0.3
 49
0.25
 49
-0.05
  0
LTYPE
  2
PHANTOM
 70
0
  3
Phantom ______  __  __  ______  __  __  ______
 72
65
 73
6
 40
2.5
 49
1.25
 49
-0.25
 49
0.25
 49
-0.25
 49
0.25
 49
-0.25
  0
LTYPE
  2
PHANTOMX2
 70
0
  3
Phantom (2x)____________    ____    ____    ____________
 72
65
 73
6
 40
4.25
 49
2.5
 49
-0.25
 49
0.5
 49
-0.25
 49
0.5
 49
-0.25
  0
LTYPE
  2
PHANTOM2
 70
0
  3
Phantom (.5x) ___ _ _ ___ _ _ ___ _ _ ___ _ _ ___
 72
65
 73
6
 40
1.25
 49
0.625
 49
-0.125
 49
0.125
 49
-0.125
 49
0.125
 49
-0.125
  0
LTYPE
  2
DASHDOT
 70
0
  3
Dash dot __ . __ . __ . __ . __ . __ . __ . __
 72
65
 73
4
 40
1.4
 49
1.0
 49
-0.2
 49
0.0
 49
-0.2
  0
LTYPE
  2
DASHDOTX2
 70
0
  3
Dash dot (2x) ____  .  ____  .  ____  .  ____
 72
65
 73
4
 40
2.4
 49
2.0
 49
-0.2
 49
0.0
 49
-0.2
  0
LTYPE
  2
DASHDOT2
 70
0
  3
Dash dot (.5x) _ . _ . _ . _ . _ . _ . _ . _
 72
65
 73
4
 40
0.7
 49
0.5
 49
-0.1
 49
0.0
 49
-0.1
  0
LTYPE
  2
DOT
 70
0
  3
Dot .  .  .  .  .  .  .  .  .  .  .  .  .  .  .  .
 72
65
 73
2
 40
0.2
 49
0.0
 49
-0.2
  0
LTYPE
  2
DOTX2
 70
0
  3
Dot (2x) .    .    .    .    .    .    .    . 
 72
65
 73
2
 40
0.4
 49
0.0
 49
-0.4
  0
LTYPE
  2
DOT2
 70
0
  3
Dot (.5) . . . . . . . . . . . . . . . . . . . 
 72
65
 73
2
 40
0.1
 49
0.0
 49
-0.1
  0
LTYPE
  2
DIVIDE
 70
0
  3
Divide __ . . __ . . __ . . __ . . __ . . __
 72
65
 73
6
 40
1.6
 49
1.0
 49
-0.2
 49
0.0
 49
-0.2
 49
0.0
 49
-0.2
  0
LTYPE
  2
DIVIDEX2
 70
0
  3
Divide (2x) ____  . .  ____  . .  ____  . .  ____
 72
65
 73
6
 40
2.6
 49
2.0
 49
-0.2
 49
0.0
 49
-0.2
 49
0.0
 49
-0.2
  0
LTYPE
  2
DIVIDE2
 70
0
  3
Divide(.5x) _ . _ . _ . _ . _ . _ . _ . _
 72
65
 73
6
 40
0.8
 49
0.5
 49
-0.1
 49
0.0
 49
-0.1
 49
0.0
 49
-0.1
  0
ENDTAB
  0
TABLE
  2
LAYER
 70
7
  0
LAYER
  2
DIMENSIONS
 70
0
 62
1
  6
CONTINUOUS
  0
LAYER
  2
TABLEBACKGROUND
 70
0
 62
1
  6
CONTINUOUS
  0
LAYER
  2
TABLECONTENT
 70
0
 62
1
  6
CONTINUOUS
  0
LAYER
  2
TABLEGRID
 70
0
 62
1
  6
CONTINUOUS
  0
LAYER
  2
VIEWPORTS
 70
0
 62
7
  6
CONTINUOUS
  0
LAYER
  2
CUT
 70
0
 62
7
  6
CONTINUOUS
  0
LAYER
  2
SCAN
 70
0
 62
5
  6
CONTINUOUS
  0
ENDTAB
  0
TABLE
  2
STYLE
 70
12
  0
STYLE
  2
STANDARD
 70
0
 40
0.0
 41
1.0
 42
1.0
 50
0.0
 71
0
  3
arial.ttf
  4

  0
STYLE
  2
ARIAL
 70
0
 40
0.0
 41
1.0
 42
1.0
 50
0.0
 71
0
  3
arial.ttf
  4

  0
STYLE
  2
ARIAL_BOLD
 70
0
 40
0.0
 41
1.0
 42
1.0
 50
0.0
 71
0
  3
arialbd.ttf
  4

  0
STYLE
  2
ARIAL_ITALIC
 70
0
 40
0.0
 41
1.0
 42
1.0
 50
0.0
 71
0
  3
ariali.ttf
  4

  0
STYLE
  2
ARIAL_BOLD_ITALIC
 70
0
 40
0.0
 41
1.0
 42
1.0
 50
0.0
 71
0
  3
arialbi.ttf
  4

  0
STYLE
  2
ARIAL_BLACK
 70
0
 40
0.0
 41
1.0
 42
1.0
 50
0.0
 71
0
  3
ariblk.ttf
  4

  0
STYLE
  2
ISOCPEUR
 70
0
 40
0.0
 41
1.0
 42
1.0
 50
0.0
 71
0
  3
isocpeur.ttf
  4

  0
STYLE
  2
ISOCPEUR_ITALIC
 70
0
 40
0.0
 41
1.0
 42
1.0
 50
0.0
 71
0
  3
isocpeui.ttf
  4

  0
STYLE
  2
TIMES
 70
0
 40
0.0
 41
1.0
 42
1.0
 50
0.0
 71
0
  3
times.ttf
  4

  0
STYLE
  2
TIMES_BOLD
 70
0
 40
0.0
 41
1.0
 42
1.0
 50
0.0
 71
0
  3
timesbd.ttf
  4

  0
STYLE
  2
TIMES_ITALIC
 70
0
 40
0.0
 41
1.0
 42
1.0
 50
0.0
 71
0
  3
timesi.ttf
  4

  0
STYLE
  2
TIMES_BOLD_ITALIC
 70
0
 40
0.0
 41
1.0
 42
1.0
 50
0.0
 71
0
  3
timesbi.ttf
  4

  0
ENDTAB
  0
TABLE
  2
VIEW
 70
0
  0
ENDTAB
  0
TABLE
  2
APPID
 70
1
  0
APPID
  2
DXFWRITE
 70
0
  0
ENDTAB
  0
TABLE
  2
VPORT
 70
0
  0
ENDTAB
  0
TABLE
  2
UCS
 70
0
  0
ENDTAB
  0
ENDSEC
  0
SECTION
  2
BLOCKS
  0
ENDSEC
  0
SECTION
  2
ENTITIES
  0
VIEWPORT
  8
VIEWPORTS
 67
1
 10
0.0
 20
0.0
 30
0.0
 40
1.0
 41
1.0
 68
1
 69
1
1001
ACAD
1000
MVIEW
1002
{
1070
16
1010
0.0
1020
0.0
1030
0.0
1010
0.0
1020
0.0
1030
0.0
1040
0.0
1040
1.0
1040
0.0
1040
0.0
1040
50.0
1040
0.0
1040
0.0
1070
0
1070
100
1070
1
1070
3
1070
0
1070
0
1070
0
1070
0
1040
0.0
1040
0.0
1040
0.0
1040
0.1
1040
0.1
1040
0.1
1040
0.1
1070
0
1002
{
1002
}
1002
}
  0
POLYLINE
 62
256
  8
CUT
 66
1
 10
0.0
 20
0.0
 30
0.0
 70
9
  0
VERTEX
  8
CUT
 10
0.0
 20
0.0
 30
0.0
  0
VERTEX
  8
CUT
 10
310.0
 20
0.0
 30
0.0
  0
VERTEX
  8
CUT
 10
310.0
 20
30.0
 30
0.0
  0
VERTEX
  8
CUT
 10
0.0
 20
30.0
 30
0.0
  0
SEQEND
  0
TEXT
  8
SCAN
 10
3.875
 20
20.0
 30
0.0
 40
2.0
  1
0
 50
90.0
  0
POLYLINE
 62
256
  8
SCAN
 66
1
 10
0.0
 20
0.0
 30
0.0
 70
9
  0
VERTEX
  8
SCAN
 10
4.875
 20
20.0
 30
0.0
  0
VERTEX
  8
SCAN
 10
5.125
 20
20.0
 30
0.0
  0
VERTEX
  8
SCAN
 10
5.125
 20
30.0
 30
0.0
  0
VERTEX
  8
SCAN
 10
4.875
 20
30.0
 30
0.0
  0
SEQEND
  0
POLYLINE
 62
256
  8
SCAN
 66
1
 10
0.0
 20
0.0
 30
0.0
 70
9
  0
VERTEX
  8
SCAN
 10
5.875
 20
27.5
 30
0.0
  0
VERTEX
  8
SCAN
 10
6.125
 20
27.5
 30
0.0
  0
VERTEX
  8
SCAN
 10
6.125
 20
30.0
 30
0.0
  0
VERTEX
  8
SCAN
 10
5.875
 20
30.0
 30
0.0
  0
SEQEND
  0
POLYLINE
 62
256
  8
SCAN
 66
1
 10
0.0
 20
0.0
 30
0.0
 70
9
  0
VERTEX
  8
SCAN
 10
6.875
 20
27.5
 30
0.0
  0
VERTEX
  8
SCAN
 10
7.125
 20
27.5
 30
0.0
  0
VERTEX
  8
SCAN
 10
7.125
 20
30.0
 30
0.0
  0
VERTEX
  8
SCAN
 10
6.875
 20
30.0
 30
0.0
  0
SEQEND
  0
POLYLINE
 62
256
  8
SCAN
 66
1
 10
0.0
 20
0.0
 30
0.0
 70
9
  0
VERTEX
  8
SCAN
 10
7.875
 20
27.5
 30
0.0
  0
VERTEX
  8
SCAN
 10
8.125
 20
27.5
 30
0.0
  0
VERTEX
  8
SCAN
 10
8.125
 20
30.0
 30
0.0
  0
VERTEX
  8
SCAN
 10
7.875
 20
30.0
 30
0.0
  0
SEQEND
  0
POLYLINE
 62
256
  8
SCAN
 66
1
 10
0.0
 20
0.0
 30
0.0
 70
9
  0
VERTEX
  8
SCAN
 10
8.875
 20
27.5
 30
0.0
  0
VERTEX
  8
SCAN
 10
9.125
 20
27.5
 30
0.0
  0
VERTEX
  8
SCAN
 10
9.125
 20
30.0
 30
0.0
  0
VERTEX
  8
SCAN
 10
8.875
 20
30.0
 30
0.0
  0
SEQEND
  0
POLYLINE
 62
256
  8
SCAN
 66
1
 10
0.0
 20
0.0
 30
0.0
 70
9
  0
VERTEX
  8
SCAN
 10
9.875
 20
25.0
 30
0.0
  0
VERTEX
  8
SCAN
 10
10.125
 20
25.0
 30
0.0
  0
VERTEX
  8
SCAN
 10
10.125
 20
30.0
 30
0.0
  0
VERTEX
  8
SCAN
 10
9.875
 20
30.0
 30
0.0
  0
SEQEND
  0
POLYLINE
 62
256
  8
SCAN
 66
1
 10
0.0
 20
0.0
 30
0.0
 70
9
  0
VERTEX
  8
SCAN
 10
10.875
 20
27.5
 30
0.0
  0
VERTEX
  8
SCAN
 10
11.125
 20
27.5
 30
0.0
  0
VERTEX
  8
SCAN
 10
11.125
 20
30.0
 30
0.0
  0
VERTEX
  8
SCAN
 10
10.875
 20
30.0
 30
0.0
  0
SEQEND
  0
POLYLINE
 62
256
  8
SCAN
 66
1
 10
0.0
 20
0.0
 30
0.0
 70
9
  0
VERTEX
  8
SCAN
 10
11.875
 20
27.5
 30
0.0
  0
VERTEX
  8
SCAN
 10
12.125
 20
27.5
 30
0.0
  0
VERTEX
  8
SCAN
 10
12.125
 20
30.0
 30
0.0
  0
VERTEX
  8
SCAN
 10
11.875
 20
30.0
 30
0.0
  0
SEQEND
  0
POLYLINE
 62
256
  8
SCAN
 66
1
 10
0.0
 20
0.0
 30
0.0
 70
9
  0
VERTEX
  8
SCAN
 10
12.875
 20
27.5
 30
0.0
  0
VERTEX
  8
SCAN
 10
13.125
 20
27.5
 30
0.0
  0
VERTEX
  8
SCAN
 10
13.125
 20
30.0
 30
0.0
  0
VERTEX
  8
SCAN
 10
12.875
 20
30.0
 30
0.0
  0
SEQEND
  0
POLYLINE
 62
256
  8
SCAN
 66
1
 10
0.0
 20
0.0
 30
0.0
 70
9
  0
VERTEX
  8
SCAN
 10
13.875
 20
27.5
 30
0.0
  0
VERTEX
  8
SCAN
 10
14.125
 20
27.5
 30
0.0
  0
VERTEX
  8
SCAN
 10
14.125
 20
30.0
 30
0.0
  0
VERTEX
  8
SCAN
 10
13.875
 20
30.0
 30
0.0
  0
SEQEND
  0
TEXT
  8
SCAN
 10
13.875
 20
20.0
 30
0.0
 40
2.0
  1
1
 50
90.0
  0
POLYLINE
 62
256
  8
SCAN
 66
1
 10
0.0
 20
0.0
 30
0.0
 70
9
  0
VERTEX
  8
SCAN
 10
14.875
 20
20.0
 30
0.0
  0
VERTEX
  8
SCAN
 10
15.125
 20
20.0
 30
0.0
  0
VERTEX
  8
SCAN
 10
15.125
 20
30.0
 30
0.0
  0
VERTEX
  8
SCAN
 10
14.875
 20
30.0
 30
0.0
  0
SEQEND
  0
POLYLINE
 62
256
  8
SCAN
 66
1
 10
0.0
 20
0.0
 30
0.0
 70
9
  0
VERTEX
  8
SCAN
 10
15.875
 20
27.5
 30
0.0
  0
VERTEX
  8
SCAN
 10
16.125
 20
27.5
 30
0.0
  0
VERTEX
  8
SCAN
 10
16.125
 20
30.0
 30
0.0
  0
VERTEX
  8
SCAN
 10
15.875
 20
30.0
 30
0.0
  0
SEQEND
  0
POLYLINE
 62
256
  8
SCAN
 66
1
 10
0.0
 20
0.0
 30
0.0
 70
9
  0
VERTEX
  8
SCAN
 10
16.875
 20
27.5
 30
0.0
  0
VERTEX
  8
SCAN
 10
17.125
 20
27.5
 30
0.0
  0
VERTEX
  8
SCAN
 10
17.125
 20
30.0
 30
0.0
  0
VERTEX
  8
SCAN
 10
16.875
 20
30.0
 30
0.0
  0
SEQEND
  0
POLYLINE
 62
256
  8
SCAN
 66
1
 10
0.0
 20
0.0
 30
0.0
 70
9
  0
VERTEX
  8
SCAN
 10
17.875
 20
27.5
 30
0.0
  0
VERTEX
  8
SCAN
 10
18.125
 20
27.5
 30
0.0
  0
VERTEX
  8
SCAN
 10
18.125
 20
30.0
 30
0.0
  0
VERTEX
  8
SCAN
 10
17.875
 20
30.0
 30
0.0
  0
SEQEND
  0
POLYLINE
 62
256
  8
SCAN
 66
1
 10
0.0
 20
0.0
 30
0.0
 70
9
  0
VERTEX
  8
SCAN
 10
18.875
 20
27.5
 30
0.0
  0
VERTEX
  8
SCAN
 10
19.125
 20
27.5
 30
0.0
  0
VERTEX
  8
SCAN
 10
19.125
 20
30.0
 30
0.0
  0
VERTEX
  8
SCAN
 10
18.875
 20
30.0
 30
0.0
  0
SEQEND
  0
POLYLINE
 62
256
  8
SCAN
 66
1
 10
0.0
 20
0.0
 30
0.0
 70
9
  0
VERTEX
  8
SCAN
 10
19.875
 20
25.0
 30
0.0
  0
VERTEX
  8
SCAN
 10
20.125
 20
25.0
 30
0.0
  0
VERTEX
  8
SCAN
 10
20.125
 20
30.0
 30
0.0
  0
VERTEX
  8
SCAN
 10
19.875
 20
30.0
 30
0.0
  0
SEQEND
  0
POLYLINE
 62
256
  8
SCAN
 66
1
 10
0.0
 20
0.0
 30
0.0
 70
9
  0
VERTEX
  8
SCAN
 10
20.875
 20
27.5
 30
0.0
  0
VERTEX
  8
SCAN
 10
21.125
 20
27.5
 30
0.0
  0
VERTEX
  8
SCAN
 10
21.125
 20
30.0
 30
0.0
  0
VERTEX
  8
SCAN
 10
20.875
 20
30.0
 30
0.0
  0
SEQEND
  0
POLYLINE
 62
256
  8
SCAN
 66
1
 10
0.0
 20
0.0
 30
0.0
 70
9
  0
VERTEX
  8
SCAN
 10
21.875
 20
27.5
 30
0.0
  0
VERTEX
  8
SCAN
 10
22.125
 20
27.5
 30
0.0
  0
VERTEX
  8
SCAN
 10
22.125
 20
30.0
 30
0.0
  0
VERTEX
  8
SCAN
 10
21.875
 20
30.0
 30
0.0
  0
SEQEND
  0
POLYLINE
 62
256
  8
SCAN
 66
1
 10
0.0
 20
0.0
 30
0.0
 70
9
  0
VERTEX
  8
SCAN
 10
22.875
 20
27.5
 30
0.0
  0
VERTEX
  8
SCAN
 10
23.125
 20
27.5
 30
0.0
  0
VERTEX
  8
SCAN
 10
23.125
 20
30.0
 30
0.0
  0
VERTEX
  8
SCAN
 10
22.875
 20
30.0
 30
0.0
  0
SEQEND
  0
POLYLINE
 62
256
  8
SCAN
 66
1
 10
0.0
 20
0.0
 30
0.0
 70
9
  0
VERTEX
  8
SCAN
 10
23.875
 20
27.5
 30
0.0
  0
VERTEX
  8
SCAN
 10
24.125
 20
27.5
 30
0.0
  0
VERTEX
  8
SCAN
 10
24.125
 20
30.0
 30
0.0
  0
VERTEX
  8
SCAN
 10
23.875
 20
30.0
 30
0.0
  0
SEQEND
  0
TEXT
  8
SCAN
 10
23.875
 20
20.0
 30
0.0
 40
2.0
  1
2
 50
90.0
  0
POLYLINE
 62
256
  8
SCAN
 66
1
 10
0.0
 20
0.0
 30
0.0
 70
9
  0
VERTEX
  8
SCAN
 10
24.875
 20
20.0
 30
0.0
  0
VERTEX
  8
SCAN
 10
25.125
 20
20.0
 30
0.0
  0
VERTEX
  8
SCAN
 10
25.125
 20
30.0
 30
0.0
  0
VERTEX
  8
SCAN
 10
24.875
 20
30.0
 30
0.0
  0
SEQEND
  0
POLYLINE
 62
256
  8
SCAN
 66
1
 10
0.0
 20
0.0
 30
0.0
 70
9
  0
VERTEX
  8
SCAN
 10
25.875
 20
27.5
 30
0.0
  0
VERTEX
  8
SCAN
 10
26.125
 20
27.5
 30
0.0
  0
VERTEX
  8
SCAN
 10
26.125
 20
30.0
 30
0.0
  0
VERTEX
  8
SCAN
 10
25.875
 20
30.0
 30
0.0
  0
SEQEND
  0
POLYLINE
 62
256
  8
SCAN
 66
1
 10
0.0
 20
0.0
 30
0.0
 70
9
  0
VERTEX
  8
SCAN
 10
26.875
 20
27.5
 30
0.0
  0
VERTEX
  8
SCAN
 10
27.125
 20
27.5
 30
0.0
  0
VERTEX
  8
SCAN
 10
27.125
 20
30.0
 30
0.0
  0
VERTEX
  8
SCAN
 10
26.875
 20
30.0
 30
0.0
  0
SEQEND
  0
POLYLINE
 62
256
  8
SCAN
 66
1
 10
0.0
 20
0.0
 30
0.0
 70
9
  0
VERTEX
  8
SCAN
 10
27.875
 20
27.5
 30
0.0
  0
VERTEX
  8
SCAN
 10
28.125
 20
27.5
 30
0.0
  0
VERTEX
  8
SCAN
 10
28.125
 20
30.0
 30
0.0
  0
VERTEX
  8
SCAN
 10
27.875
 20
30.0
 30
0.0
  0
SEQEND
  0
POLYLINE
 62
256
  8
SCAN
 66
1
 10
0.0
 20
0.0
 30
0.0
 70
9
  0
VERTEX
  8
SCAN
 10
28.875
 20
27.5
 30
0.0
  0
VERTEX
  8
SCAN
 10
29.125
 20
27.5
 30
0.0
  0
VERTEX
  8
SCAN
 10
29.125
 20
30.0
 30
0.0
  0
VERTEX
  8
SCAN
 10
28.875
 20
30.0
 30
0.0
  0
SEQEND
  0
POLYLINE
 62
256
  8
SCAN
 66
1
 10
0.0
 20
0.0
 30
0.0
 70
9
  0
VERTEX
  8
SCAN
 10
29.875
 20
25.0
 30
0.0
  0
VERTEX
  8
SCAN
 10
30.125
 20
25.0
 30
0.0
  0
VERTEX
  8
SCAN
 10
30.125
 20
30.0
 30
0.0
  0
VERTEX
  8
SCAN
 10
29.875
 20
30.0
 30
0.0
  0
SEQEND
  0
POLYLINE
 62
256
  8
SCAN
 66
1
 10
0.0
 20
0.0
 30
0.0
 70
9
  0
VERTEX
  8
SCAN
 10
30.875
 20
27.5
 30
0.0
  0
VERTEX
  8
SCAN
 10
31.125
 20
27.5
 30
0.0
  0
VERTEX
  8
SCAN
 10
31.125
 20
30.0
 30
0.0
  0
VERTEX
  8
SCAN
 10
30.875
 20
30.0
 30
0.0
  0
SEQEND
  0
POLYLINE
 62
256
  8
SCAN
 66
1
 10
0.0
 20
0.0
 30
0.0
 70
9
  0
VERTEX
  8
SCAN
 10
31.875
 20
27.5
 30
0.0
  0
VERTEX
  8
SCAN
 10
32.125
 20
27.5
 30
0.0
  0
VERTEX
  8
SCAN
 10
32.125
 20
30.0
 30
0.0
  0
VERTEX
  8
SCAN
 10
31.875
 20
30.0
 30
0.0
  0
SEQEND
  0
POLYLINE
 62
256
  8
SCAN
 66
1
 10
0.0
 20
0.0
 30
0.0
 70
9
  0
VERTEX
  8
SCAN
 10
32.875
 20
27.5
 30
0.0
  0
VERTEX
  8
SCAN
 10
33.125
 20
27.5
 30
0.0
  0
VERTEX
  8
SCAN
 10
33.125
 20
30.0
 30
0.0
  0
VERTEX
  8
SCAN
 10
32.875
 20
30.0
 30
0.0
  0
SEQEND
  0
POLYLINE
 62
256
  8
SCAN
 66
1
 10
0.0
 20
0.0
 30
0.0
 70
9
  0
VERTEX
  8
SCAN
 10
33.875
 20
27.5
 30
0.0
  0
VERTEX
  8
SCAN
 10
34.125
 20
27.5
 30
0.0
  0
VERTEX
  8
SCAN
 10
34.125
 20
30.0
 30
0.0
  0
VERTEX
  8
SCAN
 10
33.875
 20
30.0
 30
0.0
  0
SEQEND
  0
TEXT
  8
SCAN
 10
33.875
 20
20.0
 30
0.0
 40
2.0
  1
3
 50
90.0
  0
POLYLINE
 62
256
  8
SCAN
 66
1
 10
0.0
 20
0.0
 30
0.0
 70
9
  0
VERTEX
  8
SCAN
 10
34.875
 20
20.0
 30
0.0
  0
VERTEX
  8
SCAN
 10
35.125
 20
20.0
 30
0.0
  0
VERTEX
  8
SCAN
 10
35.125
 20
30.0
 30
0.0
  0
VERTEX
  8
SCAN
 10
34.875
 20
30.0
 30
0.0
  0
SEQEND
  0
POLYLINE
 62
256
  8
SCAN
 66
1
 10
0.0
 20
0.0
 30
0.0
 70
9
  0
VERTEX
  8
SCAN
 10
35.875
 20
27.5
 30
0.0
  0
VERTEX
  8
SCAN
 10
36.125
 20
27.5
 30
0.0
  0
VERTEX
  8
SCAN
 10
36.125
 20
30.0
 30
0.0
  0
VERTEX
  8
SCAN
 10
35.875
 20
30.0
 30
0.0
  0
SEQEND
  0
POLYLINE
 62
256
  8
SCAN
 66
1
 10
0.0
 20
0.0
 30
0.0
 70
9
  0
VERTEX
  8
SCAN
 10
36.875
 20
27.5
 30
0.0
  0
VERTEX
  8
SCAN
 10
37.125
 20
27.5
 30
0.0
  0
VERTEX
  8
SCAN
 10
37.125
 20
30.0
 30
0.0
  0
VERTEX
  8
SCAN
 10
36.875
 20
30.0
 30
0.0
  0
SEQEND
  0
POLYLINE
 62
256
  8
SCAN
 66
1
 10
0.0
 20
0.0
 30
0.0
 70
9
  0
VERTEX
  8
SCAN
 10
37.875
 20
27.5
 30
0.0
  0
VERTEX
  8
SCAN
 10
38.125
 20
27.5
 30
0.0
  0
VERTEX
  8
SCAN
 10
38.125
 20
30.0
 30
0.0
  0
VERTEX
  8
SCAN
 10
37.875
 20
30.0
 30
0.0
  0
SEQEND
  0
POLYLINE
 62
256
  8
SCAN
 66
1
 10
0.0
 20
0.0
 30
0.0
 70
9
  0
VERTEX
  8
SCAN
 10
38.875
 20
27.5
 30
0.0
  0
VERTEX
  8
SCAN
 10
39.125
 20
27.5
 30
0.0
  0
VERTEX
  8
SCAN
 10
39.125
 20
30.0
 30
0.0
  0
VERTEX
  8
SCAN
 10
38.875
 20
30.0
 30
0.0
  0
SEQEND
  0
POLYLINE
 62
256
  8
SCAN
 66
1
 10
0.0
 20
0.0
 30
0.0
 70
9
  0
VERTEX
  8
SCAN
 10
39.875
 20
25.0
 30
0.0
  0
VERTEX
  8
SCAN
 10
40.125
 20
25.0
 30
0.0
  0
VERTEX
  8
SCAN
 10
40.125
 20
30.0
 30
0.0
  0
VERTEX
  8
SCAN
 10
39.875
 20
30.0
 30
0.0
  0
SEQEND
  0
POLYLINE
 62
256
  8
SCAN
 66
1
 10
0.0
 20
0.0
 30
0.0
 70
9
  0
VERTEX
  8
SCAN
 10
40.875
 20
27.5
 30
0.0
  0
VERTEX
  8
SCAN
 10
41.125
 20
27.5
 30
0.0
  0
VERTEX
  8
SCAN
 10
41.125
 20
30.0
 30
0.0
  0
VERTEX
  8
SCAN
 10
40.875
 20
30.0
 30
0.0
  0
SEQEND
  0
POLYLINE
 62
256
  8
SCAN
 66
1
 10
0.0
 20
0.0
 30
0.0
 70
9
  0
VERTEX
  8
SCAN
 10
41.875
 20
27.5
 30
0.0
  0
VERTEX
  8
SCAN
 10
42.125
 20
27.5
 30
0.0
  0
VERTEX
  8
SCAN
 10
42.125
 20
30.0
 30
0.0
  0
VERTEX
  8
SCAN
 10
41.875
 20
30.0
 30
0.0
  0
SEQEND
  0
POLYLINE
 62
256
  8
SCAN
 66
1
 10
0.0
 20
0.0
 30
0.0
 70
9
  0
VERTEX
  8
SCAN
 10
42.875
 20
27.5
 30
0.0
  0
VERTEX
  8
SCAN
 10
43.125
 20
27.5
 30
0.0
  0
VERTEX
  8
SCAN
 10
43.125
 20
30.0
 30
0.0
  0
VERTEX
  8
SCAN
 10
42.875
 20
30.0
 30
0.0
  0
SEQEND
  0
POLYLINE
 62
256
  8
SCAN
 66
1
 10
0.0
 20
0.0
 30
0.0
 70
9
  0
VERTEX
  8
SCAN
 10
43.875
 20
27.5
 30
0.0
  0
VERTEX
  8
SCAN
 10
44.125
 20
27.5
 30
0.0
  0
VERTEX
  8
SCAN
 10
44.125
 20
30.0
 30
0.0
  0
VERTEX
  8
SCAN
 10
43.875
 20
30.0
 30
0.0
  0
SEQEND
  0
TEXT
  8
SCAN
 10
43.875
 20
20.0
 30
0.0
 40
2.0
  1
4
 50
90.0
  0
POLYLINE
 62
256
  8
SCAN
 66
1
 10
0.0
 20
0.0
 30
0.0
 70
9
  0
VERTEX
  8
SCAN
 10
44.875
 20
20.0
 30
0.0
  0
VERTEX
  8
SCAN
 10
45.125
 20
20.0
 30
0.0
  0
VERTEX
  8
SCAN
 10
45.125
 20
30.0
 30
0.0
  0
VERTEX
  8
SCAN
 10
44.875
 20
30.0
 30
0.0
  0
SEQEND
  0
POLYLINE
 62
256
  8
SCAN
 66
1
 10
0.0
 20
0.0
 30
0.0
 70
9
  0
VERTEX
  8
SCAN
 10
45.875
 20
27.5
 30
0.0
  0
VERTEX
  8
SCAN
 10
46.125
 20
27.5
 30
0.0
  0
VERTEX
  8
SCAN
 10
46.125
 20
30.0
 30
0.0
  0
VERTEX
  8
SCAN
 10
45.875
 20
30.0
 30
0.0
  0
SEQEND
  0
POLYLINE
 62
256
  8
SCAN
 66
1
 10
0.0
 20
0.0
 30
0.0
 70
9
  0
VERTEX
  8
SCAN
 10
46.875
 20
27.5
 30
0.0
  0
VERTEX
  8
SCAN
 10
47.125
 20
27.5
 30
0.0
  0
VERTEX
  8
SCAN
 10
47.125
 20
30.0
 30
0.0
  0
VERTEX
  8
SCAN
 10
46.875
 20
30.0
 30
0.0
  0
SEQEND
  0
POLYLINE
 62
256
  8
SCAN
 66
1
 10
0.0
 20
0.0
 30
0.0
 70
9
  0
VERTEX
  8
SCAN
 10
47.875
 20
27.5
 30
0.0
  0
VERTEX
  8
SCAN
 10
48.125
 20
27.5
 30
0.0
  0
VERTEX
  8
SCAN
 10
48.125
 20
30.0
 30
0.0
  0
VERTEX
  8
SCAN
 10
47.875
 20
30.0
 30
0.0
  0
SEQEND
  0
POLYLINE
 62
256
  8
SCAN
 66
1
 10
0.0
 20
0.0
 30
0.0
 70
9
  0
VERTEX
  8
SCAN
 10
48.875
 20
27.5
 30
0.0
  0
VERTEX
  8
SCAN
 10
49.125
 20
27.5
 30
0.0
  0
VERTEX
  8
SCAN
 10
49.125
 20
30.0
 30
0.0
  0
VERTEX
  8
SCAN
 10
48.875
 20
30.0
 30
0.0
  0
SEQEND
  0
POLYLINE
 62
256
  8
SCAN
 66
1
 10
0.0
 20
0.0
 30
0.0
 70
9
  0
VERTEX
  8
SCAN
 10
49.875
 20
25.0
 30
0.0
  0
VERTEX
  8
SCAN
 10
50.125
 20
25.0
 30
0.0
  0
VERTEX
  8
SCAN
 10
50.125
 20
30.0
 30
0.0
  0
VERTEX
  8
SCAN
 10
49.875
 20
30.0
 30
0.0
  0
SEQEND
  0
POLYLINE
 62
256
  8
SCAN
 66
1
 10
0.0
 20
0.0
 30
0.0
 70
9
  0
VERTEX
  8
SCAN
 10
50.875
 20
27.5
 30
0.0
  0
VERTEX
  8
SCAN
 10
51.125
 20
27.5
 30
0.0
  0
VERTEX
  8
SCAN
 10
51.125
 20
30.0
 30
0.0
  0
VERTEX
  8
SCAN
 10
50.875
 20
30.0
 30
0.0
  0
SEQEND
  0
POLYLINE
 62
256
  8
SCAN
 66
1
 10
0.0
 20
0.0
 30
0.0
 70
9
  0
VERTEX
  8
SCAN
 10
51.875
 20
27.5
 30
0.0
  0
VERTEX
  8
SCAN
 10
52.125
 20
27.5
 30
0.0
  0
VERTEX
  8
SCAN
 10
52.125
 20
30.0
 30
0.0
  0
VERTEX
  8
SCAN
 10
51.875
 20
30.0
 30
0.0
  0
SEQEND
  0
POLYLINE
 62
256
  8
SCAN
 66
1
 10
0.0
 20
0.0
 30
0.0
 70
9
  0
VERTEX
  8
SCAN
 10
52.875
 20
27.5
 30
0.0
  0
VERTEX
  8
SCAN
 10
53.125
 20
27.5
 30
0.0
  0
VERTEX
  8
SCAN
 10
53.125
 20
30.0
 30
0.0
  0
VERTEX
  8
SCAN
 10
52.875
 20
30.0
 30
0.0
  0
SEQEND
  0
POLYLINE
 62
256
  8
SCAN
 66
1
 10
0.0
 20
0.0
 30
0.0
 70
9
  0
VERTEX
  8
SCAN
 10
53.875
 20
27.5
 30
0.0
  0
VERTEX
  8
SCAN
 10
54.125
 20
27.5
 30
0.0
  0
VERTEX
  8
SCAN
 10
54.125
 20
30.0
 30
0.0
  0
VERTEX
  8
SCAN
 10
53.875
 20
30.0
 30
0.0
  0
SEQEND
  0
TEXT
  8
SCAN
 10
53.875
 20
20.0
 30
0.0
 40
2.0
  1
5
 50
90.0
  0
POLYLINE
 62
256
  8
SCAN
 66
1
 10
0.0
 20
0.0
 30
0.0
 70
9
  0
VERTEX
  8
SCAN
 10
54.875
 20
20.0
 30
0.0
  0
VERTEX
  8
SCAN
 10
55.125
 20
20.0
 30
0.0
  0
VERTEX
  8
SCAN
 10
55.125
 20
30.0
 30
0.0
  0
VERTEX
  8
SCAN
 10
54.875
 20
30.0
 30
0.0
  0
SEQEND
  0
POLYLINE
 62
256
  8
SCAN
 66
1
 10
0.0
 20
0.0
 30
0.0
 70
9
  0
VERTEX
  8
SCAN
 10
55.875
 20
27.5
 30
0.0
  0
VERTEX
  8
SCAN
 10
56.125
 20
27.5
 30
0.0
  0
VERTEX
  8
SCAN
 10
56.125
 20
30.0
 30
0.0
  0
VERTEX
  8
SCAN
 10
55.875
 20
30.0
 30
0.0
  0
SEQEND
  0
POLYLINE
 62
256
  8
SCAN
 66
1
 10
0.0
 20
0.0
 30
0.0
 70
9
  0
VERTEX
  8
SCAN
 10
56.875
 20
27.5
 30
0.0
  0
VERTEX
  8
SCAN
 10
57.125
 20
27.5
 30
0.0
  0
VERTEX
  8
SCAN
 10
57.125
 20
30.0
 30
0.0
  0
VERTEX
  8
SCAN
 10
56.875
 20
30.0
 30
0.0
  0
SEQEND
  0
POLYLINE
 62
256
  8
SCAN
 66
1
 10
0.0
 20
0.0
 30
0.0
 70
9
  0
VERTEX
  8
SCAN
 10
57.875
 20
27.5
 30
0.0
  0
VERTEX
  8
SCAN
 10
58.125
 20
27.5
 30
0.0
  0
VERTEX
  8
SCAN
 10
58.125
 20
30.0
 30
0.0
  0
VERTEX
  8
SCAN
 10
57.875
 20
30.0
 30
0.0
  0
SEQEND
  0
POLYLINE
 62
256
  8
SCAN
 66
1
 10
0.0
 20
0.0
 30
0.0
 70
9
  0
VERTEX
  8
SCAN
 10
58.875
 20
27.5
 30
0.0
  0
VERTEX
  8
SCAN
 10
59.125
 20
27.5
 30
0.0
  0
VERTEX
  8
SCAN
 10
59.125
 20
30.0
 30
0.0
  0
VERTEX
  8
SCAN
 10
58.875
 20
30.0
 30
0.0
  0
SEQEND
  0
POLYLINE
 62
256
  8
SCAN
 66
1
 10
0.0
 20
0.0
 30
0.0
 70
9
  0
VERTEX
  8
SCAN
 10
59.875
 20
25.0
 30
0.0
  0
VERTEX
  8
SCAN
 10
60.125
 20
25.0
 30
0.0
  0
VERTEX
  8
SCAN
 10
60.125
 20
30.0
 30
0.0
  0
VERTEX
  8
SCAN
 10
59.875
 20
30.0
 30
0.0
  0
SEQEND
  0
POLYLINE
 62
256
  8
SCAN
 66
1
 10
0.0
 20
0.0
 30
0.0
 70
9
  0
VERTEX
  8
SCAN
 10
60.875
 20
27.5
 30
0.0
  0
VERTEX
  8
SCAN
 10
61.125
 20
27.5
 30
0.0
  0
VERTEX
  8
SCAN
 10
61.125
 20
30.0
 30
0.0
  0
VERTEX
  8
SCAN
 10
60.875
 20
30.0
 30
0.0
  0
SEQEND
  0
POLYLINE
 62
256
  8
SCAN
 66
1
 10
0.0
 20
0.0
 30
0.0
 70
9
  0
VERTEX
  8
SCAN
 10
61.875
 20
27.5
 30
0.0
  0
VERTEX
  8
SCAN
 10
62.125
 20
27.5
 30
0.0
  0
VERTEX
  8
SCAN
 10
62.125
 20
30.0
 30
0.0
  0
VERTEX
  8
SCAN
 10
61.875
 20
30.0
 30
0.0
  0
SEQEND
  0
POLYLINE
 62
256
  8
SCAN
 66
1
 10
0.0
 20
0.0
 30
0.0
 70
9
  0
VERTEX
  8
SCAN
 10
62.875
 20
27.5
 30
0.0
  0
VERTEX
  8
SCAN
 10
63.125
 20
27.5
 30
0.0
  0
VERTEX
  8
SCAN
 10
63.125
 20
30.0
 30
0.0
  0
VERTEX
  8
SCAN
 10
62.875
 20
30.0
 30
0.0
  0
SEQEND
  0
POLYLINE
 62
256
  8
SCAN
 66
1
 10
0.0
 20
0.0
 30
0.0
 70
9
  0
VERTEX
  8
SCAN
 10
63.875
 20
27.5
 30
0.0
  0
VERTEX
  8
SCAN
 10
64.125
 20
27.5
 30
0.0
  0
VERTEX
  8
SCAN
 10
64.125
 20
30.0
 30
0.0
  0
VERTEX
  8
SCAN
 10
63.875
 20
30.0
 30
0.0
  0
SEQEND
  0
TEXT
  8
SCAN
 10
63.875
 20
20.0
 30
0.0
 40
2.0
  1
6
 50
90.0
  0
POLYLINE
 62
256
  8
SCAN
 66
1
 10
0.0
 20
0.0
 30
0.0
 70
9
  0
VERTEX
  8
SCAN
 10
64.875
 20
20.0
 30
0.0
  0
VERTEX
  8
SCAN
 10
65.125
 20
20.0
 30
0.0
  0
VERTEX
  8
SCAN
 10
65.125
 20
30.0
 30
0.0
  0
VERTEX
  8
SCAN
 10
64.875
 20
30.0
 30
0.0
  0
SEQEND
  0
POLYLINE
 62
256
  8
SCAN
 66
1
 10
0.0
 20
0.0
 30
0.0
 70
9
  0
VERTEX
  8
SCAN
 10
65.875
 20
27.5
 30
0.0
  0
VERTEX
  8
SCAN
 10
66.125
 20
27.5
 30
0.0
  0
VERTEX
  8
SCAN
 10
66.125
 20
30.0
 30
0.0
  0
VERTEX
  8
SCAN
 10
65.875
 20
30.0
 30
0.0
  0
SEQEND
  0
POLYLINE
 62
256
  8
SCAN
 66
1
 10
0.0
 20
0.0
 30
0.0
 70
9
  0
VERTEX
  8
SCAN
 10
66.875
 20
27.5
 30
0.0
  0
VERTEX
  8
SCAN
 10
67.125
 20
27.5
 30
0.0
  0
VERTEX
  8
SCAN
 10
67.125
 20
30.0
 30
0.0
  0
VERTEX
  8
SCAN
 10
66.875
 20
30.0
 30
0.0
  0
SEQEND
  0
POLYLINE
 62
256
  8
SCAN
 66
1
 10
0.0
 20
0.0
 30
0.0
 70
9
  0
VERTEX
  8
SCAN
 10
67.875
 20
27.5
 30
0.0
  0
VERTEX
  8
SCAN
 10
68.125
 20
27.5
 30
0.0
  0
VERTEX
  8
SCAN
 10
68.125
 20
30.0
 30
0.0
  0
VERTEX
  8
SCAN
 10
67.875
 20
30.0
 30
0.0
  0
SEQEND
  0
POLYLINE
 62
256
  8
SCAN
 66
1
 10
0.0
 20
0.0
 30
0.0
 70
9
  0
VERTEX
  8
SCAN
 10
68.875
 20
27.5
 30
0.0
  0
VERTEX
  8
SCAN
 10
69.125
 20
27.5
 30
0.0
  0
VERTEX
  8
SCAN
 10
69.125
 20
30.0
 30
0.0
  0
VERTEX
  8
SCAN
 10
68.875
 20
30.0
 30
0.0
  0
SEQEND
  0
POLYLINE
 62
256
  8
SCAN
 66
1
 10
0.0
 20
0.0
 30
0.0
 70
9
  0
VERTEX
  8
SCAN
 10
69.875
 20
25.0
 30
0.0
  0
VERTEX
  8
SCAN
 10
70.125
 20
25.0
 30
0.0
  0
VERTEX
  8
SCAN
 10
70.125
 20
30.0
 30
0.0
  0
VERTEX
  8
SCAN
 10
69.875
 20
30.0
 30
0.0
  0
SEQEND
  0
POLYLINE
 62
256
  8
SCAN
 66
1
 10
0.0
 20
0.0
 30
0.0
 70
9
  0
VERTEX
  8
SCAN
 10
70.875
 20
27.5
 30
0.0
  0
VERTEX
  8
SCAN
 10
71.125
 20
27.5
 30
0.0
  0
VERTEX
  8
SCAN
 10
71.125
 20
30.0
 30
0.0
  0
VERTEX
  8
SCAN
 10
70.875
 20
30.0
 30
0.0
  0
SEQEND
  0
POLYLINE
 62
256
  8
SCAN
 66
1
 10
0.0
 20
0.0
 30
0.0
 70
9
  0
VERTEX
  8
SCAN
 10
71.875
 20
27.5
 30
0.0
  0
VERTEX
  8
SCAN
 10
72.125
 20
27.5
 30
0.0
  0
VERTEX
  8
SCAN
 10
72.125
 20
30.0
 30
0.0
  0
VERTEX
  8
SCAN
 10
71.875
 20
30.0
 30
0.0
  0
SEQEND
  0
POLYLINE
 62
256
  8
SCAN
 66
1
 10
0.0
 20
0.0
 30
0.0
 70
9
  0
VERTEX
  8
SCAN
 10
72.875
 20
27.5
 30
0.0
  0
VERTEX
  8
SCAN
 10
73.125
 20
27.5
 30
0.0
  0
VERTEX
  8
SCAN
 10
73.125
 20
30.0
 30
0.0
  0
VERTEX
  8
SCAN
 10
72.875
 20
30.0
 30
0.0
  0
SEQEND
  0
POLYLINE
 62
256
  8
SCAN
 66
1
 10
0.0
 20
0.0
 30
0.0
 70
9
  0
VERTEX
  8
SCAN
 10
73.875
 20
27.5
 30
0.0
  0
VERTEX
  8
SCAN
 10
74.125
 20
27.5
 30
0.0
  0
VERTEX
  8
SCAN
 10
74.125
 20
30.0
 30
0.0
  0
VERTEX
  8
SCAN
 10
73.875
 20
30.0
 30
0.0
  0
SEQEND
  0
TEXT
  8
SCAN
 10
73.875
 20
20.0
 30
0.0
 40
2.0
  1
7
 50
90.0
  0
POLYLINE
 62
256
  8
SCAN
 66
1
 10
0.0
 20
0.0
 30
0.0
 70
9
  0
VERTEX
  8
SCAN
 10
74.875
 20
20.0
 30
0.0
  0
VERTEX
  8
SCAN
 10
75.125
 20
20.0
 30
0.0
  0
VERTEX
  8
SCAN
 10
75.125
 20
30.0
 30
0.0
  0
VERTEX
  8
SCAN
 10
74.875
 20
30.0
 30
0.0
  0
SEQEND
  0
POLYLINE
 62
256
  8
SCAN
 66
1
 10
0.0
 20
0.0
 30
0.0
 70
9
  0
VERTEX
  8
SCAN
 10
75.875
 20
27.5
 30
0.0
  0
VERTEX
  8
SCAN
 10
76.125
 20
27.5
 30
0.0
  0
VERTEX
  8
SCAN
 10
76.125
 20
30.0
 30
0.0
  0
VERTEX
  8
SCAN
 10
75.875
 20
30.0
 30
0.0
  0
SEQEND
  0
POLYLINE
 62
256
  8
SCAN
 66
1
 10
0.0
 20
0.0
 30
0.0
 70
9
  0
VERTEX
  8
SCAN
 10
76.875
 20
27.5
 30
0.0
  0
VERTEX
  8
SCAN
 10
77.125
 20
27.5
 30
0.0
  0
VERTEX
  8
SCAN
 10
77.125
 20
30.0
 30
0.0
  0
VERTEX
  8
SCAN
 10
76.875
 20
30.0
 30
0.0
  0
SEQEND
  0
POLYLINE
 62
256
  8
SCAN
 66
1
 10
0.0
 20
0.0
 30
0.0
 70
9
  0
VERTEX
  8
SCAN
 10
77.875
 20
27.5
 30
0.0
  0
VERTEX
  8
SCAN
 10
78.125
 20
27.5
 30
0.0
  0
VERTEX
  8
SCAN
 10
78.125
 20
30.0
 30
0.0
  0
VERTEX
  8
SCAN
 10
77.875
 20
30.0
 30
0.0
  0
SEQEND
  0
POLYLINE
 62
256
  8
SCAN
 66
1
 10
0.0
 20
0.0
 30
0.0
 70
9
  0
VERTEX
  8
SCAN
 10
78.875
 20
27.5
 30
0.0
  0
VERTEX
  8
SCAN
 10
79.125
 20
27.5
 30
0.0
  0
VERTEX
  8
SCAN
 10
79.125
 20
30.0
 30
0.0
  0
VERTEX
  8
SCAN
 10
78.875
 20
30.0
 30
0.0
  0
SEQEND
  0
POLYLINE
 62
256
  8
SCAN
 66
1
 10
0.0
 20
0.0
 30
0.0
 70
9
  0
VERTEX
  8
SCAN
 10
79.875
 20
25.0
 30
0.0
  0
VERTEX
  8
SCAN
 10
80.125
 20
25.0
 30
0.0
  0
VERTEX
  8
SCAN
 10
80.125
 20
30.0
 30
0.0
  0
VERTEX
  8
SCAN
 10
79.875
 20
30.0
 30
0.0
  0
SEQEND
  0
POLYLINE
 62
256
  8
SCAN
 66
1
 10
0.0
 20
0.0
 30
0.0
 70
9
  0
VERTEX
  8
SCAN
 10
80.875
 20
27.5
 30
0.0
  0
VERTEX
  8
SCAN
 10
81.125
 20
27.5
 30
0.0
  0
VERTEX
  8
SCAN
 10
81.125
 20
30.0
 30
0.0
  0
VERTEX
  8
SCAN
 10
80.875
 20
30.0
 30
0.0
  0
SEQEND
  0
POLYLINE
 62
256
  8
SCAN
 66
1
 10
0.0
 20
0.0
 30
0.0
 70
9
  0
VERTEX
  8
SCAN
 10
81.875
 20
27.5
 30
0.0
  0
VERTEX
  8
SCAN
 10
82.125
 20
27.5
 30
0.0
  0
VERTEX
  8
SCAN
 10
82.125
 20
30.0
 30
0.0
  0
VERTEX
  8
SCAN
 10
81.875
 20
30.0
 30
0.0
  0
SEQEND
  0
POLYLINE
 62
256
  8
SCAN
 66
1
 10
0.0
 20
0.0
 30
0.0
 70
9
  0
VERTEX
  8
SCAN
 10
82.875
 20
27.5
 30
0.0
  0
VERTEX
  8
SCAN
 10
83.125
 20
27.5
 30
0.0
  0
VERTEX
  8
SCAN
 10
83.125
 20
30.0
 30
0.0
  0
VERTEX
  8
SCAN
 10
82.875
 20
30.0
 30
0.0
  0
SEQEND
  0
POLYLINE
 62
256
  8
SCAN
 66
1
 10
0.0
 20
0.0
 30
0.0
 70
9
  0
VERTEX
  8
SCAN
 10
83.875
 20
27.5
 30
0.0
  0
VERTEX
  8
SCAN
 10
84.125
 20
27.5
 30
0.0
  0
VERTEX
  8
SCAN
 10
84.125
 20
30.0
 30
0.0
  0
VERTEX
  8
SCAN
 10
83.875
 20
30.0
 30
0.0
  0
SEQEND
  0
TEXT
  8
SCAN
 10
83.875
 20
20.0
 30
0.0
 40
2.0
  1
8
 50
90.0
  0
POLYLINE
 62
256
  8
SCAN
 66
1
 10
0.0
 20
0.0
 30
0.0
 70
9
  0
VERTEX
  8
SCAN
 10
84.875
 20
20.0
 30
0.0
  0
VERTEX
  8
SCAN
 10
85.125
 20
20.0
 30
0.0
  0
VERTEX
  8
SCAN
 10
85.125
 20
30.0
 30
0.0
  0
VERTEX
  8
SCAN
 10
84.875
 20
30.0
 30
0.0
  0
SEQEND
  0
POLYLINE
 62
256
  8
SCAN
 66
1
 10
0.0
 20
0.0
 30
0.0
 70
9
  0
VERTEX
  8
SCAN
 10
85.875
 20
27.5
 30
0.0
  0
VERTEX
  8
SCAN
 10
86.125
 20
27.5
 30
0.0
  0
VERTEX
  8
SCAN
 10
86.125
 20
30.0
 30
0.0
  0
VERTEX
  8
SCAN
 10
85.875
 20
30.0
 30
0.0
  0
SEQEND
  0
POLYLINE
 62
256
  8
SCAN
 66
1
 10
0.0
 20
0.0
 30
0.0
 70
9
  0
VERTEX
  8
SCAN
 10
86.875
 20
27.5
 30
0.0
  0
VERTEX
  8
SCAN
 10
87.125
 20
27.5
 30
0.0
  0
VERTEX
  8
SCAN
 10
87.125
 20
30.0
 30
0.0
  0
VERTEX
  8
SCAN
 10
86.875
 20
30.0
 30
0.0
  0
SEQEND
  0
POLYLINE
 62
256
  8
SCAN
 66
1
 10
0.0
 20
0.0
 30
0.0
 70
9
  0
VERTEX
  8
SCAN
 10
87.875
 20
27.5
 30
0.0
  0
VERTEX
  8
SCAN
 10
88.125
 20
27.5
 30
0.0
  0
VERTEX
  8
SCAN
 10
88.125
 20
30.0
 30
0.0
  0
VERTEX
  8
SCAN
 10
87.875
 20
30.0
 30
0.0
  0
SEQEND
  0
POLYLINE
 62
256
  8
SCAN
 66
1
 10
0.0
 20
0.0
 30
0.0
 70
9
  0
VERTEX
  8
SCAN
 10
88.875
 20
27.5
 30
0.0
  0
VERTEX
  8
SCAN
 10
89.125
 20
27.5
 30
0.0
  0
VERTEX
  8
SCAN
 10
89.125
 20
30.0
 30
0.0
  0
VERTEX
  8
SCAN
 10
88.875
 20
30.0
 30
0.0
  0
SEQEND
  0
POLYLINE
 62
256
  8
SCAN
 66
1
 10
0.0
 20
0.0
 30
0.0
 70
9
  0
VERTEX
  8
SCAN
 10
89.875
 20
25.0
 30
0.0
  0
VERTEX
  8
SCAN
 10
90.125
 20
25.0
 30
0.0
  0
VERTEX
  8
SCAN
 10
90.125
 20
30.0
 30
0.0
  0
VERTEX
  8
SCAN
 10
89.875
 20
30.0
 30
0.0
  0
SEQEND
  0
POLYLINE
 62
256
  8
SCAN
 66
1
 10
0.0
 20
0.0
 30
0.0
 70
9
  0
VERTEX
  8
SCAN
 10
90.875
 20
27.5
 30
0.0
  0
VERTEX
  8
SCAN
 10
91.125
 20
27.5
 30
0.0
  0
VERTEX
  8
SCAN
 10
91.125
 20
30.0
 30
0.0
  0
VERTEX
  8
SCAN
 10
90.875
 20
30.0
 30
0.0
  0
SEQEND
  0
POLYLINE
 62
256
  8
SCAN
 66
1
 10
0.0
 20
0.0
 30
0.0
 70
9
  0
VERTEX
  8
SCAN
 10
91.875
 20
27.5
 30
0.0
  0
VERTEX
  8
SCAN
 10
92.125
 20
27.5
 30
0.0
  0
VERTEX
  8
SCAN
 10
92.125
 20
30.0
 30
0.0
  0
VERTEX
  8
SCAN
 10
91.875
 20
30.0
 30
0.0
  0
SEQEND
  0
POLYLINE
 62
256
  8
SCAN
 66
1
 10
0.0
 20
0.0
 30
0.0
 70
9
  0
VERTEX
  8
SCAN
 10
92.875
 20
27.5
 30
0.0
  0
VERTEX
  8
SCAN
 10
93.125
 20
27.5
 30
0.0
  0
VERTEX
  8
SCAN
 10
93.125
 20
30.0
 30
0.0
  0
VERTEX
  8
SCAN
 10
92.875
 20
30.0
 30
0.0
  0
SEQEND
  0
POLYLINE
 62
256
  8
SCAN
 66
1
 10
0.0
 20
0.0
 30
0.0
 70
9
  0
VERTEX
  8
SCAN
 10
93.875
 20
27.5
 30
0.0
  0
VERTEX
  8
SCAN
 10
94.125
 20
27.5
 30
0.0
  0
VERTEX
  8
SCAN
 10
94.125
 20
30.0
 30
0.0
  0
VERTEX
  8
SCAN
 10
93.875
 20
30.0
 30
0.0
  0
SEQEND
  0
TEXT
  8
SCAN
 10
93.875
 20
20.0
 30
0.0
 40
2.0
  1
9
 50
90.0
  0
POLYLINE
 62
256
  8
SCAN
 66
1
 10
0.0
 20
0.0
 30
0.0
 70
9
  0
VERTEX
  8
SCAN
 10
94.875
 20
20.0
 30
0.0
  0
VERTEX
  8
SCAN
 10
95.125
 20
20.0
 30
0.0
  0
VERTEX
  8
SCAN
 10
95.125
 20
30.0
 30
0.0
  0
VERTEX
  8
SCAN
 10
94.875
 20
30.0
 30
0.0
  0
SEQEND
  0
POLYLINE
 62
256
  8
SCAN
 66
1
 10
0.0
 20
0.0
 30
0.0
 70
9
  0
VERTEX
  8
SCAN
 10
95.875
 20
27.5
 30
0.0
  0
VERTEX
  8
SCAN
 10
96.125
 20
27.5
 30
0.0
  0
VERTEX
  8
SCAN
 10
96.125
 20
30.0
 30
0.0
  0
VERTEX
  8
SCAN
 10
95.875
 20
30.0
 30
0.0
  0
SEQEND
  0
POLYLINE
 62
256
  8
SCAN
 66
1
 10
0.0
 20
0.0
 30
0.0
 70
9
  0
VERTEX
  8
SCAN
 10
96.875
 20
27.5
 30
0.0
  0
VERTEX
  8
SCAN
 10
97.125
 20
27.5
 30
0.0
  0
VERTEX
  8
SCAN
 10
97.125
 20
30.0
 30
0.0
  0
VERTEX
  8
SCAN
 10
96.875
 20
30.0
 30
0.0
  0
SEQEND
  0
POLYLINE
 62
256
  8
SCAN
 66
1
 10
0.0
 20
0.0
 30
0.0
 70
9
  0
VERTEX
  8
SCAN
 10
97.875
 20
27.5
 30
0.0
  0
VERTEX
  8
SCAN
 10
98.125
 20
27.5
 30
0.0
  0
VERTEX
  8
SCAN
 10
98.125
 20
30.0
 30
0.0
  0
VERTEX
  8
SCAN
 10
97.875
 20
30.0
 30
0.0
  0
SEQEND
  0
POLYLINE
 62
256
  8
SCAN
 66
1
 10
0.0
 20
0.0
 30
0.0
 70
9
  0
VERTEX
  8
SCAN
 10
98.875
 20
27.5
 30
0.0
  0
VERTEX
  8
SCAN
 10
99.125
 20
27.5
 30
0.0
  0
VERTEX
  8
SCAN
 10
99.125
 20
30.0
 30
0.0
  0
VERTEX
  8
SCAN
 10
98.875
 20
30.0
 30
0.0
  0
SEQEND
  0
POLYLINE
 62
256
  8
SCAN
 66
1
 10
0.0
 20
0.0
 30
0.0
 70
9
  0
VERTEX
  8
SCAN
 10
99.875
 20
25.0
 30
0.0
  0
VERTEX
  8
SCAN
 10
100.125
 20
25.0
 30
0.0
  0
VERTEX
  8
SCAN
 10
100.125
 20
30.0
 30
0.0
  0
VERTEX
  8
SCAN
 10
99.875
 20
30.0
 30
0.0
  0
SEQEND
  0
POLYLINE
 62
256
  8
SCAN
 66
1
 10
0.0
 20
0.0
 30
0.0
 70
9
  0
VERTEX
  8
SCAN
 10
100.875
 20
27.5
 30
0.0
  0
VERTEX
  8
SCAN
 10
101.125
 20
27.5
 30
0.0
  0
VERTEX
  8
SCAN
 10
101.125
 20
30.0
 30
0.0
  0
VERTEX
  8
SCAN
 10
100.875
 20
30.0
 30
0.0
  0
SEQEND
  0
POLYLINE
 62
256
  8
SCAN
 66
1
 10
0.0
 20
0.0
 30
0.0
 70
9
  0
VERTEX
  8
SCAN
 10
101.875
 20
27.5
 30
0.0
  0
VERTEX
  8
SCAN
 10
102.125
 20
27.5
 30
0.0
  0
VERTEX
  8
SCAN
 10
102.125
 20
30.0
 30
0.0
  0
VERTEX
  8
SCAN
 10
101.875
 20
30.0
 30
0.0
  0
SEQEND
  0
POLYLINE
 62
256
  8
SCAN
 66
1
 10
0.0
 20
0.0
 30
0.0
 70
9
  0
VERTEX
  8
SCAN
 10
102.875
 20
27.5
 30
0.0
  0
VERTEX
  8
SCAN
 10
103.125
 20
27.5
 30
0.0
  0
VERTEX
  8
SCAN
 10
103.125
 20
30.0
 30
0.0
  0
VERTEX
  8
SCAN
 10
102.875
 20
30.0
 30
0.0
  0
SEQEND
  0
POLYLINE
 62
256
  8
SCAN
 66
1
 10
0.0
 20
0.0
 30
0.0
 70
9
  0
VERTEX
  8
SCAN
 10
103.875
 20
27.5
 30
0.0
  0
VERTEX
  8
SCAN
 10
104.125
 20
27.5
 30
0.0
  0
VERTEX
  8
SCAN
 10
104.125
 20
30.0
 30
0.0
  0
VERTEX
  8
SCAN
 10
103.875
 20
30.0
 30
0.0
  0
SEQEND
  0
TEXT
  8
SCAN
 10
103.875
 20
20.0
 30
0.0
 40
2.0
  1
10
 50
90.0
  0
POLYLINE
 62
256
  8
SCAN
 66
1
 10
0.0
 20
0.0
 30
0.0
 70
9
  0
VERTEX
  8
SCAN
 10
104.875
 20
20.0
 30
0.0
  0
VERTEX
  8
SCAN
 10
105.125
 20
20.0
 30
0.0
  0
VERTEX
  8
SCAN
 10
105.125
 20
30.0
 30
0.0
  0
VERTEX
  8
SCAN
 10
104.875
 20
30.0
 30
0.0
  0
SEQEND
  0
POLYLINE
 62
256
  8
SCAN
 66
1
 10
0.0
 20
0.0
 30
0.0
 70
9
  0
VERTEX
  8
SCAN
 10
105.875
 20
27.5
 30
0.0
  0
VERTEX
  8
SCAN
 10
106.125
 20
27.5
 30
0.0
  0
VERTEX
  8
SCAN
 10
106.125
 20
30.0
 30
0.0
  0
VERTEX
  8
SCAN
 10
105.875
 20
30.0
 30
0.0
  0
SEQEND
  0
POLYLINE
 62
256
  8
SCAN
 66
1
 10
0.0
 20
0.0
 30
0.0
 70
9
  0
VERTEX
  8
SCAN
 10
106.875
 20
27.5
 30
0.0
  0
VERTEX
  8
SCAN
 10
107.125
 20
27.5
 30
0.0
  0
VERTEX
  8
SCAN
 10
107.125
 20
30.0
 30
0.0
  0
VERTEX
  8
SCAN
 10
106.875
 20
30.0
 30
0.0
  0
SEQEND
  0
POLYLINE
 62
256
  8
SCAN
 66
1
 10
0.0
 20
0.0
 30
0.0
 70
9
  0
VERTEX
  8
SCAN
 10
107.875
 20
27.5
 30
0.0
  0
VERTEX
  8
SCAN
 10
108.125
 20
27.5
 30
0.0
  0
VERTEX
  8
SCAN
 10
108.125
 20
30.0
 30
0.0
  0
VERTEX
  8
SCAN
 10
107.875
 20
30.0
 30
0.0
  0
SEQEND
  0
POLYLINE
 62
256
  8
SCAN
 66
1
 10
0.0
 20
0.0
 30
0.0
 70
9
  0
VERTEX
  8
SCAN
 10
108.875
 20
27.5
 30
0.0
  0
VERTEX
  8
SCAN
 10
109.125
 20
27.5
 30
0.0
  0
VERTEX
  8
SCAN
 10
109.125
 20
30.0
 30
0.0
  0
VERTEX
  8
SCAN
 10
108.875
 20
30.0
 30
0.0
  0
SEQEND
  0
POLYLINE
 62
256
  8
SCAN
 66
1
 10
0.0
 20
0.0
 30
0.0
 70
9
  0
VERTEX
  8
SCAN
 10
109.875
 20
25.0
 30
0.0
  0
VERTEX
  8
SCAN
 10
110.125
 20
25.0
 30
0.0
  0
VERTEX
  8
SCAN
 10
110.125
 20
30.0
 30
0.0
  0
VERTEX
  8
SCAN
 10
109.875
 20
30.0
 30
0.0
  0
SEQEND
  0
POLYLINE
 62
256
  8
SCAN
 66
1
 10
0.0
 20
0.0
 30
0.0
 70
9
  0
VERTEX
  8
SCAN
 10
110.875
 20
27.5
 30
0.0
  0
VERTEX
  8
SCAN
 10
111.125
 20
27.5
 30
0.0
  0
VERTEX
  8
SCAN
 10
111.125
 20
30.0
 30
0.0
  0
VERTEX
  8
SCAN
 10
110.875
 20
30.0
 30
0.0
  0
SEQEND
  0
POLYLINE
 62
256
  8
SCAN
 66
1
 10
0.0
 20
0.0
 30
0.0
 70
9
  0
VERTEX
  8
SCAN
 10
111.875
 20
27.5
 30
0.0
  0
VERTEX
  8
SCAN
 10
112.125
 20
27.5
 30
0.0
  0
VERTEX
  8
SCAN
 10
112.125
 20
30.0
 30
0.0
  0
VERTEX
  8
SCAN
 10
111.875
 20
30.0
 30
0.0
  0
SEQEND
  0
POLYLINE
 62
256
  8
SCAN
 66
1
 10
0.0
 20
0.0
 30
0.0
 70
9
  0
VERTEX
  8
SCAN
 10
112.875
 20
27.5
 30
0.0
  0
VERTEX
  8
SCAN
 10
113.125
 20
27.5
 30
0.0
  0
VERTEX
  8
SCAN
 10
113.125
 20
30.0
 30
0.0
  0
VERTEX
  8
SCAN
 10
112.875
 20
30.0
 30
0.0
  0
SEQEND
  0
POLYLINE
 62
256
  8
SCAN
 66
1
 10
0.0
 20
0.0
 30
0.0
 70
9
  0
VERTEX
  8
SCAN
 10
113.875
 20
27.5
 30
0.0
  0
VERTEX
  8
SCAN
 10
114.125
 20
27.5
 30
0.0
  0
VERTEX
  8
SCAN
 10
114.125
 20
30.0
 30
0.0
  0
VERTEX
  8
SCAN
 10
113.875
 20
30.0
 30
0.0
  0
SEQEND
  0
TEXT
  8
SCAN
 10
113.875
 20
20.0
 30
0.0
 40
2.0
  1
11
 50
90.0
  0
POLYLINE
 62
256
  8
SCAN
 66
1
 10
0.0
 20
0.0
 30
0.0
 70
9
  0
VERTEX
  8
SCAN
 10
114.875
 20
20.0
 30
0.0
  0
VERTEX
  8
SCAN
 10
115.125
 20
20.0
 30
0.0
  0
VERTEX
  8
SCAN
 10
115.125
 20
30.0
 30
0.0
  0
VERTEX
  8
SCAN
 10
114.875
 20
30.0
 30
0.0
  0
SEQEND
  0
POLYLINE
 62
256
  8
SCAN
 66
1
 10
0.0
 20
0.0
 30
0.0
 70
9
  0
VERTEX
  8
SCAN
 10
115.875
 20
27.5
 30
0.0
  0
VERTEX
  8
SCAN
 10
116.125
 20
27.5
 30
0.0
  0
VERTEX
  8
SCAN
 10
116.125
 20
30.0
 30
0.0
  0
VERTEX
  8
SCAN
 10
115.875
 20
30.0
 30
0.0
  0
SEQEND
  0
POLYLINE
 62
256
  8
SCAN
 66
1
 10
0.0
 20
0.0
 30
0.0
 70
9
  0
VERTEX
  8
SCAN
 10
116.875
 20
27.5
 30
0.0
  0
VERTEX
  8
SCAN
 10
117.125
 20
27.5
 30
0.0
  0
VERTEX
  8
SCAN
 10
117.125
 20
30.0
 30
0.0
  0
VERTEX
  8
SCAN
 10
116.875
 20
30.0
 30
0.0
  0
SEQEND
  0
POLYLINE
 62
256
  8
SCAN
 66
1
 10
0.0
 20
0.0
 30
0.0
 70
9
  0
VERTEX
  8
SCAN
 10
117.875
 20
27.5
 30
0.0
  0
VERTEX
  8
SCAN
 10
118.125
 20
27.5
 30
0.0
  0
VERTEX
  8
SCAN
 10
118.125
 20
30.0
 30
0.0
  0
VERTEX
  8
SCAN
 10
117.875
 20
30.0
 30
0.0
  0
SEQEND
  0
POLYLINE
 62
256
  8
SCAN
 66
1
 10
0.0
 20
0.0
 30
0.0
 70
9
  0
VERTEX
  8
SCAN
 10
118.875
 20
27.5
 30
0.0
  0
VERTEX
  8
SCAN
 10
119.125
 20
27.5
 30
0.0
  0
VERTEX
  8
SCAN
 10
119.125
 20
30.0
 30
0.0
  0
VERTEX
  8
SCAN
 10
118.875
 20
30.0
 30
0.0
  0
SEQEND
  0
POLYLINE
 62
256
  8
SCAN
 66
1
 10
0.0
 20
0.0
 30
0.0
 70
9
  0
VERTEX
  8
SCAN
 10
119.875
 20
25.0
 30
0.0
  0
VERTEX
  8
SCAN
 10
120.125
 20
25.0
 30
0.0
  0
VERTEX
  8
SCAN
 10
120.125
 20
30.0
 30
0.0
  0
VERTEX
  8
SCAN
 10
119.875
 20
30.0
 30
0.0
  0
SEQEND
  0
POLYLINE
 62
256
  8
SCAN
 66
1
 10
0.0
 20
0.0
 30
0.0
 70
9
  0
VERTEX
  8
SCAN
 10
120.875
 20
27.5
 30
0.0
  0
VERTEX
  8
SCAN
 10
121.125
 20
27.5
 30
0.0
  0
VERTEX
  8
SCAN
 10
121.125
 20
30.0
 30
0.0
  0
VERTEX
  8
SCAN
 10
120.875
 20
30.0
 30
0.0
  0
SEQEND
  0
POLYLINE
 62
256
  8
SCAN
 66
1
 10
0.0
 20
0.0
 30
0.0
 70
9
  0
VERTEX
  8
SCAN
 10
121.875
 20
27.5
 30
0.0
  0
VERTEX
  8
SCAN
 10
122.125
 20
27.5
 30
0.0
  0
VERTEX
  8
SCAN
 10
122.125
 20
30.0
 30
0.0
  0
VERTEX
  8
SCAN
 10
121.875
 20
30.0
 30
0.0
  0
SEQEND
  0
POLYLINE
 62
256
  8
SCAN
 66
1
 10
0.0
 20
0.0
 30
0.0
 70
9
  0
VERTEX
  8
SCAN
 10
122.875
 20
27.5
 30
0.0
  0
VERTEX
  8
SCAN
 10
123.125
 20
27.5
 30
0.0
  0
VERTEX
  8
SCAN
 10
123.125
 20
30.0
 30
0.0
  0
VERTEX
  8
SCAN
 10
122.875
 20
30.0
 30
0.0
  0
SEQEND
  0
POLYLINE
 62
256
  8
SCAN
 66
1
 10
0.0
 20
0.0
 30
0.0
 70
9
  0
VERTEX
  8
SCAN
 10
123.875
 20
27.5
 30
0.0
  0
VERTEX
  8
SCAN
 10
124.125
 20
27.5
 30
0.0
  0
VERTEX
  8
SCAN
 10
124.125
 20
30.0
 30
0.0
  0
VERTEX
  8
SCAN
 10
123.875
 20
30.0
 30
0.0
  0
SEQEND
  0
TEXT
  8
SCAN
 10
123.875
 20
20.0
 30
0.0
 40
2.0
  1
12
 50
90.0
  0
POLYLINE
 62
256
  8
SCAN
 66
1
 10
0.0
 20
0.0
 30
0.0
 70
9
  0
VERTEX
  8
SCAN
 10
124.875
 20
20.0
 30
0.0
  0
VERTEX
  8
SCAN
 10
125.125
 20
20.0
 30
0.0
  0
VERTEX
  8
SCAN
 10
125.125
 20
30.0
 30
0.0
  0
VERTEX
  8
SCAN
 10
124.875
 20
30.0
 30
0.0
  0
SEQEND
  0
POLYLINE
 62
256
  8
SCAN
 66
1
 10
0.0
 20
0.0
 30
0.0
 70
9
  0
VERTEX
  8
SCAN
 10
125.875
 20
27.5
 30
0.0
  0
VERTEX
  8
SCAN
 10
126.125
 20
27.5
 30
0.0
  0
VERTEX
  8
SCAN
 10
126.125
 20
30.0
 30
0.0
  0
VERTEX
  8
SCAN
 10
125.875
 20
30.0
 30
0.0
  0
SEQEND
  0
POLYLINE
 62
256
  8
SCAN
 66
1
 10
0.0
 20
0.0
 30
0.0
 70
9
  0
VERTEX
  8
SCAN
 10
126.875
 20
27.5
 30
0.0
  0
VERTEX
  8
SCAN
 10
127.125
 20
27.5
 30
0.0
  0
VERTEX
  8
SCAN
 10
127.125
 20
30.0
 30
0.0
  0
VERTEX
  8
SCAN
 10
126.875
 20
30.0
 30
0.0
  0
SEQEND
  0
POLYLINE
 62
256
  8
SCAN
 66
1
 10
0.0
 20
0.0
 30
0.0
 70
9
  0
VERTEX
  8
SCAN
 10
127.875
 20
27.5
 30
0.0
  0
VERTEX
  8
SCAN
 10
128.125
 20
27.5
 30
0.0
  0
VERTEX
  8
SCAN
 10
128.125
 20
30.0
 30
0.0
  0
VERTEX
  8
SCAN
 10
127.875
 20
30.0
 30
0.0
  0
SEQEND
  0
POLYLINE
 62
256
  8
SCAN
 66
1
 10
0.0
 20
0.0
 30
0.0
 70
9
  0
VERTEX
  8
SCAN
 10
128.875
 20
27.5
 30
0.0
  0
VERTEX
  8
SCAN
 10
129.125
 20
27.5
 30
0.0
  0
VERTEX
  8
SCAN
 10
129.125
 20
30.0
 30
0.0
  0
VERTEX
  8
SCAN
 10
128.875
 20
30.0
 30
0.0
  0
SEQEND
  0
POLYLINE
 62
256
  8
SCAN
 66
1
 10
0.0
 20
0.0
 30
0.0
 70
9
  0
VERTEX
  8
SCAN
 10
129.875
 20
25.0
 30
0.0
  0
VERTEX
  8
SCAN
 10
130.125
 20
25.0
 30
0.0
  0
VERTEX
  8
SCAN
 10
130.125
 20
30.0
 30
0.0
  0
VERTEX
  8
SCAN
 10
129.875
 20
30.0
 30
0.0
  0
SEQEND
  0
POLYLINE
 62
256
  8
SCAN
 66
1
 10
0.0
 20
0.0
 30
0.0
 70
9
  0
VERTEX
  8
SCAN
 10
130.875
 20
27.5
 30
0.0
  0
VERTEX
  8
SCAN
 10
131.125
 20
27.5
 30
0.0
  0
VERTEX
  8
SCAN
 10
131.125
 20
30.0
 30
0.0
  0
VERTEX
  8
SCAN
 10
130.875
 20
30.0
 30
0.0
  0
SEQEND
  0
POLYLINE
 62
256
  8
SCAN
 66
1
 10
0.0
 20
0.0
 30
0.0
 70
9
  0
VERTEX
  8
SCAN
 10
131.875
 20
27.5
 30
0.0
  0
VERTEX
  8
SCAN
 10
132.125
 20
27.5
 30
0.0
  0
VERTEX
  8
SCAN
 10
132.125
 20
30.0
 30
0.0
  0
VERTEX
  8
SCAN
 10
131.875
 20
30.0
 30
0.0
  0
SEQEND
  0
POLYLINE
 62
256
  8
SCAN
 66
1
 10
0.0
 20
0.0
 30
0.0
 70
9
  0
VERTEX
  8
SCAN
 10
132.875
 20
27.5
 30
0.0
  0
VERTEX
  8
SCAN
 10
133.125
 20
27.5
 30
0.0
  0
VERTEX
  8
SCAN
 10
133.125
 20
30.0
 30
0.0
  0
VERTEX
  8
SCAN
 10
132.875
 20
30.0
 30
0.0
  0
SEQEND
  0
POLYLINE
 62
256
  8
SCAN
 66
1
 10
0.0
 20
0.0
 30
0.0
 70
9
  0
VERTEX
  8
SCAN
 10
133.875
 20
27.5
 30
0.0
  0
VERTEX
  8
SCAN
 10
134.125
 20
27.5
 30
0.0
  0
VERTEX
  8
SCAN
 10
134.125
 20
30.0
 30
0.0
  0
VERTEX
  8
SCAN
 10
133.875
 20
30.0
 30
0.0
  0
SEQEND
  0
TEXT
  8
SCAN
 10
133.875
 20
20.0
 30
0.0
 40
2.0
  1
13
 50
90.0
  0
POLYLINE
 62
256
  8
SCAN
 66
1
 10
0.0
 20
0.0
 30
0.0
 70
9
  0
VERTEX
  8
SCAN
 10
134.875
 20
20.0
 30
0.0
  0
VERTEX
  8
SCAN
 10
135.125
 20
20.0
 30
0.0
  0
VERTEX
  8
SCAN
 10
135.125
 20
30.0
 30
0.0
  0
VERTEX
  8
SCAN
 10
134.875
 20
30.0
 30
0.0
  0
SEQEND
  0
POLYLINE
 62
256
  8
SCAN
 66
1
 10
0.0
 20
0.0
 30
0.0
 70
9
  0
VERTEX
  8
SCAN
 10
135.875
 20
27.5
 30
0.0
  0
VERTEX
  8
SCAN
 10
136.125
 20
27.5
 30
0.0
  0
VERTEX
  8
SCAN
 10
136.125
 20
30.0
 30
0.0
  0
VERTEX
  8
SCAN
 10
135.875
 20
30.0
 30
0.0
  0
SEQEND
  0
POLYLINE
 62
256
  8
SCAN
 66
1
 10
0.0
 20
0.0
 30
0.0
 70
9
  0
VERTEX
  8
SCAN
 10
136.875
 20
27.5
 30
0.0
  0
VERTEX
  8
SCAN
 10
137.125
 20
27.5
 30
0.0
  0
VERTEX
  8
SCAN
 10
137.125
 20
30.0
 30
0.0
  0
VERTEX
  8
SCAN
 10
136.875
 20
30.0
 30
0.0
  0
SEQEND
  0
POLYLINE
 62
256
  8
SCAN
 66
1
 10
0.0
 20
0.0
 30
0.0
 70
9
  0
VERTEX
  8
SCAN
 10
137.875
 20
27.5
 30
0.0
  0
VERTEX
  8
SCAN
 10
138.125
 20
27.5
 30
0.0
  0
VERTEX
  8
SCAN
 10
138.125
 20
30.0
 30
0.0
  0
VERTEX
  8
SCAN
 10
137.875
 20
30.0
 30
0.0
  0
SEQEND
  0
POLYLINE
 62
256
  8
SCAN
 66
1
 10
0.0
 20
0.0
 30
0.0
 70
9
  0
VERTEX
  8
SCAN
 10
138.875
 20
27.5
 30
0.0
  0
VERTEX
  8
SCAN
 10
139.125
 20
27.5
 30
0.0
  0
VERTEX
  8
SCAN
 10
139.125
 20
30.0
 30
0.0
  0
VERTEX
  8
SCAN
 10
138.875
 20
30.0
 30
0.0
  0
SEQEND
  0
POLYLINE
 62
256
  8
SCAN
 66
1
 10
0.0
 20
0.0
 30
0.0
 70
9
  0
VERTEX
  8
SCAN
 10
139.875
 20
25.0
 30
0.0
  0
VERTEX
  8
SCAN
 10
140.125
 20
25.0
 30
0.0
  0
VERTEX
  8
SCAN
 10
140.125
 20
30.0
 30
0.0
  0
VERTEX
  8
SCAN
 10
139.875
 20
30.0
 30
0.0
  0
SEQEND
  0
POLYLINE
 62
256
  8
SCAN
 66
1
 10
0.0
 20
0.0
 30
0.0
 70
9
  0
VERTEX
  8
SCAN
 10
140.875
 20
27.5
 30
0.0
  0
VERTEX
  8
SCAN
 10
141.125
 20
27.5
 30
0.0
  0
VERTEX
  8
SCAN
 10
141.125
 20
30.0
 30
0.0
  0
VERTEX
  8
SCAN
 10
140.875
 20
30.0
 30
0.0
  0
SEQEND
  0
POLYLINE
 62
256
  8
SCAN
 66
1
 10
0.0
 20
0.0
 30
0.0
 70
9
  0
VERTEX
  8
SCAN
 10
141.875
 20
27.5
 30
0.0
  0
VERTEX
  8
SCAN
 10
142.125
 20
27.5
 30
0.0
  0
VERTEX
  8
SCAN
 10
142.125
 20
30.0
 30
0.0
  0
VERTEX
  8
SCAN
 10
141.875
 20
30.0
 30
0.0
  0
SEQEND
  0
POLYLINE
 62
256
  8
SCAN
 66
1
 10
0.0
 20
0.0
 30
0.0
 70
9
  0
VERTEX
  8
SCAN
 10
142.875
 20
27.5
 30
0.0
  0
VERTEX
  8
SCAN
 10
143.125
 20
27.5
 30
0.0
  0
VERTEX
  8
SCAN
 10
143.125
 20
30.0
 30
0.0
  0
VERTEX
  8
SCAN
 10
142.875
 20
30.0
 30
0.0
  0
SEQEND
  0
POLYLINE
 62
256
  8
SCAN
 66
1
 10
0.0
 20
0.0
 30
0.0
 70
9
  0
VERTEX
  8
SCAN
 10
143.875
 20
27.5
 30
0.0
  0
VERTEX
  8
SCAN
 10
144.125
 20
27.5
 30
0.0
  0
VERTEX
  8
SCAN
 10
144.125
 20
30.0
 30
0.0
  0
VERTEX
  8
SCAN
 10
143.875
 20
30.0
 30
0.0
  0
SEQEND
  0
TEXT
  8
SCAN
 10
143.875
 20
20.0
 30
0.0
 40
2.0
  1
14
 50
90.0
  0
POLYLINE
 62
256
  8
SCAN
 66
1
 10
0.0
 20
0.0
 30
0.0
 70
9
  0
VERTEX
  8
SCAN
 10
144.875
 20
20.0
 30
0.0
  0
VERTEX
  8
SCAN
 10
145.125
 20
20.0
 30
0.0
  0
VERTEX
  8
SCAN
 10
145.125
 20
30.0
 30
0.0
  0
VERTEX
  8
SCAN
 10
144.875
 20
30.0
 30
0.0
  0
SEQEND
  0
POLYLINE
 62
256
  8
SCAN
 66
1
 10
0.0
 20
0.0
 30
0.0
 70
9
  0
VERTEX
  8
SCAN
 10
145.875
 20
27.5
 30
0.0
  0
VERTEX
  8
SCAN
 10
146.125
 20
27.5
 30
0.0
  0
VERTEX
  8
SCAN
 10
146.125
 20
30.0
 30
0.0
  0
VERTEX
  8
SCAN
 10
145.875
 20
30.0
 30
0.0
  0
SEQEND
  0
POLYLINE
 62
256
  8
SCAN
 66
1
 10
0.0
 20
0.0
 30
0.0
 70
9
  0
VERTEX
  8
SCAN
 10
146.875
 20
27.5
 30
0.0
  0
VERTEX
  8
SCAN
 10
147.125
 20
27.5
 30
0.0
  0
VERTEX
  8
SCAN
 10
147.125
 20
30.0
 30
0.0
  0
VERTEX
  8
SCAN
 10
146.875
 20
30.0
 30
0.0
  0
SEQEND
  0
POLYLINE
 62
256
  8
SCAN
 66
1
 10
0.0
 20
0.0
 30
0.0
 70
9
  0
VERTEX
  8
SCAN
 10
147.875
 20
27.5
 30
0.0
  0
VERTEX
  8
SCAN
 10
148.125
 20
27.5
 30
0.0
  0
VERTEX
  8
SCAN
 10
148.125
 20
30.0
 30
0.0
  0
VERTEX
  8
SCAN
 10
147.875
 20
30.0
 30
0.0
  0
SEQEND
  0
POLYLINE
 62
256
  8
SCAN
 66
1
 10
0.0
 20
0.0
 30
0.0
 70
9
  0
VERTEX
  8
SCAN
 10
148.875
 20
27.5
 30
0.0
  0
VERTEX
  8
SCAN
 10
149.125
 20
27.5
 30
0.0
  0
VERTEX
  8
SCAN
 10
149.125
 20
30.0
 30
0.0
  0
VERTEX
  8
SCAN
 10
148.875
 20
30.0
 30
0.0
  0
SEQEND
  0
POLYLINE
 62
256
  8
SCAN
 66
1
 10
0.0
 20
0.0
 30
0.0
 70
9
  0
VERTEX
  8
SCAN
 10
149.875
 20
25.0
 30
0.0
  0
VERTEX
  8
SCAN
 10
150.125
 20
25.0
 30
0.0
  0
VERTEX
  8
SCAN
 10
150.125
 20
30.0
 30
0.0
  0
VERTEX
  8
SCAN
 10
149.875
 20
30.0
 30
0.0
  0
SEQEND
  0
POLYLINE
 62
256
  8
SCAN
 66
1
 10
0.0
 20
0.0
 30
0.0
 70
9
  0
VERTEX
  8
SCAN
 10
150.875
 20
27.5
 30
0.0
  0
VERTEX
  8
SCAN
 10
151.125
 20
27.5
 30
0.0
  0
VERTEX
  8
SCAN
 10
151.125
 20
30.0
 30
0.0
  0
VERTEX
  8
SCAN
 10
150.875
 20
30.0
 30
0.0
  0
SEQEND
  0
POLYLINE
 62
256
  8
SCAN
 66
1
 10
0.0
 20
0.0
 30
0.0
 70
9
  0
VERTEX
  8
SCAN
 10
151.875
 20
27.5
 30
0.0
  0
VERTEX
  8
SCAN
 10
152.125
 20
27.5
 30
0.0
  0
VERTEX
  8
SCAN
 10
152.125
 20
30.0
 30
0.0
  0
VERTEX
  8
SCAN
 10
151.875
 20
30.0
 30
0.0
  0
SEQEND
  0
POLYLINE
 62
256
  8
SCAN
 66
1
 10
0.0
 20
0.0
 30
0.0
 70
9
  0
VERTEX
  8
SCAN
 10
152.875
 20
27.5
 30
0.0
  0
VERTEX
  8
SCAN
 10
153.125
 20
27.5
 30
0.0
  0
VERTEX
  8
SCAN
 10
153.125
 20
30.0
 30
0.0
  0
VERTEX
  8
SCAN
 10
152.875
 20
30.0
 30
0.0
  0
SEQEND
  0
POLYLINE
 62
256
  8
SCAN
 66
1
 10
0.0
 20
0.0
 30
0.0
 70
9
  0
VERTEX
  8
SCAN
 10
153.875
 20
27.5
 30
0.0
  0
VERTEX
  8
SCAN
 10
154.125
 20
27.5
 30
0.0
  0
VERTEX
  8
SCAN
 10
154.125
 20
30.0
 30
0.0
  0
VERTEX
  8
SCAN
 10
153.875
 20
30.0
 30
0.0
  0
SEQEND
  0
TEXT
  8
SCAN
 10
153.875
 20
20.0
 30
0.0
 40
2.0
  1
15
 50
90.0
  0
POLYLINE
 62
256
  8
SCAN
 66
1
 10
0.0
 20
0.0
 30
0.0
 70
9
  0
VERTEX
  8
SCAN
 10
154.875
 20
20.0
 30
0.0
  0
VERTEX
  8
SCAN
 10
155.125
 20
20.0
 30
0.0
  0
VERTEX
  8
SCAN
 10
155.125
 20
30.0
 30
0.0
  0
VERTEX
  8
SCAN
 10
154.875
 20
30.0
 30
0.0
  0
SEQEND
  0
POLYLINE
 62
256
  8
SCAN
 66
1
 10
0.0
 20
0.0
 30
0.0
 70
9
  0
VERTEX
  8
SCAN
 10
155.875
 20
27.5
 30
0.0
  0
VERTEX
  8
SCAN
 10
156.125
 20
27.5
 30
0.0
  0
VERTEX
  8
SCAN
 10
156.125
 20
30.0
 30
0.0
  0
VERTEX
  8
SCAN
 10
155.875
 20
30.0
 30
0.0
  0
SEQEND
  0
POLYLINE
 62
256
  8
SCAN
 66
1
 10
0.0
 20
0.0
 30
0.0
 70
9
  0
VERTEX
  8
SCAN
 10
156.875
 20
27.5
 30
0.0
  0
VERTEX
  8
SCAN
 10
157.125
 20
27.5
 30
0.0
  0
VERTEX
  8
SCAN
 10
157.125
 20
30.0
 30
0.0
  0
VERTEX
  8
SCAN
 10
156.875
 20
30.0
 30
0.0
  0
SEQEND
  0
POLYLINE
 62
256
  8
SCAN
 66
1
 10
0.0
 20
0.0
 30
0.0
 70
9
  0
VERTEX
  8
SCAN
 10
157.875
 20
27.5
 30
0.0
  0
VERTEX
  8
SCAN
 10
158.125
 20
27.5
 30
0.0
  0
VERTEX
  8
SCAN
 10
158.125
 20
30.0
 30
0.0
  0
VERTEX
  8
SCAN
 10
157.875
 20
30.0
 30
0.0
  0
SEQEND
  0
POLYLINE
 62
256
  8
SCAN
 66
1
 10
0.0
 20
0.0
 30
0.0
 70
9
  0
VERTEX
  8
SCAN
 10
158.875
 20
27.5
 30
0.0
  0
VERTEX
  8
SCAN
 10
159.125
 20
27.5
 30
0.0
  0
VERTEX
  8
SCAN
 10
159.125
 20
30.0
 30
0.0
  0
VERTEX
  8
SCAN
 10
158.875
 20
30.0
 30
0.0
  0
SEQEND
  0
POLYLINE
 62
256
  8
SCAN
 66
1
 10
0.0
 20
0.0
 30
0.0
 70
9
  0
VERTEX
  8
SCAN
 10
159.875
 20
25.0
 30
0.0
  0
VERTEX
  8
SCAN
 10
160.125
 20
25.0
 30
0.0
  0
VERTEX
  8
SCAN
 10
160.125
 20
30.0
 30
0.0
  0
VERTEX
  8
SCAN
 10
159.875
 20
30.0
 30
0.0
  0
SEQEND
  0
POLYLINE
 62
256
  8
SCAN
 66
1
 10
0.0
 20
0.0
 30
0.0
 70
9
  0
VERTEX
  8
SCAN
 10
160.875
 20
27.5
 30
0.0
  0
VERTEX
  8
SCAN
 10
161.125
 20
27.5
 30
0.0
  0
VERTEX
  8
SCAN
 10
161.125
 20
30.0
 30
0.0
  0
VERTEX
  8
SCAN
 10
160.875
 20
30.0
 30
0.0
  0
SEQEND
  0
POLYLINE
 62
256
  8
SCAN
 66
1
 10
0.0
 20
0.0
 30
0.0
 70
9
  0
VERTEX
  8
SCAN
 10
161.875
 20
27.5
 30
0.0
  0
VERTEX
  8
SCAN
 10
162.125
 20
27.5
 30
0.0
  0
VERTEX
  8
SCAN
 10
162.125
 20
30.0
 30
0.0
  0
VERTEX
  8
SCAN
 10
161.875
 20
30.0
 30
0.0
  0
SEQEND
  0
POLYLINE
 62
256
  8
SCAN
 66
1
 10
0.0
 20
0.0
 30
0.0
 70
9
  0
VERTEX
  8
SCAN
 10
162.875
 20
27.5
 30
0.0
  0
VERTEX
  8
SCAN
 10
163.125
 20
27.5
 30
0.0
  0
VERTEX
  8
SCAN
 10
163.125
 20
30.0
 30
0.0
  0
VERTEX
  8
SCAN
 10
162.875
 20
30.0
 30
0.0
  0
SEQEND
  0
POLYLINE
 62
256
  8
SCAN
 66
1
 10
0.0
 20
0.0
 30
0.0
 70
9
  0
VERTEX
  8
SCAN
 10
163.875
 20
27.5
 30
0.0
  0
VERTEX
  8
SCAN
 10
164.125
 20
27.5
 30
0.0
  0
VERTEX
  8
SCAN
 10
164.125
 20
30.0
 30
0.0
  0
VERTEX
  8
SCAN
 10
163.875
 20
30.0
 30
0.0
  0
SEQEND
  0
TEXT
  8
SCAN
 10
163.875
 20
20.0
 30
0.0
 40
2.0
  1
16
 50
90.0
  0
POLYLINE
 62
256
  8
SCAN
 66
1
 10
0.0
 20
0.0
 30
0.0
 70
9
  0
VERTEX
  8
SCAN
 10
164.875
 20
20.0
 30
0.0
  0
VERTEX
  8
SCAN
 10
165.125
 20
20.0
 30
0.0
  0
VERTEX
  8
SCAN
 10
165.125
 20
30.0
 30
0.0
  0
VERTEX
  8
SCAN
 10
164.875
 20
30.0
 30
0.0
  0
SEQEND
  0
POLYLINE
 62
256
  8
SCAN
 66
1
 10
0.0
 20
0.0
 30
0.0
 70
9
  0
VERTEX
  8
SCAN
 10
165.875
 20
27.5
 30
0.0
  0
VERTEX
  8
SCAN
 10
166.125
 20
27.5
 30
0.0
  0
VERTEX
  8
SCAN
 10
166.125
 20
30.0
 30
0.0
  0
VERTEX
  8
SCAN
 10
165.875
 20
30.0
 30
0.0
  0
SEQEND
  0
POLYLINE
 62
256
  8
SCAN
 66
1
 10
0.0
 20
0.0
 30
0.0
 70
9
  0
VERTEX
  8
SCAN
 10
166.875
 20
27.5
 30
0.0
  0
VERTEX
  8
SCAN
 10
167.125
 20
27.5
 30
0.0
  0
VERTEX
  8
SCAN
 10
167.125
 20
30.0
 30
0.0
  0
VERTEX
  8
SCAN
 10
166.875
 20
30.0
 30
0.0
  0
SEQEND
  0
POLYLINE
 62
256
  8
SCAN
 66
1
 10
0.0
 20
0.0
 30
0.0
 70
9
  0
VERTEX
  8
SCAN
 10
167.875
 20
27.5
 30
0.0
  0
VERTEX
  8
SCAN
 10
168.125
 20
27.5
 30
0.0
  0
VERTEX
  8
SCAN
 10
168.125
 20
30.0
 30
0.0
  0
VERTEX
  8
SCAN
 10
167.875
 20
30.0
 30
0.0
  0
SEQEND
  0
POLYLINE
 62
256
  8
SCAN
 66
1
 10
0.0
 20
0.0
 30
0.0
 70
9
  0
VERTEX
  8
SCAN
 10
168.875
 20
27.5
 30
0.0
  0
VERTEX
  8
SCAN
 10
169.125
 20
27.5
 30
0.0
  0
VERTEX
  8
SCAN
 10
169.125
 20
30.0
 30
0.0
  0
VERTEX
  8
SCAN
 10
168.875
 20
30.0
 30
0.0
  0
SEQEND
  0
POLYLINE
 62
256
  8
SCAN
 66
1
 10
0.0
 20
0.0
 30
0.0
 70
9
  0
VERTEX
  8
SCAN
 10
169.875
 20
25.0
 30
0.0
  0
VERTEX
  8
SCAN
 10
170.125
 20
25.0
 30
0.0
  0
VERTEX
  8
SCAN
 10
170.125
 20
30.0
 30
0.0
  0
VERTEX
  8
SCAN
 10
169.875
 20
30.0
 30
0.0
  0
SEQEND
  0
POLYLINE
 62
256
  8
SCAN
 66
1
 10
0.0
 20
0.0
 30
0.0
 70
9
  0
VERTEX
  8
SCAN
 10
170.875
 20
27.5
 30
0.0
  0
VERTEX
  8
SCAN
 10
171.125
 20
27.5
 30
0.0
  0
VERTEX
  8
SCAN
 10
171.125
 20
30.0
 30
0.0
  0
VERTEX
  8
SCAN
 10
170.875
 20
30.0
 30
0.0
  0
SEQEND
  0
POLYLINE
 62
256
  8
SCAN
 66
1
 10
0.0
 20
0.0
 30
0.0
 70
9
  0
VERTEX
  8
SCAN
 10
171.875
 20
27.5
 30
0.0
  0
VERTEX
  8
SCAN
 10
172.125
 20
27.5
 30
0.0
  0
VERTEX
  8
SCAN
 10
172.125
 20
30.0
 30
0.0
  0
VERTEX
  8
SCAN
 10
171.875
 20
30.0
 30
0.0
  0
SEQEND
  0
POLYLINE
 62
256
  8
SCAN
 66
1
 10
0.0
 20
0.0
 30
0.0
 70
9
  0
VERTEX
  8
SCAN
 10
172.875
 20
27.5
 30
0.0
  0
VERTEX
  8
SCAN
 10
173.125
 20
27.5
 30
0.0
  0
VERTEX
  8
SCAN
 10
173.125
 20
30.0
 30
0.0
  0
VERTEX
  8
SCAN
 10
172.875
 20
30.0
 30
0.0
  0
SEQEND
  0
POLYLINE
 62
256
  8
SCAN
 66
1
 10
0.0
 20
0.0
 30
0.0
 70
9
  0
VERTEX
  8
SCAN
 10
173.875
 20
27.5
 30
0.0
  0
VERTEX
  8
SCAN
 10
174.125
 20
27.5
 30
0.0
  0
VERTEX
  8
SCAN
 10
174.125
 20
30.0
 30
0.0
  0
VERTEX
  8
SCAN
 10
173.875
 20
30.0
 30
0.0
  0
SEQEND
  0
TEXT
  8
SCAN
 10
173.875
 20
20.0
 30
0.0
 40
2.0
  1
17
 50
90.0
  0
POLYLINE
 62
256
  8
SCAN
 66
1
 10
0.0
 20
0.0
 30
0.0
 70
9
  0
VERTEX
  8
SCAN
 10
174.875
 20
20.0
 30
0.0
  0
VERTEX
  8
SCAN
 10
175.125
 20
20.0
 30
0.0
  0
VERTEX
  8
SCAN
 10
175.125
 20
30.0
 30
0.0
  0
VERTEX
  8
SCAN
 10
174.875
 20
30.0
 30
0.0
  0
SEQEND
  0
POLYLINE
 62
256
  8
SCAN
 66
1
 10
0.0
 20
0.0
 30
0.0
 70
9
  0
VERTEX
  8
SCAN
 10
175.875
 20
27.5
 30
0.0
  0
VERTEX
  8
SCAN
 10
176.125
 20
27.5
 30
0.0
  0
VERTEX
  8
SCAN
 10
176.125
 20
30.0
 30
0.0
  0
VERTEX
  8
SCAN
 10
175.875
 20
30.0
 30
0.0
  0
SEQEND
  0
POLYLINE
 62
256
  8
SCAN
 66
1
 10
0.0
 20
0.0
 30
0.0
 70
9
  0
VERTEX
  8
SCAN
 10
176.875
 20
27.5
 30
0.0
  0
VERTEX
  8
SCAN
 10
177.125
 20
27.5
 30
0.0
  0
VERTEX
  8
SCAN
 10
177.125
 20
30.0
 30
0.0
  0
VERTEX
  8
SCAN
 10
176.875
 20
30.0
 30
0.0
  0
SEQEND
  0
POLYLINE
 62
256
  8
SCAN
 66
1
 10
0.0
 20
0.0
 30
0.0
 70
9
  0
VERTEX
  8
SCAN
 10
177.875
 20
27.5
 30
0.0
  0
VERTEX
  8
SCAN
 10
178.125
 20
27.5
 30
0.0
  0
VERTEX
  8
SCAN
 10
178.125
 20
30.0
 30
0.0
  0
VERTEX
  8
SCAN
 10
177.875
 20
30.0
 30
0.0
  0
SEQEND
  0
POLYLINE
 62
256
  8
SCAN
 66
1
 10
0.0
 20
0.0
 30
0.0
 70
9
  0
VERTEX
  8
SCAN
 10
178.875
 20
27.5
 30
0.0
  0
VERTEX
  8
SCAN
 10
179.125
 20
27.5
 30
0.0
  0
VERTEX
  8
SCAN
 10
179.125
 20
30.0
 30
0.0
  0
VERTEX
  8
SCAN
 10
178.875
 20
30.0
 30
0.0
  0
SEQEND
  0
POLYLINE
 62
256
  8
SCAN
 66
1
 10
0.0
 20
0.0
 30
0.0
 70
9
  0
VERTEX
  8
SCAN
 10
179.875
 20
25.0
 30
0.0
  0
VERTEX
  8
SCAN
 10
180.125
 20
25.0
 30
0.0
  0
VERTEX
  8
SCAN
 10
180.125
 20
30.0
 30
0.0
  0
VERTEX
  8
SCAN
 10
179.875
 20
30.0
 30
0.0
  0
SEQEND
  0
POLYLINE
 62
256
  8
SCAN
 66
1
 10
0.0
 20
0.0
 30
0.0
 70
9
  0
VERTEX
  8
SCAN
 10
180.875
 20
27.5
 30
0.0
  0
VERTEX
  8
SCAN
 10
181.125
 20
27.5
 30
0.0
  0
VERTEX
  8
SCAN
 10
181.125
 20
30.0
 30
0.0
  0
VERTEX
  8
SCAN
 10
180.875
 20
30.0
 30
0.0
  0
SEQEND
  0
POLYLINE
 62
256
  8
SCAN
 66
1
 10
0.0
 20
0.0
 30
0.0
 70
9
  0
VERTEX
  8
SCAN
 10
181.875
 20
27.5
 30
0.0
  0
VERTEX
  8
SCAN
 10
182.125
 20
27.5
 30
0.0
  0
VERTEX
  8
SCAN
 10
182.125
 20
30.0
 30
0.0
  0
VERTEX
  8
SCAN
 10
181.875
 20
30.0
 30
0.0
  0
SEQEND
  0
POLYLINE
 62
256
  8
SCAN
 66
1
 10
0.0
 20
0.0
 30
0.0
 70
9
  0
VERTEX
  8
SCAN
 10
182.875
 20
27.5
 30
0.0
  0
VERTEX
  8
SCAN
 10
183.125
 20
27.5
 30
0.0
  0
VERTEX
  8
SCAN
 10
183.125
 20
30.0
 30
0.0
  0
VERTEX
  8
SCAN
 10
182.875
 20
30.0
 30
0.0
  0
SEQEND
  0
POLYLINE
 62
256
  8
SCAN
 66
1
 10
0.0
 20
0.0
 30
0.0
 70
9
  0
VERTEX
  8
SCAN
 10
183.875
 20
27.5
 30
0.0
  0
VERTEX
  8
SCAN
 10
184.125
 20
27.5
 30
0.0
  0
VERTEX
  8
SCAN
 10
184.125
 20
30.0
 30
0.0
  0
VERTEX
  8
SCAN
 10
183.875
 20
30.0
 30
0.0
  0
SEQEND
  0
TEXT
  8
SCAN
 10
183.875
 20
20.0
 30
0.0
 40
2.0
  1
18
 50
90.0
  0
POLYLINE
 62
256
  8
SCAN
 66
1
 10
0.0
 20
0.0
 30
0.0
 70
9
  0
VERTEX
  8
SCAN
 10
184.875
 20
20.0
 30
0.0
  0
VERTEX
  8
SCAN
 10
185.125
 20
20.0
 30
0.0
  0
VERTEX
  8
SCAN
 10
185.125
 20
30.0
 30
0.0
  0
VERTEX
  8
SCAN
 10
184.875
 20
30.0
 30
0.0
  0
SEQEND
  0
POLYLINE
 62
256
  8
SCAN
 66
1
 10
0.0
 20
0.0
 30
0.0
 70
9
  0
VERTEX
  8
SCAN
 10
185.875
 20
27.5
 30
0.0
  0
VERTEX
  8
SCAN
 10
186.125
 20
27.5
 30
0.0
  0
VERTEX
  8
SCAN
 10
186.125
 20
30.0
 30
0.0
  0
VERTEX
  8
SCAN
 10
185.875
 20
30.0
 30
0.0
  0
SEQEND
  0
POLYLINE
 62
256
  8
SCAN
 66
1
 10
0.0
 20
0.0
 30
0.0
 70
9
  0
VERTEX
  8
SCAN
 10
186.875
 20
27.5
 30
0.0
  0
VERTEX
  8
SCAN
 10
187.125
 20
27.5
 30
0.0
  0
VERTEX
  8
SCAN
 10
187.125
 20
30.0
 30
0.0
  0
VERTEX
  8
SCAN
 10
186.875
 20
30.0
 30
0.0
  0
SEQEND
  0
POLYLINE
 62
256
  8
SCAN
 66
1
 10
0.0
 20
0.0
 30
0.0
 70
9
  0
VERTEX
  8
SCAN
 10
187.875
 20
27.5
 30
0.0
  0
VERTEX
  8
SCAN
 10
188.125
 20
27.5
 30
0.0
  0
VERTEX
  8
SCAN
 10
188.125
 20
30.0
 30
0.0
  0
VERTEX
  8
SCAN
 10
187.875
 20
30.0
 30
0.0
  0
SEQEND
  0
POLYLINE
 62
256
  8
SCAN
 66
1
 10
0.0
 20
0.0
 30
0.0
 70
9
  0
VERTEX
  8
SCAN
 10
188.875
 20
27.5
 30
0.0
  0
VERTEX
  8
SCAN
 10
189.125
 20
27.5
 30
0.0
  0
VERTEX
  8
SCAN
 10
189.125
 20
30.0
 30
0.0
  0
VERTEX
  8
SCAN
 10
188.875
 20
30.0
 30
0.0
  0
SEQEND
  0
POLYLINE
 62
256
  8
SCAN
 66
1
 10
0.0
 20
0.0
 30
0.0
 70
9
  0
VERTEX
  8
SCAN
 10
189.875
 20
25.0
 30
0.0
  0
VERTEX
  8
SCAN
 10
190.125
 20
25.0
 30
0.0
  0
VERTEX
  8
SCAN
 10
190.125
 20
30.0
 30
0.0
  0
VERTEX
  8
SCAN
 10
189.875
 20
30.0
 30
0.0
  0
SEQEND
  0
POLYLINE
 62
256
  8
SCAN
 66
1
 10
0.0
 20
0.0
 30
0.0
 70
9
  0
VERTEX
  8
SCAN
 10
190.875
 20
27.5
 30
0.0
  0
VERTEX
  8
SCAN
 10
191.125
 20
27.5
 30
0.0
  0
VERTEX
  8
SCAN
 10
191.125
 20
30.0
 30
0.0
  0
VERTEX
  8
SCAN
 10
190.875
 20
30.0
 30
0.0
  0
SEQEND
  0
POLYLINE
 62
256
  8
SCAN
 66
1
 10
0.0
 20
0.0
 30
0.0
 70
9
  0
VERTEX
  8
SCAN
 10
191.875
 20
27.5
 30
0.0
  0
VERTEX
  8
SCAN
 10
192.125
 20
27.5
 30
0.0
  0
VERTEX
  8
SCAN
 10
192.125
 20
30.0
 30
0.0
  0
VERTEX
  8
SCAN
 10
191.875
 20
30.0
 30
0.0
  0
SEQEND
  0
POLYLINE
 62
256
  8
SCAN
 66
1
 10
0.0
 20
0.0
 30
0.0
 70
9
  0
VERTEX
  8
SCAN
 10
192.875
 20
27.5
 30
0.0
  0
VERTEX
  8
SCAN
 10
193.125
 20
27.5
 30
0.0
  0
VERTEX
  8
SCAN
 10
193.125
 20
30.0
 30
0.0
  0
VERTEX
  8
SCAN
 10
192.875
 20
30.0
 30
0.0
  0
SEQEND
  0
POLYLINE
 62
256
  8
SCAN
 66
1
 10
0.0
 20
0.0
 30
0.0
 70
9
  0
VERTEX
  8
SCAN
 10
193.875
 20
27.5
 30
0.0
  0
VERTEX
  8
SCAN
 10
194.125
 20
27.5
 30
0.0
  0
VERTEX
  8
SCAN
 10
194.125
 20
30.0
 30
0.0
  0
VERTEX
  8
SCAN
 10
193.875
 20
30.0
 30
0.0
  0
SEQEND
  0
TEXT
  8
SCAN
 10
193.875
 20
20.0
 30
0.0
 40
2.0
  1
19
 50
90.0
  0
POLYLINE
 62
256
  8
SCAN
 66
1
 10
0.0
 20
0.0
 30
0.0
 70
9
  0
VERTEX
  8
SCAN
 10
194.875
 20
20.0
 30
0.0
  0
VERTEX
  8
SCAN
 10
195.125
 20
20.0
 30
0.0
  0
VERTEX
  8
SCAN
 10
195.125
 20
30.0
 30
0.0
  0
VERTEX
  8
SCAN
 10
194.875
 20
30.0
 30
0.0
  0
SEQEND
  0
POLYLINE
 62
256
  8
SCAN
 66
1
 10
0.0
 20
0.0
 30
0.0
 70
9
  0
VERTEX
  8
SCAN
 10
195.875
 20
27.5
 30
0.0
  0
VERTEX
  8
SCAN
 10
196.125
 20
27.5
 30
0.0
  0
VERTEX
  8
SCAN
 10
196.125
 20
30.0
 30
0.0
  0
VERTEX
  8
SCAN
 10
195.875
 20
30.0
 30
0.0
  0
SEQEND
  0
POLYLINE
 62
256
  8
SCAN
 66
1
 10
0.0
 20
0.0
 30
0.0
 70
9
  0
VERTEX
  8
SCAN
 10
196.875
 20
27.5
 30
0.0
  0
VERTEX
  8
SCAN
 10
197.125
 20
27.5
 30
0.0
  0
VERTEX
  8
SCAN
 10
197.125
 20
30.0
 30
0.0
  0
VERTEX
  8
SCAN
 10
196.875
 20
30.0
 30
0.0
  0
SEQEND
  0
POLYLINE
 62
256
  8
SCAN
 66
1
 10
0.0
 20
0.0
 30
0.0
 70
9
  0
VERTEX
  8
SCAN
 10
197.875
 20
27.5
 30
0.0
  0
VERTEX
  8
SCAN
 10
198.125
 20
27.5
 30
0.0
  0
VERTEX
  8
SCAN
 10
198.125
 20
30.0
 30
0.0
  0
VERTEX
  8
SCAN
 10
197.875
 20
30.0
 30
0.0
  0
SEQEND
  0
POLYLINE
 62
256
  8
SCAN
 66
1
 10
0.0
 20
0.0
 30
0.0
 70
9
  0
VERTEX
  8
SCAN
 10
198.875
 20
27.5
 30
0.0
  0
VERTEX
  8
SCAN
 10
199.125
 20
27.5
 30
0.0
  0
VERTEX
  8
SCAN
 10
199.125
 20
30.0
 30
0.0
  0
VERTEX
  8
SCAN
 10
198.875
 20
30.0
 30
0.0
  0
SEQEND
  0
POLYLINE
 62
256
  8
SCAN
 66
1
 10
0.0
 20
0.0
 30
0.0
 70
9
  0
VERTEX
  8
SCAN
 10
199.875
 20
25.0
 30
0.0
  0
VERTEX
  8
SCAN
 10
200.125
 20
25.0
 30
0.0
  0
VERTEX
  8
SCAN
 10
200.125
 20
30.0
 30
0.0
  0
VERTEX
  8
SCAN
 10
199.875
 20
30.0
 30
0.0
  0
SEQEND
  0
POLYLINE
 62
256
  8
SCAN
 66
1
 10
0.0
 20
0.0
 30
0.0
 70
9
  0
VERTEX
  8
SCAN
 10
200.875
 20
27.5
 30
0.0
  0
VERTEX
  8
SCAN
 10
201.125
 20
27.5
 30
0.0
  0
VERTEX
  8
SCAN
 10
201.125
 20
30.0
 30
0.0
  0
VERTEX
  8
SCAN
 10
200.875
 20
30.0
 30
0.0
  0
SEQEND
  0
POLYLINE
 62
256
  8
SCAN
 66
1
 10
0.0
 20
0.0
 30
0.0
 70
9
  0
VERTEX
  8
SCAN
 10
201.875
 20
27.5
 30
0.0
  0
VERTEX
  8
SCAN
 10
202.125
 20
27.5
 30
0.0
  0
VERTEX
  8
SCAN
 10
202.125
 20
30.0
 30
0.0
  0
VERTEX
  8
SCAN
 10
201.875
 20
30.0
 30
0.0
  0
SEQEND
  0
POLYLINE
 62
256
  8
SCAN
 66
1
 10
0.0
 20
0.0
 30
0.0
 70
9
  0
VERTEX
  8
SCAN
 10
202.875
 20
27.5
 30
0.0
  0
VERTEX
  8
SCAN
 10
203.125
 20
27.5
 30
0.0
  0
VERTEX
  8
SCAN
 10
203.125
 20
30.0
 30
0.0
  0
VERTEX
  8
SCAN
 10
202.875
 20
30.0
 30
0.0
  0
SEQEND
  0
POLYLINE
 62
256
  8
SCAN
 66
1
 10
0.0
 20
0.0
 30
0.0
 70
9
  0
VERTEX
  8
SCAN
 10
203.875
 20
27.5
 30
0.0
  0
VERTEX
  8
SCAN
 10
204.125
 20
27.5
 30
0.0
  0
VERTEX
  8
SCAN
 10
204.125
 20
30.0
 30
0.0
  0
VERTEX
  8
SCAN
 10
203.875
 20
30.0
 30
0.0
  0
SEQEND
  0
TEXT
  8
SCAN
 10
203.875
 20
20.0
 30
0.0
 40
2.0
  1
20
 50
90.0
  0
POLYLINE
 62
256
  8
SCAN
 66
1
 10
0.0
 20
0.0
 30
0.0
 70
9
  0
VERTEX
  8
SCAN
 10
204.875
 20
20.0
 30
0.0
  0
VERTEX
  8
SCAN
 10
205.125
 20
20.0
 30
0.0
  0
VERTEX
  8
SCAN
 10
205.125
 20
30.0
 30
0.0
  0
VERTEX
  8
SCAN
 10
204.875
 20
30.0
 30
0.0
  0
SEQEND
  0
POLYLINE
 62
256
  8
SCAN
 66
1
 10
0.0
 20
0.0
 30
0.0
 70
9
  0
VERTEX
  8
SCAN
 10
205.875
 20
27.5
 30
0.0
  0
VERTEX
  8
SCAN
 10
206.125
 20
27.5
 30
0.0
  0
VERTEX
  8
SCAN
 10
206.125
 20
30.0
 30
0.0
  0
VERTEX
  8
SCAN
 10
205.875
 20
30.0
 30
0.0
  0
SEQEND
  0
POLYLINE
 62
256
  8
SCAN
 66
1
 10
0.0
 20
0.0
 30
0.0
 70
9
  0
VERTEX
  8
SCAN
 10
206.875
 20
27.5
 30
0.0
  0
VERTEX
  8
SCAN
 10
207.125
 20
27.5
 30
0.0
  0
VERTEX
  8
SCAN
 10
207.125
 20
30.0
 30
0.0
  0
VERTEX
  8
SCAN
 10
206.875
 20
30.0
 30
0.0
  0
SEQEND
  0
POLYLINE
 62
256
  8
SCAN
 66
1
 10
0.0
 20
0.0
 30
0.0
 70
9
  0
VERTEX
  8
SCAN
 10
207.875
 20
27.5
 30
0.0
  0
VERTEX
  8
SCAN
 10
208.125
 20
27.5
 30
0.0
  0
VERTEX
  8
SCAN
 10
208.125
 20
30.0
 30
0.0
  0
VERTEX
  8
SCAN
 10
207.875
 20
30.0
 30
0.0
  0
SEQEND
  0
POLYLINE
 62
256
  8
SCAN
 66
1
 10
0.0
 20
0.0
 30
0.0
 70
9
  0
VERTEX
  8
SCAN
 10
208.875
 20
27.5
 30
0.0
  0
VERTEX
  8
SCAN
 10
209.125
 20
27.5
 30
0.0
  0
VERTEX
  8
SCAN
 10
209.125
 20
30.0
 30
0.0
  0
VERTEX
  8
SCAN
 10
208.875
 20
30.0
 30
0.0
  0
SEQEND
  0
POLYLINE
 62
256
  8
SCAN
 66
1
 10
0.0
 20
0.0
 30
0.0
 70
9
  0
VERTEX
  8
SCAN
 10
209.875
 20
25.0
 30
0.0
  0
VERTEX
  8
SCAN
 10
210.125
 20
25.0
 30
0.0
  0
VERTEX
  8
SCAN
 10
210.125
 20
30.0
 30
0.0
  0
VERTEX
  8
SCAN
 10
209.875
 20
30.0
 30
0.0
  0
SEQEND
  0
POLYLINE
 62
256
  8
SCAN
 66
1
 10
0.0
 20
0.0
 30
0.0
 70
9
  0
VERTEX
  8
SCAN
 10
210.875
 20
27.5
 30
0.0
  0
VERTEX
  8
SCAN
 10
211.125
 20
27.5
 30
0.0
  0
VERTEX
  8
SCAN
 10
211.125
 20
30.0
 30
0.0
  0
VERTEX
  8
SCAN
 10
210.875
 20
30.0
 30
0.0
  0
SEQEND
  0
POLYLINE
 62
256
  8
SCAN
 66
1
 10
0.0
 20
0.0
 30
0.0
 70
9
  0
VERTEX
  8
SCAN
 10
211.875
 20
27.5
 30
0.0
  0
VERTEX
  8
SCAN
 10
212.125
 20
27.5
 30
0.0
  0
VERTEX
  8
SCAN
 10
212.125
 20
30.0
 30
0.0
  0
VERTEX
  8
SCAN
 10
211.875
 20
30.0
 30
0.0
  0
SEQEND
  0
POLYLINE
 62
256
  8
SCAN
 66
1
 10
0.0
 20
0.0
 30
0.0
 70
9
  0
VERTEX
  8
SCAN
 10
212.875
 20
27.5
 30
0.0
  0
VERTEX
  8
SCAN
 10
213.125
 20
27.5
 30
0.0
  0
VERTEX
  8
SCAN
 10
213.125
 20
30.0
 30
0.0
  0
VERTEX
  8
SCAN
 10
212.875
 20
30.0
 30
0.0
  0
SEQEND
  0
POLYLINE
 62
256
  8
SCAN
 66
1
 10
0.0
 20
0.0
 30
0.0
 70
9
  0
VERTEX
  8
SCAN
 10
213.875
 20
27.5
 30
0.0
  0
VERTEX
  8
SCAN
 10
214.125
 20
27.5
 30
0.0
  0
VERTEX
  8
SCAN
 10
214.125
 20
30.0
 30
0.0
  0
VERTEX
  8
SCAN
 10
213.875
 20
30.0
 30
0.0
  0
SEQEND
  0
TEXT
  8
SCAN
 10
213.875
 20
20.0
 30
0.0
 40
2.0
  1
21
 50
90.0
  0
POLYLINE
 62
256
  8
SCAN
 66
1
 10
0.0
 20
0.0
 30
0.0
 70
9
  0
VERTEX
  8
SCAN
 10
214.875
 20
20.0
 30
0.0
  0
VERTEX
  8
SCAN
 10
215.125
 20
20.0
 30
0.0
  0
VERTEX
  8
SCAN
 10
215.125
 20
30.0
 30
0.0
  0
VERTEX
  8
SCAN
 10
214.875
 20
30.0
 30
0.0
  0
SEQEND
  0
POLYLINE
 62
256
  8
SCAN
 66
1
 10
0.0
 20
0.0
 30
0.0
 70
9
  0
VERTEX
  8
SCAN
 10
215.875
 20
27.5
 30
0.0
  0
VERTEX
  8
SCAN
 10
216.125
 20
27.5
 30
0.0
  0
VERTEX
  8
SCAN
 10
216.125
 20
30.0
 30
0.0
  0
VERTEX
  8
SCAN
 10
215.875
 20
30.0
 30
0.0
  0
SEQEND
  0
POLYLINE
 62
256
  8
SCAN
 66
1
 10
0.0
 20
0.0
 30
0.0
 70
9
  0
VERTEX
  8
SCAN
 10
216.875
 20
27.5
 30
0.0
  0
VERTEX
  8
SCAN
 10
217.125
 20
27.5
 30
0.0
  0
VERTEX
  8
SCAN
 10
217.125
 20
30.0
 30
0.0
  0
VERTEX
  8
SCAN
 10
216.875
 20
30.0
 30
0.0
  0
SEQEND
  0
POLYLINE
 62
256
  8
SCAN
 66
1
 10
0.0
 20
0.0
 30
0.0
 70
9
  0
VERTEX
  8
SCAN
 10
217.875
 20
27.5
 30
0.0
  0
VERTEX
  8
SCAN
 10
218.125
 20
27.5
 30
0.0
  0
VERTEX
  8
SCAN
 10
218.125
 20
30.0
 30
0.0
  0
VERTEX
  8
SCAN
 10
217.875
 20
30.0
 30
0.0
  0
SEQEND
  0
POLYLINE
 62
256
  8
SCAN
 66
1
 10
0.0
 20
0.0
 30
0.0
 70
9
  0
VERTEX
  8
SCAN
 10
218.875
 20
27.5
 30
0.0
  0
VERTEX
  8
SCAN
 10
219.125
 20
27.5
 30
0.0
  0
VERTEX
  8
SCAN
 10
219.125
 20
30.0
 30
0.0
  0
VERTEX
  8
SCAN
 10
218.875
 20
30.0
 30
0.0
  0
SEQEND
  0
POLYLINE
 62
256
  8
SCAN
 66
1
 10
0.0
 20
0.0
 30
0.0
 70
9
  0
VERTEX
  8
SCAN
 10
219.875
 20
25.0
 30
0.0
  0
VERTEX
  8
SCAN
 10
220.125
 20
25.0
 30
0.0
  0
VERTEX
  8
SCAN
 10
220.125
 20
30.0
 30
0.0
  0
VERTEX
  8
SCAN
 10
219.875
 20
30.0
 30
0.0
  0
SEQEND
  0
POLYLINE
 62
256
  8
SCAN
 66
1
 10
0.0
 20
0.0
 30
0.0
 70
9
  0
VERTEX
  8
SCAN
 10
220.875
 20
27.5
 30
0.0
  0
VERTEX
  8
SCAN
 10
221.125
 20
27.5
 30
0.0
  0
VERTEX
  8
SCAN
 10
221.125
 20
30.0
 30
0.0
  0
VERTEX
  8
SCAN
 10
220.875
 20
30.0
 30
0.0
  0
SEQEND
  0
POLYLINE
 62
256
  8
SCAN
 66
1
 10
0.0
 20
0.0
 30
0.0
 70
9
  0
VERTEX
  8
SCAN
 10
221.875
 20
27.5
 30
0.0
  0
VERTEX
  8
SCAN
 10
222.125
 20
27.5
 30
0.0
  0
VERTEX
  8
SCAN
 10
222.125
 20
30.0
 30
0.0
  0
VERTEX
  8
SCAN
 10
221.875
 20
30.0
 30
0.0
  0
SEQEND
  0
POLYLINE
 62
256
  8
SCAN
 66
1
 10
0.0
 20
0.0
 30
0.0
 70
9
  0
VERTEX
  8
SCAN
 10
222.875
 20
27.5
 30
0.0
  0
VERTEX
  8
SCAN
 10
223.125
 20
27.5
 30
0.0
  0
VERTEX
  8
SCAN
 10
223.125
 20
30.0
 30
0.0
  0
VERTEX
  8
SCAN
 10
222.875
 20
30.0
 30
0.0
  0
SEQEND
  0
POLYLINE
 62
256
  8
SCAN
 66
1
 10
0.0
 20
0.0
 30
0.0
 70
9
  0
VERTEX
  8
SCAN
 10
223.875
 20
27.5
 30
0.0
  0
VERTEX
  8
SCAN
 10
224.125
 20
27.5
 30
0.0
  0
VERTEX
  8
SCAN
 10
224.125
 20
30.0
 30
0.0
  0
VERTEX
  8
SCAN
 10
223.875
 20
30.0
 30
0.0
  0
SEQEND
  0
TEXT
  8
SCAN
 10
223.875
 20
20.0
 30
0.0
 40
2.0
  1
22
 50
90.0
  0
POLYLINE
 62
256
  8
SCAN
 66
1
 10
0.0
 20
0.0
 30
0.0
 70
9
  0
VERTEX
  8
SCAN
 10
224.875
 20
20.0
 30
0.0
  0
VERTEX
  8
SCAN
 10
225.125
 20
20.0
 30
0.0
  0
VERTEX
  8
SCAN
 10
225.125
 20
30.0
 30
0.0
  0
VERTEX
  8
SCAN
 10
224.875
 20
30.0
 30
0.0
  0
SEQEND
  0
POLYLINE
 62
256
  8
SCAN
 66
1
 10
0.0
 20
0.0
 30
0.0
 70
9
  0
VERTEX
  8
SCAN
 10
225.875
 20
27.5
 30
0.0
  0
VERTEX
  8
SCAN
 10
226.125
 20
27.5
 30
0.0
  0
VERTEX
  8
SCAN
 10
226.125
 20
30.0
 30
0.0
  0
VERTEX
  8
SCAN
 10
225.875
 20
30.0
 30
0.0
  0
SEQEND
  0
POLYLINE
 62
256
  8
SCAN
 66
1
 10
0.0
 20
0.0
 30
0.0
 70
9
  0
VERTEX
  8
SCAN
 10
226.875
 20
27.5
 30
0.0
  0
VERTEX
  8
SCAN
 10
227.125
 20
27.5
 30
0.0
  0
VERTEX
  8
SCAN
 10
227.125
 20
30.0
 30
0.0
  0
VERTEX
  8
SCAN
 10
226.875
 20
30.0
 30
0.0
  0
SEQEND
  0
POLYLINE
 62
256
  8
SCAN
 66
1
 10
0.0
 20
0.0
 30
0.0
 70
9
  0
VERTEX
  8
SCAN
 10
227.875
 20
27.5
 30
0.0
  0
VERTEX
  8
SCAN
 10
228.125
 20
27.5
 30
0.0
  0
VERTEX
  8
SCAN
 10
228.125
 20
30.0
 30
0.0
  0
VERTEX
  8
SCAN
 10
227.875
 20
30.0
 30
0.0
  0
SEQEND
  0
POLYLINE
 62
256
  8
SCAN
 66
1
 10
0.0
 20
0.0
 30
0.0
 70
9
  0
VERTEX
  8
SCAN
 10
228.875
 20
27.5
 30
0.0
  0
VERTEX
  8
SCAN
 10
229.125
 20
27.5
 30
0.0
  0
VERTEX
  8
SCAN
 10
229.125
 20
30.0
 30
0.0
  0
VERTEX
  8
SCAN
 10
228.875
 20
30.0
 30
0.0
  0
SEQEND
  0
POLYLINE
 62
256
  8
SCAN
 66
1
 10
0.0
 20
0.0
 30
0.0
 70
9
  0
VERTEX
  8
SCAN
 10
229.875
 20
25.0
 30
0.0
  0
VERTEX
  8
SCAN
 10
230.125
 20
25.0
 30
0.0
  0
VERTEX
  8
SCAN
 10
230.125
 20
30.0
 30
0.0
  0
VERTEX
  8
SCAN
 10
229.875
 20
30.0
 30
0.0
  0
SEQEND
  0
POLYLINE
 62
256
  8
SCAN
 66
1
 10
0.0
 20
0.0
 30
0.0
 70
9
  0
VERTEX
  8
SCAN
 10
230.875
 20
27.5
 30
0.0
  0
VERTEX
  8
SCAN
 10
231.125
 20
27.5
 30
0.0
  0
VERTEX
  8
SCAN
 10
231.125
 20
30.0
 30
0.0
  0
VERTEX
  8
SCAN
 10
230.875
 20
30.0
 30
0.0
  0
SEQEND
  0
POLYLINE
 62
256
  8
SCAN
 66
1
 10
0.0
 20
0.0
 30
0.0
 70
9
  0
VERTEX
  8
SCAN
 10
231.875
 20
27.5
 30
0.0
  0
VERTEX
  8
SCAN
 10
232.125
 20
27.5
 30
0.0
  0
VERTEX
  8
SCAN
 10
232.125
 20
30.0
 30
0.0
  0
VERTEX
  8
SCAN
 10
231.875
 20
30.0
 30
0.0
  0
SEQEND
  0
POLYLINE
 62
256
  8
SCAN
 66
1
 10
0.0
 20
0.0
 30
0.0
 70
9
  0
VERTEX
  8
SCAN
 10
232.875
 20
27.5
 30
0.0
  0
VERTEX
  8
SCAN
 10
233.125
 20
27.5
 30
0.0
  0
VERTEX
  8
SCAN
 10
233.125
 20
30.0
 30
0.0
  0
VERTEX
  8
SCAN
 10
232.875
 20
30.0
 30
0.0
  0
SEQEND
  0
POLYLINE
 62
256
  8
SCAN
 66
1
 10
0.0
 20
0.0
 30
0.0
 70
9
  0
VERTEX
  8
SCAN
 10
233.875
 20
27.5
 30
0.0
  0
VERTEX
  8
SCAN
 10
234.125
 20
27.5
 30
0.0
  0
VERTEX
  8
SCAN
 10
234.125
 20
30.0
 30
0.0
  0
VERTEX
  8
SCAN
 10
233.875
 20
30.0
 30
0.0
  0
SEQEND
  0
TEXT
  8
SCAN
 10
233.875
 20
20.0
 30
0.0
 40
2.0
  1
23
 50
90.0
  0
POLYLINE
 62
256
  8
SCAN
 66
1
 10
0.0
 20
0.0
 30
0.0
 70
9
  0
VERTEX
  8
SCAN
 10
234.875
 20
20.0
 30
0.0
  0
VERTEX
  8
SCAN
 10
235.125
 20
20.0
 30
0.0
  0
VERTEX
  8
SCAN
 10
235.125
 20
30.0
 30
0.0
  0
VERTEX
  8
SCAN
 10
234.875
 20
30.0
 30
0.0
  0
SEQEND
  0
POLYLINE
 62
256
  8
SCAN
 66
1
 10
0.0
 20
0.0
 30
0.0
 70
9
  0
VERTEX
  8
SCAN
 10
235.875
 20
27.5
 30
0.0
  0
VERTEX
  8
SCAN
 10
236.125
 20
27.5
 30
0.0
  0
VERTEX
  8
SCAN
 10
236.125
 20
30.0
 30
0.0
  0
VERTEX
  8
SCAN
 10
235.875
 20
30.0
 30
0.0
  0
SEQEND
  0
POLYLINE
 62
256
  8
SCAN
 66
1
 10
0.0
 20
0.0
 30
0.0
 70
9
  0
VERTEX
  8
SCAN
 10
236.875
 20
27.5
 30
0.0
  0
VERTEX
  8
SCAN
 10
237.125
 20
27.5
 30
0.0
  0
VERTEX
  8
SCAN
 10
237.125
 20
30.0
 30
0.0
  0
VERTEX
  8
SCAN
 10
236.875
 20
30.0
 30
0.0
  0
SEQEND
  0
POLYLINE
 62
256
  8
SCAN
 66
1
 10
0.0
 20
0.0
 30
0.0
 70
9
  0
VERTEX
  8
SCAN
 10
237.875
 20
27.5
 30
0.0
  0
VERTEX
  8
SCAN
 10
238.125
 20
27.5
 30
0.0
  0
VERTEX
  8
SCAN
 10
238.125
 20
30.0
 30
0.0
  0
VERTEX
  8
SCAN
 10
237.875
 20
30.0
 30
0.0
  0
SEQEND
  0
POLYLINE
 62
256
  8
SCAN
 66
1
 10
0.0
 20
0.0
 30
0.0
 70
9
  0
VERTEX
  8
SCAN
 10
238.875
 20
27.5
 30
0.0
  0
VERTEX
  8
SCAN
 10
239.125
 20
27.5
 30
0.0
  0
VERTEX
  8
SCAN
 10
239.125
 20
30.0
 30
0.0
  0
VERTEX
  8
SCAN
 10
238.875
 20
30.0
 30
0.0
  0
SEQEND
  0
POLYLINE
 62
256
  8
SCAN
 66
1
 10
0.0
 20
0.0
 30
0.0
 70
9
  0
VERTEX
  8
SCAN
 10
239.875
 20
25.0
 30
0.0
  0
VERTEX
  8
SCAN
 10
240.125
 20
25.0
 30
0.0
  0
VERTEX
  8
SCAN
 10
240.125
 20
30.0
 30
0.0
  0
VERTEX
  8
SCAN
 10
239.875
 20
30.0
 30
0.0
  0
SEQEND
  0
POLYLINE
 62
256
  8
SCAN
 66
1
 10
0.0
 20
0.0
 30
0.0
 70
9
  0
VERTEX
  8
SCAN
 10
240.875
 20
27.5
 30
0.0
  0
VERTEX
  8
SCAN
 10
241.125
 20
27.5
 30
0.0
  0
VERTEX
  8
SCAN
 10
241.125
 20
30.0
 30
0.0
  0
VERTEX
  8
SCAN
 10
240.875
 20
30.0
 30
0.0
  0
SEQEND
  0
POLYLINE
 62
256
  8
SCAN
 66
1
 10
0.0
 20
0.0
 30
0.0
 70
9
  0
VERTEX
  8
SCAN
 10
241.875
 20
27.5
 30
0.0
  0
VERTEX
  8
SCAN
 10
242.125
 20
27.5
 30
0.0
  0
VERTEX
  8
SCAN
 10
242.125
 20
30.0
 30
0.0
  0
VERTEX
  8
SCAN
 10
241.875
 20
30.0
 30
0.0
  0
SEQEND
  0
POLYLINE
 62
256
  8
SCAN
 66
1
 10
0.0
 20
0.0
 30
0.0
 70
9
  0
VERTEX
  8
SCAN
 10
242.875
 20
27.5
 30
0.0
  0
VERTEX
  8
SCAN
 10
243.125
 20
27.5
 30
0.0
  0
VERTEX
  8
SCAN
 10
243.125
 20
30.0
 30
0.0
  0
VERTEX
  8
SCAN
 10
242.875
 20
30.0
 30
0.0
  0
SEQEND
  0
POLYLINE
 62
256
  8
SCAN
 66
1
 10
0.0
 20
0.0
 30
0.0
 70
9
  0
VERTEX
  8
SCAN
 10
243.875
 20
27.5
 30
0.0
  0
VERTEX
  8
SCAN
 10
244.125
 20
27.5
 30
0.0
  0
VERTEX
  8
SCAN
 10
244.125
 20
30.0
 30
0.0
  0
VERTEX
  8
SCAN
 10
243.875
 20
30.0
 30
0.0
  0
SEQEND
  0
TEXT
  8
SCAN
 10
243.875
 20
20.0
 30
0.0
 40
2.0
  1
24
 50
90.0
  0
POLYLINE
 62
256
  8
SCAN
 66
1
 10
0.0
 20
0.0
 30
0.0
 70
9
  0
VERTEX
  8
SCAN
 10
244.875
 20
20.0
 30
0.0
  0
VERTEX
  8
SCAN
 10
245.125
 20
20.0
 30
0.0
  0
VERTEX
  8
SCAN
 10
245.125
 20
30.0
 30
0.0
  0
VERTEX
  8
SCAN
 10
244.875
 20
30.0
 30
0.0
  0
SEQEND
  0
POLYLINE
 62
256
  8
SCAN
 66
1
 10
0.0
 20
0.0
 30
0.0
 70
9
  0
VERTEX
  8
SCAN
 10
245.875
 20
27.5
 30
0.0
  0
VERTEX
  8
SCAN
 10
246.125
 20
27.5
 30
0.0
  0
VERTEX
  8
SCAN
 10
246.125
 20
30.0
 30
0.0
  0
VERTEX
  8
SCAN
 10
245.875
 20
30.0
 30
0.0
  0
SEQEND
  0
POLYLINE
 62
256
  8
SCAN
 66
1
 10
0.0
 20
0.0
 30
0.0
 70
9
  0
VERTEX
  8
SCAN
 10
246.875
 20
27.5
 30
0.0
  0
VERTEX
  8
SCAN
 10
247.125
 20
27.5
 30
0.0
  0
VERTEX
  8
SCAN
 10
247.125
 20
30.0
 30
0.0
  0
VERTEX
  8
SCAN
 10
246.875
 20
30.0
 30
0.0
  0
SEQEND
  0
POLYLINE
 62
256
  8
SCAN
 66
1
 10
0.0
 20
0.0
 30
0.0
 70
9
  0
VERTEX
  8
SCAN
 10
247.875
 20
27.5
 30
0.0
  0
VERTEX
  8
SCAN
 10
248.125
 20
27.5
 30
0.0
  0
VERTEX
  8
SCAN
 10
248.125
 20
30.0
 30
0.0
  0
VERTEX
  8
SCAN
 10
247.875
 20
30.0
 30
0.0
  0
SEQEND
  0
POLYLINE
 62
256
  8
SCAN
 66
1
 10
0.0
 20
0.0
 30
0.0
 70
9
  0
VERTEX
  8
SCAN
 10
248.875
 20
27.5
 30
0.0
  0
VERTEX
  8
SCAN
 10
249.125
 20
27.5
 30
0.0
  0
VERTEX
  8
SCAN
 10
249.125
 20
30.0
 30
0.0
  0
VERTEX
  8
SCAN
 10
248.875
 20
30.0
 30
0.0
  0
SEQEND
  0
POLYLINE
 62
256
  8
SCAN
 66
1
 10
0.0
 20
0.0
 30
0.0
 70
9
  0
VERTEX
  8
SCAN
 10
249.875
 20
25.0
 30
0.0
  0
VERTEX
  8
SCAN
 10
250.125
 20
25.0
 30
0.0
  0
VERTEX
  8
SCAN
 10
250.125
 20
30.0
 30
0.0
  0
VERTEX
  8
SCAN
 10
249.875
 20
30.0
 30
0.0
  0
SEQEND
  0
POLYLINE
 62
256
  8
SCAN
 66
1
 10
0.0
 20
0.0
 30
0.0
 70
9
  0
VERTEX
  8
SCAN
 10
250.875
 20
27.5
 30
0.0
  0
VERTEX
  8
SCAN
 10
251.125
 20
27.5
 30
0.0
  0
VERTEX
  8
SCAN
 10
251.125
 20
30.0
 30
0.0
  0
VERTEX
  8
SCAN
 10
250.875
 20
30.0
 30
0.0
  0
SEQEND
  0
POLYLINE
 62
256
  8
SCAN
 66
1
 10
0.0
 20
0.0
 30
0.0
 70
9
  0
VERTEX
  8
SCAN
 10
251.875
 20
27.5
 30
0.0
  0
VERTEX
  8
SCAN
 10
252.125
 20
27.5
 30
0.0
  0
VERTEX
  8
SCAN
 10
252.125
 20
30.0
 30
0.0
  0
VERTEX
  8
SCAN
 10
251.875
 20
30.0
 30
0.0
  0
SEQEND
  0
POLYLINE
 62
256
  8
SCAN
 66
1
 10
0.0
 20
0.0
 30
0.0
 70
9
  0
VERTEX
  8
SCAN
 10
252.875
 20
27.5
 30
0.0
  0
VERTEX
  8
SCAN
 10
253.125
 20
27.5
 30
0.0
  0
VERTEX
  8
SCAN
 10
253.125
 20
30.0
 30
0.0
  0
VERTEX
  8
SCAN
 10
252.875
 20
30.0
 30
0.0
  0
SEQEND
  0
POLYLINE
 62
256
  8
SCAN
 66
1
 10
0.0
 20
0.0
 30
0.0
 70
9
  0
VERTEX
  8
SCAN
 10
253.875
 20
27.5
 30
0.0
  0
VERTEX
  8
SCAN
 10
254.125
 20
27.5
 30
0.0
  0
VERTEX
  8
SCAN
 10
254.125
 20
30.0
 30
0.0
  0
VERTEX
  8
SCAN
 10
253.875
 20
30.0
 30
0.0
  0
SEQEND
  0
TEXT
  8
SCAN
 10
253.875
 20
20.0
 30
0.0
 40
2.0
  1
25
 50
90.0
  0
POLYLINE
 62
256
  8
SCAN
 66
1
 10
0.0
 20
0.0
 30
0.0
 70
9
  0
VERTEX
  8
SCAN
 10
254.875
 20
20.0
 30
0.0
  0
VERTEX
  8
SCAN
 10
255.125
 20
20.0
 30
0.0
  0
VERTEX
  8
SCAN
 10
255.125
 20
30.0
 30
0.0
  0
VERTEX
  8
SCAN
 10
254.875
 20
30.0
 30
0.0
  0
SEQEND
  0
POLYLINE
 62
256
  8
SCAN
 66
1
 10
0.0
 20
0.0
 30
0.0
 70
9
  0
VERTEX
  8
SCAN
 10
255.875
 20
27.5
 30
0.0
  0
VERTEX
  8
SCAN
 10
256.125
 20
27.5
 30
0.0
  0
VERTEX
  8
SCAN
 10
256.125
 20
30.0
 30
0.0
  0
VERTEX
  8
SCAN
 10
255.875
 20
30.0
 30
0.0
  0
SEQEND
  0
POLYLINE
 62
256
  8
SCAN
 66
1
 10
0.0
 20
0.0
 30
0.0
 70
9
  0
VERTEX
  8
SCAN
 10
256.875
 20
27.5
 30
0.0
  0
VERTEX
  8
SCAN
 10
257.125
 20
27.5
 30
0.0
  0
VERTEX
  8
SCAN
 10
257.125
 20
30.0
 30
0.0
  0
VERTEX
  8
SCAN
 10
256.875
 20
30.0
 30
0.0
  0
SEQEND
  0
POLYLINE
 62
256
  8
SCAN
 66
1
 10
0.0
 20
0.0
 30
0.0
 70
9
  0
VERTEX
  8
SCAN
 10
257.875
 20
27.5
 30
0.0
  0
VERTEX
  8
SCAN
 10
258.125
 20
27.5
 30
0.0
  0
VERTEX
  8
SCAN
 10
258.125
 20
30.0
 30
0.0
  0
VERTEX
  8
SCAN
 10
257.875
 20
30.0
 30
0.0
  0
SEQEND
  0
POLYLINE
 62
256
  8
SCAN
 66
1
 10
0.0
 20
0.0
 30
0.0
 70
9
  0
VERTEX
  8
SCAN
 10
258.875
 20
27.5
 30
0.0
  0
VERTEX
  8
SCAN
 10
259.125
 20
27.5
 30
0.0
  0
VERTEX
  8
SCAN
 10
259.125
 20
30.0
 30
0.0
  0
VERTEX
  8
SCAN
 10
258.875
 20
30.0
 30
0.0
  0
SEQEND
  0
POLYLINE
 62
256
  8
SCAN
 66
1
 10
0.0
 20
0.0
 30
0.0
 70
9
  0
VERTEX
  8
SCAN
 10
259.875
 20
25.0
 30
0.0
  0
VERTEX
  8
SCAN
 10
260.125
 20
25.0
 30
0.0
  0
VERTEX
  8
SCAN
 10
260.125
 20
30.0
 30
0.0
  0
VERTEX
  8
SCAN
 10
259.875
 20
30.0
 30
0.0
  0
SEQEND
  0
POLYLINE
 62
256
  8
SCAN
 66
1
 10
0.0
 20
0.0
 30
0.0
 70
9
  0
VERTEX
  8
SCAN
 10
260.875
 20
27.5
 30
0.0
  0
VERTEX
  8
SCAN
 10
261.125
 20
27.5
 30
0.0
  0
VERTEX
  8
SCAN
 10
261.125
 20
30.0
 30
0.0
  0
VERTEX
  8
SCAN
 10
260.875
 20
30.0
 30
0.0
  0
SEQEND
  0
POLYLINE
 62
256
  8
SCAN
 66
1
 10
0.0
 20
0.0
 30
0.0
 70
9
  0
VERTEX
  8
SCAN
 10
261.875
 20
27.5
 30
0.0
  0
VERTEX
  8
SCAN
 10
262.125
 20
27.5
 30
0.0
  0
VERTEX
  8
SCAN
 10
262.125
 20
30.0
 30
0.0
  0
VERTEX
  8
SCAN
 10
261.875
 20
30.0
 30
0.0
  0
SEQEND
  0
POLYLINE
 62
256
  8
SCAN
 66
1
 10
0.0
 20
0.0
 30
0.0
 70
9
  0
VERTEX
  8
SCAN
 10
262.875
 20
27.5
 30
0.0
  0
VERTEX
  8
SCAN
 10
263.125
 20
27.5
 30
0.0
  0
VERTEX
  8
SCAN
 10
263.125
 20
30.0
 30
0.0
  0
VERTEX
  8
SCAN
 10
262.875
 20
30.0
 30
0.0
  0
SEQEND
  0
POLYLINE
 62
256
  8
SCAN
 66
1
 10
0.0
 20
0.0
 30
0.0
 70
9
  0
VERTEX
  8
SCAN
 10
263.875
 20
27.5
 30
0.0
  0
VERTEX
  8
SCAN
 10
264.125
 20
27.5
 30
0.0
  0
VERTEX
  8
SCAN
 10
264.125
 20
30.0
 30
0.0
  0
VERTEX
  8
SCAN
 10
263.875
 20
30.0
 30
0.0
  0
SEQEND
  0
TEXT
  8
SCAN
 10
263.875
 20
20.0
 30
0.0
 40
2.0
  1
26
 50
90.0
  0
POLYLINE
 62
256
  8
SCAN
 66
1
 10
0.0
 20
0.0
 30
0.0
 70
9
  0
VERTEX
  8
SCAN
 10
264.875
 20
20.0
 30
0.0
  0
VERTEX
  8
SCAN
 10
265.125
 20
20.0
 30
0.0
  0
VERTEX
  8
SCAN
 10
265.125
 20
30.0
 30
0.0
  0
VERTEX
  8
SCAN
 10
264.875
 20
30.0
 30
0.0
  0
SEQEND
  0
POLYLINE
 62
256
  8
SCAN
 66
1
 10
0.0
 20
0.0
 30
0.0
 70
9
  0
VERTEX
  8
SCAN
 10
265.875
 20
27.5
 30
0.0
  0
VERTEX
  8
SCAN
 10
266.125
 20
27.5
 30
0.0
  0
VERTEX
  8
SCAN
 10
266.125
 20
30.0
 30
0.0
  0
VERTEX
  8
SCAN
 10
265.875
 20
30.0
 30
0.0
  0
SEQEND
  0
POLYLINE
 62
256
  8
SCAN
 66
1
 10
0.0
 20
0.0
 30
0.0
 70
9
  0
VERTEX
  8
SCAN
 10
266.875
 20
27.5
 30
0.0
  0
VERTEX
  8
SCAN
 10
267.125
 20
27.5
 30
0.0
  0
VERTEX
  8
SCAN
 10
267.125
 20
30.0
 30
0.0
  0
VERTEX
  8
SCAN
 10
266.875
 20
30.0
 30
0.0
  0
SEQEND
  0
POLYLINE
 62
256
  8
SCAN
 66
1
 10
0.0
 20
0.0
 30
0.0
 70
9
  0
VERTEX
  8
SCAN
 10
267.875
 20
27.5
 30
0.0
  0
VERTEX
  8
SCAN
 10
268.125
 20
27.5
 30
0.0
  0
VERTEX
  8
SCAN
 10
268.125
 20
30.0
 30
0.0
  0
VERTEX
  8
SCAN
 10
267.875
 20
30.0
 30
0.0
  0
SEQEND
  0
POLYLINE
 62
256
  8
SCAN
 66
1
 10
0.0
 20
0.0
 30
0.0
 70
9
  0
VERTEX
  8
SCAN
 10
268.875
 20
27.5
 30
0.0
  0
VERTEX
  8
SCAN
 10
269.125
 20
27.5
 30
0.0
  0
VERTEX
  8
SCAN
 10
269.125
 20
30.0
 30
0.0
  0
VERTEX
  8
SCAN
 10
268.875
 20
30.0
 30
0.0
  0
SEQEND
  0
POLYLINE
 62
256
  8
SCAN
 66
1
 10
0.0
 20
0.0
 30
0.0
 70
9
  0
VERTEX
  8
SCAN
 10
269.875
 20
25.0
 30
0.0
  0
VERTEX
  8
SCAN
 10
270.125
 20
25.0
 30
0.0
  0
VERTEX
  8
SCAN
 10
270.125
 20
30.0
 30
0.0
  0
VERTEX
  8
SCAN
 10
269.875
 20
30.0
 30
0.0
  0
SEQEND
  0
POLYLINE
 62
256
  8
SCAN
 66
1
 10
0.0
 20
0.0
 30
0.0
 70
9
  0
VERTEX
  8
SCAN
 10
270.875
 20
27.5
 30
0.0
  0
VERTEX
  8
SCAN
 10
271.125
 20
27.5
 30
0.0
  0
VERTEX
  8
SCAN
 10
271.125
 20
30.0
 30
0.0
  0
VERTEX
  8
SCAN
 10
270.875
 20
30.0
 30
0.0
  0
SEQEND
  0
POLYLINE
 62
256
  8
SCAN
 66
1
 10
0.0
 20
0.0
 30
0.0
 70
9
  0
VERTEX
  8
SCAN
 10
271.875
 20
27.5
 30
0.0
  0
VERTEX
  8
SCAN
 10
272.125
 20
27.5
 30
0.0
  0
VERTEX
  8
SCAN
 10
272.125
 20
30.0
 30
0.0
  0
VERTEX
  8
SCAN
 10
271.875
 20
30.0
 30
0.0
  0
SEQEND
  0
POLYLINE
 62
256
  8
SCAN
 66
1
 10
0.0
 20
0.0
 30
0.0
 70
9
  0
VERTEX
  8
SCAN
 10
272.875
 20
27.5
 30
0.0
  0
VERTEX
  8
SCAN
 10
273.125
 20
27.5
 30
0.0
  0
VERTEX
  8
SCAN
 10
273.125
 20
30.0
 30
0.0
  0
VERTEX
  8
SCAN
 10
272.875
 20
30.0
 30
0.0
  0
SEQEND
  0
POLYLINE
 62
256
  8
SCAN
 66
1
 10
0.0
 20
0.0
 30
0.0
 70
9
  0
VERTEX
  8
SCAN
 10
273.875
 20
27.5
 30
0.0
  0
VERTEX
  8
SCAN
 10
274.125
 20
27.5
 30
0.0
  0
VERTEX
  8
SCAN
 10
274.125
 20
30.0
 30
0.0
  0
VERTEX
  8
SCAN
 10
273.875
 20
30.0
 30
0.0
  0
SEQEND
  0
TEXT
  8
SCAN
 10
273.875
 20
20.0
 30
0.0
 40
2.0
  1
27
 50
90.0
  0
POLYLINE
 62
256
  8
SCAN
 66
1
 10
0.0
 20
0.0
 30
0.0
 70
9
  0
VERTEX
  8
SCAN
 10
274.875
 20
20.0
 30
0.0
  0
VERTEX
  8
SCAN
 10
275.125
 20
20.0
 30
0.0
  0
VERTEX
  8
SCAN
 10
275.125
 20
30.0
 30
0.0
  0
VERTEX
  8
SCAN
 10
274.875
 20
30.0
 30
0.0
  0
SEQEND
  0
POLYLINE
 62
256
  8
SCAN
 66
1
 10
0.0
 20
0.0
 30
0.0
 70
9
  0
VERTEX
  8
SCAN
 10
275.875
 20
27.5
 30
0.0
  0
VERTEX
  8
SCAN
 10
276.125
 20
27.5
 30
0.0
  0
VERTEX
  8
SCAN
 10
276.125
 20
30.0
 30
0.0
  0
VERTEX
  8
SCAN
 10
275.875
 20
30.0
 30
0.0
  0
SEQEND
  0
POLYLINE
 62
256
  8
SCAN
 66
1
 10
0.0
 20
0.0
 30
0.0
 70
9
  0
VERTEX
  8
SCAN
 10
276.875
 20
27.5
 30
0.0
  0
VERTEX
  8
SCAN
 10
277.125
 20
27.5
 30
0.0
  0
VERTEX
  8
SCAN
 10
277.125
 20
30.0
 30
0.0
  0
VERTEX
  8
SCAN
 10
276.875
 20
30.0
 30
0.0
  0
SEQEND
  0
POLYLINE
 62
256
  8
SCAN
 66
1
 10
0.0
 20
0.0
 30
0.0
 70
9
  0
VERTEX
  8
SCAN
 10
277.875
 20
27.5
 30
0.0
  0
VERTEX
  8
SCAN
 10
278.125
 20
27.5
 30
0.0
  0
VERTEX
  8
SCAN
 10
278.125
 20
30.0
 30
0.0
  0
VERTEX
  8
SCAN
 10
277.875
 20
30.0
 30
0.0
  0
SEQEND
  0
POLYLINE
 62
256
  8
SCAN
 66
1
 10
0.0
 20
0.0
 30
0.0
 70
9
  0
VERTEX
  8
SCAN
 10
278.875
 20
27.5
 30
0.0
  0
VERTEX
  8
SCAN
 10
279.125
 20
27.5
 30
0.0
  0
VERTEX
  8
SCAN
 10
279.125
 20
30.0
 30
0.0
  0
VERTEX
  8
SCAN
 10
278.875
 20
30.0
 30
0.0
  0
SEQEND
  0
POLYLINE
 62
256
  8
SCAN
 66
1
 10
0.0
 20
0.0
 30
0.0
 70
9
  0
VERTEX
  8
SCAN
 10
279.875
 20
25.0
 30
0.0
  0
VERTEX
  8
SCAN
 10
280.125
 20
25.0
 30
0.0
  0
VERTEX
  8
SCAN
 10
280.125
 20
30.0
 30
0.0
  0
VERTEX
  8
SCAN
 10
279.875
 20
30.0
 30
0.0
  0
SEQEND
  0
POLYLINE
 62
256
  8
SCAN
 66
1
 10
0.0
 20
0.0
 30
0.0
 70
9
  0
VERTEX
  8
SCAN
 10
280.875
 20
27.5
 30
0.0
  0
VERTEX
  8
SCAN
 10
281.125
 20
27.5
 30
0.0
  0
VERTEX
  8
SCAN
 10
281.125
 20
30.0
 30
0.0
  0
VERTEX
  8
SCAN
 10
280.875
 20
30.0
 30
0.0
  0
SEQEND
  0
POLYLINE
 62
256
  8
SCAN
 66
1
 10
0.0
 20
0.0
 30
0.0
 70
9
  0
VERTEX
  8
SCAN
 10
281.875
 20
27.5
 30
0.0
  0
VERTEX
  8
SCAN
 10
282.125
 20
27.5
 30
0.0
  0
VERTEX
  8
SCAN
 10
282.125
 20
30.0
 30
0.0
  0
VERTEX
  8
SCAN
 10
281.875
 20
30.0
 30
0.0
  0
SEQEND
  0
POLYLINE
 62
256
  8
SCAN
 66
1
 10
0.0
 20
0.0
 30
0.0
 70
9
  0
VERTEX
  8
SCAN
 10
282.875
 20
27.5
 30
0.0
  0
VERTEX
  8
SCAN
 10
283.125
 20
27.5
 30
0.0
  0
VERTEX
  8
SCAN
 10
283.125
 20
30.0
 30
0.0
  0
VERTEX
  8
SCAN
 10
282.875
 20
30.0
 30
0.0
  0
SEQEND
  0
POLYLINE
 62
256
  8
SCAN
 66
1
 10
0.0
 20
0.0
 30
0.0
 70
9
  0
VERTEX
  8
SCAN
 10
283.875
 20
27.5
 30
0.0
  0
VERTEX
  8
SCAN
 10
284.125
 20
27.5
 30
0.0
  0
VERTEX
  8
SCAN
 10
284.125
 20
30.0
 30
0.0
  0
VERTEX
  8
SCAN
 10
283.875
 20
30.0
 30
0.0
  0
SEQEND
  0
TEXT
  8
SCAN
 10
283.875
 20
20.0
 30
0.0
 40
2.0
  1
28
 50
90.0
  0
POLYLINE
 62
256
  8
SCAN
 66
1
 10
0.0
 20
0.0
 30
0.0
 70
9
  0
VERTEX
  8
SCAN
 10
284.875
 20
20.0
 30
0.0
  0
VERTEX
  8
SCAN
 10
285.125
 20
20.0
 30
0.0
  0
VERTEX
  8
SCAN
 10
285.125
 20
30.0
 30
0.0
  0
VERTEX
  8
SCAN
 10
284.875
 20
30.0
 30
0.0
  0
SEQEND
  0
POLYLINE
 62
256
  8
SCAN
 66
1
 10
0.0
 20
0.0
 30
0.0
 70
9
  0
VERTEX
  8
SCAN
 10
285.875
 20
27.5
 30
0.0
  0
VERTEX
  8
SCAN
 10
286.125
 20
27.5
 30
0.0
  0
VERTEX
  8
SCAN
 10
286.125
 20
30.0
 30
0.0
  0
VERTEX
  8
SCAN
 10
285.875
 20
30.0
 30
0.0
  0
SEQEND
  0
POLYLINE
 62
256
  8
SCAN
 66
1
 10
0.0
 20
0.0
 30
0.0
 70
9
  0
VERTEX
  8
SCAN
 10
286.875
 20
27.5
 30
0.0
  0
VERTEX
  8
SCAN
 10
287.125
 20
27.5
 30
0.0
  0
VERTEX
  8
SCAN
 10
287.125
 20
30.0
 30
0.0
  0
VERTEX
  8
SCAN
 10
286.875
 20
30.0
 30
0.0
  0
SEQEND
  0
POLYLINE
 62
256
  8
SCAN
 66
1
 10
0.0
 20
0.0
 30
0.0
 70
9
  0
VERTEX
  8
SCAN
 10
287.875
 20
27.5
 30
0.0
  0
VERTEX
  8
SCAN
 10
288.125
 20
27.5
 30
0.0
  0
VERTEX
  8
SCAN
 10
288.125
 20
30.0
 30
0.0
  0
VERTEX
  8
SCAN
 10
287.875
 20
30.0
 30
0.0
  0
SEQEND
  0
POLYLINE
 62
256
  8
SCAN
 66
1
 10
0.0
 20
0.0
 30
0.0
 70
9
  0
VERTEX
  8
SCAN
 10
288.875
 20
27.5
 30
0.0
  0
VERTEX
  8
SCAN
 10
289.125
 20
27.5
 30
0.0
  0
VERTEX
  8
SCAN
 10
289.125
 20
30.0
 30
0.0
  0
VERTEX
  8
SCAN
 10
288.875
 20
30.0
 30
0.0
  0
SEQEND
  0
POLYLINE
 62
256
  8
SCAN
 66
1
 10
0.0
 20
0.0
 30
0.0
 70
9
  0
VERTEX
  8
SCAN
 10
289.875
 20
25.0
 30
0.0
  0
VERTEX
  8
SCAN
 10
290.125
 20
25.0
 30
0.0
  0
VERTEX
  8
SCAN
 10
290.125
 20
30.0
 30
0.0
  0
VERTEX
  8
SCAN
 10
289.875
 20
30.0
 30
0.0
  0
SEQEND
  0
POLYLINE
 62
256
  8
SCAN
 66
1
 10
0.0
 20
0.0
 30
0.0
 70
9
  0
VERTEX
  8
SCAN
 10
290.875
 20
27.5
 30
0.0
  0
VERTEX
  8
SCAN
 10
291.125
 20
27.5
 30
0.0
  0
VERTEX
  8
SCAN
 10
291.125
 20
30.0
 30
0.0
  0
VERTEX
  8
SCAN
 10
290.875
 20
30.0
 30
0.0
  0
SEQEND
  0
POLYLINE
 62
256
  8
SCAN
 66
1
 10
0.0
 20
0.0
 30
0.0
 70
9
  0
VERTEX
  8
SCAN
 10
291.875
 20
27.5
 30
0.0
  0
VERTEX
  8
SCAN
 10
292.125
 20
27.5
 30
0.0
  0
VERTEX
  8
SCAN
 10
292.125
 20
30.0
 30
0.0
  0
VERTEX
  8
SCAN
 10
291.875
 20
30.0
 30
0.0
  0
SEQEND
  0
POLYLINE
 62
256
  8
SCAN
 66
1
 10
0.0
 20
0.0
 30
0.0
 70
9
  0
VERTEX
  8
SCAN
 10
292.875
 20
27.5
 30
0.0
  0
VERTEX
  8
SCAN
 10
293.125
 20
27.5
 30
0.0
  0
VERTEX
  8
SCAN
 10
293.125
 20
30.0
 30
0.0
  0
VERTEX
  8
SCAN
 10
292.875
 20
30.0
 30
0.0
  0
SEQEND
  0
POLYLINE
 62
256
  8
SCAN
 66
1
 10
0.0
 20
0.0
 30
0.0
 70
9
  0
VERTEX
  8
SCAN
 10
293.875
 20
27.5
 30
0.0
  0
VERTEX
  8
SCAN
 10
294.125
 20
27.5
 30
0.0
  0
VERTEX
  8
SCAN
 10
294.125
 20
30.0
 30
0.0
  0
VERTEX
  8
SCAN
 10
293.875
 20
30.0
 30
0.0
  0
SEQEND
  0
TEXT
  8
SCAN
 10
293.875
 20
20.0
 30
0.0
 40
2.0
  1
29
 50
90.0
  0
POLYLINE
 62
256
  8
SCAN
 66
1
 10
0.0
 20
0.0
 30
0.0
 70
9
  0
VERTEX
  8
SCAN
 10
294.875
 20
20.0
 30
0.0
  0
VERTEX
  8
SCAN
 10
295.125
 20
20.0
 30
0.0
  0
VERTEX
  8
SCAN
 10
295.125
 20
30.0
 30
0.0
  0
VERTEX
  8
SCAN
 10
294.875
 20
30.0
 30
0.0
  0
SEQEND
  0
POLYLINE
 62
256
  8
SCAN
 66
1
 10
0.0
 20
0.0
 30
0.0
 70
9
  0
VERTEX
  8
SCAN
 10
295.875
 20
27.5
 30
0.0
  0
VERTEX
  8
SCAN
 10
296.125
 20
27.5
 30
0.0
  0
VERTEX
  8
SCAN
 10
296.125
 20
30.0
 30
0.0
  0
VERTEX
  8
SCAN
 10
295.875
 20
30.0
 30
0.0
  0
SEQEND
  0
POLYLINE
 62
256
  8
SCAN
 66
1
 10
0.0
 20
0.0
 30
0.0
 70
9
  0
VERTEX
  8
SCAN
 10
296.875
 20
27.5
 30
0.0
  0
VERTEX
  8
SCAN
 10
297.125
 20
27.5
 30
0.0
  0
VERTEX
  8
SCAN
 10
297.125
 20
30.0
 30
0.0
  0
VERTEX
  8
SCAN
 10
296.875
 20
30.0
 30
0.0
  0
SEQEND
  0
POLYLINE
 62
256
  8
SCAN
 66
1
 10
0.0
 20
0.0
 30
0.0
 70
9
  0
VERTEX
  8
SCAN
 10
297.875
 20
27.5
 30
0.0
  0
VERTEX
  8
SCAN
 10
298.125
 20
27.5
 30
0.0
  0
VERTEX
  8
SCAN
 10
298.125
 20
30.0
 30
0.0
  0
VERTEX
  8
SCAN
 10
297.875
 20
30.0
 30
0.0
  0
SEQEND
  0
POLYLINE
 62
256
  8
SCAN
 66
1
 10
0.0
 20
0.0
 30
0.0
 70
9
  0
VERTEX
  8
SCAN
 10
298.875
 20
27.5
 30
0.0
  0
VERTEX
  8
SCAN
 10
299.125
 20
27.5
 30
0.0
  0
VERTEX
  8
SCAN
 10
299.125
 20
30.0
 30
0.0
  0
VERTEX
  8
SCAN
 10
298.875
 20
30.0
 30
0.0
  0
SEQEND
  0
POLYLINE
 62
256
  8
SCAN
 66
1
 10
0.0
 20
0.0
 30
0.0
 70
9
  0
VERTEX
  8
SCAN
 10
299.875
 20
25.0
 30
0.0
  0
VERTEX
  8
SCAN
 10
300.125
 20
25.0
 30
0.0
  0
VERTEX
  8
SCAN
 10
300.125
 20
30.0
 30
0.0
  0
VERTEX
  8
SCAN
 10
299.875
 20
30.0
 30
0.0
  0
SEQEND
  0
POLYLINE
 62
256
  8
SCAN
 66
1
 10
0.0
 20
0.0
 30
0.0
 70
9
  0
VERTEX
  8
SCAN
 10
300.875
 20
27.5
 30
0.0
  0
VERTEX
  8
SCAN
 10
301.125
 20
27.5
 30
0.0
  0
VERTEX
  8
SCAN
 10
301.125
 20
30.0
 30
0.0
  0
VERTEX
  8
SCAN
 10
300.875
 20
30.0
 30
0.0
  0
SEQEND
  0
POLYLINE
 62
256
  8
SCAN
 66
1
 10
0.0
 20
0.0
 30
0.0
 70
9
  0
VERTEX
  8
SCAN
 10
301.875
 20
27.5
 30
0.0
  0
VERTEX
  8
SCAN
 10
302.125
 20
27.5
 30
0.0
  0
VERTEX
  8
SCAN
 10
302.125
 20
30.0
 30
0.0
  0
VERTEX
  8
SCAN
 10
301.875
 20
30.0
 30
0.0
  0
SEQEND
  0
POLYLINE
 62
256
  8
SCAN
 66
1
 10
0.0
 20
0.0
 30
0.0
 70
9
  0
VERTEX
  8
SCAN
 10
302.875
 20
27.5
 30
0.0
  0
VERTEX
  8
SCAN
 10
303.125
 20
27.5
 30
0.0
  0
VERTEX
  8
SCAN
 10
303.125
 20
30.0
 30
0.0
  0
VERTEX
  8
SCAN
 10
302.875
 20
30.0
 30
0.0
  0
SEQEND
  0
POLYLINE
 62
256
  8
SCAN
 66
1
 10
0.0
 20
0.0
 30
0.0
 70
9
  0
VERTEX
  8
SCAN
 10
303.875
 20
27.5
 30
0.0
  0
VERTEX
  8
SCAN
 10
304.125
 20
27.5
 30
0.0
  0
VERTEX
  8
SCAN
 10
304.125
 20
30.0
 30
0.0
  0
VERTEX
  8
SCAN
 10
303.875
 20
30.0
 30
0.0
  0
SEQEND
  0
TEXT
  8
SCAN
 10
303.875
 20
20.0
 30
0.0
 40
2.0
  1
30
 50
90.0
  0
POLYLINE
 62
256
  8
SCAN
 66
1
 10
0.0
 20
0.0
 30
0.0
 70
9
  0
VERTEX
  8
SCAN
 10
304.875
 20
20.0
 30
0.0
  0
VERTEX
  8
SCAN
 10
305.125
 20
20.0
 30
0.0
  0
VERTEX
  8
SCAN
 10
305.125
 20
30.0
 30
0.0
  0
VERTEX
  8
SCAN
 10
304.875
 20
30.0
 30
0.0
  0
SEQEND
  0
ENDSEC
  0
EOF
