  0
SECTION
  2
HEADER
  9
$ACADVER
  1
AC1009
  9
$INSBASE
 10
0.0
 20
0.0
 30
0.0
  9
$EXTMIN
 10
0.0
 20
0.0
 30
0.0
  9
$EXTMAX
 10
100.0
 20
100.0
 30
0.0
  9
$UNITMODE
 70
0
  9
$AUNITS
 70
0
  9
$ANGBASE
 50
0.0
  9
$ANGDIR
 70
0
  9
$INSUNITS
 70
4
  0
ENDSEC
  0
SECTION
  2
TABLES
  0
TABLE
  2
LTYPE
 70
19
  0
LTYPE
  2
CONTINUOUS
 70
0
  3
Solid
 72
65
 73
0
 40
0.0
  0
LTYPE
  2
CENTER
 70
0
  3
Center ____ _ ____ _ ____ _ ____ _ ____ _ ____
 72
65
 73
4
 40
2.0
 49
1.25
 49
-0.25
 49
0.25
 49
-0.25
  0
LTYPE
  2
CENTERX2
 70
0
  3
Center (2x) ________  __  ________  __  ________
 72
65
 73
4
 40
3.5
 49
2.5
 49
-0.25
 49
0.5
 49
-0.25
  0
LTYPE
  2
CENTER2
 70
0
  3
Center (.5x) ____ _ ____ _ ____ _ ____ _ ____
 72
65
 73
4
 40
1.0
 49
0.625
 49
-0.125
 49
0.125
 49
-0.125
  0
LTYPE
  2
DASHED
 70
0
  3
Dashed __ __ __ __ __ __ __ __ __ __ __ __ __ _
 72
65
 73
2
 40
0.6
 49
0.5
 49
-0.1
  0
LTYPE
  2
DASHEDX2
 70
0
  3
Dashed (2x) ____  ____  ____  ____  ____  ____
 72
65
 73
2
 40
1.2
 49
1.0
 49
-0.2
  0
LTYPE
  2
DASHED2
 70
0
  3
Dashed (.5x) _ _ _ _ _ _ _ _ _ _ _ _ _ _
 72
65
 73
2
 40
0.3
 49
0.25
 49
-0.05
  0
LTYPE
  2
PHANTOM
 70
0
  3
Phantom ______  __  __  ______  __  __  ______
 72
65
 73
6
 40
2.5
 49
1.25
 49
-0.25
 49
0.25
 49
-0.25
 49
0.25
 49
-0.25
  0
LTYPE
  2
PHANTOMX2
 70
0
  3
Phantom (2x)____________    ____    ____    ____________
 72
65
 73
6
 40
4.25
 49
2.5
 49
-0.25
 49
0.5
 49
-0.25
 49
0.5
 49
-0.25
  0
LTYPE
  2
PHANTOM2
 70
0
  3
Phantom (.5x) ___ _ _ ___ _ _ ___ _ _ ___ _ _ ___
 72
65
 73
6
 40
1.25
 49
0.625
 49
-0.125
 49
0.125
 49
-0.125
 49
0.125
 49
-0.125
  0
LTYPE
  2
DASHDOT
 70
0
  3
Dash dot __ . __ . __ . __ . __ . __ . __ . __
 72
65
 73
4
 40
1.4
 49
1.0
 49
-0.2
 49
0.0
 49
-0.2
  0
LTYPE
  2
DASHDOTX2
 70
0
  3
Dash dot (2x) ____  .  ____  .  ____  .  ____
 72
65
 73
4
 40
2.4
 49
2.0
 49
-0.2
 49
0.0
 49
-0.2
  0
LTYPE
  2
DASHDOT2
 70
0
  3
Dash dot (.5x) _ . _ . _ . _ . _ . _ . _ . _
 72
65
 73
4
 40
0.7
 49
0.5
 49
-0.1
 49
0.0
 49
-0.1
  0
LTYPE
  2
DOT
 70
0
  3
Dot .  .  .  .  .  .  .  .  .  .  .  .  .  .  .  .
 72
65
 73
2
 40
0.2
 49
0.0
 49
-0.2
  0
LTYPE
  2
DOTX2
 70
0
  3
Dot (2x) .    .    .    .    .    .    .    . 
 72
65
 73
2
 40
0.4
 49
0.0
 49
-0.4
  0
LTYPE
  2
DOT2
 70
0
  3
Dot (.5) . . . . . . . . . . . . . . . . . . . 
 72
65
 73
2
 40
0.1
 49
0.0
 49
-0.1
  0
LTYPE
  2
DIVIDE
 70
0
  3
Divide __ . . __ . . __ . . __ . . __ . . __
 72
65
 73
6
 40
1.6
 49
1.0
 49
-0.2
 49
0.0
 49
-0.2
 49
0.0
 49
-0.2
  0
LTYPE
  2
DIVIDEX2
 70
0
  3
Divide (2x) ____  . .  ____  . .  ____  . .  ____
 72
65
 73
6
 40
2.6
 49
2.0
 49
-0.2
 49
0.0
 49
-0.2
 49
0.0
 49
-0.2
  0
LTYPE
  2
DIVIDE2
 70
0
  3
Divide(.5x) _ . _ . _ . _ . _ . _ . _ . _
 72
65
 73
6
 40
0.8
 49
0.5
 49
-0.1
 49
0.0
 49
-0.1
 49
0.0
 49
-0.1
  0
ENDTAB
  0
TABLE
  2
LAYER
 70
7
  0
LAYER
  2
DIMENSIONS
 70
0
 62
1
  6
CONTINUOUS
  0
LAYER
  2
TABLEBACKGROUND
 70
0
 62
1
  6
CONTINUOUS
  0
LAYER
  2
TABLECONTENT
 70
0
 62
1
  6
CONTINUOUS
  0
LAYER
  2
TABLEGRID
 70
0
 62
1
  6
CONTINUOUS
  0
LAYER
  2
VIEWPORTS
 70
0
 62
7
  6
CONTINUOUS
  0
LAYER
  2
CUT
 70
0
 62
7
  6
CONTINUOUS
  0
LAYER
  2
SCAN
 70
0
 62
5
  6
CONTINUOUS
  0
ENDTAB
  0
TABLE
  2
STYLE
 70
12
  0
STYLE
  2
STANDARD
 70
0
 40
0.0
 41
1.0
 42
1.0
 50
0.0
 71
0
  3
arial.ttf
  4

  0
STYLE
  2
ARIAL
 70
0
 40
0.0
 41
1.0
 42
1.0
 50
0.0
 71
0
  3
arial.ttf
  4

  0
STYLE
  2
ARIAL_BOLD
 70
0
 40
0.0
 41
1.0
 42
1.0
 50
0.0
 71
0
  3
arialbd.ttf
  4

  0
STYLE
  2
ARIAL_ITALIC
 70
0
 40
0.0
 41
1.0
 42
1.0
 50
0.0
 71
0
  3
ariali.ttf
  4

  0
STYLE
  2
ARIAL_BOLD_ITALIC
 70
0
 40
0.0
 41
1.0
 42
1.0
 50
0.0
 71
0
  3
arialbi.ttf
  4

  0
STYLE
  2
ARIAL_BLACK
 70
0
 40
0.0
 41
1.0
 42
1.0
 50
0.0
 71
0
  3
ariblk.ttf
  4

  0
STYLE
  2
ISOCPEUR
 70
0
 40
0.0
 41
1.0
 42
1.0
 50
0.0
 71
0
  3
isocpeur.ttf
  4

  0
STYLE
  2
ISOCPEUR_ITALIC
 70
0
 40
0.0
 41
1.0
 42
1.0
 50
0.0
 71
0
  3
isocpeui.ttf
  4

  0
STYLE
  2
TIMES
 70
0
 40
0.0
 41
1.0
 42
1.0
 50
0.0
 71
0
  3
times.ttf
  4

  0
STYLE
  2
TIMES_BOLD
 70
0
 40
0.0
 41
1.0
 42
1.0
 50
0.0
 71
0
  3
timesbd.ttf
  4

  0
STYLE
  2
TIMES_ITALIC
 70
0
 40
0.0
 41
1.0
 42
1.0
 50
0.0
 71
0
  3
timesi.ttf
  4

  0
STYLE
  2
TIMES_BOLD_ITALIC
 70
0
 40
0.0
 41
1.0
 42
1.0
 50
0.0
 71
0
  3
timesbi.ttf
  4

  0
ENDTAB
  0
TABLE
  2
VIEW
 70
0
  0
ENDTAB
  0
TABLE
  2
APPID
 70
1
  0
APPID
  2
DXFWRITE
 70
0
  0
ENDTAB
  0
TABLE
  2
VPORT
 70
0
  0
ENDTAB
  0
TABLE
  2
UCS
 70
0
  0
ENDTAB
  0
ENDSEC
  0
SECTION
  2
BLOCKS
  0
ENDSEC
  0
SECTION
  2
ENTITIES
  0
VIEWPORT
  8
VIEWPORTS
 67
1
 10
0.0
 20
0.0
 30
0.0
 40
1.0
 41
1.0
 68
1
 69
1
1001
ACAD
1000
MVIEW
1002
{
1070
16
1010
0.0
1020
0.0
1030
0.0
1010
0.0
1020
0.0
1030
0.0
1040
0.0
1040
1.0
1040
0.0
1040
0.0
1040
50.0
1040
0.0
1040
0.0
1070
0
1070
100
1070
1
1070
3
1070
0
1070
0
1070
0
1070
0
1040
0.0
1040
0.0
1040
0.0
1040
0.1
1040
0.1
1040
0.1
1040
0.1
1070
0
1002
{
1002
}
1002
}
  0
POLYLINE
 62
256
  8
CUT
 66
1
 10
0.0
 20
0.0
 30
0.0
 70
9
  0
VERTEX
  8
CUT
 10
0.0
 20
0.0
 30
0.0
  0
VERTEX
  8
CUT
 10
80.0
 20
0.0
 30
0.0
  0
VERTEX
  8
CUT
 10
80.0
 20
30.0
 30
0.0
  0
VERTEX
  8
CUT
 10
0.0
 20
30.0
 30
0.0
  0
SEQEND
  0
POLYLINE
 62
256
  8
SCAN
 66
1
 10
0.0
 20
0.0
 30
0.0
 70
9
  0
VERTEX
  8
SCAN
 10
5.0
 20
20.0
 30
0.0
  0
VERTEX
  8
SCAN
 10
5.25
 20
20.0
 30
0.0
  0
VERTEX
  8
SCAN
 10
5.25
 20
30.0
 30
0.0
  0
VERTEX
  8
SCAN
 10
5.0
 20
30.0
 30
0.0
  0
SEQEND
  0
POLYLINE
 62
256
  8
SCAN
 66
1
 10
0.0
 20
0.0
 30
0.0
 70
9
  0
VERTEX
  8
SCAN
 10
6.0
 20
27.5
 30
0.0
  0
VERTEX
  8
SCAN
 10
6.25
 20
27.5
 30
0.0
  0
VERTEX
  8
SCAN
 10
6.25
 20
30.0
 30
0.0
  0
VERTEX
  8
SCAN
 10
6.0
 20
30.0
 30
0.0
  0
SEQEND
  0
POLYLINE
 62
256
  8
SCAN
 66
1
 10
0.0
 20
0.0
 30
0.0
 70
9
  0
VERTEX
  8
SCAN
 10
7.0
 20
27.5
 30
0.0
  0
VERTEX
  8
SCAN
 10
7.25
 20
27.5
 30
0.0
  0
VERTEX
  8
SCAN
 10
7.25
 20
30.0
 30
0.0
  0
VERTEX
  8
SCAN
 10
7.0
 20
30.0
 30
0.0
  0
SEQEND
  0
POLYLINE
 62
256
  8
SCAN
 66
1
 10
0.0
 20
0.0
 30
0.0
 70
9
  0
VERTEX
  8
SCAN
 10
8.0
 20
27.5
 30
0.0
  0
VERTEX
  8
SCAN
 10
8.25
 20
27.5
 30
0.0
  0
VERTEX
  8
SCAN
 10
8.25
 20
30.0
 30
0.0
  0
VERTEX
  8
SCAN
 10
8.0
 20
30.0
 30
0.0
  0
SEQEND
  0
POLYLINE
 62
256
  8
SCAN
 66
1
 10
0.0
 20
0.0
 30
0.0
 70
9
  0
VERTEX
  8
SCAN
 10
9.0
 20
27.5
 30
0.0
  0
VERTEX
  8
SCAN
 10
9.25
 20
27.5
 30
0.0
  0
VERTEX
  8
SCAN
 10
9.25
 20
30.0
 30
0.0
  0
VERTEX
  8
SCAN
 10
9.0
 20
30.0
 30
0.0
  0
SEQEND
  0
POLYLINE
 62
256
  8
SCAN
 66
1
 10
0.0
 20
0.0
 30
0.0
 70
9
  0
VERTEX
  8
SCAN
 10
10.0
 20
25.0
 30
0.0
  0
VERTEX
  8
SCAN
 10
10.25
 20
25.0
 30
0.0
  0
VERTEX
  8
SCAN
 10
10.25
 20
30.0
 30
0.0
  0
VERTEX
  8
SCAN
 10
10.0
 20
30.0
 30
0.0
  0
SEQEND
  0
POLYLINE
 62
256
  8
SCAN
 66
1
 10
0.0
 20
0.0
 30
0.0
 70
9
  0
VERTEX
  8
SCAN
 10
11.0
 20
27.5
 30
0.0
  0
VERTEX
  8
SCAN
 10
11.25
 20
27.5
 30
0.0
  0
VERTEX
  8
SCAN
 10
11.25
 20
30.0
 30
0.0
  0
VERTEX
  8
SCAN
 10
11.0
 20
30.0
 30
0.0
  0
SEQEND
  0
POLYLINE
 62
256
  8
SCAN
 66
1
 10
0.0
 20
0.0
 30
0.0
 70
9
  0
VERTEX
  8
SCAN
 10
12.0
 20
27.5
 30
0.0
  0
VERTEX
  8
SCAN
 10
12.25
 20
27.5
 30
0.0
  0
VERTEX
  8
SCAN
 10
12.25
 20
30.0
 30
0.0
  0
VERTEX
  8
SCAN
 10
12.0
 20
30.0
 30
0.0
  0
SEQEND
  0
POLYLINE
 62
256
  8
SCAN
 66
1
 10
0.0
 20
0.0
 30
0.0
 70
9
  0
VERTEX
  8
SCAN
 10
13.0
 20
27.5
 30
0.0
  0
VERTEX
  8
SCAN
 10
13.25
 20
27.5
 30
0.0
  0
VERTEX
  8
SCAN
 10
13.25
 20
30.0
 30
0.0
  0
VERTEX
  8
SCAN
 10
13.0
 20
30.0
 30
0.0
  0
SEQEND
  0
POLYLINE
 62
256
  8
SCAN
 66
1
 10
0.0
 20
0.0
 30
0.0
 70
9
  0
VERTEX
  8
SCAN
 10
14.0
 20
27.5
 30
0.0
  0
VERTEX
  8
SCAN
 10
14.25
 20
27.5
 30
0.0
  0
VERTEX
  8
SCAN
 10
14.25
 20
30.0
 30
0.0
  0
VERTEX
  8
SCAN
 10
14.0
 20
30.0
 30
0.0
  0
SEQEND
  0
POLYLINE
 62
256
  8
SCAN
 66
1
 10
0.0
 20
0.0
 30
0.0
 70
9
  0
VERTEX
  8
SCAN
 10
15.0
 20
20.0
 30
0.0
  0
VERTEX
  8
SCAN
 10
15.25
 20
20.0
 30
0.0
  0
VERTEX
  8
SCAN
 10
15.25
 20
30.0
 30
0.0
  0
VERTEX
  8
SCAN
 10
15.0
 20
30.0
 30
0.0
  0
SEQEND
  0
POLYLINE
 62
256
  8
SCAN
 66
1
 10
0.0
 20
0.0
 30
0.0
 70
9
  0
VERTEX
  8
SCAN
 10
16.0
 20
27.5
 30
0.0
  0
VERTEX
  8
SCAN
 10
16.25
 20
27.5
 30
0.0
  0
VERTEX
  8
SCAN
 10
16.25
 20
30.0
 30
0.0
  0
VERTEX
  8
SCAN
 10
16.0
 20
30.0
 30
0.0
  0
SEQEND
  0
POLYLINE
 62
256
  8
SCAN
 66
1
 10
0.0
 20
0.0
 30
0.0
 70
9
  0
VERTEX
  8
SCAN
 10
17.0
 20
27.5
 30
0.0
  0
VERTEX
  8
SCAN
 10
17.25
 20
27.5
 30
0.0
  0
VERTEX
  8
SCAN
 10
17.25
 20
30.0
 30
0.0
  0
VERTEX
  8
SCAN
 10
17.0
 20
30.0
 30
0.0
  0
SEQEND
  0
POLYLINE
 62
256
  8
SCAN
 66
1
 10
0.0
 20
0.0
 30
0.0
 70
9
  0
VERTEX
  8
SCAN
 10
18.0
 20
27.5
 30
0.0
  0
VERTEX
  8
SCAN
 10
18.25
 20
27.5
 30
0.0
  0
VERTEX
  8
SCAN
 10
18.25
 20
30.0
 30
0.0
  0
VERTEX
  8
SCAN
 10
18.0
 20
30.0
 30
0.0
  0
SEQEND
  0
POLYLINE
 62
256
  8
SCAN
 66
1
 10
0.0
 20
0.0
 30
0.0
 70
9
  0
VERTEX
  8
SCAN
 10
19.0
 20
27.5
 30
0.0
  0
VERTEX
  8
SCAN
 10
19.25
 20
27.5
 30
0.0
  0
VERTEX
  8
SCAN
 10
19.25
 20
30.0
 30
0.0
  0
VERTEX
  8
SCAN
 10
19.0
 20
30.0
 30
0.0
  0
SEQEND
  0
POLYLINE
 62
256
  8
SCAN
 66
1
 10
0.0
 20
0.0
 30
0.0
 70
9
  0
VERTEX
  8
SCAN
 10
20.0
 20
25.0
 30
0.0
  0
VERTEX
  8
SCAN
 10
20.25
 20
25.0
 30
0.0
  0
VERTEX
  8
SCAN
 10
20.25
 20
30.0
 30
0.0
  0
VERTEX
  8
SCAN
 10
20.0
 20
30.0
 30
0.0
  0
SEQEND
  0
POLYLINE
 62
256
  8
SCAN
 66
1
 10
0.0
 20
0.0
 30
0.0
 70
9
  0
VERTEX
  8
SCAN
 10
21.0
 20
27.5
 30
0.0
  0
VERTEX
  8
SCAN
 10
21.25
 20
27.5
 30
0.0
  0
VERTEX
  8
SCAN
 10
21.25
 20
30.0
 30
0.0
  0
VERTEX
  8
SCAN
 10
21.0
 20
30.0
 30
0.0
  0
SEQEND
  0
POLYLINE
 62
256
  8
SCAN
 66
1
 10
0.0
 20
0.0
 30
0.0
 70
9
  0
VERTEX
  8
SCAN
 10
22.0
 20
27.5
 30
0.0
  0
VERTEX
  8
SCAN
 10
22.25
 20
27.5
 30
0.0
  0
VERTEX
  8
SCAN
 10
22.25
 20
30.0
 30
0.0
  0
VERTEX
  8
SCAN
 10
22.0
 20
30.0
 30
0.0
  0
SEQEND
  0
POLYLINE
 62
256
  8
SCAN
 66
1
 10
0.0
 20
0.0
 30
0.0
 70
9
  0
VERTEX
  8
SCAN
 10
23.0
 20
27.5
 30
0.0
  0
VERTEX
  8
SCAN
 10
23.25
 20
27.5
 30
0.0
  0
VERTEX
  8
SCAN
 10
23.25
 20
30.0
 30
0.0
  0
VERTEX
  8
SCAN
 10
23.0
 20
30.0
 30
0.0
  0
SEQEND
  0
POLYLINE
 62
256
  8
SCAN
 66
1
 10
0.0
 20
0.0
 30
0.0
 70
9
  0
VERTEX
  8
SCAN
 10
24.0
 20
27.5
 30
0.0
  0
VERTEX
  8
SCAN
 10
24.25
 20
27.5
 30
0.0
  0
VERTEX
  8
SCAN
 10
24.25
 20
30.0
 30
0.0
  0
VERTEX
  8
SCAN
 10
24.0
 20
30.0
 30
0.0
  0
SEQEND
  0
POLYLINE
 62
256
  8
SCAN
 66
1
 10
0.0
 20
0.0
 30
0.0
 70
9
  0
VERTEX
  8
SCAN
 10
25.0
 20
20.0
 30
0.0
  0
VERTEX
  8
SCAN
 10
25.25
 20
20.0
 30
0.0
  0
VERTEX
  8
SCAN
 10
25.25
 20
30.0
 30
0.0
  0
VERTEX
  8
SCAN
 10
25.0
 20
30.0
 30
0.0
  0
SEQEND
  0
POLYLINE
 62
256
  8
SCAN
 66
1
 10
0.0
 20
0.0
 30
0.0
 70
9
  0
VERTEX
  8
SCAN
 10
26.0
 20
27.5
 30
0.0
  0
VERTEX
  8
SCAN
 10
26.25
 20
27.5
 30
0.0
  0
VERTEX
  8
SCAN
 10
26.25
 20
30.0
 30
0.0
  0
VERTEX
  8
SCAN
 10
26.0
 20
30.0
 30
0.0
  0
SEQEND
  0
POLYLINE
 62
256
  8
SCAN
 66
1
 10
0.0
 20
0.0
 30
0.0
 70
9
  0
VERTEX
  8
SCAN
 10
27.0
 20
27.5
 30
0.0
  0
VERTEX
  8
SCAN
 10
27.25
 20
27.5
 30
0.0
  0
VERTEX
  8
SCAN
 10
27.25
 20
30.0
 30
0.0
  0
VERTEX
  8
SCAN
 10
27.0
 20
30.0
 30
0.0
  0
SEQEND
  0
POLYLINE
 62
256
  8
SCAN
 66
1
 10
0.0
 20
0.0
 30
0.0
 70
9
  0
VERTEX
  8
SCAN
 10
28.0
 20
27.5
 30
0.0
  0
VERTEX
  8
SCAN
 10
28.25
 20
27.5
 30
0.0
  0
VERTEX
  8
SCAN
 10
28.25
 20
30.0
 30
0.0
  0
VERTEX
  8
SCAN
 10
28.0
 20
30.0
 30
0.0
  0
SEQEND
  0
POLYLINE
 62
256
  8
SCAN
 66
1
 10
0.0
 20
0.0
 30
0.0
 70
9
  0
VERTEX
  8
SCAN
 10
29.0
 20
27.5
 30
0.0
  0
VERTEX
  8
SCAN
 10
29.25
 20
27.5
 30
0.0
  0
VERTEX
  8
SCAN
 10
29.25
 20
30.0
 30
0.0
  0
VERTEX
  8
SCAN
 10
29.0
 20
30.0
 30
0.0
  0
SEQEND
  0
POLYLINE
 62
256
  8
SCAN
 66
1
 10
0.0
 20
0.0
 30
0.0
 70
9
  0
VERTEX
  8
SCAN
 10
30.0
 20
25.0
 30
0.0
  0
VERTEX
  8
SCAN
 10
30.25
 20
25.0
 30
0.0
  0
VERTEX
  8
SCAN
 10
30.25
 20
30.0
 30
0.0
  0
VERTEX
  8
SCAN
 10
30.0
 20
30.0
 30
0.0
  0
SEQEND
  0
POLYLINE
 62
256
  8
SCAN
 66
1
 10
0.0
 20
0.0
 30
0.0
 70
9
  0
VERTEX
  8
SCAN
 10
31.0
 20
27.5
 30
0.0
  0
VERTEX
  8
SCAN
 10
31.25
 20
27.5
 30
0.0
  0
VERTEX
  8
SCAN
 10
31.25
 20
30.0
 30
0.0
  0
VERTEX
  8
SCAN
 10
31.0
 20
30.0
 30
0.0
  0
SEQEND
  0
POLYLINE
 62
256
  8
SCAN
 66
1
 10
0.0
 20
0.0
 30
0.0
 70
9
  0
VERTEX
  8
SCAN
 10
32.0
 20
27.5
 30
0.0
  0
VERTEX
  8
SCAN
 10
32.25
 20
27.5
 30
0.0
  0
VERTEX
  8
SCAN
 10
32.25
 20
30.0
 30
0.0
  0
VERTEX
  8
SCAN
 10
32.0
 20
30.0
 30
0.0
  0
SEQEND
  0
POLYLINE
 62
256
  8
SCAN
 66
1
 10
0.0
 20
0.0
 30
0.0
 70
9
  0
VERTEX
  8
SCAN
 10
33.0
 20
27.5
 30
0.0
  0
VERTEX
  8
SCAN
 10
33.25
 20
27.5
 30
0.0
  0
VERTEX
  8
SCAN
 10
33.25
 20
30.0
 30
0.0
  0
VERTEX
  8
SCAN
 10
33.0
 20
30.0
 30
0.0
  0
SEQEND
  0
POLYLINE
 62
256
  8
SCAN
 66
1
 10
0.0
 20
0.0
 30
0.0
 70
9
  0
VERTEX
  8
SCAN
 10
34.0
 20
27.5
 30
0.0
  0
VERTEX
  8
SCAN
 10
34.25
 20
27.5
 30
0.0
  0
VERTEX
  8
SCAN
 10
34.25
 20
30.0
 30
0.0
  0
VERTEX
  8
SCAN
 10
34.0
 20
30.0
 30
0.0
  0
SEQEND
  0
POLYLINE
 62
256
  8
SCAN
 66
1
 10
0.0
 20
0.0
 30
0.0
 70
9
  0
VERTEX
  8
SCAN
 10
35.0
 20
20.0
 30
0.0
  0
VERTEX
  8
SCAN
 10
35.25
 20
20.0
 30
0.0
  0
VERTEX
  8
SCAN
 10
35.25
 20
30.0
 30
0.0
  0
VERTEX
  8
SCAN
 10
35.0
 20
30.0
 30
0.0
  0
SEQEND
  0
POLYLINE
 62
256
  8
SCAN
 66
1
 10
0.0
 20
0.0
 30
0.0
 70
9
  0
VERTEX
  8
SCAN
 10
36.0
 20
27.5
 30
0.0
  0
VERTEX
  8
SCAN
 10
36.25
 20
27.5
 30
0.0
  0
VERTEX
  8
SCAN
 10
36.25
 20
30.0
 30
0.0
  0
VERTEX
  8
SCAN
 10
36.0
 20
30.0
 30
0.0
  0
SEQEND
  0
POLYLINE
 62
256
  8
SCAN
 66
1
 10
0.0
 20
0.0
 30
0.0
 70
9
  0
VERTEX
  8
SCAN
 10
37.0
 20
27.5
 30
0.0
  0
VERTEX
  8
SCAN
 10
37.25
 20
27.5
 30
0.0
  0
VERTEX
  8
SCAN
 10
37.25
 20
30.0
 30
0.0
  0
VERTEX
  8
SCAN
 10
37.0
 20
30.0
 30
0.0
  0
SEQEND
  0
POLYLINE
 62
256
  8
SCAN
 66
1
 10
0.0
 20
0.0
 30
0.0
 70
9
  0
VERTEX
  8
SCAN
 10
38.0
 20
27.5
 30
0.0
  0
VERTEX
  8
SCAN
 10
38.25
 20
27.5
 30
0.0
  0
VERTEX
  8
SCAN
 10
38.25
 20
30.0
 30
0.0
  0
VERTEX
  8
SCAN
 10
38.0
 20
30.0
 30
0.0
  0
SEQEND
  0
POLYLINE
 62
256
  8
SCAN
 66
1
 10
0.0
 20
0.0
 30
0.0
 70
9
  0
VERTEX
  8
SCAN
 10
39.0
 20
27.5
 30
0.0
  0
VERTEX
  8
SCAN
 10
39.25
 20
27.5
 30
0.0
  0
VERTEX
  8
SCAN
 10
39.25
 20
30.0
 30
0.0
  0
VERTEX
  8
SCAN
 10
39.0
 20
30.0
 30
0.0
  0
SEQEND
  0
POLYLINE
 62
256
  8
SCAN
 66
1
 10
0.0
 20
0.0
 30
0.0
 70
9
  0
VERTEX
  8
SCAN
 10
40.0
 20
25.0
 30
0.0
  0
VERTEX
  8
SCAN
 10
40.25
 20
25.0
 30
0.0
  0
VERTEX
  8
SCAN
 10
40.25
 20
30.0
 30
0.0
  0
VERTEX
  8
SCAN
 10
40.0
 20
30.0
 30
0.0
  0
SEQEND
  0
POLYLINE
 62
256
  8
SCAN
 66
1
 10
0.0
 20
0.0
 30
0.0
 70
9
  0
VERTEX
  8
SCAN
 10
41.0
 20
27.5
 30
0.0
  0
VERTEX
  8
SCAN
 10
41.25
 20
27.5
 30
0.0
  0
VERTEX
  8
SCAN
 10
41.25
 20
30.0
 30
0.0
  0
VERTEX
  8
SCAN
 10
41.0
 20
30.0
 30
0.0
  0
SEQEND
  0
POLYLINE
 62
256
  8
SCAN
 66
1
 10
0.0
 20
0.0
 30
0.0
 70
9
  0
VERTEX
  8
SCAN
 10
42.0
 20
27.5
 30
0.0
  0
VERTEX
  8
SCAN
 10
42.25
 20
27.5
 30
0.0
  0
VERTEX
  8
SCAN
 10
42.25
 20
30.0
 30
0.0
  0
VERTEX
  8
SCAN
 10
42.0
 20
30.0
 30
0.0
  0
SEQEND
  0
POLYLINE
 62
256
  8
SCAN
 66
1
 10
0.0
 20
0.0
 30
0.0
 70
9
  0
VERTEX
  8
SCAN
 10
43.0
 20
27.5
 30
0.0
  0
VERTEX
  8
SCAN
 10
43.25
 20
27.5
 30
0.0
  0
VERTEX
  8
SCAN
 10
43.25
 20
30.0
 30
0.0
  0
VERTEX
  8
SCAN
 10
43.0
 20
30.0
 30
0.0
  0
SEQEND
  0
POLYLINE
 62
256
  8
SCAN
 66
1
 10
0.0
 20
0.0
 30
0.0
 70
9
  0
VERTEX
  8
SCAN
 10
44.0
 20
27.5
 30
0.0
  0
VERTEX
  8
SCAN
 10
44.25
 20
27.5
 30
0.0
  0
VERTEX
  8
SCAN
 10
44.25
 20
30.0
 30
0.0
  0
VERTEX
  8
SCAN
 10
44.0
 20
30.0
 30
0.0
  0
SEQEND
  0
POLYLINE
 62
256
  8
SCAN
 66
1
 10
0.0
 20
0.0
 30
0.0
 70
9
  0
VERTEX
  8
SCAN
 10
45.0
 20
20.0
 30
0.0
  0
VERTEX
  8
SCAN
 10
45.25
 20
20.0
 30
0.0
  0
VERTEX
  8
SCAN
 10
45.25
 20
30.0
 30
0.0
  0
VERTEX
  8
SCAN
 10
45.0
 20
30.0
 30
0.0
  0
SEQEND
  0
POLYLINE
 62
256
  8
SCAN
 66
1
 10
0.0
 20
0.0
 30
0.0
 70
9
  0
VERTEX
  8
SCAN
 10
46.0
 20
27.5
 30
0.0
  0
VERTEX
  8
SCAN
 10
46.25
 20
27.5
 30
0.0
  0
VERTEX
  8
SCAN
 10
46.25
 20
30.0
 30
0.0
  0
VERTEX
  8
SCAN
 10
46.0
 20
30.0
 30
0.0
  0
SEQEND
  0
POLYLINE
 62
256
  8
SCAN
 66
1
 10
0.0
 20
0.0
 30
0.0
 70
9
  0
VERTEX
  8
SCAN
 10
47.0
 20
27.5
 30
0.0
  0
VERTEX
  8
SCAN
 10
47.25
 20
27.5
 30
0.0
  0
VERTEX
  8
SCAN
 10
47.25
 20
30.0
 30
0.0
  0
VERTEX
  8
SCAN
 10
47.0
 20
30.0
 30
0.0
  0
SEQEND
  0
POLYLINE
 62
256
  8
SCAN
 66
1
 10
0.0
 20
0.0
 30
0.0
 70
9
  0
VERTEX
  8
SCAN
 10
48.0
 20
27.5
 30
0.0
  0
VERTEX
  8
SCAN
 10
48.25
 20
27.5
 30
0.0
  0
VERTEX
  8
SCAN
 10
48.25
 20
30.0
 30
0.0
  0
VERTEX
  8
SCAN
 10
48.0
 20
30.0
 30
0.0
  0
SEQEND
  0
POLYLINE
 62
256
  8
SCAN
 66
1
 10
0.0
 20
0.0
 30
0.0
 70
9
  0
VERTEX
  8
SCAN
 10
49.0
 20
27.5
 30
0.0
  0
VERTEX
  8
SCAN
 10
49.25
 20
27.5
 30
0.0
  0
VERTEX
  8
SCAN
 10
49.25
 20
30.0
 30
0.0
  0
VERTEX
  8
SCAN
 10
49.0
 20
30.0
 30
0.0
  0
SEQEND
  0
POLYLINE
 62
256
  8
SCAN
 66
1
 10
0.0
 20
0.0
 30
0.0
 70
9
  0
VERTEX
  8
SCAN
 10
50.0
 20
25.0
 30
0.0
  0
VERTEX
  8
SCAN
 10
50.25
 20
25.0
 30
0.0
  0
VERTEX
  8
SCAN
 10
50.25
 20
30.0
 30
0.0
  0
VERTEX
  8
SCAN
 10
50.0
 20
30.0
 30
0.0
  0
SEQEND
  0
POLYLINE
 62
256
  8
SCAN
 66
1
 10
0.0
 20
0.0
 30
0.0
 70
9
  0
VERTEX
  8
SCAN
 10
51.0
 20
27.5
 30
0.0
  0
VERTEX
  8
SCAN
 10
51.25
 20
27.5
 30
0.0
  0
VERTEX
  8
SCAN
 10
51.25
 20
30.0
 30
0.0
  0
VERTEX
  8
SCAN
 10
51.0
 20
30.0
 30
0.0
  0
SEQEND
  0
POLYLINE
 62
256
  8
SCAN
 66
1
 10
0.0
 20
0.0
 30
0.0
 70
9
  0
VERTEX
  8
SCAN
 10
52.0
 20
27.5
 30
0.0
  0
VERTEX
  8
SCAN
 10
52.25
 20
27.5
 30
0.0
  0
VERTEX
  8
SCAN
 10
52.25
 20
30.0
 30
0.0
  0
VERTEX
  8
SCAN
 10
52.0
 20
30.0
 30
0.0
  0
SEQEND
  0
POLYLINE
 62
256
  8
SCAN
 66
1
 10
0.0
 20
0.0
 30
0.0
 70
9
  0
VERTEX
  8
SCAN
 10
53.0
 20
27.5
 30
0.0
  0
VERTEX
  8
SCAN
 10
53.25
 20
27.5
 30
0.0
  0
VERTEX
  8
SCAN
 10
53.25
 20
30.0
 30
0.0
  0
VERTEX
  8
SCAN
 10
53.0
 20
30.0
 30
0.0
  0
SEQEND
  0
POLYLINE
 62
256
  8
SCAN
 66
1
 10
0.0
 20
0.0
 30
0.0
 70
9
  0
VERTEX
  8
SCAN
 10
54.0
 20
27.5
 30
0.0
  0
VERTEX
  8
SCAN
 10
54.25
 20
27.5
 30
0.0
  0
VERTEX
  8
SCAN
 10
54.25
 20
30.0
 30
0.0
  0
VERTEX
  8
SCAN
 10
54.0
 20
30.0
 30
0.0
  0
SEQEND
  0
POLYLINE
 62
256
  8
SCAN
 66
1
 10
0.0
 20
0.0
 30
0.0
 70
9
  0
VERTEX
  8
SCAN
 10
55.0
 20
20.0
 30
0.0
  0
VERTEX
  8
SCAN
 10
55.25
 20
20.0
 30
0.0
  0
VERTEX
  8
SCAN
 10
55.25
 20
30.0
 30
0.0
  0
VERTEX
  8
SCAN
 10
55.0
 20
30.0
 30
0.0
  0
SEQEND
  0
POLYLINE
 62
256
  8
SCAN
 66
1
 10
0.0
 20
0.0
 30
0.0
 70
9
  0
VERTEX
  8
SCAN
 10
56.0
 20
27.5
 30
0.0
  0
VERTEX
  8
SCAN
 10
56.25
 20
27.5
 30
0.0
  0
VERTEX
  8
SCAN
 10
56.25
 20
30.0
 30
0.0
  0
VERTEX
  8
SCAN
 10
56.0
 20
30.0
 30
0.0
  0
SEQEND
  0
POLYLINE
 62
256
  8
SCAN
 66
1
 10
0.0
 20
0.0
 30
0.0
 70
9
  0
VERTEX
  8
SCAN
 10
57.0
 20
27.5
 30
0.0
  0
VERTEX
  8
SCAN
 10
57.25
 20
27.5
 30
0.0
  0
VERTEX
  8
SCAN
 10
57.25
 20
30.0
 30
0.0
  0
VERTEX
  8
SCAN
 10
57.0
 20
30.0
 30
0.0
  0
SEQEND
  0
POLYLINE
 62
256
  8
SCAN
 66
1
 10
0.0
 20
0.0
 30
0.0
 70
9
  0
VERTEX
  8
SCAN
 10
58.0
 20
27.5
 30
0.0
  0
VERTEX
  8
SCAN
 10
58.25
 20
27.5
 30
0.0
  0
VERTEX
  8
SCAN
 10
58.25
 20
30.0
 30
0.0
  0
VERTEX
  8
SCAN
 10
58.0
 20
30.0
 30
0.0
  0
SEQEND
  0
POLYLINE
 62
256
  8
SCAN
 66
1
 10
0.0
 20
0.0
 30
0.0
 70
9
  0
VERTEX
  8
SCAN
 10
59.0
 20
27.5
 30
0.0
  0
VERTEX
  8
SCAN
 10
59.25
 20
27.5
 30
0.0
  0
VERTEX
  8
SCAN
 10
59.25
 20
30.0
 30
0.0
  0
VERTEX
  8
SCAN
 10
59.0
 20
30.0
 30
0.0
  0
SEQEND
  0
POLYLINE
 62
256
  8
SCAN
 66
1
 10
0.0
 20
0.0
 30
0.0
 70
9
  0
VERTEX
  8
SCAN
 10
60.0
 20
25.0
 30
0.0
  0
VERTEX
  8
SCAN
 10
60.25
 20
25.0
 30
0.0
  0
VERTEX
  8
SCAN
 10
60.25
 20
30.0
 30
0.0
  0
VERTEX
  8
SCAN
 10
60.0
 20
30.0
 30
0.0
  0
SEQEND
  0
POLYLINE
 62
256
  8
SCAN
 66
1
 10
0.0
 20
0.0
 30
0.0
 70
9
  0
VERTEX
  8
SCAN
 10
61.0
 20
27.5
 30
0.0
  0
VERTEX
  8
SCAN
 10
61.25
 20
27.5
 30
0.0
  0
VERTEX
  8
SCAN
 10
61.25
 20
30.0
 30
0.0
  0
VERTEX
  8
SCAN
 10
61.0
 20
30.0
 30
0.0
  0
SEQEND
  0
POLYLINE
 62
256
  8
SCAN
 66
1
 10
0.0
 20
0.0
 30
0.0
 70
9
  0
VERTEX
  8
SCAN
 10
62.0
 20
27.5
 30
0.0
  0
VERTEX
  8
SCAN
 10
62.25
 20
27.5
 30
0.0
  0
VERTEX
  8
SCAN
 10
62.25
 20
30.0
 30
0.0
  0
VERTEX
  8
SCAN
 10
62.0
 20
30.0
 30
0.0
  0
SEQEND
  0
POLYLINE
 62
256
  8
SCAN
 66
1
 10
0.0
 20
0.0
 30
0.0
 70
9
  0
VERTEX
  8
SCAN
 10
63.0
 20
27.5
 30
0.0
  0
VERTEX
  8
SCAN
 10
63.25
 20
27.5
 30
0.0
  0
VERTEX
  8
SCAN
 10
63.25
 20
30.0
 30
0.0
  0
VERTEX
  8
SCAN
 10
63.0
 20
30.0
 30
0.0
  0
SEQEND
  0
POLYLINE
 62
256
  8
SCAN
 66
1
 10
0.0
 20
0.0
 30
0.0
 70
9
  0
VERTEX
  8
SCAN
 10
64.0
 20
27.5
 30
0.0
  0
VERTEX
  8
SCAN
 10
64.25
 20
27.5
 30
0.0
  0
VERTEX
  8
SCAN
 10
64.25
 20
30.0
 30
0.0
  0
VERTEX
  8
SCAN
 10
64.0
 20
30.0
 30
0.0
  0
SEQEND
  0
POLYLINE
 62
256
  8
SCAN
 66
1
 10
0.0
 20
0.0
 30
0.0
 70
9
  0
VERTEX
  8
SCAN
 10
65.0
 20
20.0
 30
0.0
  0
VERTEX
  8
SCAN
 10
65.25
 20
20.0
 30
0.0
  0
VERTEX
  8
SCAN
 10
65.25
 20
30.0
 30
0.0
  0
VERTEX
  8
SCAN
 10
65.0
 20
30.0
 30
0.0
  0
SEQEND
  0
POLYLINE
 62
256
  8
SCAN
 66
1
 10
0.0
 20
0.0
 30
0.0
 70
9
  0
VERTEX
  8
SCAN
 10
66.0
 20
27.5
 30
0.0
  0
VERTEX
  8
SCAN
 10
66.25
 20
27.5
 30
0.0
  0
VERTEX
  8
SCAN
 10
66.25
 20
30.0
 30
0.0
  0
VERTEX
  8
SCAN
 10
66.0
 20
30.0
 30
0.0
  0
SEQEND
  0
POLYLINE
 62
256
  8
SCAN
 66
1
 10
0.0
 20
0.0
 30
0.0
 70
9
  0
VERTEX
  8
SCAN
 10
67.0
 20
27.5
 30
0.0
  0
VERTEX
  8
SCAN
 10
67.25
 20
27.5
 30
0.0
  0
VERTEX
  8
SCAN
 10
67.25
 20
30.0
 30
0.0
  0
VERTEX
  8
SCAN
 10
67.0
 20
30.0
 30
0.0
  0
SEQEND
  0
POLYLINE
 62
256
  8
SCAN
 66
1
 10
0.0
 20
0.0
 30
0.0
 70
9
  0
VERTEX
  8
SCAN
 10
68.0
 20
27.5
 30
0.0
  0
VERTEX
  8
SCAN
 10
68.25
 20
27.5
 30
0.0
  0
VERTEX
  8
SCAN
 10
68.25
 20
30.0
 30
0.0
  0
VERTEX
  8
SCAN
 10
68.0
 20
30.0
 30
0.0
  0
SEQEND
  0
POLYLINE
 62
256
  8
SCAN
 66
1
 10
0.0
 20
0.0
 30
0.0
 70
9
  0
VERTEX
  8
SCAN
 10
69.0
 20
27.5
 30
0.0
  0
VERTEX
  8
SCAN
 10
69.25
 20
27.5
 30
0.0
  0
VERTEX
  8
SCAN
 10
69.25
 20
30.0
 30
0.0
  0
VERTEX
  8
SCAN
 10
69.0
 20
30.0
 30
0.0
  0
SEQEND
  0
POLYLINE
 62
256
  8
SCAN
 66
1
 10
0.0
 20
0.0
 30
0.0
 70
9
  0
VERTEX
  8
SCAN
 10
70.0
 20
25.0
 30
0.0
  0
VERTEX
  8
SCAN
 10
70.25
 20
25.0
 30
0.0
  0
VERTEX
  8
SCAN
 10
70.25
 20
30.0
 30
0.0
  0
VERTEX
  8
SCAN
 10
70.0
 20
30.0
 30
0.0
  0
SEQEND
  0
POLYLINE
 62
256
  8
SCAN
 66
1
 10
0.0
 20
0.0
 30
0.0
 70
9
  0
VERTEX
  8
SCAN
 10
71.0
 20
27.5
 30
0.0
  0
VERTEX
  8
SCAN
 10
71.25
 20
27.5
 30
0.0
  0
VERTEX
  8
SCAN
 10
71.25
 20
30.0
 30
0.0
  0
VERTEX
  8
SCAN
 10
71.0
 20
30.0
 30
0.0
  0
SEQEND
  0
POLYLINE
 62
256
  8
SCAN
 66
1
 10
0.0
 20
0.0
 30
0.0
 70
9
  0
VERTEX
  8
SCAN
 10
72.0
 20
27.5
 30
0.0
  0
VERTEX
  8
SCAN
 10
72.25
 20
27.5
 30
0.0
  0
VERTEX
  8
SCAN
 10
72.25
 20
30.0
 30
0.0
  0
VERTEX
  8
SCAN
 10
72.0
 20
30.0
 30
0.0
  0
SEQEND
  0
POLYLINE
 62
256
  8
SCAN
 66
1
 10
0.0
 20
0.0
 30
0.0
 70
9
  0
VERTEX
  8
SCAN
 10
73.0
 20
27.5
 30
0.0
  0
VERTEX
  8
SCAN
 10
73.25
 20
27.5
 30
0.0
  0
VERTEX
  8
SCAN
 10
73.25
 20
30.0
 30
0.0
  0
VERTEX
  8
SCAN
 10
73.0
 20
30.0
 30
0.0
  0
SEQEND
  0
POLYLINE
 62
256
  8
SCAN
 66
1
 10
0.0
 20
0.0
 30
0.0
 70
9
  0
VERTEX
  8
SCAN
 10
74.0
 20
27.5
 30
0.0
  0
VERTEX
  8
SCAN
 10
74.25
 20
27.5
 30
0.0
  0
VERTEX
  8
SCAN
 10
74.25
 20
30.0
 30
0.0
  0
VERTEX
  8
SCAN
 10
74.0
 20
30.0
 30
0.0
  0
SEQEND
  0
POLYLINE
 62
256
  8
SCAN
 66
1
 10
0.0
 20
0.0
 30
0.0
 70
9
  0
VERTEX
  8
SCAN
 10
75.0
 20
20.0
 30
0.0
  0
VERTEX
  8
SCAN
 10
75.25
 20
20.0
 30
0.0
  0
VERTEX
  8
SCAN
 10
75.25
 20
30.0
 30
0.0
  0
VERTEX
  8
SCAN
 10
75.0
 20
30.0
 30
0.0
  0
SEQEND
  0
ENDSEC
  0
EOF
